<?xml version="1.0" encoding="utf-8" ?>
<svg baseProfile="full" height="300mm" version="1.1" viewBox="0,0,200,300" width="200mm" xmlns="http://www.w3.org/2000/svg" xmlns:ev="http://www.w3.org/2001/xml-events" xmlns:xlink="http://www.w3.org/1999/xlink"><defs /><rect fill="#222222" height="300" width="200" x="0" y="0" /><text fill="#FFFFFF" style="font-size:12px; font-family:Arial; font-weight:bold;" x="10" y="20">Over 10km Runs</text><text fill="#FFFFFF" style="font-size:4px; font-family:Arial" x="10" y="280">ATHLETE</text><text fill="#FFFFFF" style="font-size:9px; font-family:Arial" x="10" y="290">Chongnuo Ji</text><text fill="#FFFFFF" style="font-size:4px; font-family:Arial" x="120" y="280">STATISTICS</text><text fill="#FFFFFF" style="font-size:3px; font-family:Arial" x="120" y="285">Number: 3</text><text fill="#FFFFFF" style="font-size:3px; font-family:Arial" x="120" y="290">Weekly: 1.5</text><text fill="#FFFFFF" style="font-size:3px; font-family:Arial" x="141" y="285">Total: 39.4 km</text><text fill="#FFFFFF" style="font-size:3px; font-family:Arial" x="141" y="290">Avg: 13.1 km</text><text fill="#FFFFFF" style="font-size:3px; font-family:Arial" x="167" y="285">Min: 10.7 km</text><text fill="#FFFFFF" style="font-size:3px; font-family:Arial" x="167" y="290">Max: 14.4 km</text><polyline fill="none" points="41.77716869633878,34.5 41.79101096934755,34.56530524092523 41.65950937566231,35.01427722858352 41.590298010531114,35.3571267496809 41.51416550891008,35.64283348333993 41.46571755333571,35.8632350750122 41.431111870799214,35.92037612237618 41.47263868985465,36.018332102037675 41.44495414380799,36.05098406673642 41.431111870799214,36.09996198706358 41.348058232688345,36.35301406446524 41.26500459451927,36.88360435040522 41.216556638944894,37.02237349651841 41.09889731826843,37.18563098587765 41.07813390874071,37.242771022967645 41.08505504525965,37.29991101640189 41.140424137352966,37.47949356872414 41.147345273871906,37.585610328795156 41.133503000834025,37.773354997014394 41.09197618177859,38.12435463441943 40.960474588064244,38.55697982819402 40.88434208644321,39.04674117873219 40.711313673702534,39.8466778216316 40.62826003556256,40.295618108175404 40.46215275931172,41.422038238517416 40.43446821326506,41.519987013496575 40.4067836671893,41.47917503951612 40.39294139420963,41.5036622265543 40.39986253072857,41.49549983176985 40.43446821326506,41.48733743610501 40.44831048627384,41.49549983176985 40.441389349784004,41.528149405618024 40.38602025769069,41.68323468675953 40.29604548306088,42.017891303221404 40.2475975274574,42.368871024256805 40.21991298143985,42.613739621883724 40.15762275282759,42.8422829231713 39.91538297495572,43.96866470779787 39.770039108232595,44.531849240505835 39.70774887962034,44.86649311423389 39.59701069543371,45.2337834477803 39.52087819384178,45.54393832520145 39.403218873165315,46.18056799272745 39.25787500644219,46.7927067952769 39.22326932387659,47.01307553816878 39.21634818735765,47.23344363200886 39.24403273340431,47.43748758462607 39.28555955248885,47.600722346083785 39.396297736646375,47.927190800626704 39.52087819384178,48.20468786700803 39.686985470121726,48.50666879929486 39.81848706380697,48.65357800132915 39.95690979401115,48.75967891231994 39.99843661309569,48.947395540111756 40.16454388934653,49.44525040267763 40.3168088925886,49.812518260092475 40.38602025769069,50.04103957272309 40.4759950323496,50.43278877068224 40.559048670431366,51.06937684321019 40.586733216478024,51.44479803966533 40.57981207998819,51.82021735266608 40.56596980695031,52.08137750306196 40.54520639742259,52.24460213423299 40.45523162279278,52.62817861609801 40.36525684813387,52.864852485807205 40.330651165597374,53.04439768072916 40.289124346512835,53.142331241884676 40.06072684167884,53.43613115634071 39.83232933681575,53.7870573202963 39.68006433357368,53.95027823121927 39.562405012897216,54.097176746683544 39.47935137475724,54.23591396876145 39.45166682873969,54.32568497540342 39.42398228269303,54.46442177384597 39.37553432714776,55.06833190015459 39.36861319062882,55.30499805301952 39.3824554636376,55.533502593913 39.37553432714776,55.65591545384814 39.313244098535506,55.97418795262638 39.26479614293203,56.4883175916184 39.23711159688537,56.63521112548915 39.1886636413401,56.782104371064634 39.126373412727844,56.88819375799358 39.06408318414469,56.945318750236765 38.676499539549695,57.20646101661259 38.62805158394622,57.27174644083425 38.60036703792866,57.36151380618685 38.572682491882006,57.59001206848188 38.524234536336735,58.340787161752814 38.48962885374203,58.5366402954096 38.4827077172522,58.66720876647014 38.50347112675081,58.94466601120803 38.55884021887323,59.222122227496584 38.55884021887323,59.303726801255834 38.54499794586445,59.377170841580664 38.510392263298854,59.41797305506043 38.468865444214316,59.450614809837134 38.16433543775929,59.51589827668795 38.018991571007064,59.57302126346622 37.79751520269201,59.630144206646946 37.569117697828915,59.72806915068213 37.43761610411457,59.75255036667659 37.20229746279074,59.75255036667659 37.05003245951957,59.793352375556424 37.195376326242695,60.095286549883895 37.23690314532723,60.250333355303155 37.28535110090161,60.73179244095081 37.34764132948476,61.13980619110953 37.34764132948476,61.36829291978211 37.368404739012476,61.44173493443668 37.444537240604404,61.56413813211839 37.465300650161225,61.64574015269318 37.472221786680166,61.96398718303681 37.52066974225454,62.20063153364754 37.624486789893126,62.87791985099466 37.70061929154326,63.18800161397667 37.77675179313519,63.661281828637584 37.81827861221973,63.832641168584814 37.9013322503306,64.05295974357432 37.922095659858314,64.29775739978504 38.01207043454633,64.86078897137486 38.088202936109155,65.18718214650289 38.129729755193694,65.46461522654863 38.2197045298235,65.83996422789642 38.27507362191682,66.23979044205771 38.26815248539788,66.50905995450739 38.28199475843576,66.63145486727444 38.31660044097225,66.85992483579321 38.38581180610345,67.12919211795088 38.37889066958451,67.3576605676426 38.42041748863994,67.43925627357385 38.51731339978869,67.50453277429187 38.496549990260974,67.54533055835054 38.4827077172522,67.61876651361672 38.48962885374203,67.82275490033498 38.53115567279747,67.93698815414245 38.62113044745638,68.12465669277299 38.65573613002198,68.24704896454932 38.69034181255847,68.43471672600572 38.71110522208619,68.74477547525021 38.773395450698445,69.01403597903118 38.801079996716,69.20170181815047 38.835685679281596,69.32409232937061 38.870291361847194,69.56887275166082 38.94642386343912,69.97683834396594 38.9948718190426,70.14818322989595 39.05716204762575,70.53166798245365 39.10561000320013,70.7030115988091 39.11945227623801,71.07017517071654 39.209427050867816,71.42101867964084 39.209427050867816,71.49445083394676 39.181742504792055,71.60867848638736 39.181742504792055,71.65763314123615 39.25787500644219,71.82081509293494 39.306322962016566,71.975837617676 39.43090341921197,72.30219977866363 39.43782455573091,72.55512947512761 39.46550910177757,72.78358136992028 39.5416416033695,73.04466839629458 39.59701069543371,73.33023128913192 39.68006433357368,73.62395198572631 39.686985470121726,73.69738197987317 39.652379787527025,73.89319494559459 39.659300924045965,73.9666246757406 39.686985470121726,74.03189548655791 39.80464479079819,74.17875460285723 39.825408200296806,74.22770757763647 39.825408200296806,74.26850169880345 39.77696024472243,74.36640749903017 39.770039108232595,74.43167796138732 39.770039108232595,74.51326595935825 39.79080251773121,74.59485386842425 39.92230411147466,74.93752211594983 39.97767320353887,75.59021920237137 40.046884568670066,75.98183472386154 40.129938206780935,76.26738641733391 40.136859343299875,76.2510692070282 40.11609593377216,76.26738641733391 40.129938206780935,76.26738641733391 39.97767320353887,76.17764171669842 40.17146502583637,76.25922781263944 40.136859343299875,76.24291060055839 40.15762275282759,76.24291060055839 40.143780479818815,76.21027616573701 40.226834117929684,76.21843477576476 40.20607070840197,76.35713101043075 40.226834117929684,76.5692541666067 40.38602025769069,77.62170247970062 40.45523162279278,77.89908949500386 40.482916168810334,78.1601586886245 40.510600714886095,78.28253455989034 40.53136412441381,78.33964323138207 40.6005754894868,78.38859348659025 40.57289094346925,78.42938534147834 40.56596980695031,78.5599191278452 40.57289094346925,78.99231067035726 40.586733216478024,79.19626807871828 40.607496626034845,79.30232571158558 40.65594458160922,79.40022493173456 40.72515594671131,79.49812402393582 40.77360390231479,79.53075702620845 40.77360390231479,79.55523176860879 40.72515594671131,79.57154825906764 40.81513072134112,79.58786474602675 40.808209584851284,79.65313065818191 40.83589413086884,79.69392182440788 40.93971117853653,80.08551588997216 40.94663231505547,80.2160467902213 40.92586890552775,80.3384193025995 40.93279004201759,80.39552640663169 40.967395724583184,80.4444753183052 41.07813390874071,80.53421490660548 41.147345273871906,80.60763812616642 41.55569232799462,81.26028580359707 41.79101096934755,81.529501313933 41.90174915353418,81.7089777833171 42.17167347742361,82.19029891917307 42.41391325529548,82.64714323820954 42.71152212526067,83.2916153080223 42.87762940154062,83.58529694393656 43.341345547756646,84.54791201239277 43.61126987164607,84.98842664722179 43.83966737650917,85.4452539030317 44.02653806228773,85.86129058736697 44.03345919880667,85.85313302753639 44.01961692579789,85.88576326156908 43.99193237975123,85.91839348137 44.005774652789114,85.893920817849 44.0749860178621,85.87760570437968 44.06806488140137,85.91839348137 44.109591700456804,85.95918123617594 44.171881929039955,86.06522929471248 44.268777840188704,86.34258504578611 44.51793875457952,86.75861674724729 44.6563614847837,87.10938677893137 45.28618490725057,88.30851843777054 45.3969230914081,88.56139409240131 45.56995150423609,88.84689783801878 45.92985060275532,89.5239452287642 46.15824810761842,89.89101655776176 46.31051311083138,90.28255732664547 46.48354152360116,90.64962493935309 46.65656993637094,90.935120728318 46.77422925704741,91.19614449774235 47.189497447689064,92.02815169470705 47.43173722556094,92.37074020843284 47.4594217716367,92.43599498586264 47.4594217716367,92.58281802728015 47.473264044645475,92.6480726200316 47.743188368564006,93.0559125372456 48.206904514780035,93.9857792491166 48.559882476809435,94.6627802110088 48.77443770863465,95.1032353843184 48.933623848395655,95.45396635614452 49.16202135325875,95.85363453244645 49.286601810425054,96.10648472690809 49.47347249626182,96.449054597324 49.61881636295584,96.75899741656758 49.69494886457687,96.96290646701527 49.77800250268774,97.12603330796992 49.97179432498524,97.56647400507791 50.13098046471714,97.79484964386938 50.25556092194165,98.01506835081818 50.490879563294584,98.3902542872529 50.65698683957453,98.60231507272692 50.90614775393624,98.90409284841007 51.52212890339433,99.4913326049791 51.93739709403599,99.75232657553715 52.3457441481587,100.03778769026394 52.55337824346498,100.16012783521 52.86482938649715,100.3150917321691 53.134753710386576,100.47005530873867 53.6330755391682,100.69026615593611 54.581271241098875,101.15515359776327 55.10035647943732,101.42429764102417 55.61252058122773,101.63634984294185 56.11776354649919,101.93811540376191 56.477662645076634,102.09307562508911 56.899851972208126,102.30512593517778 58.06260290599312,102.85971621791396 58.14565654413309,102.91680616116355 58.17334109017975,102.98205175735347 58.22178904572502,102.9657403636229 58.194104499707464,102.99020745288726 58.187183363188524,102.98205175735347 58.22178904572502,102.99020745288726 58.65782064592349,103.16147685404576 59.439909071603324,103.52848139606067 59.820571579708485,103.75683887094056 60.89334773889277,104.26248508990102 61.21172001838568,104.46637372947589 62.00072958061355,105.03725897022377 62.26373276798404,105.20036824053386 62.79666027930216,105.57551821548986 63.91788439406082,106.4562977356909 64.22241440051585,106.6438698155398 64.67920941024204,107.02716782384232 65.12908328342019,107.33706690856343 65.4128498803475,107.5001711754885 65.66201079473831,107.62249914280983 65.67585306774708,107.63880952339241 65.66201079473831,107.64696471233037 65.65508965824847,107.63065433354495 65.68277420426602,107.62249914280983 65.98038307423121,107.72851655306295 66.32643989977078,107.89977512985934 66.94242104922887,108.16889496020303 67.25387219217373,108.33199741756835 68.1466988020693,108.75606214621803 68.68654744993546,109.05779905040981 69.14334245963255,109.27798467360117 69.23331723426236,109.33506972961186 69.26792291679885,109.3758447430082 69.2748440533469,109.4166197342638 69.2748440533469,109.46554969445424 69.25408064379008,109.52263460767426 69.06028882152168,109.89776295622141 68.79728563409299,110.4686068422161 68.55504585622111,110.92527882204013 68.45122880855342,111.15361376898363 68.06364516392932,111.95278060785495 67.96674925280968,112.10772013170208 67.68298265588237,112.71116575213819 67.47534856054699,113.12705112336698 67.3369258303137,113.33907022891799 67.28847787476843,113.46138867099216 67.30232014777721,113.42877043927729 67.3369258303137,113.43692499853933 67.80756311307778,113.61632507783361 68.54812471973128,113.95881494659261 68.8180490436207,114.0729778885725 69.7870081551373,114.56224567150639 70.28532998391893,114.79056954447879 70.61062339990167,114.96181199302373 71.11586636520224,115.19013464947784 71.25428909537732,115.2390608425776 72.0086929750687,115.41845661082334 72.27169616246829,115.45107397712854 72.49317253081244,115.5 72.56238389588543,115.5 72.63159526101663,115.47553699256969 72.69388548957068,115.41030226703151 72.7492545817222,115.33691313302552 72.78386026425869,115.2553695665265 72.88075617540744,114.57040010752098 72.94996754050953,114.28499431976525 72.94996754050953,114.16267722107295 72.92920413101092,114.06482339849754 72.90151958493516,113.99958744581818 72.85999276585062,113.94250594069308 72.81154481027625,113.901733410421 72.7492545817222,113.87726988163195" stroke="#4dd2ff" stroke-linecap="round" stroke-linejoin="round" stroke-width="0.5"><title>2023-07-21 14.4km</title></polyline><polyline fill="none" points="131.77716869630967,34.5 131.7840898328286,34.56530524092523 131.65258823911427,35.04692963164416 131.58337687404128,35.40610512439889 131.51416550888098,35.64283348333993 131.45879641678766,35.88772410065576 131.4311118707701,35.92037612237618 131.47263868982554,36.018332102037675 131.4311118707701,36.075473030919966 131.4311118707701,36.09996198706358 131.35497936914908,36.32852519118023 131.2719257310091,36.88360435040522 131.19579322938807,37.06318790226214 131.1127395913063,37.16930525297357 131.0781339087116,37.242771022967645 131.0781339087116,37.29991101640189 131.11966072779614,37.41419087232498 131.1473452738428,37.528470553625084 131.14042413732386,37.716215365275275 131.09889731823932,38.07537803969899 131.0573704991839,38.26312147859426 130.99508027060074,38.442701718289754 130.94663231502636,38.6304442351975 130.87742094989517,39.095717137395695 130.69747140063555,39.887490686283854 130.46215275928262,41.438363043278514 130.43446821323596,41.519987013496575 130.4067836671602,41.47917503951612 130.39294139418053,41.5036622265543 130.39986253069947,41.49549983176985 130.43446821323596,41.48733743610501 130.44831048624474,41.49549983176985 130.44831048624474,41.528149405618024 130.37909912114264,41.68323468675953 130.3168088925595,41.936267876269994 130.26836093695601,42.14848860108759 130.22683411790058,42.613739621883724 130.1576227527985,42.8422829231713 130.01227888607536,43.536070810921956 129.7561968351656,44.605307780038856 129.69390660658246,44.9154652629004 129.5762472858769,45.30724129810551 129.50011478431406,45.63371976025519 129.417061146145,46.13975856117759 129.2578750064131,46.77638315887452 129.2232693238475,47.01307553816878 129.21634818732855,47.225281862338306 129.2440327333752,47.46197282153298 129.30632296198746,47.68233959324425 129.37553432711866,47.870058923916076 129.45858796520042,48.08226281754469 129.67314319705474,48.482183904226986 129.83232933678664,48.66990122820425 129.9499886574631,48.74335570506082 129.9638309305301,48.76784051463619 129.9845943400578,48.92291078929702 130.06764797813958,49.14327325834165 130.17146502580727,49.469734982572845 130.3375723020872,49.85332568852027 130.42754707671702,50.196107208808826 130.48983730530017,50.50624151698139 130.55904867040226,51.06937684321019 130.57981207995908,51.3713462146261 130.57981207995908,51.96712004940491 130.53828526087455,52.293569454144745 130.46215275928262,52.603695069607056 130.36525684810476,52.864852485807205 130.33065116556827,53.04439768072916 130.29604548303178,53.126008990599075 129.97075206701993,53.55854744694079 129.8254082002677,53.8033794274088 129.67314319705474,53.95027823121927 129.54856273988844,54.11349878615874 129.49319364776602,54.211430948264024 129.44474569219165,54.32568497540342 129.42398228266393,54.46442177384597 129.36861319059972,55.117297372504254 129.3824554636085,55.5987894774662 129.36861319059972,55.704880541765306 129.3132440985064,55.94970550079597 129.26479614290292,56.4883175916184 129.2440327333752,56.63521112548915 129.188663641311,56.782104371064634 129.14021568570752,56.87187232365977 129.0640831841156,56.945318750236765 128.66957840297255,57.20646101661259 128.641893856955,57.247264413454104 128.6072881744185,57.32887114033656 128.5726824918529,57.6144939837759 128.53115567276836,58.340787161752814 128.4827077172231,58.60192455941433 128.49654999023187,58.92018453100172 128.55884021884413,59.222122227496584 128.54499794583535,59.377170841580664 128.51039226326975,59.41797305506043 128.4481020346575,59.450614809837134 128.1643354377302,59.51589827668795 128.01899157097796,59.57302126346622 127.77675179310609,59.63830462353508 127.61756565337419,59.711748335575976 127.5483542882721,59.736229556910985 127.4445372405753,59.75255036667659 127.20229746276163,59.75255036667659 127.04311132300063,59.793352375556424 127.19537632621359,60.095286549883895 127.24382428178797,60.250333355303155 127.2853511008725,60.78075420840469 127.3545624659746,61.13980619110953 127.34764132945566,61.36829291978211 127.37532587547321,61.45805537236447 127.43761610408546,61.54781771732087 127.46530065013212,61.64574015269318 127.46530065013212,61.94766685544164 127.52066974222544,62.20063153364754 127.59680224387557,62.76367887767992 127.638329062931,62.97584054645995 127.707540428004,63.22880175033788 127.72830383753171,63.42464209532773 127.77675179310609,63.661281828637584 127.83904202168924,63.90608076562785 127.9013322503015,64.05295974357432 127.93593793286709,64.4364757163421 128.01899157097796,64.90974803835707 128.095124072599,65.2361410000376 128.1297297551646,65.46461522654863 128.19201998377685,65.67676924114494 128.22662566634244,65.8644434452217 128.2750736218877,66.25610983400111 128.26815248536877,66.53353895303735 128.28199475840665,66.63145486727444 128.30967930448242,66.82728631156351 128.38581180607434,67.15367091377993 128.3788906695554,67.3576605676426 128.40657521560206,67.42293713951221 128.51039226326975,67.50453277429187 128.48962885371293,67.56980921809736 128.47578658070415,67.65956423540774 128.48962885371293,67.82275490033498 128.6280515839171,68.14913516311935 128.66265726651181,68.24704896454932 128.69034181252937,68.45919509498344 128.71110522205709,68.74477547525021 128.78031658718828,69.03035476632067 128.8010799966869,69.20170181815047 128.8356856792525,69.32409232937061 128.86337022529915,69.52807607020804 128.93258159040124,69.8299709868079 128.94642386341002,69.97683834396594 128.9948718190135,70.14818322989595 129.05716204759665,70.53166798245365 129.10561000317102,70.7030115988091 129.11253113966086,71.05385682798806 129.2094270508387,71.40470041335357 129.2094270508387,71.49445083394676 129.18174250476295,71.5923602609837 129.18174250476295,71.67395135240076 129.25095386992325,71.79633782285964 129.3132440985064,72.0003148290998 129.3824554636085,72.14717792955344 129.43090341918287,72.31851784938044 129.4378245557018,72.57144749072904 129.46550910174847,72.82437627780018 129.54856273988844,73.07730421057204 129.5970106954046,73.33023128913192 129.68006433354458,73.62395198572631 129.68698547009262,73.72185862855986 129.65237978749792,73.86871835287457 129.65237978749792,73.95030696414324 129.6662220605649,73.99926008826151 129.8046447907691,74.17875460285723 129.8254082002677,74.23586640364374 129.81848706377787,74.28481934109004 129.78388138124137,74.33377224651485 129.76311797168455,74.4887895692882 129.8046447907691,74.63564778964792 129.92230411144556,74.93752211594983 129.93614638445433,75.12517311089323 129.95690979398205,75.27203008335346 129.97075206701993,75.54942580112402 130.04688456864096,76.00631062594039 130.13685934327077,76.26738641733391 130.13685934327077,76.2510692070282 130.11609593374305,76.26738641733391 130.12993820675183,76.26738641733391 129.97767320350977,76.17764171669842 130.17146502580727,76.25922781263944 130.13685934327077,76.24291060055839 130.1576227527985,76.24291060055839 130.13685934327077,76.21027616573701 130.22683411790058,76.21843477576476 130.20607070837286,76.35713101043075 130.22683411790058,76.52846129862155 130.37909912114264,77.60538556444953 130.45523162276368,77.89908949500386 130.48291616878123,78.1601586886245 130.510600714857,78.28253455989034 130.5313641243847,78.33964323138207 130.6005754894577,78.38859348659025 130.57289094344014,78.42938534147834 130.55904867040226,78.54360241699032 130.57981207995908,79.14731835136627 130.60749662600574,79.30232571158558 130.64902344506118,79.40022493173456 130.7251559466822,79.49812402393582 130.77360390228569,79.53075702620845 130.77360390228569,79.55523176860879 130.7251559466822,79.57154825906764 130.82205185783096,79.58786474602675 130.80820958482218,79.65313065818191 130.83589413083973,79.69392182440788 130.94663231502636,80.10999045108474 130.94663231502636,80.2160467902213 130.92586890549865,80.3384193025995 130.93971117850742,80.4118427141002 131.0781339087116,80.53421490660548 131.17502981988946,80.64027064509719 131.54185005495674,81.24396968095971 131.74948415026302,81.48055311130884 131.80485324232723,81.55397540327249 132.1716734773945,82.19029891917307 132.38622870924883,82.59819576586597 132.71152212523157,83.2916153080223 132.8776294015115,83.59345475072041 133.02297326826374,83.90345075028745 133.2098439540132,84.25423415013938 133.31366100168088,84.49080807379505 133.45208373191417,84.73553893281496 133.59050646211836,84.9476383639485 133.7566137383692,85.2984168746043 133.83966737648007,85.4452539030317 133.94348442414775,85.68998164420191 134.02653806225862,85.86129058736697 134.03345919877756,85.85313302753639 134.0196169257688,85.88576326156908 133.99193237972213,85.91839348137 134.00577465276,85.893920817849 134.074986017833,85.87760570437968 134.06806488137227,85.91839348137 134.1095917004277,85.95918123617594 134.1788030655007,86.08970190228138 134.25493556712172,86.31811252082844 134.5179387545504,86.75861674724729 134.6563614847546,87.10938677893137 135.32079058978707,88.3656194666546 135.39000195491826,88.56139409240131 135.56995150420698,88.84689783801878 135.74297991694766,89.18950089674763 135.9644562852627,89.58920248533104 136.1720903805981,89.90733079729398 136.28974970127456,90.23361484241468 136.46969925056328,90.62515382112178 136.65656993634184,90.935120728318 136.76038698400953,91.17983053879288 137.21026085718768,92.06893612371641 137.41789495252306,92.3462696522547 137.4594217716076,92.43599498586264 137.4594217716076,92.60728850621672 137.48710631759604,92.6725430776496 137.75703064154368,93.08038286172086 138.19306224174215,93.96130922032171 138.5737247497891,94.67909341172344 138.78827998161432,95.12770504025684 138.9405449848564,95.47843589757395 139.1551002167107,95.83732158737257 139.27275953738717,96.09017183686228 139.47347249623272,96.449054597324 139.6118952264078,96.74268466854846 139.7018700010376,96.97921916711493 139.77800250265864,97.12603330796992 139.97179432495614,97.56647400507791 140.15174387424486,97.82747467833542 140.4770372902567,98.37394189428596 140.67775024904404,98.63493975571328 140.89230548089836,98.88778056729643 141.4806020843098,99.45870829476189 141.94431823049672,99.75232657553715 142.3457441481296,100.03778769026394 142.54645710694604,100.16012783521 142.87175052292878,100.3150917321691 143.19012280242168,100.49452321259014 143.65383894866682,100.69842210082425 144.06218600278953,100.9104763561918 144.6020346506557,101.16330949204712 145.12804102542577,101.43245350602956 145.61252058119862,101.63634984294185 146.13160581947886,101.9462712128734 146.44305696245283,102.06860824302566 146.9136942451878,102.32143747262307 148.0418394964363,102.85156050817022 148.14565654410399,102.91680616116355 148.1664199536317,102.94942896635621 148.17334109015064,102.98205175735347 148.2217890456959,102.9657403636229 148.2010256361973,102.99020745288726 148.18718336315942,102.99020745288726 148.18718336315942,102.98205175735347 148.2217890456959,102.99020745288726 148.69934746494982,103.17778820516105 149.43990907157422,103.52848139606067 149.82057157967938,103.75683887094056 150.91411114839138,104.27064064614387 151.53701343433931,104.69472834744374 152.01457185359322,105.04541444218194 152.27757504102192,105.20852369474596 152.76205459673656,105.55105197000375 153.4749316573434,106.097462883954 153.7586982542707,106.33396786553931 153.95249007659731,106.4807636857513 154.11167621632922,106.5704721010552 154.25702008302324,106.66833570442395 154.71381509274943,107.05163358763821 155.0806353278167,107.3044460125966 155.3436385152163,107.46755035047681 155.67585306771798,107.63065433354495 155.6620107947092,107.64696471233037 155.65508965821937,107.63065433354495 155.67585306771798,107.62249914280983 155.91809284561896,107.70405101016513 156.32643989974167,107.89977512985934 156.92165763964294,108.16073982803209 157.25387219214463,108.33199741756835 158.20898903065245,108.78052734585799 158.7626799515274,109.0985742145931 159.12257905007573,109.261674649606 159.21255382470554,109.31875971804402 159.25408064376097,109.35953474033158 159.2748440533178,109.4166197342638 159.2610017802799,109.50632463689544 159.0464465484256,109.92222778332507 158.8180490435916,110.42783242306177 158.5688881292299,110.88450465120695 158.45122880852432,111.15361376898363 158.34741176088573,111.3493288843747 158.07056630044826,111.9364711656599 157.96674925278057,112.10772013170208 157.89753788764938,112.27896870669065 157.48919083352666,113.0862781497417 157.32308355730493,113.35537936605397 157.28847787473933,113.46138867099216 157.28847787473933,113.43692499853933 157.31616242075688,113.43692499853933 157.83524765909533,113.62447961670841 158.54120358315413,113.95881494659261 158.8180490435916,114.0729778885725 159.8077715646359,114.57855454262608 160.264566574333,114.78241513240937 160.652150218928,114.98627516802662 161.13662977467175,115.1982890172294 162.0086929750396,115.41845661082334 162.2578538894304,115.44291963689466 162.50009366730228,115.5 162.56238389585633,115.5 162.63159526098752,115.47553699256969 162.6800432165619,115.42661095375661 162.7492545816931,115.33691313302552 162.77693912771065,115.27983264577051 162.88075617537834,114.59486341018055 162.95688867699937,114.26053091598442 162.95688867699937,114.18714065678068 162.91536185794394,114.0158964393122 162.88075617537834,113.95881494659261 162.81154481024714,113.901733410421 162.72849117213627,113.86911537024571" stroke="#4dd2ff" stroke-linecap="round" stroke-linejoin="round" stroke-width="0.5"><title>2023-07-21 14.3km</title></polyline><polyline fill="none" points="40.80902654444799,184.5 40.696474210417364,185.06410564644466 40.63081868219888,185.40699185866106 40.57454251515446,185.61714735104033 40.46199018106563,185.8936670721523 40.3494378469768,186.46882567636203 40.31192040228052,186.60155412169843 40.27440295758424,186.9886777615393 40.23688551294617,187.15458744041098 40.2275061517139,187.3204968478385 40.30254104110645,187.56383015432948 40.43385209754342,187.92882901915436 40.555783792806324,188.12791875524272 40.87468207272468,188.72518561816833 41.07164865738014,189.0016968633645 41.25923588080332,189.3335093622445 41.428064381936565,189.55471709160338 41.52185799367726,189.84228641832306 41.77510074537713,190.35106092167553 41.82199755118927,190.77135097734572 41.89703244064003,190.95937491196673 42.00958477467066,191.446023476783 42.00958477467066,191.57874540731427 42.04710221942514,191.76676784489246 42.056481580541,192.0322106926469 42.09399902523728,192.25341253502847 42.1502751922817,192.44143372165854 42.131516469991766,192.82853506708489 42.169033914629836,193.5031938801112 42.12213710875949,193.6248531884048 42.11275774758542,193.71333259368112 42.06586094171507,194.05618955993123 42.04710221942514,194.4875240969268 41.96268796880031,194.6091822243834 41.92517052416224,194.80825884540536 41.82199755118927,195.04051440934563 41.76572138420306,195.29488894055248 41.568754799547605,195.61562113565742 41.3248914090218,195.85893453813333 41.04351057379972,196.21284389963694 40.827785266854335,196.42297699868504 40.724612293881364,196.46721549038193 41.21233907493297,196.74370562627882 41.30613268673187,196.8211227292777 41.75634202302899,197.1086714514895 41.95330860768445,197.31880269446992 42.178413275803905,197.46257645199512 42.319103693414945,197.6063500056989 42.71303686272586,197.86071810143767 42.910003447323106,198.01555054300115 43.02255578141194,198.12614499943447 43.500903201289475,198.43580883582763 43.8291808423819,198.72335298021062 43.94173317641253,198.778649837579 44.0730442328495,198.88924346191925 44.27939017867902,199.08831168180768 44.29814890102716,199.14360834020772 44.18559656693833,199.36479467236495 44.12932039989391,199.44220977467194 44.119941038719844,199.48644694941322 44.13869976112619,199.541743390786 44.33566634572344,199.64127690924943 44.52325356914662,199.7850473745857 44.88904865493532,199.98411383630446 45.13291204551933,200.16106147426763 45.40491351945093,200.27165359126957 45.67691499349894,200.4043639724623 45.90201966173481,200.6144883875677 46.15526241337648,200.6476658870306 46.483540054468904,200.6034292186814 46.924370029591955,200.73613916579052 47.78727125754813,200.90202635549213 48.04989337042207,200.90202635549213 48.21872187155532,200.8799080792087 48.47196462325519,200.91308549182577 48.96907076542266,200.93520376088418 49.419280101777986,200.8799080792087 49.99142113333801,200.7693166254321 50.3009400520823,200.7250800101683 50.694873221335,200.6034292186814 50.97625405655708,200.55919253107277 51.070047668297775,200.5260150026661 51.73598231159849,200.4707190979243 52.233088453824166,200.39330478063494 52.51446928904625,200.3822455876434 52.60826290078694,200.39330478063494 52.67391842894722,200.4817782813043 52.68329779012129,200.54813335612562 52.664539067831356,200.80249407423253 52.67391842894722,200.8799080792087 52.65515970659908,200.95732202510408 52.52384865016211,201.27803631440474 52.373778871435206,201.7314582344843 52.233088453824166,202.09640611257782 52.0079837856465,202.77100327886728 51.820396562165115,203.23547740839422 51.520257004653104,204.21971317822317 51.45460147643462,204.34135963274457 51.29515233647544,204.4961821820907 51.26701425295323,204.55147589242551 51.26701425295323,204.71735684262967 51.220117447082885,204.89429622385796 50.97625405655708,205.63522653064865 50.89183980599046,205.96698461541382 50.55418280378217,206.90695996369323 50.49790663673775,207.17236319113726 50.39473366382299,207.41564887297136 50.34783685795264,207.61470036055834 50.26342260738602,207.8137514575501 50.197767079167534,208.023860525107 50.2071464403416,208.18973579739395 50.179008356819395,208.30031916154985 49.9632830498158,208.89746724517317 49.94452432746766,209.0191080905497 49.94452432746766,209.26238934375579 49.8413513545529,209.78212461205112 49.8413513545529,210.19127603531524 49.77569582639262,210.52301922120387 49.80383390991483,210.73312267785514 49.77569582639262,211.13121224469796 49.81321327103069,211.41872040483577 49.79445454868255,211.5624741793872 49.85073071572697,211.8057493338638 49.85073071572697,212.0379659825703 49.91638624394545,212.259124201526 49.94452432746766,212.44710830864642 49.9632830498158,212.85624898479 50.169628995645326,214.050488008681 50.22590516268974,214.22741111305368 50.24466388503788,214.3932762432305 50.310319413256366,214.6807751598608 50.338457496778574,214.93510044558207 50.50728599791182,215.56538210176222 50.54480344254989,215.8418201894965 50.65735577669693,216.21777478022705 50.68549386021914,216.5826705509171 50.68549386021914,216.84804846904444 50.8168049165979,217.30140080696583 50.83556363894604,217.4451462472498 50.83556363894604,217.69946460434585 50.84494300012011,217.76580841877148 50.929357250686735,218.031183242696 50.99501277890522,218.41818695018446 51.0325302236015,218.55087359587196 51.051288945949636,218.73884604689374 51.16384128003847,219.08161844356073 51.17322064121254,219.14796135433426 51.14508255769033,219.38016120050452 51.220117447082885,219.6565888960249 51.29515233647544,219.85561637056526 51.2763936141273,220.16521388842375 51.351428503519855,220.5411524617084 51.360807864693925,220.65172236526269 51.41708403168013,220.88391877063987 51.53901572700124,221.19351315134554 51.56715381052345,221.39253761166037 51.679706144554075,221.81269907933893 51.70784422807628,222.01172232528188 51.69846486690221,222.2328588074888 51.71722358925035,222.3876540583151 51.71722358925035,222.5313922941059 51.72660295048263,222.5756194026253 51.85791400686139,222.77464115243492 51.92356953507988,222.99577597223833 51.979845702124294,223.46015752545645 51.961086979776155,223.5043842292216 51.970466340950225,223.55966758180875 52.04550123034278,223.957706831643 52.120536119735334,224.27834842535958 52.1299154809094,224.43314055631345 52.16743292554747,224.69849794584297 52.21432973147603,224.85328943599598 52.30812334321672,225.07441972668312 52.30812334321672,225.22921064349066 52.32688206556486,225.36188838430826 52.45819312200183,225.80414626764832 52.4957105666399,225.9699924770539 52.51446928904625,226.3790786349564 52.589504178380594,226.58914926446596 52.62702162307687,226.7771068275688 52.63640098425094,227.11985207605903 52.67391842894722,227.35203368352086 52.77709140186198,227.72794563623756 52.80522948538419,227.9932944116954 52.88026437477674,228.39131627418828 52.91778181947302,228.45765309953276 53.10536904295441,228.62349497318792 53.18978329352103,228.76722437785793 53.424267322872765,229.51903640874662 53.48992285109125,229.79543649074185 53.761924325081054,230.43668178240478 53.911994103866164,230.87891755434248 54.015167076780926,231.1000347178051 54.14647813315969,231.52015600141021 54.202754300204106,231.76338331822626 54.58730810839916,232.8800103388421 54.74675724830013,233.39962466559518 55.0,234.01873613566568 55.243863390467595,234.67101020705013 55.45020933629712,235.32328008740296 55.544002948037814,235.57755365123012 55.61903783743037,235.85393723736343 55.92855675617466,236.71624919004535 56.14428206317825,237.36850592988776 56.256834397267085,237.67805003505782 56.33186928660143,237.8438768460328 56.47255970421247,238.33030059572047 56.68828501121607,238.87199702871294 57.07283881935291,239.53529484712635 57.38235773803899,240.18753347633174 57.64497985097114,240.55234308582294 57.907601963786874,240.9834800252429 58.40470810595434,241.72414690362348 59.12691891635768,242.5753544045583 59.670921864395496,243.10597365163267 59.92416461603716,243.404445759581 60.571340537047945,244.0124417840634 60.721410315833054,244.14509497835388 60.96527370635886,244.2888024099011 61.19975773565238,244.46567281571333 61.443621126178186,244.68676038973354 61.734381322574336,244.9078474823982 61.912589184823446,245.06260816082795 62.12831449188525,245.19525998318568 62.30652235413436,245.27264013286913 62.484730216441676,245.37212881012965 62.86928402457852,245.64848573542986 63.103768053872045,245.7369197927328 63.375769527920056,245.8916792076052 63.60087419609772,246.03538416740048 64.88584667688701,246.61020197280595 65.38295281905448,246.77601419663551 65.66433365427656,246.90866378074134 65.81440343306167,246.9418261497267 65.86130023887381,246.93077202794666 65.91757640591823,246.8865555287848 66.16143979644403,246.62125612949603 66.43344127049204,246.5549311713985 66.8742712456733,246.16803471897583 66.93992677389178,246.0132757252577 66.96806485741399,245.74797404446144 67.03372038557427,245.4826716705138 67.09937591385096,245.41634596870426 67.17441080318531,245.36107451746648 67.31510122079635,245.35002022358822 67.59648205596022,245.42740025537205 68.11234692053404,245.4052916808796 68.29055478284135,245.4052916808796 68.47814200632274,245.4384545407811 69.48173365188995,245.42740025537205 69.72559704235755,245.4605631080558 69.75373512593796,245.4826716705138 69.7724938482861,245.51583450518228 69.76311448705383,246.07960103715595 69.66932087537134,246.61020197280595 69.66932087537134,247.07447551725636 69.59428598597879,247.77088185396133 69.59428598597879,247.96985421587306 69.54738918005023,248.29041997886816 69.5286304577603,248.79890152741427 69.36918131780112,249.93744880556915 69.32228451193077,250.7996411639615 69.34104323427891,251.23073459825537 69.26600834488636,251.57339730480453 69.23787026136415,251.89395169331692 69.22849090019008,252.17029087136325 69.20035281666787,252.3360940172861 69.20035281666787,252.6676994970694 69.14407664962346,253.0435177319814 69.15345601079753,253.18721257194557 69.18159409431973,253.31985378224635 69.19097345555201,253.46354823122238 69.17221473314567,253.81725677804206 69.11593856610125,254.15991075805505 69.1346972885076,254.59098992968939 69.10655920498539,255.03312051280955 69.10655920498539,255.353663982125 69.05966239905683,255.6742064398568 68.93773070379393,256.14949167033774 68.86269581445958,256.52529702229367 68.71262603567448,256.9674191856684 68.61883242393378,257.32111553075083 68.48752136749681,257.6969165479386 68.32807222753763,257.9511340947138 68.13110564288218,258.3158798983495 67.95289778063307,258.7137829176645 67.88724225241458,258.9458922924605 67.6996550289332,259.36589838440705 67.53082652779995,259.8080081840526 67.23068697022973,260.37169538791204 67.06185846915469,260.7253798795937 66.96806485741399,260.9574846580508 66.5366142434068,261.8085309751623 66.3865444646799,262.23957768840773 66.09578426828375,262.7811466074563 65.85192087775795,263.344817314035 65.75812726601725,263.4884975821915 65.61743684840621,263.9084848931452 65.30791792966193,264.5384626041632 65.2235036790953,264.75950648923026 65.1015719838324,264.96949773459346 64.84832923219074,265.5" stroke="#4dd2ff" stroke-linecap="round" stroke-linejoin="round" stroke-width="0.5"><title>2023-07-06 10.7km</title></polyline></svg>