<?xml version="1.0" encoding="utf-8" ?>
<svg baseProfile="full" height="300mm" version="1.1" viewBox="0,0,200,300" width="200mm" xmlns="http://www.w3.org/2000/svg" xmlns:ev="http://www.w3.org/2001/xml-events" xmlns:xlink="http://www.w3.org/1999/xlink"><defs /><rect fill="#222222" height="300" width="200" x="0" y="0" /><text fill="#FFFFFF" style="font-size:12px; font-family:Arial; font-weight:bold;" x="10" y="20">Over 10km Runs</text><text fill="#FFFFFF" style="font-size:4px; font-family:Arial" x="10" y="280">ATHLETE</text><text fill="#FFFFFF" style="font-size:9px; font-family:Arial" x="10" y="290">Chongnuo Ji</text><text fill="#FFFFFF" style="font-size:4px; font-family:Arial" x="120" y="280">STATISTICS</text><text fill="#FFFFFF" style="font-size:3px; font-family:Arial" x="120" y="285">Number: 4</text><text fill="#FFFFFF" style="font-size:3px; font-family:Arial" x="120" y="290">Weekly: 1.3</text><text fill="#FFFFFF" style="font-size:3px; font-family:Arial" x="141" y="285">Total: 60.7 km</text><text fill="#FFFFFF" style="font-size:3px; font-family:Arial" x="141" y="290">Avg: 15.2 km</text><text fill="#FFFFFF" style="font-size:3px; font-family:Arial" x="167" y="285">Min: 10.7 km</text><text fill="#FFFFFF" style="font-size:3px; font-family:Arial" x="167" y="290">Max: 21.2 km</text><polyline fill="none" points="51.67557233772823,34.5 51.56925607795711,35.07876568687789 51.54472155647818,35.35850107665465 51.3893362537201,36.0915965175227 51.06220930046402,37.171936608312535 51.02131843130337,37.63493546130485 50.882289476139704,38.146160543539736 50.75961686868686,38.45482331224048 50.60423156589968,39.04320872891549 50.58787521824706,39.29399476497201 50.55516252297093,39.34222276726359 50.6205879135814,39.40009633523732 50.636944261263125,40.268195307202404 50.57151887062355,40.817986912385095 50.45702443696791,41.18451274911786 50.317995481862454,41.46422881239414 50.252570091193775,41.66678127110936 50.097184788406594,42.7759888849032 49.80277053051395,44.0684393271149 49.72916696604807,44.91720247094054 49.598316184739815,45.81418193545687 49.328436448297,46.7593762528777 49.22212018852588,47.444153577402176 48.99313132127281,48.44719811055256 48.86228053996456,48.85227056113217 48.54333176056389,50.16392099828954 48.199848459655186,51.350176325344364 48.17531393820536,51.58163892347511 48.019928635359975,52.42068576165184 48.019928635359975,52.84502825701202 48.068997678376036,53.105419234409055 48.232561154989526,53.40438570716651 48.42065915308194,53.91551959304343 48.73142975868541,54.40736261798156 48.80503332315129,54.57130968492129 49.050378538056975,54.908846806654765 49.48382175111328,56.085394699912285 49.71281061839545,57.088341198403214 49.761879661353305,57.54159213364619 49.761879661353305,57.87911791654915 49.663741575408494,58.39022593516711 49.63102888004505,58.698818025470246 49.46746540343156,59.44136332933704 49.33661462215241,59.8270986886273 49.254832883831114,59.94281896829489 49.00130949507002,60.21283236529416 48.79685514932498,60.521418095129775 48.469728196098,60.878219002908736 48.41248097928474,60.984294670808595 48.25709567646845,62.054687472540536 48.265273850323865,63.33721313694696 48.232561154989526,63.771146180675714 48.17531393820536,63.95436171544861 48.019928635359975,64.2050770952992 47.8645433326019,64.3593631295953 47.54559455320123,64.61007736131432 47.38203107661684,64.79329115810833 47.30842751212185,64.91864774774876 47.27571481675841,65.0343613650839 47.20211125232163,65.53578529079823 47.25118029527948,65.92149406841781 47.12850768782664,66.31684381977539 47.15304220933467,66.62540825147153 47.234823947626865,67.04004001135036 47.21846760000335,67.1557508532569 47.177576730784494,67.2136062174468 47.071260471013375,67.26181899201038 46.62146091030445,67.35824446230981 46.408828390704,67.43538476287358 46.122592306666775,67.50288247066055 45.86089074402116,67.51252499612747 45.65643639830523,67.55109508754686 45.55829831233132,67.60895019312011 45.525585616967874,67.73430279205058 45.61554552914458,67.99464992984576 45.73003996280022,68.5153419064518 45.95085065619787,69.99061919466476 46.10623595898505,70.48237282285118 46.21255221878528,70.95483941989369 46.228908566437894,71.21517707868043 46.31069030473009,71.54300859614887 46.34340300006443,72.07332171378948 46.47425378134358,72.45900198430172 46.62146091030445,73.114654585057 46.78502438691794,74.02098988443322 46.85862795141293,74.76340656227694 47.030369601852726,75.24549197770102 47.10397316631861,76.06503115495434 47.193933078466216,76.32535377542081 47.28389299061382,76.9327702443552 47.398387424240354,77.32807078555925 47.44745646722731,77.86799062229693 47.717336203641025,78.99602679097734 47.73369255135185,79.26598203189496 47.88907785410993,79.75768410434102 48.01175046159187,80.9821068024903 48.15895759049454,81.58949130250403 48.363411936268676,82.26435807925009 48.404302805429325,82.9102971731918 48.51061906522955,83.18024047213112 48.747786106338026,84.10575410247839 48.82138967080391,84.28892752763932 48.80503332315129,84.75167975493969 48.95224045208306,85.32047605245316 49.00130949507002,85.72537966371601 49.03402219043346,86.39057443181082 49.18940749319154,87.00756221078336 49.148516624059994,87.11360655210592 49.148516624059994,87.06540459454118 49.148516624059994,87.17144886655296 49.238476536178496,87.53778264667926 49.312080100673484,88.10656103717338 49.71281061839545,89.74539358671609 49.85183957347181,90.69975856028759 49.96633400709834,91.23959681672568 50.089006614580285,91.5962738583039 50.32617365565966,92.13610664667067 50.51427165378118,92.46386066187551 51.20123825559858,93.4567551240907 51.52018703497015,93.97729728507693 52.49338972082478,95.92448341134877 52.63241867598845,96.16546881472459 52.97590197689715,96.92697837739252 53.3684543207637,97.62100670338259 53.89185744593851,98.70059550661244 54.28440978980507,99.38497087602445 54.48068596172379,99.90547817828337 54.619714916858356,100.1850086146078 55.30668151867576,101.50553701854369 55.87915368680842,102.45977521203895 56.09996438026428,102.95134844947461 56.61518933158368,103.87665537495195 56.78693098202348,104.3200281831596 57.2367305427324,105.15857503275765 58.07090427345247,106.77781544146274 58.62702009396162,107.9633119653372 58.92143435191247,108.53195913715172 59.183135914441664,108.9560326170249 59.44483747702907,109.47648365764326 59.55933191071381,109.81381140209123 60.13998225264368,110.82578692577226 60.77787981147412,112.17506963587948 61.0150468525826,112.5798504402992 61.49755910859676,113.3219437767475 61.80015154031571,113.66889437230566 62.07003127675853,114.05439343999024 62.20088205803768,114.17004283308052 62.699750661704456,114.58445191829378 63.133193874760764,114.90248548261297 63.901942214841256,115.34580309107696 64.25360368957627,115.49036270104261 64.35991994934739,115.5 64.41716716618976,115.46145079793496 64.47441438300302,115.35544040575769 64.47441438300302,115.26870453596348 64.43352351384237,115.19160591374384 64.18000012511038,115.03740846790606 63.8528731718543,114.90248548261297 63.70566604292253,114.80611179584957 62.88784865982598,114.18931771726056 62.69157248790725,113.97729376067582 62.02096223377157,113.39904402656248 61.64476623755763,112.89789120302157 61.22767937218305,112.04014228991582 60.96597780959564,111.73173615588166 60.79423615912674,111.34622697797022 60.467109205870656,110.77759787735704 60.13998225264368,110.08367267245922 59.91099338539061,109.70779424940702 59.69018269199296,109.23553448206076 59.32216486960533,108.5512352484584 59.1258886976575,108.03077876986208 58.9541470471886,107.7994637974698 58.823296265880344,107.50068106386607 58.36531853140332,106.71034768228128 58.28353679308202,106.48866754020128 58.136329664092045,106.25734853935137 58.013657056639204,105.92964558704261 57.833737232373096,105.64049491604965 57.44118488850654,104.79231416722178 57.228552368906094,104.45496729282604 57.09770158762694,104.11761913309601 56.86871272037388,103.76099253808934 56.77875280819717,103.5103892065672 56.647902026888914,103.30797830561642 56.320775073661935,102.58507845329586 56.16538977090386,102.32483306155336 55.5193140382471,101.04287237405515 55.36392873545992,100.67659448242193 55.06951447756728,100.11753583145764 54.88141647944576,99.8476441847306 54.79963474115357,99.59702977599954 54.521576830913546,99.134355157541 54.30076613748679,98.710234633043 54.20262805148377,98.46925615710643 54.21080622531008,98.39214290628297 53.989995531883324,98.07405003652093 53.752828490774846,97.53425346018776 53.54837414502981,97.25471465381997 53.09039641052368,96.33897789893672 52.943189281533705,96.01123823213857 52.79598215260194,95.77025240888906 51.969986595679075,94.2182879896427 51.85549216205254,93.88090081956034 51.68375051158364,93.55315205151419 51.217594603222096,92.82053276996885 50.98860573596903,92.53133927904128 50.89864582385053,92.31926345184183 50.636944261263125,91.84691091950663 50.60423156589968,91.74087224945833 50.64512243511854,91.692672811987 50.57969704444986,91.4805949752772 50.21985739588854,90.54551845368405 50.154432005248964,90.33343786818295 50.121719309914624,90.03459618060151 50.00722487628809,89.69719306252955 49.990868528635474,89.35978865814832 49.83548322584829,88.57893353204418 49.81094870434026,88.12584159652761 49.671919749176595,87.39317738830141 49.696454270684626,87.28713338198577 49.83548322584829,87.18108924861735 50.30981730800704,87.11360655210592 50.391599046299234,87.08468538072339 50.596053392102476,87.08468538072339 51.22577277707751,86.95936019546207 52.49338972082478,86.63158579493756 52.804160326428246,86.65086667564174 53.14764362730784,86.61230491004972 53.442057885200484,86.49661951243615 53.8018975337618,86.41949583003588 54.39072604960529,86.3520125527939 54.660605786019005,86.2556077817353 55.020445434580324,86.18812437952147 55.6010957765684,86.00495488552406 56.10814255406149,85.90854973638488 56.337131421343656,85.89890921570623 56.81146550353151,85.72537966371601 57.43300671468023,85.63861476012244 57.60474836512003,85.6482553091846 57.9236971445207,85.5614903299429 58.33260583606898,85.5614903299429 58.5207038341905,85.61933365887671 58.651554615440546,85.59041199914645 58.839652613562066,85.5229280896674 58.92143435191247,85.51328752695554 58.99503791634925,85.41688184219674 58.839652613562066,84.2214426256105 58.75787087524077,83.89365808381262 58.708801832282916,83.52730921791226 58.5207038341905,82.80424779473105 58.49616931268247,82.29328082611028 58.389853052882245,81.94620724007109 58.27535861925571,81.39667127803114 58.160864185600076,80.77000329650036 58.15268601180287,80.18189546133362 58.07090427345247,79.91194301494397 57.96458801368135,79.69019574638514 57.93187531834701,79.55521887604118 57.96458801368135,79.15992828549497 57.85827175385202,78.83212499281944 57.833737232373096,78.57180974819494 57.621104712743545,77.71372814803908 57.44118488850654,76.61460023312247 57.2367305427324,76.0264647756776 57.19583967360086,75.6408000580559 57.2367305427324,75.14907510478224 57.20401784739806,74.94659932960349 57.07316706611891,74.68627265201212 57.024098023131955,73.89564619422163 56.975028980145,73.7220930991316 56.96685080631869,73.5581815300684 56.99138532776851,72.75790303738177 57.0649888922635,72.19866798615112 57.15494880444021,71.94797526382172 57.187661499745445,71.69728183100233 57.32669045488001,71.22481919949496 57.375759497866966,70.94519726967701 57.52296662682784,70.5498682055113 57.866449927707436,69.33494343768689 58.005478882842,68.61176601019542 58.10361696881591,68.26463874479668 58.10361696881591,67.77287278673612 58.54523835564032,66.5579098740127 58.60248557245359,66.24934520685201 58.89689983037533,65.50685706464719 59.01957243785728,65.12114647871931 59.076819654670544,64.8029339789864 59.232204957457725,64.340077390043 59.166779566789046,64.29186302270682 58.9541470471886,64.31114877278014 58.8641871350701,64.272577268428 58.84783078741748,64.19543420920672 58.93779069953598,64.00257626676466 58.94596887336229,63.92543297201337 58.880543482722715,63.82900375898316 58.676089136948576,63.771146180675714 57.678351929585915,63.86757545682485 57.11405793525046,64.06043369366671 56.2880623783567,64.21471998031484 55.895510034490144,64.25329150990001 54.93866369622992,64.25329150990001 54.619714916858356,64.21471998031484 54.3089443113131,64.22436286429001 53.303028930095024,63.93507588755165 52.8532293694152,63.87721837867139 52.591527806798695,63.76150324729679 52.30529172270326,63.58793026635249 51.60196877326234,63.30828419165482 51.3893362537201,63.115424314579286 50.80868591170292,62.80684763642785 49.328436448297,61.668961829964246 49.107625754899345,61.456812009448186 48.60875715120346,61.06144053121534 48.55150993436109,60.984294670808595 48.592400803550845,60.849289253194 48.894993235269794,60.51177480736078 49.49199992493959,59.557084113803285 49.54106896792655,59.39314629112778 49.565603489405476,59.12313039119181 49.78641418283223,58.62167010385019 49.81912687816657,58.39022593516711 49.761879661353305,57.869474340644956 49.753701487526996,57.377650574162544 49.68009792303201,57.078697536220716 49.663741575408494,56.625444228120614 49.5819598370872,56.220407391192566 49.33661462215241,55.49712271032331 49.18122931936523,54.92813460329489 48.67418254184304,54.031247609789716 48.30616471945541,53.22114831153158 48.24073932884494,52.73894282410765 48.17531393820536,52.42068576165184 48.43701550073456,51.48519624788605 48.559688108216505,51.17657897906611 48.73142975868541,50.405031093469006 48.85410236613825,50.02889905774646 48.92770593063324,49.62383199874603 49.02584401657805,49.27663018517342 49.074913059565006,48.591867055991315 49.18122931936523,48.061413098585035 49.24665471003391,48.003545201558154 49.328436448297,48.003545201558154 49.70463244454004,48.119280957689625" stroke="#ff6a00" stroke-linecap="round" stroke-linejoin="round" stroke-width="0.5"><title>2023-08-03 21.2km</title></polyline><polyline fill="none" points="131.77716869633878,34.5 131.79101096934755,34.56530524092523 131.6595093756623,35.01427722858352 131.59029801053111,35.3571267496809 131.51416550891008,35.64283348333993 131.4657175533357,35.8632350750122 131.4311118707992,35.92037612237618 131.47263868985465,36.018332102037675 131.444954143808,36.05098406673642 131.4311118707992,36.09996198706358 131.34805823268835,36.35301406446524 131.26500459451927,36.88360435040522 131.2165566389449,37.02237349651841 131.09889731826843,37.18563098587765 131.0781339087407,37.242771022967645 131.08505504525965,37.29991101640189 131.14042413735297,37.47949356872414 131.1473452738719,37.585610328795156 131.13350300083403,37.773354997014394 131.0919761817786,38.12435463441943 130.96047458806424,38.55697982819402 130.8843420864432,39.04674117873219 130.71131367370253,39.8466778216316 130.62826003556256,40.295618108175404 130.46215275931172,41.422038238517416 130.43446821326506,41.519987013496575 130.4067836671893,41.47917503951612 130.39294139420963,41.5036622265543 130.39986253072857,41.49549983176985 130.43446821326506,41.48733743610501 130.44831048627384,41.49549983176985 130.441389349784,41.528149405618024 130.3860202576907,41.68323468675953 130.29604548306088,42.017891303221404 130.2475975274574,42.368871024256805 130.21991298143985,42.613739621883724 130.1576227528276,42.8422829231713 129.91538297495572,43.96866470779787 129.7700391082326,44.531849240505835 129.70774887962034,44.86649311423389 129.5970106954337,45.2337834477803 129.52087819384178,45.54393832520145 129.40321887316532,46.18056799272745 129.2578750064422,46.7927067952769 129.2232693238766,47.01307553816878 129.21634818735765,47.23344363200886 129.2440327334043,47.43748758462607 129.28555955248885,47.600722346083785 129.39629773664637,47.927190800626704 129.52087819384178,48.20468786700803 129.68698547012173,48.50666879929486 129.81848706380697,48.65357800132915 129.95690979401115,48.75967891231994 129.9984366130957,48.947395540111756 130.16454388934653,49.44525040267763 130.3168088925886,49.812518260092475 130.3860202576907,50.04103957272309 130.4759950323496,50.43278877068224 130.55904867043137,51.06937684321019 130.58673321647802,51.44479803966533 130.5798120799882,51.82021735266608 130.5659698069503,52.08137750306196 130.5452063974226,52.24460213423299 130.45523162279278,52.62817861609801 130.36525684813387,52.864852485807205 130.33065116559737,53.04439768072916 130.28912434651284,53.142331241884676 130.06072684167884,53.43613115634071 129.83232933681575,53.7870573202963 129.68006433357368,53.95027823121927 129.56240501289722,54.097176746683544 129.47935137475724,54.23591396876145 129.4516668287397,54.32568497540342 129.42398228269303,54.46442177384597 129.37553432714776,55.06833190015459 129.36861319062882,55.30499805301952 129.3824554636376,55.533502593913 129.37553432714776,55.65591545384814 129.3132440985355,55.97418795262638 129.26479614293203,56.4883175916184 129.23711159688537,56.63521112548915 129.1886636413401,56.782104371064634 129.12637341272784,56.88819375799358 129.0640831841447,56.945318750236765 128.6764995395497,57.20646101661259 128.62805158394622,57.27174644083425 128.60036703792866,57.36151380618685 128.572682491882,57.59001206848188 128.52423453633673,58.340787161752814 128.48962885374203,58.5366402954096 128.4827077172522,58.66720876647014 128.5034711267508,58.94466601120803 128.55884021887323,59.222122227496584 128.55884021887323,59.303726801255834 128.54499794586445,59.377170841580664 128.51039226329885,59.41797305506043 128.46886544421432,59.450614809837134 128.1643354377593,59.51589827668795 128.01899157100706,59.57302126346622 127.79751520269201,59.630144206646946 127.56911769782891,59.72806915068213 127.43761610411457,59.75255036667659 127.20229746279074,59.75255036667659 127.05003245951957,59.793352375556424 127.1953763262427,60.095286549883895 127.23690314532723,60.250333355303155 127.28535110090161,60.73179244095081 127.34764132948476,61.13980619110953 127.34764132948476,61.36829291978211 127.36840473901248,61.44173493443668 127.4445372406044,61.56413813211839 127.46530065016123,61.64574015269318 127.47222178668017,61.96398718303681 127.52066974225454,62.20063153364754 127.62448678989313,62.87791985099466 127.70061929154326,63.18800161397667 127.77675179313519,63.661281828637584 127.81827861221973,63.832641168584814 127.9013322503306,64.05295974357432 127.92209565985831,64.29775739978504 128.01207043454633,64.86078897137486 128.08820293610916,65.18718214650289 128.1297297551937,65.46461522654863 128.2197045298235,65.83996422789642 128.27507362191682,66.23979044205771 128.26815248539788,66.50905995450739 128.28199475843576,66.63145486727444 128.31660044097225,66.85992483579321 128.38581180610345,67.12919211795088 128.3788906695845,67.3576605676426 128.42041748863994,67.43925627357385 128.5173133997887,67.50453277429187 128.49654999026097,67.54533055835054 128.4827077172522,67.61876651361672 128.48962885374203,67.82275490033498 128.53115567279747,67.93698815414245 128.62113044745638,68.12465669277299 128.65573613002198,68.24704896454932 128.69034181255847,68.43471672600572 128.7111052220862,68.74477547525021 128.77339545069844,69.01403597903118 128.801079996716,69.20170181815047 128.8356856792816,69.32409232937061 128.8702913618472,69.56887275166082 128.94642386343912,69.97683834396594 128.9948718190426,70.14818322989595 129.05716204762575,70.53166798245365 129.10561000320013,70.7030115988091 129.119452276238,71.07017517071654 129.20942705086782,71.42101867964084 129.20942705086782,71.49445083394676 129.18174250479206,71.60867848638736 129.18174250479206,71.65763314123615 129.2578750064422,71.82081509293494 129.30632296201657,71.975837617676 129.43090341921197,72.30219977866363 129.4378245557309,72.55512947512761 129.46550910177757,72.78358136992028 129.5416416033695,73.04466839629458 129.5970106954337,73.33023128913192 129.68006433357368,73.62395198572631 129.68698547012173,73.69738197987317 129.65237978752702,73.89319494559459 129.65930092404597,73.9666246757406 129.68698547012173,74.03189548655791 129.8046447907982,74.17875460285723 129.8254082002968,74.22770757763647 129.8254082002968,74.26850169880345 129.77696024472243,74.36640749903017 129.7700391082326,74.43167796138732 129.7700391082326,74.51326595935825 129.7908025177312,74.59485386842425 129.92230411147466,74.93752211594983 129.97767320353887,75.59021920237137 130.04688456867007,75.98183472386154 130.12993820678093,76.26738641733391 130.13685934329988,76.2510692070282 130.11609593377216,76.26738641733391 130.12993820678093,76.26738641733391 129.97767320353887,76.17764171669842 130.17146502583637,76.25922781263944 130.13685934329988,76.24291060055839 130.1576227528276,76.24291060055839 130.14378047981882,76.21027616573701 130.22683411792968,76.21843477576476 130.20607070840197,76.35713101043075 130.22683411792968,76.5692541666067 130.3860202576907,77.62170247970062 130.45523162279278,77.89908949500386 130.48291616881033,78.1601586886245 130.5106007148861,78.28253455989034 130.5313641244138,78.33964323138207 130.6005754894868,78.38859348659025 130.57289094346925,78.42938534147834 130.5659698069503,78.5599191278452 130.57289094346925,78.99231067035726 130.58673321647802,79.19626807871828 130.60749662603484,79.30232571158558 130.65594458160922,79.40022493173456 130.7251559467113,79.49812402393582 130.7736039023148,79.53075702620845 130.7736039023148,79.55523176860879 130.7251559467113,79.57154825906764 130.81513072134112,79.58786474602675 130.80820958485128,79.65313065818191 130.83589413086884,79.69392182440788 130.93971117853653,80.08551588997216 130.94663231505547,80.2160467902213 130.92586890552775,80.3384193025995 130.9327900420176,80.39552640663169 130.96739572458318,80.4444753183052 131.0781339087407,80.53421490660548 131.1473452738719,80.60763812616642 131.55569232799462,81.26028580359707 131.79101096934755,81.529501313933 131.90174915353418,81.7089777833171 132.1716734774236,82.19029891917307 132.41391325529548,82.64714323820954 132.71152212526067,83.2916153080223 132.87762940154062,83.58529694393656 133.34134554775665,84.54791201239277 133.61126987164607,84.98842664722179 133.83966737650917,85.4452539030317 134.02653806228773,85.86129058736697 134.03345919880667,85.85313302753639 134.0196169257979,85.88576326156908 133.99193237975123,85.91839348137 134.0057746527891,85.893920817849 134.0749860178621,85.87760570437968 134.06806488140137,85.91839348137 134.1095917004568,85.95918123617594 134.17188192903996,86.06522929471248 134.2687778401887,86.34258504578611 134.51793875457952,86.75861674724729 134.6563614847837,87.10938677893137 135.28618490725057,88.30851843777054 135.3969230914081,88.56139409240131 135.5699515042361,88.84689783801878 135.92985060275532,89.5239452287642 136.15824810761842,89.89101655776176 136.31051311083138,90.28255732664547 136.48354152360116,90.64962493935309 136.65656993637094,90.935120728318 136.7742292570474,91.19614449774235 137.18949744768906,92.02815169470705 137.43173722556094,92.37074020843284 137.4594217716367,92.43599498586264 137.4594217716367,92.58281802728015 137.47326404464548,92.6480726200316 137.743188368564,93.0559125372456 138.20690451478004,93.9857792491166 138.55988247680943,94.6627802110088 138.77443770863465,95.1032353843184 138.93362384839565,95.45396635614452 139.16202135325875,95.85363453244645 139.28660181042505,96.10648472690809 139.47347249626182,96.449054597324 139.61881636295584,96.75899741656758 139.69494886457687,96.96290646701527 139.77800250268774,97.12603330796992 139.97179432498524,97.56647400507791 140.13098046471714,97.79484964386938 140.25556092194165,98.01506835081818 140.49087956329458,98.3902542872529 140.65698683957453,98.60231507272692 140.90614775393624,98.90409284841007 141.52212890339433,99.4913326049791 141.937397094036,99.75232657553715 142.3457441481587,100.03778769026394 142.55337824346498,100.16012783521 142.86482938649715,100.3150917321691 143.13475371038658,100.47005530873867 143.6330755391682,100.69026615593611 144.58127124109888,101.15515359776327 145.10035647943732,101.42429764102417 145.61252058122773,101.63634984294185 146.1177635464992,101.93811540376191 146.47766264507663,102.09307562508911 146.89985197220813,102.30512593517778 148.06260290599312,102.85971621791396 148.1456565441331,102.91680616116355 148.17334109017975,102.98205175735347 148.22178904572502,102.9657403636229 148.19410449970746,102.99020745288726 148.18718336318852,102.98205175735347 148.22178904572502,102.99020745288726 148.6578206459235,103.16147685404576 149.43990907160332,103.52848139606067 149.82057157970848,103.75683887094056 150.89334773889277,104.26248508990102 151.21172001838568,104.46637372947589 152.00072958061355,105.03725897022377 152.26373276798404,105.20036824053386 152.79666027930216,105.57551821548986 153.91788439406082,106.4562977356909 154.22241440051585,106.6438698155398 154.67920941024204,107.02716782384232 155.1290832834202,107.33706690856343 155.4128498803475,107.5001711754885 155.6620107947383,107.62249914280983 155.67585306774708,107.63880952339241 155.6620107947383,107.64696471233037 155.65508965824847,107.63065433354495 155.68277420426602,107.62249914280983 155.9803830742312,107.72851655306295 156.32643989977078,107.89977512985934 156.94242104922887,108.16889496020303 157.25387219217373,108.33199741756835 158.1466988020693,108.75606214621803 158.68654744993546,109.05779905040981 159.14334245963255,109.27798467360117 159.23331723426236,109.33506972961186 159.26792291679885,109.3758447430082 159.2748440533469,109.4166197342638 159.2748440533469,109.46554969445424 159.25408064379008,109.52263460767426 159.06028882152168,109.89776295622141 158.797285634093,110.4686068422161 158.5550458562211,110.92527882204013 158.45122880855342,111.15361376898363 158.06364516392932,111.95278060785495 157.96674925280968,112.10772013170208 157.68298265588237,112.71116575213819 157.475348560547,113.12705112336698 157.3369258303137,113.33907022891799 157.28847787476843,113.46138867099216 157.3023201477772,113.42877043927729 157.3369258303137,113.43692499853933 157.80756311307778,113.61632507783361 158.54812471973128,113.95881494659261 158.8180490436207,114.0729778885725 159.7870081551373,114.56224567150639 160.28532998391893,114.79056954447879 160.61062339990167,114.96181199302373 161.11586636520224,115.19013464947784 161.25428909537732,115.2390608425776 162.0086929750687,115.41845661082334 162.2716961624683,115.45107397712854 162.49317253081244,115.5 162.56238389588543,115.5 162.63159526101663,115.47553699256969 162.69388548957068,115.41030226703151 162.7492545817222,115.33691313302552 162.7838602642587,115.2553695665265 162.88075617540744,114.57040010752098 162.94996754050953,114.28499431976525 162.94996754050953,114.16267722107295 162.92920413101092,114.06482339849754 162.90151958493516,113.99958744581818 162.85999276585062,113.94250594069308 162.81154481027625,113.901733410421 162.7492545817222,113.87726988163195" stroke="#4dd2ff" stroke-linecap="round" stroke-linejoin="round" stroke-width="0.5"><title>2023-07-21 14.4km</title></polyline><polyline fill="none" points="41.77716869630967,184.5 41.78408983282861,184.56530524092523 41.652588239114266,185.04692963164416 41.58337687404128,185.4061051243989 41.51416550888098,185.64283348333993 41.45879641678766,185.88772410065576 41.43111187077011,185.92037612237618 41.472638689825544,186.01833210203768 41.43111187077011,186.07547303091997 41.43111187077011,186.09996198706358 41.35497936914908,186.32852519118023 41.271925731009105,186.88360435040522 41.19579322938807,187.06318790226214 41.11273959130631,187.16930525297357 41.07813390871161,187.24277102296764 41.07813390871161,187.2999110164019 41.119660727796145,187.41419087232498 41.1473452738428,187.52847055362508 41.14042413732386,187.71621536527527 41.098897318239324,188.075378039699 41.05737049918389,188.26312147859426 40.99508027060074,188.44270171828975 40.94663231502636,188.6304442351975 40.87742094989517,189.0957171373957 40.69747140063555,189.88749068628385 40.46215275928262,191.4383630432785 40.43446821323596,191.51998701349657 40.4067836671602,191.47917503951612 40.392941394180525,191.5036622265543 40.399862530699465,191.49549983176985 40.43446821323596,191.487337436105 40.448310486244736,191.49549983176985 40.448310486244736,191.52814940561802 40.379099121142644,191.68323468675953 40.31680889255949,191.93626787627 40.268360936956014,192.1484886010876 40.22683411790058,192.61373962188372 40.15762275279849,192.8422829231713 40.012278886075364,193.53607081092196 39.75619683516561,194.60530778003886 39.69390660658246,194.9154652629004 39.57624728587689,195.3072412981055 39.500114784314064,195.6337197602552 39.41706114614499,196.1397585611776 39.25787500641309,196.77638315887452 39.22326932384749,197.01307553816878 39.21634818732855,197.2252818623383 39.24403273337521,197.46197282153298 39.30632296198746,197.68233959324425 39.37553432711866,197.87005892391608 39.45858796520042,198.0822628175447 39.67314319705474,198.48218390422699 39.83232933678664,198.66990122820425 39.94998865746311,198.74335570506082 39.963830930530094,198.7678405146362 39.98459434005781,198.92291078929702 40.067647978139576,199.14327325834165 40.171465025807265,199.46973498257285 40.33757230208721,199.85332568852027 40.42754707671702,200.19610720880883 40.48983730530017,200.5062415169814 40.55904867040226,201.0693768432102 40.57981207995908,201.3713462146261 40.57981207995908,201.9671200494049 40.538285260874545,202.29356945414474 40.46215275928262,202.60369506960706 40.365256848104764,202.8648524858072 40.33065116556827,203.04439768072916 40.296045483031776,203.12600899059908 39.97075206701993,203.5585474469408 39.8254082002677,203.8033794274088 39.67314319705474,203.95027823121927 39.54856273988844,204.11349878615874 39.49319364776602,204.21143094826402 39.444745692191646,204.32568497540342 39.42398228266393,204.46442177384597 39.36861319059972,205.11729737250425 39.382455463608494,205.5987894774662 39.36861319059972,205.7048805417653 39.3132440985064,205.94970550079597 39.264796142902924,206.4883175916184 39.24403273337521,206.63521112548915 39.188663641310995,206.78210437106463 39.14021568570752,206.87187232365977 39.06408318411559,206.94531875023677 38.66957840297255,207.2064610166126 38.641893856954994,207.2472644134541 38.6072881744185,207.32887114033656 38.5726824918529,207.6144939837759 38.531155672768364,208.34078716175281 38.48270771722309,208.60192455941433 38.49654999023187,208.92018453100172 38.558840218844125,209.22212222749658 38.54499794583535,209.37717084158066 38.51039226326975,209.41797305506043 38.448102034657495,209.45061480983713 38.16433543773019,209.51589827668795 38.01899157097796,209.57302126346622 37.77675179310609,209.63830462353508 37.617565653374186,209.71174833557598 37.548354288272094,209.73622955691098 37.4445372405753,209.7525503666766 37.202297462761635,209.7525503666766 37.04311132300063,209.79335237555642 37.19537632621359,210.0952865498839 37.243824281787965,210.25033335530316 37.285351100872504,210.7807542084047 37.354562465974595,211.13980619110953 37.347641329455655,211.3682929197821 37.37532587547321,211.45805537236447 37.437616104085464,211.54781771732087 37.46530065013212,211.64574015269318 37.46530065013212,211.94766685544164 37.52066974222544,212.20063153364754 37.59680224387557,212.76367887767992 37.63832906293101,212.97584054645995 37.707540428003995,213.22880175033788 37.72830383753171,213.42464209532773 37.77675179310609,213.66128182863758 37.83904202168924,213.90608076562785 37.90133225030149,214.05295974357432 37.93593793286709,214.4364757163421 38.01899157097796,214.90974803835707 38.09512407259899,215.2361410000376 38.12972975516459,215.46461522654863 38.192019983776845,215.67676924114494 38.22662566634244,215.8644434452217 38.275073621887714,216.2561098340011 38.26815248536877,216.53353895303735 38.281994758406654,216.63145486727444 38.309679304482415,216.8272863115635 38.385811806074344,217.15367091377993 38.3788906695554,217.3576605676426 38.40657521560206,217.42293713951221 38.51039226326975,217.50453277429187 38.48962885371293,217.56980921809736 38.47578658070415,217.65956423540774 38.48962885371293,217.82275490033498 38.62805158391711,218.14913516311935 38.662657266511815,218.24704896454932 38.69034181252937,218.45919509498344 38.711105222057085,218.7447754752502 38.78031658718828,219.03035476632067 38.801079996686894,219.20170181815047 38.83568567925249,219.32409232937061 38.86337022529915,219.52807607020804 38.93258159040124,219.8299709868079 38.94642386341002,219.97683834396594 38.9948718190135,220.14818322989595 39.05716204759665,220.53166798245365 39.10561000317102,220.7030115988091 39.11253113966086,221.05385682798806 39.20942705083871,221.40470041335357 39.20942705083871,221.49445083394676 39.18174250476295,221.5923602609837 39.18174250476295,221.67395135240076 39.25095386992325,221.79633782285964 39.3132440985064,222.0003148290998 39.382455463608494,222.14717792955344 39.43090341918287,222.31851784938044 39.43782455570181,222.57144749072904 39.46550910174847,222.82437627780018 39.54856273988844,223.07730421057204 39.597010695404606,223.33023128913192 39.68006433354458,223.6239519857263 39.68698547009262,223.72185862855986 39.65237978749792,223.86871835287457 39.65237978749792,223.95030696414324 39.666222060564905,223.9992600882615 39.80464479076909,224.17875460285723 39.8254082002677,224.23586640364374 39.818487063777866,224.28481934109004 39.78388138124137,224.33377224651485 39.76311797168455,224.4887895692882 39.80464479076909,224.63564778964792 39.922304111445555,224.93752211594983 39.93614638445433,225.12517311089323 39.95690979398205,225.27203008335346 39.97075206701993,225.54942580112402 40.04688456864096,226.0063106259404 40.13685934327077,226.2673864173339 40.13685934327077,226.2510692070282 40.116095933743054,226.2673864173339 40.12993820675183,226.2673864173339 39.97767320350977,226.17764171669842 40.171465025807265,226.25922781263944 40.13685934327077,226.2429106005584 40.15762275279849,226.2429106005584 40.13685934327077,226.210276165737 40.22683411790058,226.21843477576476 40.20607070837286,226.35713101043075 40.22683411790058,226.52846129862155 40.379099121142644,227.60538556444953 40.45523162276368,227.89908949500386 40.48291616878123,228.1601586886245 40.51060071485699,228.28253455989034 40.53136412438471,228.33964323138207 40.6005754894577,228.38859348659025 40.57289094344014,228.42938534147834 40.55904867040226,228.54360241699032 40.57981207995908,229.14731835136627 40.60749662600574,229.30232571158558 40.649023445061175,229.40022493173456 40.72515594668221,229.49812402393582 40.773603902285686,229.53075702620845 40.773603902285686,229.5552317686088 40.72515594668221,229.57154825906764 40.82205185783096,229.58786474602675 40.80820958482218,229.6531306581819 40.83589413083973,229.69392182440788 40.94663231502636,230.10999045108474 40.94663231502636,230.2160467902213 40.925868905498646,230.3384193025995 40.93971117850742,230.4118427141002 41.07813390871161,230.53421490660548 41.17502981988946,230.6402706450972 41.54185005495674,231.2439696809597 41.749484150263015,231.48055311130884 41.804853242327226,231.5539754032725 42.171673477394506,232.19029891917307 42.386228709248826,232.59819576586597 42.71152212523157,233.2916153080223 42.87762940151151,233.5934547507204 43.02297326826374,233.90345075028745 43.209843954013195,234.25423415013938 43.313661001680885,234.49080807379505 43.45208373191417,234.73553893281496 43.590506462118356,234.9476383639485 43.7566137383692,235.2984168746043 43.839667376480065,235.4452539030317 43.943484424147755,235.6899816442019 44.02653806225862,235.86129058736697 44.033459198777564,235.8531330275364 44.01961692576879,235.88576326156908 43.99193237972213,235.91839348137 44.00577465276001,235.893920817849 44.074986017833,235.87760570437968 44.068064881372266,235.91839348137 44.1095917004277,235.95918123617594 44.17880306550069,236.08970190228138 44.25493556712172,236.31811252082844 44.517938754550414,236.7586167472473 44.6563614847546,237.10938677893137 45.320790589787066,238.3656194666546 45.39000195491826,238.56139409240131 45.56995150420698,238.84689783801878 45.74297991694766,239.18950089674763 45.96445628526271,239.58920248533104 46.17209038059809,239.90733079729398 46.28974970127456,240.23361484241468 46.46969925056328,240.62515382112178 46.65656993634184,240.935120728318 46.76038698400953,241.17983053879288 47.21026085718768,242.0689361237164 47.417894952523056,242.3462696522547 47.459421771607595,242.43599498586264 47.459421771607595,242.60728850621672 47.487106317596044,242.6725430776496 47.75703064154368,243.08038286172086 48.193062241742155,243.9613092203217 48.57372474978911,244.67909341172344 48.78827998161432,245.12770504025684 48.94054498485639,245.47843589757395 49.15510021671071,245.83732158737257 49.272759537387174,246.09017183686228 49.473472496232716,246.449054597324 49.611895226407796,246.74268466854846 49.701870001037605,246.97921916711493 49.77800250265864,247.12603330796992 49.971794324956136,247.5664740050779 50.15174387424486,247.82747467833542 50.4770372902567,248.37394189428596 50.67775024904404,248.63493975571328 50.89230548089836,248.88778056729643 51.480602084309794,249.4587082947619 51.94431823049672,249.75232657553715 52.3457441481296,250.03778769026394 52.546457106946036,250.16012783521 52.87175052292878,250.3150917321691 53.19012280242168,250.49452321259014 53.65383894866682,250.69842210082425 54.06218600278953,250.9104763561918 54.602034650655696,251.16330949204712 55.12804102542577,251.43245350602956 55.61252058119862,251.63634984294185 56.131605819478864,251.9462712128734 56.44305696245283,252.06860824302566 56.9136942451878,252.32143747262307 58.041839496436296,252.85156050817022 58.145656544103986,252.91680616116355 58.1664199536317,252.9494289663562 58.17334109015064,252.98205175735347 58.221789045695914,252.9657403636229 58.2010256361973,252.99020745288726 58.18718336315942,252.99020745288726 58.18718336315942,252.98205175735347 58.221789045695914,252.99020745288726 58.699347464949824,253.17778820516105 59.43990907157422,253.52848139606067 59.82057157967938,253.75683887094056 60.914111148391385,254.27064064614387 61.537013434339315,254.69472834744374 62.014571853593225,255.04541444218194 62.27757504102192,255.20852369474596 62.76205459673656,255.55105197000375 63.474931657343404,256.097462883954 63.75869825427071,256.3339678655393 63.952490076597314,256.4807636857513 64.11167621632922,256.5704721010552 64.25702008302324,256.66833570442395 64.71381509274943,257.0516335876382 65.08063532781671,257.3044460125966 65.3436385152163,257.4675503504768 65.67585306771798,257.63065433354495 65.6620107947092,257.6469647123304 65.65508965821937,257.63065433354495 65.67585306771798,257.62249914280983 65.91809284561896,257.70405101016513 66.32643989974167,257.89977512985934 66.92165763964294,258.1607398280321 67.25387219214463,258.33199741756835 68.20898903065245,258.780527345858 68.76267995152739,259.0985742145931 69.12257905007573,259.261674649606 69.21255382470554,259.318759718044 69.25408064376097,259.3595347403316 69.27484405331779,259.4166197342638 69.26100178027991,259.50632463689544 69.04644654842559,259.92222778332507 68.8180490435916,260.4278324230618 68.56888812922989,260.88450465120695 68.45122880852432,261.15361376898363 68.34741176088573,261.3493288843747 68.07056630044826,261.9364711656599 67.96674925278057,262.1077201317021 67.89753788764938,262.27896870669065 67.48919083352666,263.0862781497417 67.32308355730493,263.35537936605397 67.28847787473933,263.46138867099216 67.28847787473933,263.4369249985393 67.31616242075688,263.4369249985393 67.83524765909533,263.6244796167084 68.54120358315413,263.9588149465926 68.8180490435916,264.0729778885725 69.80777156463591,264.5785545426261 70.264566574333,264.78241513240937 70.652150218928,264.9862751680266 71.13662977467175,265.1982890172294 72.0086929750396,265.41845661082334 72.25785388943041,265.44291963689466 72.50009366730228,265.5 72.56238389585633,265.5 72.63159526098752,265.4755369925697 72.6800432165619,265.4266109537566 72.7492545816931,265.3369131330255 72.77693912771065,265.2798326457705 72.88075617537834,264.59486341018055 72.95688867699937,264.2605309159844 72.95688867699937,264.1871406567807 72.91536185794394,264.0158964393122 72.88075617537834,263.9588149465926 72.81154481024714,263.901733410421 72.72849117213627,263.8691153702457" stroke="#4dd2ff" stroke-linecap="round" stroke-linejoin="round" stroke-width="0.5"><title>2023-07-21 14.3km</title></polyline><polyline fill="none" points="130.809026544448,184.5 130.69647421041736,185.06410564644466 130.63081868219888,185.40699185866106 130.57454251515446,185.61714735104033 130.46199018106563,185.8936670721523 130.3494378469768,186.46882567636203 130.31192040228052,186.60155412169843 130.27440295758424,186.9886777615393 130.23688551294617,187.15458744041098 130.2275061517139,187.3204968478385 130.30254104110645,187.56383015432948 130.43385209754342,187.92882901915436 130.55578379280632,188.12791875524272 130.87468207272468,188.72518561816833 131.07164865738014,189.0016968633645 131.25923588080332,189.3335093622445 131.42806438193657,189.55471709160338 131.52185799367726,189.84228641832306 131.77510074537713,190.35106092167553 131.82199755118927,190.77135097734572 131.89703244064003,190.95937491196673 132.00958477467066,191.446023476783 132.00958477467066,191.57874540731427 132.04710221942514,191.76676784489246 132.056481580541,192.0322106926469 132.09399902523728,192.25341253502847 132.1502751922817,192.44143372165854 132.13151646999177,192.82853506708489 132.16903391462984,193.5031938801112 132.1221371087595,193.6248531884048 132.11275774758542,193.71333259368112 132.06586094171507,194.05618955993123 132.04710221942514,194.4875240969268 131.9626879688003,194.6091822243834 131.92517052416224,194.80825884540536 131.82199755118927,195.04051440934563 131.76572138420306,195.29488894055248 131.5687547995476,195.61562113565742 131.3248914090218,195.85893453813333 131.04351057379972,196.21284389963694 130.82778526685433,196.42297699868504 130.72461229388136,196.46721549038193 131.21233907493297,196.74370562627882 131.30613268673187,196.8211227292777 131.756342023029,197.1086714514895 131.95330860768445,197.31880269446992 132.1784132758039,197.46257645199512 132.31910369341495,197.6063500056989 132.71303686272586,197.86071810143767 132.9100034473231,198.01555054300115 133.02255578141194,198.12614499943447 133.50090320128947,198.43580883582763 133.8291808423819,198.72335298021062 133.94173317641253,198.778649837579 134.0730442328495,198.88924346191925 134.27939017867902,199.08831168180768 134.29814890102716,199.14360834020772 134.18559656693833,199.36479467236495 134.1293203998939,199.44220977467194 134.11994103871984,199.48644694941322 134.1386997611262,199.541743390786 134.33566634572344,199.64127690924943 134.52325356914662,199.7850473745857 134.88904865493532,199.98411383630446 135.13291204551933,200.16106147426763 135.40491351945093,200.27165359126957 135.67691499349894,200.4043639724623 135.9020196617348,200.6144883875677 136.15526241337648,200.6476658870306 136.4835400544689,200.6034292186814 136.92437002959196,200.73613916579052 137.78727125754813,200.90202635549213 138.04989337042207,200.90202635549213 138.21872187155532,200.8799080792087 138.4719646232552,200.91308549182577 138.96907076542266,200.93520376088418 139.41928010177799,200.8799080792087 139.991421133338,200.7693166254321 140.3009400520823,200.7250800101683 140.694873221335,200.6034292186814 140.97625405655708,200.55919253107277 141.07004766829778,200.5260150026661 141.7359823115985,200.4707190979243 142.23308845382417,200.39330478063494 142.51446928904625,200.3822455876434 142.60826290078694,200.39330478063494 142.67391842894722,200.4817782813043 142.6832977901213,200.54813335612562 142.66453906783136,200.80249407423253 142.67391842894722,200.8799080792087 142.65515970659908,200.95732202510408 142.5238486501621,201.27803631440474 142.3737788714352,201.7314582344843 142.23308845382417,202.09640611257782 142.0079837856465,202.77100327886728 141.82039656216512,203.23547740839422 141.5202570046531,204.21971317822317 141.45460147643462,204.34135963274457 141.29515233647544,204.4961821820907 141.26701425295323,204.55147589242551 141.26701425295323,204.71735684262967 141.22011744708288,204.89429622385796 140.97625405655708,205.63522653064865 140.89183980599046,205.96698461541382 140.55418280378217,206.90695996369323 140.49790663673775,207.17236319113726 140.394733663823,207.41564887297136 140.34783685795264,207.61470036055834 140.26342260738602,207.8137514575501 140.19776707916753,208.023860525107 140.2071464403416,208.18973579739395 140.1790083568194,208.30031916154985 139.9632830498158,208.89746724517317 139.94452432746766,209.0191080905497 139.94452432746766,209.26238934375579 139.8413513545529,209.78212461205112 139.8413513545529,210.19127603531524 139.77569582639262,210.52301922120387 139.80383390991483,210.73312267785514 139.77569582639262,211.13121224469796 139.8132132710307,211.41872040483577 139.79445454868255,211.5624741793872 139.85073071572697,211.8057493338638 139.85073071572697,212.0379659825703 139.91638624394545,212.259124201526 139.94452432746766,212.44710830864642 139.9632830498158,212.85624898479 140.16962899564533,214.050488008681 140.22590516268974,214.22741111305368 140.24466388503788,214.3932762432305 140.31031941325637,214.6807751598608 140.33845749677857,214.93510044558207 140.50728599791182,215.56538210176222 140.5448034425499,215.8418201894965 140.65735577669693,216.21777478022705 140.68549386021914,216.5826705509171 140.68549386021914,216.84804846904444 140.8168049165979,217.30140080696583 140.83556363894604,217.4451462472498 140.83556363894604,217.69946460434585 140.8449430001201,217.76580841877148 140.92935725068673,218.031183242696 140.99501277890522,218.41818695018446 141.0325302236015,218.55087359587196 141.05128894594964,218.73884604689374 141.16384128003847,219.08161844356073 141.17322064121254,219.14796135433426 141.14508255769033,219.38016120050452 141.22011744708288,219.6565888960249 141.29515233647544,219.85561637056526 141.2763936141273,220.16521388842375 141.35142850351986,220.5411524617084 141.36080786469392,220.65172236526269 141.41708403168013,220.88391877063987 141.53901572700124,221.19351315134554 141.56715381052345,221.39253761166037 141.67970614455407,221.81269907933893 141.70784422807628,222.01172232528188 141.6984648669022,222.2328588074888 141.71722358925035,222.3876540583151 141.71722358925035,222.5313922941059 141.72660295048263,222.5756194026253 141.8579140068614,222.77464115243492 141.92356953507988,222.99577597223833 141.9798457021243,223.46015752545645 141.96108697977616,223.5043842292216 141.97046634095022,223.55966758180875 142.04550123034278,223.957706831643 142.12053611973533,224.27834842535958 142.1299154809094,224.43314055631345 142.16743292554747,224.69849794584297 142.21432973147603,224.85328943599598 142.30812334321672,225.07441972668312 142.30812334321672,225.22921064349066 142.32688206556486,225.36188838430826 142.45819312200183,225.80414626764832 142.4957105666399,225.9699924770539 142.51446928904625,226.3790786349564 142.5895041783806,226.58914926446596 142.62702162307687,226.7771068275688 142.63640098425094,227.11985207605903 142.67391842894722,227.35203368352086 142.77709140186198,227.72794563623756 142.8052294853842,227.9932944116954 142.88026437477674,228.39131627418828 142.91778181947302,228.45765309953276 143.1053690429544,228.62349497318792 143.18978329352103,228.76722437785793 143.42426732287277,229.51903640874662 143.48992285109125,229.79543649074185 143.76192432508105,230.43668178240478 143.91199410386616,230.87891755434248 144.01516707678093,231.1000347178051 144.1464781331597,231.52015600141021 144.2027543002041,231.76338331822626 144.58730810839916,232.8800103388421 144.74675724830013,233.39962466559518 145.0,234.01873613566568 145.2438633904676,234.67101020705013 145.45020933629712,235.32328008740296 145.54400294803781,235.57755365123012 145.61903783743037,235.85393723736343 145.92855675617466,236.71624919004535 146.14428206317825,237.36850592988776 146.25683439726708,237.67805003505782 146.33186928660143,237.8438768460328 146.47255970421247,238.33030059572047 146.68828501121607,238.87199702871294 147.0728388193529,239.53529484712635 147.382357738039,240.18753347633174 147.64497985097114,240.55234308582294 147.90760196378687,240.9834800252429 148.40470810595434,241.72414690362348 149.12691891635768,242.5753544045583 149.6709218643955,243.10597365163267 149.92416461603716,243.404445759581 150.57134053704794,244.0124417840634 150.72141031583305,244.14509497835388 150.96527370635886,244.2888024099011 151.19975773565238,244.46567281571333 151.4436211261782,244.68676038973354 151.73438132257434,244.9078474823982 151.91258918482345,245.06260816082795 152.12831449188525,245.19525998318568 152.30652235413436,245.27264013286913 152.48473021644168,245.37212881012965 152.86928402457852,245.64848573542986 153.10376805387205,245.7369197927328 153.37576952792006,245.8916792076052 153.60087419609772,246.03538416740048 154.885846676887,246.61020197280595 155.38295281905448,246.77601419663551 155.66433365427656,246.90866378074134 155.81440343306167,246.9418261497267 155.8613002388738,246.93077202794666 155.91757640591823,246.8865555287848 156.16143979644403,246.62125612949603 156.43344127049204,246.5549311713985 156.8742712456733,246.16803471897583 156.93992677389178,246.0132757252577 156.968064857414,245.74797404446144 157.03372038557427,245.4826716705138 157.09937591385096,245.41634596870426 157.1744108031853,245.36107451746648 157.31510122079635,245.35002022358822 157.59648205596022,245.42740025537205 158.11234692053404,245.4052916808796 158.29055478284135,245.4052916808796 158.47814200632274,245.4384545407811 159.48173365188995,245.42740025537205 159.72559704235755,245.4605631080558 159.75373512593796,245.4826716705138 159.7724938482861,245.51583450518228 159.76311448705383,246.07960103715595 159.66932087537134,246.61020197280595 159.66932087537134,247.07447551725636 159.5942859859788,247.77088185396133 159.5942859859788,247.96985421587306 159.54738918005023,248.29041997886816 159.5286304577603,248.79890152741427 159.36918131780112,249.93744880556915 159.32228451193077,250.7996411639615 159.3410432342789,251.23073459825537 159.26600834488636,251.57339730480453 159.23787026136415,251.89395169331692 159.22849090019008,252.17029087136325 159.20035281666787,252.3360940172861 159.20035281666787,252.6676994970694 159.14407664962346,253.0435177319814 159.15345601079753,253.18721257194557 159.18159409431973,253.31985378224635 159.190973455552,253.46354823122238 159.17221473314567,253.81725677804206 159.11593856610125,254.15991075805505 159.1346972885076,254.59098992968939 159.1065592049854,255.03312051280955 159.1065592049854,255.353663982125 159.05966239905683,255.6742064398568 158.93773070379393,256.14949167033774 158.86269581445958,256.52529702229367 158.71262603567448,256.9674191856684 158.61883242393378,257.32111553075083 158.4875213674968,257.6969165479386 158.32807222753763,257.9511340947138 158.13110564288218,258.3158798983495 157.95289778063307,258.7137829176645 157.88724225241458,258.9458922924605 157.6996550289332,259.36589838440705 157.53082652779995,259.8080081840526 157.23068697022973,260.37169538791204 157.06185846915469,260.7253798795937 156.968064857414,260.9574846580508 156.5366142434068,261.8085309751623 156.3865444646799,262.23957768840773 156.09578426828375,262.7811466074563 155.85192087775795,263.344817314035 155.75812726601725,263.4884975821915 155.61743684840621,263.9084848931452 155.30791792966193,264.5384626041632 155.2235036790953,264.75950648923026 155.1015719838324,264.96949773459346 154.84832923219074,265.5" stroke="#4dd2ff" stroke-linecap="round" stroke-linejoin="round" stroke-width="0.5"><title>2023-07-06 10.7km</title></polyline></svg>