<?xml version="1.0" encoding="utf-8" ?>
<svg baseProfile="full" height="300mm" version="1.1" viewBox="0,0,200,300" width="200mm" xmlns="http://www.w3.org/2000/svg" xmlns:ev="http://www.w3.org/2001/xml-events" xmlns:xlink="http://www.w3.org/1999/xlink"><defs /><rect fill="#222222" height="300" width="200" x="0" y="0" /><text fill="#FFFFFF" style="font-size:12px; font-family:Arial; font-weight:bold;" x="10" y="20">Over 10km Runs</text><text fill="#FFFFFF" style="font-size:4px; font-family:Arial" x="10" y="280">ATHLETE</text><text fill="#FFFFFF" style="font-size:9px; font-family:Arial" x="10" y="290">Chongnuo Ji</text><text fill="#FFFFFF" style="font-size:4px; font-family:Arial" x="120" y="280">STATISTICS</text><text fill="#FFFFFF" style="font-size:3px; font-family:Arial" x="120" y="285">Number: 2</text><text fill="#FFFFFF" style="font-size:3px; font-family:Arial" x="120" y="290">Weekly: 1.0</text><text fill="#FFFFFF" style="font-size:3px; font-family:Arial" x="141" y="285">Total: 25.1 km</text><text fill="#FFFFFF" style="font-size:3px; font-family:Arial" x="141" y="290">Avg: 12.5 km</text><text fill="#FFFFFF" style="font-size:3px; font-family:Arial" x="167" y="285">Min: 10.7 km</text><text fill="#FFFFFF" style="font-size:3px; font-family:Arial" x="167" y="290">Max: 14.4 km</text><polyline fill="none" points="82.36955826176563,36.0 82.38801462581614,36.087073654569394 82.21267916756915,36.685702971451974 82.12039734737482,37.14283566624363 82.01888734521344,37.52377797779627 81.95429007115308,37.81764676669263 81.90814916108502,37.89383482984704 81.96351825312013,38.02444280272175 81.92660552507732,38.067978755650984 81.90814916108502,38.13328264942538 81.79741097689839,38.470685419284564 81.68667279271176,39.178139133880904 81.62207551859319,39.36316466203425 81.4651964243385,39.580841314513236 81.43751187832095,39.65702803062595 81.4467400603462,39.73321468853828 81.52056551643182,39.97265809163946 81.52979369851528,40.11414710506506 81.51133733446477,40.36447332936223 81.45596824237145,40.83247284589743 81.28063278406626,41.4093064375993 81.17912278190488,42.06232157164777 80.94841823156457,43.128903762182745 80.83768004737794,43.727490810902964 80.61620367906289,45.2293843180305 80.57929095102008,45.3599826846621 80.54237822291907,45.305566719362105 80.52392185892677,45.33821630207967 80.53315004095202,45.32733310902404 80.57929095102008,45.31644991481153 80.59774731501238,45.32733310902404 80.58851913304534,45.37086587415979 80.51469367690152,45.57764624901756 80.39472731074784,46.02385507096187 80.33013003657106,46.49182803234726 80.29321730858646,46.81831949584739 80.2101636704756,47.12304389756173 79.88717729994096,48.62488627706625 79.69338547764346,49.37579898734111 79.61033183947438,49.821990818985796 79.46268092724495,50.31171126371191 79.36117092514178,50.725251100273454 79.20429183088709,51.574090656977205 79.01050000858959,52.39027572704799 78.96435909852153,52.684100717560796 78.95513091649627,52.977924842678476 78.99204364453908,53.24998344617052 79.0474127366324,53.467629794780805 79.19506364886183,53.90292106749985 79.36117092514178,54.27291715602041 79.58264729351504,54.675558399067086 79.75798275176203,54.871437335110386 79.94254639203427,55.012905216433865 79.99791548412759,55.26319405348477 80.21939185244264,55.927000536903506 80.4224118567654,56.41669101345906 80.51469367690152,56.721386096964125 80.6346600431134,57.24371836090722 80.74539822724182,58.09250245762087 80.78231095528463,58.59306405288953 80.77308277331758,59.093623136897804 80.75462640926708,59.44183667075413 80.72694186319131,59.659469512320356 80.60697549703764,60.17090482147614 80.48700913082575,60.4864699810787 80.4408682207577,60.725863574312825 80.38549912866438,60.85644165585836 80.08096912223846,61.24817487512337 79.77643911575433,61.71607642706658 79.57341911143158,61.93370430829964 79.41654001723509,62.129568995580485 79.30580183304846,62.3145519583486 79.26888910494745,62.4342466338785 79.23197637690464,62.61922903179948 79.16737910284428,63.424442533549154 79.15815092081903,63.73999740403087 79.17660728481133,64.04467012522218 79.16737910284428,64.2078872718048 79.08432546473341,64.63225060350669 79.01972819061484,65.31775678882696 78.98281546251383,65.51361483399523 78.91821818845347,65.70947249476012 78.83516455028439,65.85092501066538 78.75211091217352,65.92709166699206 78.2353327193996,66.27528135549073 78.17073544528103,66.36232858778385 78.13382271723822,66.48201840825641 78.0969099891372,66.78668275797827 78.03231271507684,67.78771621567284 77.98617180495057,68.04885372721765 77.97694362298353,68.22294502196019 78.00462816900108,68.59288801495131 78.0784536251449,68.96282963666454 78.0784536251449,69.0716357350102 78.0599972611526,69.16956112210755 78.01385635102633,69.22396407341148 77.95848725893302,69.26748641312588 77.55244725034572,69.35453103558393 77.35865542799002,69.4306950179598 77.06335360358935,69.50685894220805 76.75882359710522,69.63742553424527 76.58348813880002,69.67006715557363 76.26972995034885,69.67006715557363 76.0667099460261,69.72446983408008 76.26050176832359,70.1270487331858 76.31587086041691,70.33377780707815 76.38046813453548,70.97572325461078 76.46352177264635,71.51974158814846 76.46352177264635,71.8243905597119 76.4912063186639,71.92231324592285 76.59271632082528,72.08551750949118 76.62040086684283,72.19432020359818 76.62962904892629,72.61864957738726 76.69422632298665,72.93417537819914 76.83264905319083,73.83722646800015 76.93415905535221,74.25066881864768 77.03566905751359,74.88170910484769 77.0910381496069,75.11018822478945 77.20177633379353,75.40394632477546 77.22946087981109,75.73034319972066 77.34942724602297,76.48105196184042 77.45093724812614,76.91624286200386 77.50630634021945,77.28615363539575 77.62627270643134,77.78661897053826 77.70009816251695,78.31972058941756 77.6908699805499,78.67874660601956 77.70932634460041,78.84193982303259 77.75546725461027,79.14656644772913 77.8477490748046,79.50558949061087 77.83852089277934,79.8102140901974 77.89388998487266,79.9190083647627 78.02308453305159,80.00604369906068 77.99539998703403,80.06044074446982 77.97694362298353,80.15835535149381 77.98617180495057,80.43033986711816 78.04154089704389,80.58265087218751 78.16150726331398,80.83287559037126 78.20764817332383,80.99606528606819 78.2537890833919,81.24628896801005 78.28147362946765,81.65970063367422 78.36452726757852,82.01871463871066 78.40143999562133,82.26893575753638 78.4475809057476,82.43212310583476 78.49372181575745,82.7584970022217 78.59523181791883,83.30245112529519 78.6598290920374,83.5309109732043 78.74288273014827,84.04222397660487 78.80748000426684,84.27068213174789 78.82593636831734,84.76023356096266 78.94590273447102,85.22802490618778 78.94590273447102,85.3259344452672 78.90899000642821,85.47823798185709 78.90899000642821,85.54351085498638 79.01050000858959,85.76108679058962 79.07509728270816,85.96778349023953 79.2412045589881,86.40293303821818 79.25043274095515,86.74017263350834 79.28734546899796,87.04477515989856 79.38885547115933,87.3928911950643 79.46268092724495,87.77364171884983 79.57341911143158,88.16526931431144 79.58264729351504,88.26317597317393 79.53650638338877,88.52425992745702 79.54573456541402,88.6221662343305 79.58264729351504,88.70919398208207 79.73952638771152,88.90500613714539 79.76721093372907,88.97027677018923 79.76721093372907,89.02466893174278 79.70261365966871,89.15520999870932 79.69338547764346,89.24223728185461 79.69338547764346,89.35102127914433 79.72107002366101,89.4598051579087 79.89640548196621,89.91669615459978 79.97023093805183,90.78695893650001 80.06251275818795,91.30911296515842 80.17325094237458,91.68984855645249 80.18247912439983,91.66809227604244 80.15479457838228,91.68984855645249 80.17325094237458,91.68984855645249 79.97023093805183,91.57018895560032 80.2286200344679,91.67897041686228 80.18247912439983,91.65721413408028 80.2101636704756,91.65721413408028 80.19170730642509,91.61370155432087 80.30244549055351,91.62457970101968 80.27476094453596,91.80950801391737 80.30244549055351,92.09233888881863 80.51469367690152,93.49560330627719 80.60697549703764,93.86545266000758 80.64388822508045,94.21354491816601 80.68080095318146,94.3767127465253 80.70848549919901,94.45285764184518 80.80076731933514,94.51812464879185 80.76385459129233,94.57251378864021 80.75462640926708,94.74655883713422 80.76385459129233,95.32308089381695 80.78231095528463,95.5950241049577 80.80999550136039,95.73643428212381 80.87459277547896,95.86696657565335 80.96687459561508,95.99749869858351 81.03147186973365,96.04100936828036 81.03147186973365,96.07364235815476 80.96687459561508,96.09539767876413 81.08684096176876,96.11715299470234 81.07761277980171,96.20417421091406 81.11452550784452,96.25856243255112 81.2529482380487,96.78068785330106 81.26217642007396,96.9547290536284 81.2344918739982,97.11789240346843 81.24372005602345,97.19403520884953 81.28986096609151,97.25930042441178 81.43751187832095,97.37895320880489 81.52979369851528,97.47685083489341 82.07425643730676,98.34704773814155 82.38801462581614,98.70600175191794 82.53566553804558,98.94530371109431 82.89556463656481,99.58706522556895 83.21855100704124,100.19619098428666 83.6153628336615,101.05548707737034 83.83683920203475,101.44706259192026 84.45512739697006,102.7305493498643 84.8150264955475,103.31790219630784 85.11955650203163,103.92700520405197 85.36871741636423,104.48172078315838 85.37794559838949,104.47084403671761 85.35948923439719,104.5143510154303 85.32257650635438,104.55785797516728 85.34103287040489,104.52522775714169 85.4333146904828,104.50347427251108 85.42408650851576,104.55785797516728 85.47945560060907,104.61224164823943 85.56250923871994,104.75363905962149 85.69170378689887,105.12344672772451 86.02391833945876,105.67815566299396 86.208481979731,106.14584903858486 87.04824654303957,107.74469125037285 87.1958974552108,108.08185878986842 87.42660200560931,108.4625304506917 87.90646747034043,109.36526030502137 88.21099747682456,109.85468874368962 88.4140174810891,110.37674310219882 88.64472203142941,110.86616658580897 88.87542658182792,111.24682763776946 89.03230567608261,111.59485933033284 89.58599659695756,112.70420225960697 89.90898296743399,113.16098694458196 89.94589569547679,113.24799331448594 89.94589569547679,113.44375736971415 89.9643520595273,113.53076349338517 90.32425115810474,114.0745500496705 90.94253935304005,115.31437233216275 91.41317663574591,116.21704028135719 91.69925027817953,116.80431384576514 91.91149846452754,117.27195514152845 92.21602847101167,117.80484604326193 92.3821357472334,118.14197963588958 92.63129666168243,118.59873946310108 92.82508848392172,119.01199655542587 92.9265984860831,119.28387528936582 93.03733667026972,119.50137774396717 93.29572576662758,120.08863200678024 93.50797395297559,120.39313285850221 93.67408122925553,120.68675780109334 93.98783941770671,121.1870057163469 94.20931578607997,121.46975343031227 94.54153033858165,121.8721237978898 95.36283853789791,122.65511013998184 95.91652945871465,123.00310210072348 96.46099219756434,123.38371692035435 96.7378376579145,123.54683711362304 97.15310584864346,123.75345564290183 97.5130049471627,123.96007374498731 98.17743405222427,124.25368820791482 99.44169498817064,124.87353813035588 100.13380863924976,125.23239685469889 100.81669410830364,125.5151331239249 101.49035139533225,125.91748720502073 101.97021686012158,126.12410083345458 102.53313596290536,126.40683458024432 104.08347054128535,127.14628829055437 104.19420872547198,127.22240821488958 104.231121453573,127.30940234314039 104.29571872763336,127.28765381816629 104.25880599959055,127.32027660385211 104.2495778175653,127.30940234314039 104.29571872763336,127.32027660385211 104.87709419452585,127.54863580539677 105.91987876215717,128.03797519474756 106.42742877296405,128.34245182792802 107.85779698519036,129.01664678654197 108.28229335782817,129.28849830597028 109.33430610748474,130.0496786269723 109.68497702397872,130.26715765405243 110.39554703905014,130.767357620658 111.89051252539502,131.9417303142618 112.29655253404053,132.191826420727 112.90561254695058,132.70289043179218 113.50544437789358,133.11608921142033 113.88379984046333,133.33356156732043 114.21601439296501,133.4966655237513 114.23447075701552,133.51841269786382 114.21601439296501,133.52928628311201 114.20678621099796,133.50753911140055 114.24369893904077,133.4966655237513 114.64051076566102,133.6380220707506 115.10191986639984,133.86636683982215 115.92322806559969,134.22519328027556 116.33849625627045,134.44266322342446 117.5289317361312,135.00808286162646 118.24872993322788,135.41039873388218 118.85778994613793,135.70397956480156 118.97775631234981,135.7800929728255 119.02389722241787,135.83445965735154 119.03312540444313,135.88882631235901 119.03312540444313,135.95406625927717 119.00544085842557,136.0301794768966 118.7470517620095,136.53035060830007 118.39638084545732,137.29147578962875 118.07339447498089,137.90037176272017 117.9349717447185,138.20481835865212 117.41819355194457,139.27037414380902 117.28899900370743,139.4769601756052 116.9106435411959,140.28155433618667 116.63379808072932,140.836068164499 116.44923444045708,141.118760305224 116.3846371663385,141.2818515613253 116.40309353038901,141.23836058571032 116.44923444045708,141.24923333139304 117.07675081741763,141.48843343711633 118.06416629295563,141.9450865954641 118.42406539147487,142.09730385144212 119.716010873497,142.74966089534428 120.38043997855857,143.054092725979 120.81416453322163,143.28241599070316 121.48782182025025,143.58684619930864 121.67238546052249,143.65208112344408 122.678257300111,143.89127548110264 123.02892821660498,143.93476530284534 123.32423004106386,144.0 123.41651186119998,144.0 123.5087936813361,143.96738265675958 123.59184731944697,143.88040302271838 123.66567277559079,143.78255084403645 123.71181368565885,143.67382608870685 123.84100823383778,142.7605334766995 123.9332900539739,142.3799924263585 123.9332900539739,142.2169029614306 123.90560550801456,142.08643119799672 123.86869277991354,141.99944992776727 123.81332368782023,141.92334125425987 123.74872641370166,141.86897788056376 123.66567277559079,141.83635984218563" stroke="#4dd2ff" stroke-linecap="round" stroke-linejoin="round" stroke-width="0.5"><title>2023-07-21 14.4km</title></polyline><polyline fill="none" points="81.07870205922518,156.0 80.92863228049828,156.75214086192136 80.84109157620696,157.2093224782002 80.76605668681441,157.4895298013871 80.6159869080293,157.8582227628649 80.4659171293024,158.62510090181604 80.41589386970736,158.80207216225972 80.36587061005412,159.31823701538087 80.31584735051729,159.53944992054312 80.30334153561853,159.76066246378468 80.4033880547504,160.0851068724296 80.57846946333302,160.5717720255343 80.7410450570751,160.8372250069806 81.1662427635747,161.63358082421473 81.42886487644864,162.00226248447143 81.67898117430741,162.44467914965935 81.90408584254328,162.7396227887948 82.02914399153087,163.12304855776893 82.36680099373916,163.80141456222918 82.42933006823296,164.36180130312277 82.52937658742303,164.61249988262716 82.67944636620814,165.26136463570583 82.67944636620814,165.4383272097475 82.72946962580318,165.68902379318024 82.74197544070194,166.04294759019103 82.79199870029697,166.33788338003797 82.86703358968953,166.58857829554472 82.84202195989201,167.10471342277015 82.89204521942884,168.0042585068004 82.82951614499325,168.16647091787308 82.81701033009449,168.28444345823664 82.7544812556007,168.7415860799083 82.72946962580318,169.31669879589754 82.61691729171434,169.47890963249665 82.56689403211931,169.74434512719745 82.42933006823296,170.05401921246084 82.35429517889861,170.39318525406998 82.09167306602467,170.82082818087656 81.76652187865693,171.14524605084443 81.39134743169416,171.61712519951107 81.1037136890809,171.89730266491824 80.96614972513635,171.9562873205141 81.61645209987182,172.32494083502388 81.74151024891762,172.42816363903694 82.34178936399985,172.81156193530478 82.60441147681559,173.09173692595505 82.9045510343858,173.28343526931712 83.09213825786719,173.47513334092218 83.61738248355687,173.8142908019072 83.88000459643081,174.02073405732517 84.03007437515771,174.16819333257445 84.66787093499443,174.58107844776532 85.105574456451,174.96447064027598 85.2556442351779,175.0381997834338 85.43072564376052,175.18565794923052 85.70585357147502,175.4510822424054 85.73086520133074,175.52481112026726 85.58079542248743,175.81972622981993 85.50576053315308,175.92294636621955 85.49325471825432,175.98192926587944 85.51826634811005,176.05565785437648 85.78088846086757,176.18836921232287 86.03100475884276,176.38006316611427 86.51873153989436,176.6454851150629 86.8438827273203,176.8814152990235 87.2065513592679,177.0288714550261 87.56921999133192,177.20581862994004 87.86935954890214,177.48598451675207 88.20701655116864,177.5302211826929 88.644720072567,177.47123895824188 89.23249337275047,177.6481855543825 90.3830283433781,177.86936847398465 90.73319116048515,177.86936847398465 90.95829582866281,177.83987743894977 91.29595283092931,177.88411398910102 91.95876102050534,177.91360501450254 92.55904013564577,177.83987743894977 93.32189484441187,177.69242216723796 93.73458673601272,177.6334400135529 94.25983096170239,177.47123895824188 94.63500540872337,177.41225670809217 94.76006355771096,177.3680200035451 95.64797641546465,177.29429213056574 96.31078460504068,177.19107304084173 96.68595905200345,177.17632745018636 96.81101720099105,177.19107304084173 96.89855790522415,177.30903770840087 96.91106372012291,177.39751114149112 96.8860520903836,177.73665876562882 96.89855790522415,177.83987743894977 96.87354627542663,177.9430960334721 96.698464866844,178.37071508586814 96.49837182852207,178.97527764596452 96.31078460504068,179.46187481677043 96.01064504747046,180.36133770515153 95.76052874955349,180.98063654451107 95.3603426728514,182.29295090428786 95.27280196850188,182.4551461769879 95.06020311522298,182.66157624278276 95.0226856705267,182.73530118989584 95.0226856705267,182.95647579016804 94.96015659609111,183.1923949651391 94.63500540872337,184.18030204085517 94.52245307463454,184.6226461538754 94.07224373833742,185.87594661825278 93.99720884894487,186.22981758817332 93.85964488505851,186.5541984972806 93.79711581056472,186.8196004807396 93.68456347641768,187.08500194340013 93.59702277218457,187.36514736679965 93.60952858708333,187.58631439651072 93.57201114238705,187.73375888205192 93.2843773997156,188.52995632689272 93.25936576991808,188.6921441207378 93.25936576991808,189.016519124998 93.12180180603173,189.70949948272028 93.12180180603173,190.25503471374395 93.03426110179862,190.69735896159546 93.0717785464949,190.9774969038117 93.03426110179862,191.50828299293062 93.08428436133545,191.891627206438 93.05927273153793,192.0832989058399 93.13430762093049,192.40766577847535 93.13430762093049,192.71728797674587 93.2218483252218,193.01216560203466 93.25936576991808,193.26281107819523 93.2843773997156,193.80833197971515 93.5595053274883,195.4006506782316 93.63454021688085,195.63654815073824 93.65955184667837,195.85770165763097 93.74709255096968,196.24103354648105 93.78460999566596,196.58013392743305 94.00971466378542,197.42050946901145 94.05973792338045,197.78909358599049 94.20980770216556,198.29036637363606 94.24732514686184,198.77689406789432 94.24732514686184,199.1307312920544 94.42240655544447,199.7352010759496 94.44741818524199,199.92686166299973 94.44741818524199,200.26595280579932 94.45992400014075,200.3544112250238 94.57247633417137,200.70824432358495 94.66001703846268,201.22424926690292 94.71004029811593,201.40116479448625 94.73505192785524,201.6517947291868 94.88512170669856,202.1088245914143 94.8976275215391,202.19728180578386 94.86011007690104,202.50688160066784 94.96015659609111,202.8754518613714 95.06020311522298,203.1408218274155 95.03519148548367,203.55361851789348 95.13523800461553,204.05486994894454 95.14774381951429,204.20229648701206 95.22277870884864,204.5118916941865 95.38535430259071,204.9246842017892 95.42287174728699,205.19005014888535 95.57294152601389,205.75026543911372 95.61045897076838,206.01562976704736 95.59795315586962,206.31047840998508 95.62296478560893,206.51687207774376 95.62296478560893,206.70852305881272 95.6354706005659,206.76749253683374 95.81055200914852,207.03285486990353 95.89809271338163,207.32770129630808 95.97312760277418,207.94687670060375 95.94811597297667,208.005845638967 95.96062178793363,208.07955677573045 96.0606683070655,208.6102757755143 96.16071482625557,209.03779790046974 96.17322064115433,209.24418740840338 96.22324390069116,209.59799726112396 96.28577297524316,209.80438591465645 96.41083112423075,210.09922630223446 96.41083112423075,210.30561419131118 96.43584275402827,210.4825178457395 96.6109241626109,211.0721950235311 96.66094742214773,211.29332330274337 96.68595905200345,211.83877151327033 96.78600557113532,212.1188656859449 96.83602883073036,212.36947577008686 96.84853464562912,212.82646943473083 96.89855790522415,213.1360449113563 97.0361218691105,213.63726084830705 97.07363931374857,213.99105921559385 97.17368583299685,214.52175503224134 97.22370909253368,214.6102041326958 97.47382539056707,214.83132663091237 97.5863777245977,215.02296583713905 97.89902309706667,216.02538187832397 97.98656380135799,216.39391532097943 98.3492324333638,217.24890904320637 98.54932547174394,217.8385567391233 98.68688943563029,218.13337962373043 98.86197084421292,218.69354133520392 98.93700573360547,219.01784442430653 99.4497441444546,220.50668045178463 99.6623429977335,221.1994995541172 99.99999999994179,222.02498151421605 100.32515118725132,222.894680276062 100.60027911502402,223.76437344987062 100.72533726401161,224.10340486829227 100.82538378320169,224.47191631647001 101.23807567486074,225.62166558671743 101.5257094175322,226.4913412398455 101.6757791962591,226.90406671339588 101.77582571544917,227.12516912804858 101.96341293887235,227.77373412762245 102.25104668154381,228.49599603826937 102.76378509239294,229.38039312949695 103.17647698399378,230.25004463510413 103.52663980121724,230.73645744775422 103.8768026183825,231.31130670031416 104.53961080790032,232.29886253815494 105.50255855504656,233.43380587274441 106.22789581917459,234.14129820217204 106.56555282138288,234.5392610127601 107.42845404933905,235.34992237875122 107.6285470877192,235.526793304467 107.95369827508694,235.71840321319178 108.2663436474977,235.95423042094626 108.59149483480724,236.24901385296835 108.97917509672698,236.54379664319276 109.21678557974519,236.75014421442756 109.50441932247486,236.9270133109094 109.74202980549308,237.0301868438255 109.9796402885695,237.1628384134965 110.49237869936042,237.53131431389193 110.80502407177119,237.64922639030556 111.1676927038352,237.85557227680692 111.46783226146363,238.0471788898576 113.18112890247721,238.81360263039824 113.84393709205324,239.03468559551402 114.2191115389578,239.21155170765996 114.41920457733795,239.2557681996259 114.48173365183175,239.2410293705907 114.5567685412243,239.18207403837005 114.88191972859204,238.82834150599956 115.24458836065605,238.73990822852647 115.83236166083952,238.22404629195808 115.91990236513084,238.01770096700056 115.95741980982712,237.6639653926104 116.04496051406022,237.31022889401356 116.13250121840974,237.22179462492932 116.23254773754161,237.14809935662197 116.420134961023,237.13336029810307 116.79530940792756,237.23653367381485 117.48312922735931,237.20705557450128 117.72073971043574,237.20705557450128 117.97085600835271,237.2512727210269 119.30897820246173,237.23653367381485 119.63412938977126,237.2807508107362 119.67164683452575,237.31022889401356 119.69665846432326,237.35444600689516 119.6841526493663,238.1061347162031 119.55909450043691,238.81360263039824 119.55909450043691,239.43263402300363 119.45904798124684,240.36117580527207 119.45904798124684,240.6264722878259 119.39651890669484,241.05389330515754 119.37150727695553,241.73186870320933 119.15890842367662,243.24993174074916 119.09637934924103,244.39952155193896 119.12139097898034,244.97431279766897 119.02134445984848,245.4311964064109 118.9838270151522,245.85860225775104 118.97132120019523,246.22705449514615 118.93380375549896,246.44812535637175 118.93380375549896,246.8902659960877 118.8587688661064,247.39135697596066 118.87127468100516,247.58295009592257 118.90879212570144,247.75980504299514 118.9212979406584,247.95139764162013 118.89628631086089,248.42300903738942 118.82125142146833,248.8798810107255 118.84626305126585,249.45465323957615 118.80874560656957,250.0441606837412 118.80874560656957,250.4715519761521 118.74621653201757,250.8989419198042 118.58364093839191,251.53265556044062 118.48359441920184,252.03372936305823 118.28350138082169,252.62322558088636 118.1584432318341,253.09482070765807 117.98336182325147,253.5958887305751 117.77076297003077,253.93484545960382 117.50814085709862,254.4211731977848 117.27053037408041,254.95171055688115 117.1829896697891,255.26118972327095 116.93287337187212,255.8211978458712 116.70776870369446,256.41067757872224 116.30758262693416,257.16226051721605 116.0824779588147,257.63383983945823 115.95741980982712,257.94331287739624 115.3821523244842,259.0780413002067 115.18205928616226,259.6527702512103 114.79437902430072,260.3748621432751 114.46922783693299,261.12642308537033 114.3441696879454,261.31799677624076 114.15658246452222,261.8779798575124 113.74389057286317,262.7179501388746 113.63133823877433,263.01267531896883 113.46876264509046,263.29266364611976 113.13110564282397,264.0" stroke="#4dd2ff" stroke-linecap="round" stroke-linejoin="round" stroke-width="0.5"><title>2023-07-06 10.7km</title></polyline></svg>