<?xml version="1.0" encoding="utf-8" ?>
<svg baseProfile="full" height="300mm" version="1.1" viewBox="0,0,200,300" width="200mm" xmlns="http://www.w3.org/2000/svg" xmlns:ev="http://www.w3.org/2001/xml-events" xmlns:xlink="http://www.w3.org/1999/xlink"><defs /><rect fill="#222222" height="300" width="200" x="0" y="0" /><text fill="#FFFFFF" style="font-size:12px; font-family:Arial; font-weight:bold;" x="10" y="20">Over 10km Runs</text><text fill="#FFFFFF" style="font-size:4px; font-family:Arial" x="10" y="280">ATHLETE</text><text fill="#FFFFFF" style="font-size:9px; font-family:Arial" x="10" y="290">Chongnuo Ji</text><text fill="#FFFFFF" style="font-size:4px; font-family:Arial" x="120" y="280">STATISTICS</text><text fill="#FFFFFF" style="font-size:3px; font-family:Arial" x="120" y="285">Number: 1</text><text fill="#FFFFFF" style="font-size:3px; font-family:Arial" x="120" y="290">Weekly: 1.0</text><text fill="#FFFFFF" style="font-size:3px; font-family:Arial" x="141" y="285">Total: 10.7 km</text><text fill="#FFFFFF" style="font-size:3px; font-family:Arial" x="141" y="290">Avg: 10.7 km</text><text fill="#FFFFFF" style="font-size:3px; font-family:Arial" x="167" y="285">Min: 10.7 km</text><text fill="#FFFFFF" style="font-size:3px; font-family:Arial" x="167" y="290">Max: 10.7 km</text><polyline fill="none" points="71.61805308889598,69.0 71.39294842083473,70.12821129288932 71.26163736439776,70.81398371732212 71.14908503030892,71.23429470208066 70.92398036213126,71.78733414430462 70.6988756939536,72.93765135272406 70.62384080456104,73.20310824339685 70.54880591516849,73.97735552307859 70.47377102589235,74.30917488082196 70.4550123034278,74.64099369567703 70.6050820822129,75.12766030865896 70.86770419508684,75.85765803830873 71.11156758561265,76.25583751048543 71.74936414544936,77.45037123633665 72.14329731476028,78.00339372672897 72.51847176160663,78.66701872448903 72.85612876387313,79.10943418320676 73.04371598735452,79.68457283664611 73.55020149075426,80.70212184335105 73.64399510237854,81.54270195469144 73.79406488128006,81.91874982393347 74.01916954934131,82.89204695356602 74.01916954934131,83.15749081462855 74.09420443885028,83.53353568978491 74.112963161082,84.06442138529383 74.18799805047456,84.50682507005695 74.3005503845634,84.88286744331708 74.26303293998353,85.65707013416977 74.33806782925967,87.00638776022242 74.24427421751898,87.24970637680963 74.22551549517084,87.42666518736223 74.13172188343015,88.11237911986245 74.09420443885028,88.97504819385358 73.92537593760062,89.2183644487668 73.85034104832448,89.61651769081072 73.64399510237854,90.08102881869127 73.53144276840612,90.58977788110496 73.13750959909521,91.23124227131484 72.6497828180436,91.71786907626665 72.08702114759944,92.42568779927387 71.65557053370867,92.84595399737009 71.44922458776273,92.93443098076386 72.42467814986594,93.48741125255765 72.61226537346374,93.64224545855541 73.51268404605798,94.217342902979 73.9066172153689,94.63760538893985 74.35682655160781,94.92515290399024 74.63820738682989,95.21270001139783 75.42607372545172,95.72143620287534 75.82000689464621,96.03110108600231 76.04511156282388,96.25228999886895 77.00180640257895,96.87161767165526 77.6583616847638,97.44670596042124 77.88346635282505,97.55729967515799 78.146088465699,97.7784869238385 78.55878035735805,98.17662336361536 78.59629780205432,98.28721668041544 78.37119313387666,98.7295893447299 78.25864079978783,98.88441954934387 78.23988207743969,98.97289389882644 78.27739952225238,99.08348678157199 78.67133269144688,99.28255381849885 79.04650713829324,99.5700947491714 79.77809730987065,99.96822767260892 80.26582409103867,100.32212294853525 80.80982703890186,100.54330718253914 81.35382998699788,100.80872794492461 81.80403932346962,101.22897677513538 82.31052482675295,101.2953317740612 82.96708010893781,101.20685843736283 83.84874005918391,101.47227833158104 85.57454251509625,101.80405271098425 86.09978674084414,101.80405271098425 86.43744374311063,101.75981615841738 86.94392924651038,101.82617098365154 87.93814153084531,101.87040752176836 88.83856020355597,101.75981615841738 89.98284226667602,101.53863325086422 90.6018801041646,101.45016002033663 91.38974644267,101.20685843736283 91.95250811311416,101.11838506214553 92.14009533659555,101.0520300053322 93.47196462319698,100.9414381958486 94.46617690764833,100.78660956126987 95.0289385780925,100.76449117528682 95.21652580157388,100.78660956126987 95.34783685789444,100.96355656260857 95.36659558024257,101.09626671225124 95.32907813566271,101.60498814846505 95.34783685789444,101.75981615841738 95.31031941319816,101.91464405020815 95.04769730032422,102.55607262880949 94.74755774287041,103.46291646896861 94.46617690764833,104.19281222515565 94.015967571293,105.54200655773457 93.64079312433023,106.47095481678843 93.04051400930621,108.43942635644635 92.90920295286924,108.68271926548914 92.59030467295088,108.99236436418141 92.53402850590646,109.10295178485103 92.53402850590646,109.43471368525934 92.44023489416577,109.78859244771593 91.95250811311416,111.2704530612973 91.78367961198092,111.93396923082764 91.10836560756434,113.81391992738645 90.9958132734755,114.34472638227453 90.78946732764598,114.83129774594272 90.69567371590529,115.22940072111669 90.52684521477204,115.6275029151002 90.39553415833507,116.04772105021402 90.4142928806832,116.3794715947879 90.35801671363879,116.6006383230997 89.9265660996316,117.79493449034635 89.88904865493532,118.03821618109941 89.88904865493532,118.52477868751157 89.6827027091058,119.56424922410224 89.6827027091058,120.38255207063048 89.55139165278524,121.04603844240773 89.60766781982966,121.46624535571027 89.55139165278524,122.26242448939593 89.62642654206138,122.83744080967153 89.5889090973651,123.12494835877442 89.70146143145394,123.61149866772757 89.70146143145394,124.07593196514063 89.8327724878909,124.51824840305198 89.88904865493532,124.89421661729284 89.9265660996316,125.71249796958 90.33925799129065,128.10097601736197 90.45181032537948,128.45482222610735 90.48932777007576,128.786552486461 90.62063882651273,129.36155031972157 90.67691499355715,129.87020089116413 91.01457199582364,131.13076420352445 91.08960688509978,131.683640378993 91.31471155339386,132.4355495604541 91.37098772043828,133.1653411018342 91.37098772043828,133.69609693808889 91.6336098331958,134.60280161393166 91.67112727789208,134.8902924944996 91.67112727789208,135.3989292086917 91.68988600024022,135.53161683754297 91.85871450137347,136.06236648539198 91.99002555781044,136.83637390036893 92.065060447203,137.10174719174393 92.10257789189927,137.47769209378748 92.32768256007694,138.16323688712146 92.34644128242508,138.2959227086685 92.29016511538066,138.76032240100903 92.44023489416577,139.31317779204983 92.59030467295088,139.71123274113052 92.5527872282546,140.3304277768475 92.70285700703971,141.0823049234168 92.72161572938785,141.30344473052537 92.83416806336027,141.76783754127973 93.07803145400248,142.38702630269108 93.1343076210469,142.78507522332075 93.35941228910815,143.62539815867785 93.41568845615257,144.02344465056376 93.39692973380443,144.46571761497762 93.4344471785007,144.77530811663019 93.4344471785007,145.0627845882118 93.45320590096526,145.1512388052506 93.71582801372278,145.54928230486985 93.84713907015976,145.99155194447667 93.95969140424859,146.9203150509129 93.92217395955231,147.00876845844323 93.94093268190045,147.1193351636175 94.09100246068556,147.91541366328602 94.24107223947067,148.55669685071916 94.2598309618188,148.8662811126269 94.33486585109495,149.39699589168595 94.42865946295206,149.70657887199195 94.61624668643344,150.14883945336624 94.61624668643344,150.45842128698132 94.65376413112972,150.72377676861652 94.91638624400366,151.60829253529664 94.9914211332798,151.93998495410779 95.0289385780925,152.75815726991277 95.17900835676119,153.17829852893192 95.25404324615374,153.55421365513757 95.27280196850188,154.23970415211807 95.34783685789444,154.70406736704172 95.55418280372396,155.45589127247513 95.61045897076838,155.98658882339078 95.76052874955349,156.78263254837657 95.83556363894604,156.91530619906553 96.21073808590882,157.24698994637583 96.37956658704206,157.53444875571586 96.84853464574553,159.03807281749323 96.9798457021825,159.5908729814837 97.52384865016211,160.87336356480955 97.82398820773233,161.75783510868496 98.03033415356185,162.2000694356102 98.29295626631938,163.04031200282043 98.40550860040821,163.52676663645252 99.17461621679831,165.76002067768422 99.49351449660026,166.79924933119037 100.0,168.03747227133135 100.48772678093519,169.34202041410026 100.90041867259424,170.64656017480593 101.08800589607563,171.15510730246024 101.23807567486074,171.70787447472685 101.85711351234931,173.4324983800907 102.2885641263565,174.73701185977552 102.51366879453417,175.35610007011564 102.66373857320286,175.6877536920656 102.94511940842494,176.66060119144095 103.37657002243213,177.74399405742588 104.14567763870582,179.0705896942527 104.76471547607798,180.37506695266347 105.28995970194228,181.10468617164588 105.81520392757375,181.9669600504858 106.80941621190868,183.44829380724696 108.25383783271536,185.15070880911662 109.34184372879099,186.21194730326533 109.84832923207432,186.808891519162 111.14268107409589,188.02488356812682 111.44282063166611,188.29018995670776 111.93054741271771,188.57760481980222 112.39951547130477,188.93134563142667 112.88724225235637,189.37352077946707 113.46876264514867,189.81569496479642 113.82517836964689,190.1252163216559 114.2566289837705,190.39051996637136 114.61304470826872,190.54528026573826 114.96946043288335,190.7442576202593 115.73856804915704,191.29697147085972 116.20753610774409,191.4738395854656 116.75153905584011,191.7833584152104 117.20174839219544,192.07076833480096 119.77169335377403,193.2204039456119 120.76590563810896,193.55202839327103 121.32866730855312,193.81732756148267 121.62880686612334,193.8836522994534 121.72260047774762,193.86154405589332 121.83515281183645,193.77311105756962 122.32287959288806,193.24251225899206 122.86688254098408,193.109862342797 123.7485424913466,192.33606943795166 123.87985354778357,192.0265514505154 123.93612971482798,191.4959480889229 124.06744077114854,190.96534334102762 124.19875182770193,190.83269193740853 124.34882160637062,190.72214903493295 124.6302024415927,190.70004044717643 125.19296411192045,190.8548005107441 126.22469384106807,190.8105833617592 126.58110956568271,190.8105833617592 126.95628401264548,190.8769090815622 128.9634673037799,190.8548005107441 129.4511940847151,190.9211262161116 129.50747025187593,190.96534334102762 129.5449876965722,191.03166901036457 129.52622897410765,192.1592020743119 129.33864175074268,193.2204039456119 129.33864175074268,194.14895103451272 129.18857197195757,195.54176370792266 129.18857197195757,195.9397084317461 129.09477836010046,196.58083995773632 129.0572609155206,197.59780305482855 128.73836263560224,199.8748976111383 128.64456902386155,201.599282327923 128.68208646855783,202.46146919651073 128.53201668977272,203.14679460960906 128.4757405227283,203.78790338663384 128.45698180038016,204.3405817427265 128.40070563333575,204.67218803457217 128.40070563333575,205.3353989941388 128.28815329924691,206.08703546396282 128.30691202159505,206.37442514389113 128.36318818863947,206.6397075644927 128.38194691110402,206.92709646244475 128.34442946629133,207.63451355608413 128.2318771322025,208.3198215161101 128.2693945770152,209.18197985937877 128.21311840997078,210.0662410256191 128.21311840997078,210.70732796425 128.11932479811367,211.34841287971358 127.87546140758786,212.29898334067548 127.72539162891917,213.05059404458734 127.42525207134895,213.9348383713368 127.23766484786756,214.64223106150166 126.97504273499362,215.3938330958772 126.65614445507526,215.90226818942756 126.26221128576435,216.63175979669904 125.90579556126613,217.427565835329 125.77448450482916,217.89178458492097 125.39931005786639,218.7317967688141 125.06165305559989,219.6160163681052 124.46137394045945,220.74339077582408 124.12371693830937,221.45075975918735 123.93612971482798,221.91496931610163 123.0732284868136,223.61706195032457 122.7730889293598,224.47915537681547 122.1915685365675,225.56229321491264 121.7038417555159,226.68963462807005 121.51625453203451,226.97699516438297 121.23487369681243,227.81696978629043 120.61583585932385,229.07692520832643 120.4470073581906,229.51901297846052 120.2031439676648,229.93899546918692 119.69665846438147,231.0" stroke="#4DD2FF" stroke-linecap="round" stroke-linejoin="round" stroke-width="0.5"><title>2023-07-06 10.7km</title></polyline></svg>