<?xml version="1.0" encoding="utf-8" ?>
<svg baseProfile="full" height="200mm" version="1.1" viewBox="0,0,200,200" width="200mm" xmlns="http://www.w3.org/2000/svg" xmlns:ev="http://www.w3.org/2001/xml-events" xmlns:xlink="http://www.w3.org/1999/xlink"><defs /><rect fill="#1a1a1a" height="200" width="200" x="0" y="0" /><text alignment-baseline="middle" fill="#e1ed5e" style="dominant-baseline: central; font-size:9.0px; font-family:Arial;" text-anchor="middle" x="100.0" y="100.0">2023</text><line stroke="#e1ed5e" stroke-width="0.3" x1="100.0" x2="100.0" y1="15.0" y2="10.0" /><path d="M 100.0 14.0 a86.0,86.0 0 0,1 42.46469731375804,11.215312516191453" fill="none" id="id1" stroke="none" /><text fill="#e1ed5e" style="font-size:6.75px; font-family:Arial;" text-anchor="middle"><textPath startOffset="22.20632615414155" xlink:href="#id1">January</textPath></text><line stroke="#e1ed5e" stroke-width="0.3" x1="143.23703022742887" x2="145.7803849466894" y1="26.81831364943548" y2="22.513508569990506" /><path d="M 143.74570117128098 25.957352633546492 a86.0,86.0 0 0,1 28.547481713284135,27.462654790039103" fill="none" id="id2" stroke="none" /><text fill="#e1ed5e" style="font-size:6.75px; font-family:Arial;" text-anchor="middle"><textPath startOffset="19.985693538727396" xlink:href="#id2">February</textPath></text><line stroke="#e1ed5e" stroke-width="0.3" x1="172.23445277983987" x2="176.4835382374775" y1="55.19839476539836" y2="52.563006222186495" /><path d="M 173.08426987136738 54.67131705675599 a86.0,86.0 0 0,1 12.851231095245387,41.99856678651699" fill="none" id="id3" stroke="none" /><text fill="#e1ed5e" style="font-size:6.75px; font-family:Arial;" text-anchor="middle"><textPath startOffset="22.20632615414155" xlink:href="#id3">March</textPath></text><path d="M 120.78858239683441 97.02765380044208 l 3.534321612874903 -0.505336401179707 a24.570265276081305,24.570265276081305 0 0,0 0.056258888508776576,0.41919406566787704 l -3.542496500441516 0.4444239934471656" fill="#ff1402" stroke="none" /><path d="M 120.83666639777658 97.38593545837742 l 6.099141349670204 -0.7651679415579759 a27.146951047636946,27.146951047636946 0 0,0 0.05417710168739603,0.4641563218591783 l -6.111408804361189 0.6600678813739448" fill="#ff3a05" stroke="none" /><path d="M 120.87857604477298 97.74499172005257 l 4.978407057978799 -0.5376970686418753 a26.007360080177897,26.007360080177897 0 0,0 0.044240840737200866,0.44549922869622177 l -4.986925024398229 0.45192230924121857" fill="#ff2904" stroke="none" /><line stroke="#e1ed5e" stroke-width="0.3" x1="184.98032266829074" x2="189.97916517819016" y1="98.17113171792111" y2="98.06355123074" /><path d="M 185.9800911702706 98.14961562048488 a86.0,86.0 0 0,1 -9.607161424134198,41.387399972396054" fill="none" id="id4" stroke="none" /><text fill="#e1ed5e" style="font-size:6.75px; font-family:Arial;" text-anchor="middle"><textPath startOffset="21.466115282336823" xlink:href="#id4">April</textPath></text><path d="M 120.13307415673323 105.97154293290107 l 8.828857568914145 2.618671227791973 a30.20902627705221,30.20902627705221 0 0,0 -0.15215743851289804,0.49725931283062363 l -8.782473357895114 -2.770257513174654" fill="#ff6509" stroke="none" /><line stroke="#e1ed5e" stroke-width="0.3" x1="174.80103733775053" x2="179.2010983576182" y1="140.37084112569926" y2="142.7455964860345" /><path d="M 175.68104954172406 140.8457921977663 a86.0,86.0 0 0,1 -30.038265399797805,32.042727171017184" fill="none" id="id5" stroke="none" /><text fill="#e1ed5e" style="font-size:6.75px; font-family:Arial;" text-anchor="middle"><textPath startOffset="22.206326154141568" xlink:href="#id5">May</textPath></text><path d="M 116.71984013943494 112.70617746262583 l 4.7734814567021315 3.6275886609918717 a26.995458673932788,26.995458673932788 0 0,0 -0.2843434011783474,0.3675521758992216 l -4.710331238305716 -3.709218831004346" fill="#ff3805" stroke="none" /><path d="M 114.55890576462653 115.13401014063108 l 4.3244906596422705 4.495316238333339 a27.23771493000094,27.23771493000094 0 0,0 -0.34068436500903515,0.32213833156193916 l -4.246470460242428 -4.569089206641199" fill="#ff3b05" stroke="none" /><path d="M 114.29624159901734 115.38237550388516 l 10.731546657627277 11.546858611876923 a36.763757086034644,36.763757086034644 0 0,0 -0.467250634740639,0.426822376429953 l -10.531196473419774 -11.72987375489346" fill="#ffbe11" stroke="none" /><path d="M 112.63410532772338 116.77436683061366 l 4.027898446532581 5.347861549827012 a27.69504212471421,27.69504212471421 0 0,0 -0.3832664517301394,0.28353135838316973 l -3.935247024383878 -5.416402856949952" fill="#ff4206" stroke="none" /><path d="M 112.04921762599082 117.19931262002967 l 1.323958527916663 1.889846903293895 a23.307463434495286,23.307463434495286 0 0,0 -0.3305698819461099,0.22736897909964934 l -1.2912317613476698 -1.9123566717586384" fill="#ff0200" stroke="none" /><path d="M 111.7513745106137 117.40417183066458 l 1.5600287959427044 2.310453913357039 a23.7878104544458,23.7878104544458 0 0,0 -0.34132710245250053,0.22621299150749763 l -1.5200269947502396 -2.336964925955855" fill="#ff0901" stroke="none" /><path d="M 111.45004920935366 117.60387380957326 l 1.5091491670904202 2.320240813950353 a23.76785993924019,23.76785993924019 0 0,0 -0.3448809261850582,0.2201193245675638 l -1.4689864388584315 -2.3458745673417254" fill="#ff0901" stroke="none" /><line stroke="#e1ed5e" stroke-width="0.3" x1="143.8653032363475" x2="146.44561519142675" y1="172.8068346515853" y2="177.08958963109032" /><path d="M 144.38136562736335 173.6633856474863 a86.0,86.0 0 0,1 -40.68145358897372,12.25698825130547" fill="none" id="id6" stroke="none" /><text fill="#e1ed5e" style="font-size:6.75px; font-family:Arial;" text-anchor="middle"><textPath startOffset="21.466115282336833" xlink:href="#id6">June</textPath></text><path d="M 110.8373102113329 117.98757091392108 l 4.335059852145196 7.195253710188232 a29.400263083717,29.400263083717 0 0,0 -0.4357288796129003,0.25743630241777393 l -4.210563101503914 -7.268808584899755" fill="#ff5a08" stroke="none" /><path d="M 109.89434966115114 118.52300852407294 l 8.320645326662767 15.576909002590355 a38.659932976291145,38.659932976291145 0 0,0 -0.5896727733343803,0.3084889253521625 l -8.051281650801892 -15.717827346887235" fill="#ffd614" stroke="none" /><path d="M 109.2508944713604 118.85261126421891 l 2.472680542769272 5.039132723624259 a26.61311033856369,26.61311033856369 0 0,0 -0.4129940725928545,0.19826225245303022 l -2.385573802176185 -5.080949252576849" fill="#ff3204" stroke="none" /><path d="M 108.59647513512805 119.15986991738527 l 4.187177215118275 9.332403049114468 a31.228694916846756,31.228694916846756 0 0,0 -0.49234167830421227,0.2158281231803691 l -4.025914862156309 -9.40309572558929" fill="#ff730a" stroke="none" /><path d="M 107.93186726928326 119.44442032107085 l 1.3915774526846572 3.4113552308308606 a24.684268220113378,24.684268220113378 0 0,0 -0.394805973736459,0.15710144481643531 l -1.332650402906332 -3.434803520053365" fill="#ff1602" stroke="none" /><path d="M 107.59598834532513 119.57807347666477 l 1.2523979656709132 3.2279590593396477 a24.4624009521125,24.4624009521125 0 0,0 -0.39387934445768774,0.1489314651581334 l -1.1966484004529505 -3.249038774604412" fill="#ff1302" stroke="none" /><path d="M 105.88484417918355 120.15858648285463 l 0.6243819244056336 2.138825878514324 a23.228099846534498,23.228099846534498 0 0,0 -0.3847777124173115,0.1087420249698175 l -0.5874730438837162 -2.1492566968226607" fill="#ff0100" stroke="none" /><path d="M 105.18746579009965 120.34920634021253 l 2.133052659282106 8.36746312257353 a29.635065301136898,29.635065301136898 0 0,0 -0.4953948728754547,0.12175600685541164 l -1.9887045016634404 -8.402940387742973" fill="#ff5d08" stroke="none" /><path d="M 104.48393922423573 120.51570834832081 l 0.6121548146964684 2.800838507010255 a23.86695480597576,23.86695480597576 0 0,0 -0.4021110666682555,0.08426628367300178 l -0.5638522865988348 -2.810960771409798" fill="#ff0a01" stroke="none" /><path d="M 104.13013068566511 120.58985236759428 l 2.7322927045342937 13.621240511026691 a34.892574148892855,34.892574148892855 0 0,0 -0.5899044682769101,0.11305659532973739 l -2.4974206216856794 -13.666254304704898" fill="#ffa50f" stroke="none" /><path d="M 103.7750983002368 120.6578951692458 l 1.6816837824663542 9.20242190351215 a30.35481850355476,30.35481850355476 0 0,0 -0.5148047538485846,0.08950540526080833 l -1.5230300571457196 -9.230005887293965" fill="#ff6709" stroke="none" /><path d="M 103.41894727170886 120.7198165907248 l 2.1536580170625363 13.05179506040645 a34.22828776347521,34.22828776347521 0 0,0 -0.5821484209143231,0.09091961085985689 l -1.9286737325396963 -13.086932978613413" fill="#ff9c0e" stroke="none" /><path d="M 102.70371172650421 120.8252237178851 l 1.1199909966484018 8.626682659462793 a29.699082338939522,29.699082338939522 0 0,0 -0.5075326767611651,0.061455139065756434 l -0.9713308968358565 -8.6446833272539" fill="#ff5e08" stroke="none" /><path d="M 102.34483914955558 120.86867818915974 l 1.4256255812653993 12.687830412290769 a33.76767202229948,33.76767202229948 0 0,0 -0.5781787689396125,0.05993059343094854 l -1.2070142157201842 -12.710490374177477" fill="#ff960d" stroke="none" /><path d="M 101.26447882468166 120.96189622390904 l 0.23908229711557516 3.9633864982849083 a24.97059099877854,24.97059099877854 0 0,0 -0.4292705375869534,0.022188383490439504 l -0.1708236911151422 -3.9669146885375497" fill="#ff1a02" stroke="none" /><line stroke="#e1ed5e" stroke-width="0.3" x1="102.19456741930631" x2="102.32365962044197" y1="184.97166512339345" y2="189.96999836594603" /><path d="M 102.22038585953345 185.97133177190398 a86.0,86.0 0 0,1 -42.740103519485714,-10.115201625700543" fill="none" id="id7" stroke="none" /><text fill="#e1ed5e" style="font-size:6.75px; font-family:Arial;" text-anchor="middle"><textPath startOffset="22.20632615414155" xlink:href="#id7">July</textPath></text><path d="M 100.54218724476979 120.99299961872073 l 0.6506563916427898 25.19282685721391 a46.201227724012654,46.201227724012654 0 0,0 -0.7951898131384095,0.013689913773494636 l -0.21690688861171226 -25.200294248266562" fill="#cbff1d" stroke="none" /><path d="M 99.81925306533755 120.99922214144158 l -0.06061882380731359 7.0427094625973305 a28.042970340442857,28.042970340442857 0 0,0 -0.4826599950562086,-0.008309429528726545 l 0.18183850875619015 -7.040622555789445" fill="#ff4706" stroke="none" /><path d="M 99.09653310690486 120.98055641714683 l -0.23411268495217932 5.436629091943599 a26.44166744965392,26.44166744965392 0 0,0 -0.4545598781127494,-0.023495553530482778 l 0.3276606314784177 -5.431793731650914" fill="#ff3004" stroke="none" /><path d="M 98.73552117531835 120.96189622390904 l -1.801348016962208 29.861844625363894 a50.91612640546212,50.91612640546212 0 0,0 -0.8743929170808038,-0.06030325497723476 l 2.315103694821942 -29.826413025870373" fill="#95ff23" stroke="none" /><path d="M 98.01472825383883 120.90594882070398 l -0.271903077013462 2.8632814743004333 a23.876162736070658,23.876162736070658 0 0,0 -0.4088138018110104,-0.042375222096494525 l 0.3211494754300657 -2.858176883748178" fill="#ff0a01" stroke="none" /><path d="M 97.2962882734958 120.8252237178851 l -2.433332085966504 18.742636122557737 a39.89993422907075,39.89993422907075 0 0,0 -0.6803345552836261,-0.09428817013972011 l 2.7555952324369613 -18.697973386925412" fill="#ffe615" stroke="none" /><path d="M 96.93821686468263 120.77559828337769 l -3.4324753902191296 23.290914696798428 a44.542484888346024,44.542484888346024 0 0,0 -0.7575703879941326,-0.11831691438275732 l 3.8328816418217793 -23.228379475068564" fill="#dfff1b" stroke="none" /><path d="M 96.58105272829116 120.7198165907248 l -2.8019184318241974 16.980442047166076 a38.21005982022613,38.21005982022613 0 0,0 -0.6480262907184778,-0.11266767708884709 l 3.093793694014725 -16.929695791556224" fill="#ffd113" stroke="none" /><path d="M 96.22490169976321 120.6578951692458 l -1.5061454752925703 8.241850374141563 a29.37833944063391,29.37833944063391 0 0,0 -0.4966791395967005,-0.09518973921002041 l 1.6477922294609657 -8.214703436583076" fill="#ff5a08" stroke="none" /><path d="M 95.51606077576429 120.51570834832081 l -1.4019595125292097 6.41449204301064 a27.565911866954806,27.565911866954806 0 0,0 -0.4626870712720831,-0.10530607104174866 l 1.5121667331941553 -6.389409238391204" fill="#ff4006" stroke="none" /><path d="M 95.16358092515715 120.4354850818985 l -4.249103189821168 17.953879410224445 a39.449841836574905,39.449841836574905 0 0,0 -0.6594636854347377,-0.16208012920810574 l 4.557520159999116 -17.878078022702308" fill="#ffe015" stroke="none" /><path d="M 94.81253420990036 120.34920634021253 l -9.564970537920786 37.521126305194414 a59.72109994049297,59.72109994049297 0 0,0 -0.993956914048214,-0.26251305493394556 l 10.20941789478049 -37.350921900956884" fill="#38ff2e" stroke="none" /><path d="M 94.46302465271185 120.25689768951611 l -10.728912162750868 39.25147980062679 a61.69137774437032,61.69137774437032 0 0,0 -1.0219289292357676,-0.2888073231741969 l 11.402972260091248 -39.06098368411407" fill="#31ff3d" stroke="none" /><path d="M 93.42475214034765 119.94407469862007 l -19.725743578957054 59.832224095860205 a84.0,84.0 0 0,0 -1.3693210682510968,-0.46454805240750785 l 20.752734380145377 -59.483813056554574" fill="#4dd2ff" stroke="none" /><path d="M 92.7421414339146 119.70592522655815 l -7.559577931032125 20.5251281899264 a42.87299946756867,42.87299946756867 0 0,0 -0.6903160878720714,-0.2610184764336208 l 7.911764239664479 -20.391961463386146" fill="#f3ff19" stroke="none" /><path d="M 92.40401165467489 119.57807347666478 l -4.837350465771263 12.467897335510576 a34.37342228068527,34.37342228068527 0 0,0 -0.5497765756378756,-0.21876744554173363 l 5.051248117450997 -12.382783045562775" fill="#ff9e0e" stroke="none" /><path d="M 92.06813273071674 119.44442032107085 l -5.084371055926088 12.463981622910733 a34.461116853017636,34.461116853017636 0 0,0 -0.5473221908606847,-0.228780720168911 l 5.2981647062842345 -12.374615859721848" fill="#ff9f0e" stroke="none" /><path d="M 91.40352486487194 119.15986991738527 l -6.90144735602271 15.381982906312212 a37.85928153089668,37.85928153089668 0 0,0 -0.5922850304833813,-0.27188900774864755 l 7.165200382273511 -15.26090682822949" fill="#ffcc13" stroke="none" /><path d="M 91.07499286063937 119.00905698771935 l -7.221105716855616 15.379977622728024 a37.99082338939522,37.99082338939522 0 0,0 -0.5895584797544766,-0.28302389769196584 l 7.4847768646103345 -15.253399448536495" fill="#ffce13" stroke="none" /><path d="M 90.7491055286396 118.85261126421891 l -2.520679692468771 5.136951298152291 a26.722070844686648,26.722070844686648 0 0,0 -0.41119679867071074,-0.20618261115900796 l 2.6087303988222423 -5.092800846083981" fill="#ff3404" stroke="none" /><path d="M 90.42595943632237 118.69057910512821 l -3.068506637695129 5.9903826043976345 a27.730558426508818,27.730558426508818 0 0,0 -0.42296905438244387,-0.22127741850083632 l 3.1711665946040686 -5.9366757669520815" fill="#ff4206" stroke="none" /><line stroke="#e1ed5e" stroke-width="0.3" x1="58.666819895761336" x2="56.23545636021788" y1="174.27360380694188" y2="178.64263932499728" /><path d="M 58.180547188652646 175.14741091055294 a86.0,86.0 0 0,1 -31.652253787137756,-30.449443065178592" fill="none" id="id8" stroke="none" /><text fill="#e1ed5e" style="font-size:6.75px; font-family:Arial;" text-anchor="middle"><textPath startOffset="22.20632615414155" xlink:href="#id8">August</textPath></text><path d="M 89.7882731507175 118.34994917583269 l -1.0660869271699176 1.9157035063038497 a23.19236430830906,23.19236430830906 0 0,0 -0.34716896753950166,-0.19713160032241478 l 1.0989046616306264 -1.8970687401868018" fill="#ff0000" stroke="none" /><path d="M 89.1626897886671 117.98757091392108 l -24.0308673294613 39.88599770445716 a67.56581790848446,67.56581790848446 0 0,0 -0.9910322518761584,-0.608772952212332 l 24.713878781269766 -39.46643628541645" fill="#38ff82" stroke="none" /><path d="M 88.54995079064634 117.60387380957326 l -6.0030068928407 9.229320668180021 a32.00983431989727,32.00983431989727 0 0,0 -0.45930347474890265,-0.30440129801059607 l 6.160985066329564 -9.124621349078106" fill="#ff7e0b" stroke="none" /><line stroke="#e1ed5e" stroke-width="0.3" x1="26.63291911575756" x2="22.317208475507996" y1="142.92168965132927" y2="145.44649492493687" /><path d="M 25.769776987707644 143.4266507060508 a86.0,86.0 0 0,1 -11.730757126820373,-40.83630448921669" fill="none" id="id9" stroke="none" /><text fill="#e1ed5e" style="font-size:6.75px; font-family:Arial;" text-anchor="middle"><textPath startOffset="21.46611528233685" xlink:href="#id9">September</textPath></text><line stroke="#e1ed5e" stroke-width="0.3" x1="15.007084014347285" x2="10.007500721073583" y1="101.09737516637583" y2="101.16192664675087" /><path d="M 14.007167355692545 101.11028546245083 a86.0,86.0 0 0,1 10.666146001902534,-42.60595125391555" fill="none" id="id10" stroke="none" /><text fill="#e1ed5e" style="font-size:6.75px; font-family:Arial;" text-anchor="middle"><textPath startOffset="22.20632615414155" xlink:href="#id10">October</textPath></text><line stroke="#e1ed5e" stroke-width="0.3" x1="26.266209847984243" x2="21.928928074336255" y1="57.711370442889674" y2="55.22380399835377" /><path d="M 25.398753493254645 57.213857153982495 a86.0,86.0 0 0,1 29.58750427330803,-30.492523968695096" fill="none" id="id11" stroke="none" /><text fill="#e1ed5e" style="font-size:6.75px; font-family:Arial;" text-anchor="middle"><textPath startOffset="21.46611528233685" xlink:href="#id11">November</textPath></text><line stroke="#e1ed5e" stroke-width="0.3" x1="56.762969772571076" x2="54.21961505331055" y1="26.818313649435495" y2="22.513508569990535" /><path d="M 56.25429882871897 25.957352633546506 a86.0,86.0 0 0,1 42.265352541879196,-11.944610805530505" fill="none" id="id12" stroke="none" /><text fill="#e1ed5e" style="font-size:6.75px; font-family:Arial;" text-anchor="middle"><textPath startOffset="22.20632615414155" xlink:href="#id12">December</textPath></text></svg>