<?xml version="1.0" encoding="utf-8" ?>
<svg baseProfile="full" height="200mm" version="1.1" viewBox="0,0,200,200" width="200mm" xmlns="http://www.w3.org/2000/svg" xmlns:ev="http://www.w3.org/2001/xml-events" xmlns:xlink="http://www.w3.org/1999/xlink"><defs /><rect fill="#1a1a1a" height="200" width="200" x="0" y="0" /><text alignment-baseline="middle" fill="#e1ed5e" style="dominant-baseline: central; font-size:9.0px; font-family:Arial;" text-anchor="middle" x="100.0" y="100.0">2024</text><line stroke="#e1ed5e" stroke-width="0.3" x1="100.0" x2="100.0" y1="15.0" y2="10.0" /><path d="M 100.0 14.0 a86.0,86.0 0 0,1 42.35913384403234,11.155469271406648" fill="none" id="id13" stroke="none" /><text fill="#e1ed5e" style="font-size:6.75px; font-family:Arial;" text-anchor="middle"><textPath startOffset="22.145653131862478" xlink:href="#id13">January</textPath></text><path d="M 100.72087961077811 79.0123766808444 l 1.1033453445874393 -32.12269585229359 a53.141639033633346,53.141639033633346 0 0,0 0.9114404485411334,0.03914117454723411 l -1.6546115537294088 32.09902210932053" fill="#a8ff21" stroke="none" /><path d="M 102.15924093988457 79.11130261209362 l 5.411399427976934 -52.35038063984777 a73.6293225959261,73.6293225959261 0 0,0 1.2561306131225503,0.14075205523811235 l -6.309265942700281 52.249772824102685" fill="#3effb7" stroke="none" /><path d="M 102.87502721639298 79.19773525538626 l 2.4861971499409683 -17.988884079247928 a39.159876835622924,39.159876835622924 0 0,0 0.6651116635600947,0.0977485101653005 l -2.794633919108745 17.943554495783744" fill="#ff920d" stroke="none" /><path d="M 103.23170211078529 79.25015418208739 l 2.140179796720913 -13.741489556343842 a34.90715300805306,34.90715300805306 0 0,0 0.591298077587293,0.09729787365168154 l -2.3757553773612767 13.70272568419649" fill="#ff5007" stroke="none" /><path d="M 103.94208987418118 79.37332000966035 l 2.0055919113550837 -10.494104362683464 a31.68403600189484,31.68403600189484 0 0,0 0.5333532418682626,0.10668558580236553 l -2.185441638754303 10.45812938021824" fill="#ff1c02" stroke="none" /><path d="M 104.29559338865022 79.4440306129975 l 2.646337850279302 -12.663684598672084 a33.937233538607295,33.937233538607295 0 0,0 0.5692366251557669,0.12406247303496847 l -2.8633368920542033 12.616390667503396" fill="#ff4106" stroke="none" /><path d="M 104.64783097203109 79.52079915486377 l 4.574073351205389 -20.15421115858386 a41.66674561819043,41.66674561819043 0 0,0 0.6961676807486934,0.16429367709037243 l -4.919373185693967 20.07272133784726" fill="#ffb811" stroke="none" /><path d="M 105.3480935250658 79.69241777938227 l 2.9337244443515873 -11.139829564886467 a32.51965892941734,32.51965892941734 0 0,0 0.5386162957576928,0.1468022665290382 l -3.1245221410439727 11.087826804213286" fill="#ff2a04" stroke="none" /><path d="M 105.69591212413111 79.78721728523813 l 4.120160025366274 -14.620994412809743 a36.19043107531975,36.19043107531975 0 0,0 0.5965216840150274,0.17363876841660209 l -4.370541721762906 14.548111950090625" fill="#ff6409" stroke="none" /><path d="M 107.06938296918511 80.22567764915836 l 13.50248798283012 -37.76886201733468 a61.10990052108006,61.10990052108006 0 0,0 0.984773965603369,0.36162264071028966 l -14.148851100087615 37.53150852761567" fill="#47ff2c" stroke="none" /><path d="M 108.07796709384702 80.6158196554323 l 13.316591893220108 -31.954972808666792 a55.61866414021791,55.61866414021791 0 0,0 0.8781522949891644,0.37483099656763896 l -13.863179263379703 31.72166716243975" fill="#88ff25" stroke="none" /><path d="M 108.4095320186766 80.7573450057729 l 7.576944528433388 -17.337531880161034 a39.92089057318806,39.92089057318806 0 0,0 0.6255919063668168,0.27981930251007175 l -7.873449837655836 17.204908826741107" fill="#ff9e0e" stroke="none" /><path d="M 109.3889696526874 81.21577127319529 l 28.166908958062173 -56.352686180414125 a84.0,84.0 0 0,0 1.2842911131456847,0.6557681933086643 l -29.130127292921436 55.86086003543262" fill="#4dd2ff" stroke="none" /><path d="M 110.34350942703115 81.72400993836675 l 7.246826358398426 -12.804447797799904 a35.71293225959261,35.71293225959261 0 0,0 0.530945068868391,0.30654127843607 l -7.4655638951272145 12.678159622087662" fill="#ff5d08" stroke="none" /><line stroke="#e1ed5e" stroke-width="0.3" x1="143.13028292997686" x2="145.6673583964461" y1="26.7553504044142" y2="22.446841604673864" /><path d="M 143.63769802327073 25.89364864446614 a86.0,86.0 0 0,1 29.32050498858742,28.57503671076993" fill="none" id="id14" stroke="none" /><text fill="#e1ed5e" style="font-size:6.75px; font-family:Arial;" text-anchor="middle"><textPath startOffset="20.669276256404974" xlink:href="#id14">February</textPath></text><path d="M 110.65571695917076 81.90426304109057 l 4.57322575320166 -7.766337131583111 a30.012790146849834,30.012790146849834 0 0,0 0.4417128723193846,0.2652358883861327 l -4.705871382078479 7.686687242661057" fill="#ff0000" stroke="none" /><path d="M 111.8722381534696 82.67804972795209 l 18.28920818336482 -26.68450131913776 a53.35054476551397,53.35054476551397 0 0,0 0.7509849010114263,0.5242457853325938 l -18.74458817555001 26.366610718000036" fill="#a5ff21" stroke="none" /><path d="M 112.16784306229584 82.88440491214696 l 8.862178450156255 -12.46576383115777 a36.29488394126007,36.29488394126007 0 0,0 0.5047045398628983,0.3653671651564836 l -9.074864000393122 12.31179589462821" fill="#ff6609" stroke="none" /><path d="M 112.7482090630111 83.31218511350987 l 19.15854725362517 -25.079153352624314 a52.55968735196589,52.55968735196589 0 0,0 0.7122840158786279,0.5538763589585749 l -19.586241214139022 24.74657594204495" fill="#afff20" stroke="none" /><path d="M 113.31354834802062 83.75963576809568 l 19.156751827149517 -23.368122384845755 a51.2167219327333,51.2167219327333 0 0,0 0.6751477690987662,0.563232281444688 l -19.555073930410174 23.035827919489197" fill="#c1ff1e" stroke="none" /><path d="M 113.86319453409587 84.22622945171908 l 7.634279320647297 -8.686408461571089 a32.56442444339176,32.56442444339176 0 0,0 0.41672379663367126,0.37263698859627326 l -7.782268144104345 8.554075943091428" fill="#ff2a04" stroke="none" /><path d="M 114.39649973595853 84.71141617570332 l 17.922312319326863 -19.032874604572086 a47.14306016106111,47.14306016106111 0 0,0 0.5844112219252894,0.5598527306877573 l -18.246396027117463 18.722409743578748" fill="#f8ff18" stroke="none" /><path d="M 114.91283532996326 85.21462403516908 l 18.882998027944943 -18.721605852199456 a47.59071530080531,47.59071530080531 0 0,0 0.5702120053503157,0.585087750425354 l -19.20159683444607 18.394695409706358" fill="#f1ff19" stroke="none" /><line stroke="#e1ed5e" stroke-width="0.3" x1="172.87174338648825" x2="177.1583165268699" y1="56.24261187166439" y2="53.66864786411523" /><path d="M 173.72905801456457 55.72781907015455 a86.0,86.0 0 0,1 12.242430191666344,42.057860355516425" fill="none" id="id15" stroke="none" /><text fill="#e1ed5e" style="font-size:6.75px; font-family:Arial;" text-anchor="middle"><textPath startOffset="22.145653131862474" xlink:href="#id15">March</textPath></text><line stroke="#e1ed5e" stroke-width="0.3" x1="184.99686870605535" x2="189.99668451229388" y1="99.2704041080226" y2="99.22748670261217" /><path d="M 185.99683186730306 99.26182062694052 a86.0,86.0 0 0,1 -10.086455211305974,41.156179273409016" fill="none" id="id16" stroke="none" /><text fill="#e1ed5e" style="font-size:6.75px; font-family:Arial;" text-anchor="middle"><textPath startOffset="21.40746469413373" xlink:href="#id16">April</textPath></text><line stroke="#e1ed5e" stroke-width="0.3" x1="174.33088141563837" x2="178.70328620479359" y1="141.23008692659167" y2="143.65538615756765" /><path d="M 175.20536237346943 141.71514677278685 a86.0,86.0 0 0,1 -30.301960400862466,31.631185727798858" fill="none" id="id17" stroke="none" /><text fill="#e1ed5e" style="font-size:6.75px; font-family:Arial;" text-anchor="middle"><textPath startOffset="22.145653131862474" xlink:href="#id17">May</textPath></text><line stroke="#e1ed5e" stroke-width="0.3" x1="143.1302829299769" x2="145.66735839644613" y1="173.24464959558577" y2="177.55315839532614" /><path d="M 143.63769802327073 174.10635135553383 a86.0,86.0 0 0,1 -40.68552437913181,11.842963189579606" fill="none" id="id18" stroke="none" /><text fill="#e1ed5e" style="font-size:6.75px; font-family:Arial;" text-anchor="middle"><textPath startOffset="21.407464694133747" xlink:href="#id18">June</textPath></text><line stroke="#e1ed5e" stroke-width="0.3" x1="101.45913802915013" x2="101.54496967792366" y1="184.9874750549273" y2="189.98673829345242" /><path d="M 101.47630435890484 185.9873277026323 a86.0,86.0 0 0,1 -42.54439059252881,-10.42667462771756" fill="none" id="id19" stroke="none" /><text fill="#e1ed5e" style="font-size:6.75px; font-family:Arial;" text-anchor="middle"><textPath startOffset="22.145653131862474" xlink:href="#id19">July</textPath></text><line stroke="#e1ed5e" stroke-width="0.3" x1="58.13341422392154" x2="55.67067388415222" y1="173.97424548756322" y2="178.32567169271397" /><path d="M 57.64086615596768 174.84453072859336 a86.0,86.0 0 0,1 -31.369924170532247,-30.572349798747897" fill="none" id="id20" stroke="none" /><text fill="#e1ed5e" style="font-size:6.75px; font-family:Arial;" text-anchor="middle"><textPath startOffset="22.145653131862474" xlink:href="#id20">August</textPath></text><line stroke="#e1ed5e" stroke-width="0.3" x1="26.387840678322732" x2="22.057713659400548" y1="142.50000000000003" y2="145.00000000000006" /><path d="M 25.521815274538298 143.00000000000003 a86.0,86.0 0 0,1 -11.493303480769221,-40.785679425670985" fill="none" id="id21" stroke="none" /><text fill="#e1ed5e" style="font-size:6.75px; font-family:Arial;" text-anchor="middle"><textPath startOffset="21.40746469413373" xlink:href="#id21">September</textPath></text><line stroke="#e1ed5e" stroke-width="0.3" x1="15.003131293944662" x2="10.003315487706104" y1="100.72959589197737" y2="100.7725132973878" /><path d="M 14.003168132696942 100.73817937305945 a86.0,86.0 0 0,1 10.791469493833604,-42.45332614584628" fill="none" id="id22" stroke="none" /><text fill="#e1ed5e" style="font-size:6.75px; font-family:Arial;" text-anchor="middle"><textPath startOffset="22.145653131862435" xlink:href="#id22">October</textPath></text><line stroke="#e1ed5e" stroke-width="0.3" x1="26.387840678322718" x2="22.05771365940052" y1="57.49999999999999" y2="54.99999999999999" /><path d="M 25.521815274538284 56.99999999999999 a86.0,86.0 0 0,1 29.574782752854787,-30.34633250058573" fill="none" id="id23" stroke="none" /><text fill="#e1ed5e" style="font-size:6.75px; font-family:Arial;" text-anchor="middle"><textPath startOffset="21.40746469413373" xlink:href="#id23">November</textPath></text><line stroke="#e1ed5e" stroke-width="0.3" x1="56.869717070023135" x2="54.33264160355391" y1="26.7553504044142" y2="22.446841604673864" /><path d="M 56.362301976729285 25.89364864446614 a86.0,86.0 0 0,1 42.16139366436587,-11.88097634709845" fill="none" id="id24" stroke="none" /><text fill="#e1ed5e" style="font-size:6.75px; font-family:Arial;" text-anchor="middle"><textPath startOffset="22.145653131862474" xlink:href="#id24">December</textPath></text></svg>