<?xml version="1.0" encoding="utf-8" ?>
<svg baseProfile="full" height="200mm" version="1.1" viewBox="0,0,200,200" width="200mm" xmlns="http://www.w3.org/2000/svg" xmlns:ev="http://www.w3.org/2001/xml-events" xmlns:xlink="http://www.w3.org/1999/xlink"><defs /><rect fill="#1a1a1a" height="200" width="200" x="0" y="0" /><text alignment-baseline="middle" fill="#e1ed5e" style="dominant-baseline: central; font-size:9.0px; font-family:Arial;" text-anchor="middle" x="100.0" y="100.0">2023</text><line stroke="#e1ed5e" stroke-width="0.3" x1="100.0" x2="100.0" y1="15.0" y2="10.0" /><path d="M 100.0 14.0 a86.0,86.0 0 0,1 42.46469731375804,11.215312516191453" fill="none" id="id1" stroke="none" /><text fill="#e1ed5e" style="font-size:6.75px; font-family:Arial;" text-anchor="middle"><textPath startOffset="22.20632615414155" xlink:href="#id1">January</textPath></text><line stroke="#e1ed5e" stroke-width="0.3" x1="143.23703022742887" x2="145.7803849466894" y1="26.81831364943548" y2="22.513508569990506" /><path d="M 143.74570117128098 25.957352633546492 a86.0,86.0 0 0,1 28.547481713284135,27.462654790039103" fill="none" id="id2" stroke="none" /><text fill="#e1ed5e" style="font-size:6.75px; font-family:Arial;" text-anchor="middle"><textPath startOffset="19.985693538727396" xlink:href="#id2">February</textPath></text><line stroke="#e1ed5e" stroke-width="0.3" x1="172.23445277983987" x2="176.4835382374775" y1="55.19839476539836" y2="52.563006222186495" /><path d="M 173.08426987136738 54.67131705675599 a86.0,86.0 0 0,1 12.851231095245387,41.99856678651699" fill="none" id="id3" stroke="none" /><text fill="#e1ed5e" style="font-size:6.75px; font-family:Arial;" text-anchor="middle"><textPath startOffset="22.20632615414155" xlink:href="#id3">March</textPath></text><path d="M 120.78858239683441 97.02765380044208 l 4.786071935994364 -0.6843113425535873 a25.834745762711865,25.834745762711865 0 0,0 0.05915418759975237,0.4407674068667759 l -4.797142122651953 0.601825593622147" fill="#ff1b02" stroke="none" /><path d="M 120.83666639777658 97.38593545837742 l 8.269919855614717 -1.0375030172259099 a29.334745762711865,29.334745762711865 0 0,0 0.05854327807832001,0.5015630547976281 l -8.286553486696624 0.894996224103429" fill="#ff4e07" stroke="none" /><path d="M 120.87857604477298 97.74499172005257 l 6.753098748944934 -0.729374147045143 a27.79237288135593,27.79237288135593 0 0,0 0.04727730683015781,0.47607602786715314 l -6.76465318145732 0.613022588473555" fill="#ff3805" stroke="none" /><line stroke="#e1ed5e" stroke-width="0.3" x1="184.98032266829074" x2="189.97916517819016" y1="98.17113171792111" y2="98.06355123074" /><path d="M 185.9800911702706 98.14961562048488 a86.0,86.0 0 0,1 -9.607161424134198,41.387399972396054" fill="none" id="id4" stroke="none" /><text fill="#e1ed5e" style="font-size:6.75px; font-family:Arial;" text-anchor="middle"><textPath startOffset="21.466115282336823" xlink:href="#id4">April</textPath></text><path d="M 120.13307415673323 105.97154293290107 l 11.971785621447296 3.5508751055810066 a33.48728813559322,33.48728813559322 0 0,0 -0.168669454577085,0.5512215367072422 l -11.90888939436408 -3.7564236148403056" fill="#ff890c" stroke="none" /><line stroke="#e1ed5e" stroke-width="0.3" x1="174.80103733775053" x2="179.2010983576182" y1="140.37084112569926" y2="142.7455964860345" /><path d="M 175.68104954172406 140.8457921977663 a86.0,86.0 0 0,1 -30.038265399797805,32.042727171017184" fill="none" id="id5" stroke="none" /><text fill="#e1ed5e" style="font-size:6.75px; font-family:Arial;" text-anchor="middle"><textPath startOffset="22.206326154141568" xlink:href="#id5">May</textPath></text><path d="M 116.71984013943494 112.70617746262583 l 6.541519376586829 4.971202199360668 a29.216101694915253,29.216101694915253 0 0,0 -0.3077334534466138,0.39778697146673175 l -6.454979105922147 -5.083067164940653" fill="#ff4d07" stroke="none" /><path d="M 114.55890576462653 115.13401014063108 l 5.860576473048815 6.092080353220138 a29.453389830508474,29.453389830508474 0 0,0 -0.3683976221044181,0.3483429459199152 l -5.75484301655359 -6.192057935885974" fill="#ff5007" stroke="none" /><path d="M 112.04921762599082 117.19931262002967 l 1.8890722549222891 2.696502402292787 a24.29237288135593,24.29237288135593 0 0,0 -0.34453885804217316,0.23697696823444617 l -1.8423765122572329 -2.728620159892327" fill="#ff0400" stroke="none" /><path d="M 111.7513745106137 117.40417183066458 l 2.124542284404738 3.1465169411371 a24.796610169491526,24.796610169491526 0 0,0 -0.3558021918833192,0.23580629147974266 l -2.0700653937814546 -3.182621253708161" fill="#ff0c01" stroke="none" /><path d="M 111.45004920935366 117.60387380957326 l 2.0538930078925373 3.157757025163566 a24.766949152542374,24.766949152542374 0 0,0 -0.3593781006932388,0.2293721072487565 l -1.9992331051523682 -3.1926435612361317" fill="#ff0b01" stroke="none" /><line stroke="#e1ed5e" stroke-width="0.3" x1="143.8653032363475" x2="146.44561519142675" y1="172.8068346515853" y2="177.08958963109032" /><path d="M 144.38136562736335 173.6633856474863 a86.0,86.0 0 0,1 -40.68145358897372,12.25698825130547" fill="none" id="id6" stroke="none" /><text fill="#e1ed5e" style="font-size:6.75px; font-family:Arial;" text-anchor="middle"><textPath startOffset="21.466115282336833" xlink:href="#id6">June</textPath></text><path d="M 110.8373102113329 117.98757091392108 l 5.954397842102404 9.8830015332137 a32.53813559322034,32.53813559322034 0 0,0 -0.48223396254500683,0.2849123251324248 l -5.783396008529015 -9.984032430639873" fill="#ff7c0b" stroke="none" /><path d="M 109.89434966115114 118.52300852407294 l 10.760804010009009 20.14507989200022 a43.83898305084746,43.83898305084746 0 0,0 -0.6686678616749145,0.34981542203348676 l -10.412445245807598 -20.327324732978422" fill="#eeff19" stroke="none" /><path d="M 109.2508944713604 118.85261126421891 l 3.318823722776188 6.763507430948593 a28.533898305084747,28.533898305084747 0 0,0 -0.44280171381889283,0.2125717316489029 l -3.2019093409570623 -6.819633439097056" fill="#ff4306" stroke="none" /><path d="M 108.59647513512805 119.15986991738527 l 5.645990025190031 12.58381286946914 a34.79237288135593,34.79237288135593 0 0,0 -0.5485254924102468,0.24045745619435707 l -5.42854385812203 -12.679134878957951" fill="#ff9b0e" stroke="none" /><path d="M 107.93186726928326 119.44442032107085 l 1.792512377239156 4.394219281597933 a25.74576271186441,25.74576271186441 0 0,0 -0.41178376553059337,0.1638572585530116 l -1.7166075356666963 -4.424423384557013" fill="#ff1a02" stroke="none" /><path d="M 107.59598834532513 119.57807347666477 l 1.6951499414708628 4.369118092250051 a25.686440677966104,25.686440677966104 0 0,0 -0.41358811980452265,0.1563836375814374 l -1.6196916009060653 -4.3976499799381195" fill="#ff1902" stroke="none" /><path d="M 106.91757812671514 119.82793768551818 l 0.9966002385945543 2.85656729367635 a24.02542372881356,24.02542372881356 0 0,0 -0.39164903435147763,0.13286861668435077 l -0.9472814713058496 -2.873298897258824" fill="#ff0000" stroke="none" /><path d="M 105.88484417918355 120.15858648285463 l 0.8561284610959125 2.932675717138457 a24.055084745762713,24.055084745762713 0 0,0 -0.3984768681739615,0.11261354322381506 l -0.8055204248173452 -2.946978053700791" fill="#ff0000" stroke="none" /><path d="M 105.18746579009965 120.34920634021253 l 2.7915599802654927 10.950632225453354 a32.30084745762712,32.30084745762712 0 0,0 -0.5399574476195524,0.13270840352545393 l -2.602649247902729 -10.997061887292839" fill="#ff780b" stroke="none" /><path d="M 104.48393922423573 120.51570834832081 l 0.8296554214334467 3.795985584223201 a24.885593220338983,24.885593220338983 0 0,0 -0.4192731127976721,0.08786275730286998 l -0.7641908472063966 -3.809704322252612" fill="#ff0d01" stroke="none" /><path d="M 104.13013068566511 120.58985236759428 l 3.7042838776798614 18.466887363590907 a39.83474576271186,39.83474576271186 0 0,0 -0.673458324336442,0.12906989070340014 l -3.3858579387717147 -18.527914452642772" fill="#ffde14" stroke="none" /><path d="M 103.7750983002368 120.6578951692458 l 2.2767895115835004 12.458928301225933 a33.66525423728814,33.66525423728814 0 0,0 -0.5709483296316714,0.09926668556307626 l -2.061992210479779 -12.496273565310014" fill="#ff8b0c" stroke="none" /><path d="M 103.41894727170886 120.7198165907248 l 2.882925877415522 17.471370769297607 a38.70762711864407,38.70762711864407 0 0,0 -0.6583322005520977,0.10281795044071607 l -2.5817578132549075 -17.518407027085427" fill="#ffcf13" stroke="none" /><path d="M 102.70371172650421 120.8252237178851 l 1.405319089482413 10.824410068053266 a31.915254237288135,31.915254237288135 0 0,0 -0.5454052158145689,0.0660409761179695 l -1.2187864506164638 -10.846996572896586" fill="#ff730a" stroke="none" /><path d="M 102.34483914955558 120.86867818915974 l 1.9109776684937492 17.007383213481877 a38.11440677966102,38.11440677966102 0 0,0 -0.6526046798895488,0.0676451434100995 l -1.6179403919985975 -17.037757725347735" fill="#ffc712" stroke="none" /><path d="M 101.26447882468166 120.96189622390904 l 0.3232636543324589 5.358902848202732 a26.36864406779661,26.36864406779661 0 0,0 -0.4533045299158427,0.023430666367800165 l -0.23097105600313664 -5.363673321332733" fill="#ff2303" stroke="none" /><line stroke="#e1ed5e" stroke-width="0.3" x1="102.19456741930631" x2="102.32365962044197" y1="184.97166512339345" y2="189.96999836594603" /><path d="M 102.22038585953345 185.97133177190398 a86.0,86.0 0 0,1 -42.740103519485714,-10.115201625700543" fill="none" id="id7" stroke="none" /><text fill="#e1ed5e" style="font-size:6.75px; font-family:Arial;" text-anchor="middle"><textPath startOffset="22.20632615414155" xlink:href="#id7">July</textPath></text><path d="M 100.54218724476979 120.99299961872073 l 0.8730133602225507 33.80228752166898 a54.813559322033896,54.813559322033896 0 0,0 -0.9434204704496464,0.016241838966261225 l -0.29103319988023646 -33.8123068379144" fill="#6fff28" stroke="none" /><path d="M 99.81925306533755 120.99922214144158 l -0.0819488220715337 9.520833767518003 a30.521186440677965,30.521186440677965 0 0,0 -0.5253136710458258,-0.009043751242577273 l 0.24582218301002745 -9.518012538996265" fill="#ff5f08" stroke="none" /><path d="M 99.09653310690486 120.98055641714683 l -0.3011556310317124 6.99351880571561 a28.0,28.0 0 0,0 -0.48134924211534813,-0.024880257650397475 l 0.4214929415605494 -6.987298741303011" fill="#ff3b05" stroke="none" /><path d="M 98.73552117531835 120.96189622390904 l -2.441444284378267 40.47303974305599 a61.54661016949152,61.54661016949152 0 0,0 -1.056952360711469,-0.0728936230631473 l 3.137759405868666 -40.42501777547656" fill="#30ff37" stroke="none" /><path d="M 98.01472825383883 120.90594882070398 l -0.37013541030123626 3.8977192716566735 a24.915254237288135,24.915254237288135 0 0,0 -0.42660539385777063,-0.04421939335757201 l 0.4371734007646002 -3.8907705098433407" fill="#ff0d01" stroke="none" /><path d="M 97.2962882734958 120.8252237178851 l -3.303263620658372 25.4432464914839 a46.65677966101695,46.65677966101695 0 0,0 -0.7955456582812356,-0.11025537920922666 l 3.7407378701264387 -25.38261654678207" fill="#ccff1d" stroke="none" /><path d="M 96.93821686468263 120.77559828337769 l -4.584025598074017 31.104709294322536 a52.440677966101696,52.440677966101696 0 0,0 -0.8919014027403132,-0.1392966562292613 l 5.118762864422848 -31.02119433074617" fill="#89ff24" stroke="none" /><path d="M 96.58105272829116 120.7198165907248 l -3.71351758749167 22.50499852862623 a43.809322033898304,43.809322033898304 0 0,0 -0.7429873857850031,-0.12917788068428512 l 4.100353944748723 -22.43774206942094" fill="#eeff19" stroke="none" /><path d="M 96.22490169976321 120.6578951692458 l -2.0048544645325355 10.970859581407378 a32.152542372881356,32.152542372881356 0 0,0 -0.5435806579156534,-0.1041785268224019 l 2.193402737019884 -10.934723856236507" fill="#ff760a" stroke="none" /><path d="M 95.51606077576429 120.51570834832081 l -1.9126407425412228 8.751050736148146 a29.95762711864407,29.95762711864407 0 0,0 -0.5028314253011423,-0.11444279531996665 l 2.062992317235228 -8.716831207250493" fill="#ff5708" stroke="none" /><path d="M 95.16358092515715 120.4354850818985 l -2.875893263430565 12.151609067061113 a33.48728813559322,33.48728813559322 0 0,0 -0.5597905953741741,-0.13758290870545223 l 3.0846371435479494 -12.10030490004163" fill="#ff890c" stroke="none" /><path d="M 94.81253420990036 120.34920634021253 l -6.535620741198983 25.637700643318617 a47.45762711864407,47.45762711864407 0 0,0 -0.7898521066407023,-0.2086071202178946 l 6.975963290651174 -25.52140217379714" fill="#c2ff1e" stroke="none" /><path d="M 94.46302465271185 120.25689768951611 l -6.850833904271781 25.063619175164003 a46.983050847457626,46.983050847457626 0 0,0 -0.7782828103422197,-0.21995049625957933 l 7.281247882718614 -24.941979885565903" fill="#c8ff1d" stroke="none" /><path d="M 93.42475214034765 119.94407469862007 l -13.308375964522343 40.36703254678327 a63.50423728813559,63.50423728813559 0 0,0 -1.03521059573644,-0.35119963990270986 l 14.00125629319601 -40.13196991998244" fill="#33ff50" stroke="none" /><path d="M 92.7421414339146 119.70592522655815 l -5.176862395301026 14.055779999169301 a35.978813559322035,35.978813559322035 0 0,0 -0.5793099183866903,-0.21904544155459593 l 5.418042534447999 -13.964586307508073" fill="#ffab0f" stroke="none" /><path d="M 92.40401165467489 119.57807347666478 l -6.544566229729267 16.868114153623612 a39.09322033898305,39.09322033898305 0 0,0 -0.6252661324531512,-0.24880629812542976 l 6.833953438224277 -16.752961011092115" fill="#ffd413" stroke="none" /><path d="M 92.06813273071674 119.44442032107085 l -6.878766247655254 16.862816493132062 a39.21186440677966,39.21186440677966 0 0,0 -0.6227750431417441,-0.2603200185418015 l 7.168012750294461 -16.741911431570287" fill="#ffd513" stroke="none" /><path d="M 91.40352486487194 119.15986991738527 l -9.337131891120723 20.810649670154344 a43.809322033898304,43.809322033898304 0 0,0 -0.6853697319936743,-0.3146196286957234 l 9.693969618881818 -20.646842971124546" fill="#eeff19" stroke="none" /><path d="M 91.07499286063937 119.00905698771935 l -9.769605272605212 20.8079366744103 a43.98728813559322,43.98728813559322 0 0,0 -0.6826142844006229,-0.3276963389140522 l 10.126332225006076 -20.636686058996688" fill="#ecff1a" stroke="none" /><path d="M 90.7491055286396 118.85261126421891 l -3.410287368679466 6.949903305029852 a28.741525423728813,28.741525423728813 0 0,0 -0.4422719822816456,-0.22176435333176026 l 3.529413258643872 -6.89017111078879" fill="#ff4606" stroke="none" /><path d="M 90.42595943632237 118.69057910512821 l -4.151455442159651 8.104530770161528 a30.10593220338983,30.10593220338983 0 0,0 -0.4592001891745861,-0.24023183583490462 l 4.290346533860732 -8.031869515381906" fill="#ff5908" stroke="none" /><line stroke="#e1ed5e" stroke-width="0.3" x1="58.666819895761336" x2="56.23545636021788" y1="174.27360380694188" y2="178.64263932499728" /><path d="M 58.180547188652646 175.14741091055294 a86.0,86.0 0 0,1 -31.652253787137756,-30.449443065178592" fill="none" id="id8" stroke="none" /><text fill="#e1ed5e" style="font-size:6.75px; font-family:Arial;" text-anchor="middle"><textPath startOffset="22.20632615414155" xlink:href="#id8">August</textPath></text><path d="M 89.1626897886671 117.98757091392108 l -32.511930633998716 53.962712741763234 a84.0,84.0 0 0,0 -1.2320832002707651,-0.7568461326864875 l 33.435993034201786 -53.395078142248366" fill="#4dd2ff" stroke="none" /><path d="M 88.54995079064634 117.60387380957326 l -8.118537716236643 12.481842729386688 a35.889830508474574,35.889830508474574 0 0,0 -0.5149768566732291,-0.34129857977331174 l 8.332189271649833 -12.340246128522057" fill="#ffaa0f" stroke="none" /><path d="M 88.24862548938628 117.40417183066458 l -5.726305375934647 8.480846442908586 a31.233050847457626,31.233050847457626 0 0,0 -0.44297853176849794,-0.3046846734442775 l 5.871440792326035 -8.381020980099208" fill="#ff6909" stroke="none" /><path d="M 87.36589467227662 116.77436683061367 l -14.739789549010597 19.570094635715943 a45.5,45.5 0 0,0 -0.6215544215974453,-0.4765814260407053 l 15.074472699101529 -19.313473867847872" fill="#daff1c" stroke="none" /><path d="M 87.07902340077011 116.55440617244103 l -14.928472963517013 19.126418430871137 a45.26271186440678,45.26271186440678 0 0,0 -0.6100605453577848,-0.484668993260128 l 15.255491001592155 -18.86661552360588" fill="#dcff1b" stroke="none" /><path d="M 86.51685102203217 116.09983520530335 l -27.404309857762307 32.722687655976706 a63.682203389830505,63.682203389830505 0 0,0 -0.8343415561992366,-0.7110439748465016 l 27.9635168905386 -32.24611929090725" fill="#33ff52" stroke="none" /><path d="M 85.97065885151581 115.62618273729859 l -20.845857186730743 23.218565310223315 a52.20338983050847,52.20338983050847 0 0,0 -0.6634813459581015,-0.606074478541845 l 21.2424380821557 -22.856298065094897" fill="#8bff24" stroke="none" /><path d="M 85.44109423537348 115.13401014063109 l -18.095815074677034 18.810634073100793 a47.10169491525424,47.10169491525424 0 0,0 -0.5794631011684164,-0.5671266053092647 l 18.416928128221244 -18.49635736486896" fill="#c6ff1e" stroke="none" /><path d="M 85.18274418774928 114.88116024355367 l -18.458784783058107 18.538394540698203 a47.16101694915254,47.16101694915254 0 0,0 -0.5703324945786753,-0.5777438058908801 l 18.775157902692314 -18.217910240826658" fill="#c6ff1e" stroke="none" /><path d="M 84.9287848128048 114.62390073753433 l -20.733564395943667 20.118191127624904 a49.889830508474574,49.889830508474574 0 0,0 -0.5927231364132676,-0.6214678388534389 l 21.07679408373589 -19.758316172188966" fill="#a6ff21" stroke="none" /><path d="M 84.67929136418377 114.36230785411682 l -41.28801140838613 38.70520252211145 a77.59322033898306,77.59322033898306 0 0,0 -0.9050827636767981,-0.9822885839543557 l 41.948140580058656 -37.98876268335575" fill="#45ffed" stroke="none" /><path d="M 84.19399662182784 113.82643327865904 l -22.92763484376104 20.056139798280828 a51.46186440677966,51.46186440677966 0 0,0 -0.5774939913766933,-0.6717559787496397 l 23.26947134470851 -19.658506720369658" fill="#94ff23" stroke="none" /><path d="M 83.95833913139862 113.55231037782056 l -2.7415832840406322 2.3161434402772425 a24.588983050847457,24.588983050847457 0 0,0 -0.2703664069043197,-0.325673754029226 l 2.7810456908384884 -2.2686084291342556" fill="#ff0801" stroke="none" /><path d="M 83.72743513129214 113.27417163493432 l -17.60562809241556 14.361603774519343 a43.72033898305085,43.72033898305085 0 0,0 -0.47068502490273306,-0.5872519396972392 l 17.850231029373155 -14.056424001243844" fill="#efff19" stroke="none" /><path d="M 83.50135304334701 112.99209946851258 l -10.62624719242057 8.367792878025053 a34.52542372881356,34.52542372881356 0 0,0 -0.3636565886414807,-0.47007516222058454 l 10.768710598280117 -8.183639721691216" fill="#ff970d" stroke="none" /><path d="M 83.28015986056508 112.70617746262583 l -3.188105111332929 2.4227880755006885 a25.00423728813559,25.00423728813559 0 0,0 -0.2574706951639029,-0.3449240714317138 l 3.229337073191917 -2.3675511245596668" fill="#ff0f01" stroke="none" /><line stroke="#e1ed5e" stroke-width="0.3" x1="26.63291911575756" x2="22.317208475507996" y1="142.92168965132927" y2="145.44649492493687" /><path d="M 25.769776987707644 143.4266507060508 a86.0,86.0 0 0,1 -11.730757126820373,-40.83630448921669" fill="none" id="id9" stroke="none" /><text fill="#e1ed5e" style="font-size:6.75px; font-family:Arial;" text-anchor="middle"><textPath startOffset="21.46611528233685" xlink:href="#id9">September</textPath></text><line stroke="#e1ed5e" stroke-width="0.3" x1="15.007084014347285" x2="10.007500721073583" y1="101.09737516637583" y2="101.16192664675087" /><path d="M 14.007167355692545 101.11028546245083 a86.0,86.0 0 0,1 10.666146001902534,-42.60595125391555" fill="none" id="id10" stroke="none" /><text fill="#e1ed5e" style="font-size:6.75px; font-family:Arial;" text-anchor="middle"><textPath startOffset="22.20632615414155" xlink:href="#id10">October</textPath></text><line stroke="#e1ed5e" stroke-width="0.3" x1="26.266209847984243" x2="21.928928074336255" y1="57.711370442889674" y2="55.22380399835377" /><path d="M 25.398753493254645 57.213857153982495 a86.0,86.0 0 0,1 29.58750427330803,-30.492523968695096" fill="none" id="id11" stroke="none" /><text fill="#e1ed5e" style="font-size:6.75px; font-family:Arial;" text-anchor="middle"><textPath startOffset="21.46611528233685" xlink:href="#id11">November</textPath></text><line stroke="#e1ed5e" stroke-width="0.3" x1="56.762969772571076" x2="54.21961505331055" y1="26.818313649435495" y2="22.513508569990535" /><path d="M 56.25429882871897 25.957352633546506 a86.0,86.0 0 0,1 42.265352541879196,-11.944610805530505" fill="none" id="id12" stroke="none" /><text fill="#e1ed5e" style="font-size:6.75px; font-family:Arial;" text-anchor="middle"><textPath startOffset="22.20632615414155" xlink:href="#id12">December</textPath></text></svg>