<?xml version="1.0" encoding="utf-8" ?>
<svg baseProfile="full" height="200mm" version="1.1" viewBox="0,0,200,200" width="200mm" xmlns="http://www.w3.org/2000/svg" xmlns:ev="http://www.w3.org/2001/xml-events" xmlns:xlink="http://www.w3.org/1999/xlink"><defs /><rect fill="#1a1a1a" height="200" width="200" x="0" y="0" /><text alignment-baseline="middle" fill="#e1ed5e" style="dominant-baseline: central; font-size:9.0px; font-family:Arial;" text-anchor="middle" x="100.0" y="100.0">2024</text><line stroke="#e1ed5e" stroke-width="0.3" x1="100.0" x2="100.0" y1="15.0" y2="10.0" /><path d="M 100.0 14.0 a86.0,86.0 0 0,1 42.35913384403234,11.155469271406648" fill="none" id="id13" stroke="none" /><text fill="#e1ed5e" style="font-size:6.75px; font-family:Arial;" text-anchor="middle"><textPath startOffset="22.145653131862478" xlink:href="#id13">January</textPath></text><path d="M 100.72087961077811 79.0123766808444 l 1.097367266159757 -31.948650621527335 a52.967491166077735,52.967491166077735 0 0,0 0.9084536116011416,0.039012906917462495 l -1.6456466383617347 31.92510514618404" fill="#7fff26" stroke="none" /><path d="M 102.15924093988457 79.11130261209362 l 5.3820797137617475 -52.066739001516446 a73.34416961130742,73.34416961130742 0 0,0 1.2512658475539666,0.14020694810922263 l -6.275081462916511 51.96667629290025" fill="#3fffc2" stroke="none" /><path d="M 102.87502721639298 79.19773525538626 l 2.472726588233397 -17.891417805084746 a39.06148409893993,39.06148409893993 0 0,0 0.6634405102760289,0.09750290818186677 l -2.779492204117108 17.846333823604" fill="#ffd914" stroke="none" /><path d="M 103.23170211078529 79.25015418208739 l 2.1285840051250156 -13.667036256038557 a34.83180212014134,34.83180212014134 0 0,0 0.59002169634943,0.09708784560471119 l -2.3628832045275163 13.628482411938178" fill="#ffa20f" stroke="none" /><path d="M 103.94208987418118 79.37332000966035 l 1.994725335628071 -10.437245846701904 a31.626148409893993,31.626148409893993 0 0,0 0.5323787910484317,0.10649066834731248 l -2.17360061220746 10.401465781691732" fill="#ff760a" stroke="none" /><path d="M 104.29559338865022 79.4440306129975 l 2.6319996239998145 -12.595070995428394 a33.86713780918728,33.86713780918728 0 0,0 0.5680608941873752,0.12380622794265284 l -2.8478229348063238 12.548033309352022" fill="#ff950d" stroke="none" /><path d="M 104.64783097203109 79.52079915486377 l 4.5492903860516245 -20.045012841352424 a41.5547703180212,41.5547703180212 0 0,0 0.6942967982532311,0.16385215391559224 l -4.89271933804474 19.963964543790603" fill="#fff917" stroke="none" /><path d="M 105.3480935250658 79.69241777938227 l 2.9178291175624036 -11.079472420011935 a32.45724381625442,32.45724381625442 0 0,0 0.5375825273186056,0.14652050834400096 l -3.107593045815702 11.027751417523792" fill="#ff820c" stroke="none" /><path d="M 105.69591212413111 79.78721728523813 l 4.09783642569998 -14.541775832952357 a36.10812720848057,36.10812720848057 0 0,0 0.5951650811841388,0.1732438811038719 l -4.346861519265723 14.469288257545971" fill="#ffb310" stroke="none" /><path d="M 107.06938296918511 80.22567764915836 l 13.429329626268261 -37.56422507354229 a60.892579505300354,60.892579505300354 0 0,0 0.9812718803979692,0.3603366265139322 l -14.072190658320356 37.32815759801964" fill="#30ff32" stroke="none" /><path d="M 108.07796709384702 80.6158196554323 l 13.244440747508904 -31.781836324662237 a55.43109540636043,55.43109540636043 0 0,0 0.8751908086490771,0.3735669141499188 l -13.78806663132841 31.549794760852915" fill="#65ff29" stroke="none" /><path d="M 108.4095320186766 80.7573450057729 l 7.535891589881217 -17.243594722742024 a39.81837455830389,39.81837455830389 0 0,0 0.6239853993910532,0.2791007323737565 l -7.830790392127902 17.111690239458415" fill="#ffe315" stroke="none" /><path d="M 109.3889696526874 81.21577127319529 l 28.014296730491996 -56.047359494395394 a83.65865724381626,83.65865724381626 0 0,0 1.2790722623325486,0.6531034108976927 l -28.972296214538122 55.558198131824874" fill="#4dd5ff" stroke="none" /><path d="M 110.34350942703115 81.72400993836675 l 7.207562045973651 -12.735071519979078 a35.63321554770318,35.63321554770318 0 0,0 0.5297599184927109,0.3058570315476409 l -7.42511443232676 12.609467591155266" fill="#ffad10" stroke="none" /><line stroke="#e1ed5e" stroke-width="0.3" x1="143.13028292997686" x2="145.6673583964461" y1="26.7553504044142" y2="22.446841604673864" /><path d="M 143.63769802327073 25.89364864446614 a86.0,86.0 0 0,1 29.32050498858742,28.57503671076993" fill="none" id="id14" stroke="none" /><text fill="#e1ed5e" style="font-size:6.75px; font-family:Arial;" text-anchor="middle"><textPath startOffset="20.669276256404974" xlink:href="#id14">February</textPath></text><path d="M 110.65571695917076 81.90426304109057 l 4.5484473804516865 -7.724258037583956 a29.963957597173145,29.963957597173145 0 0,0 0.4409941798661062,0.26480433421765043 l -4.680374316875227 7.645039702830385" fill="#ff5f08" stroke="none" /><path d="M 111.8722381534696 82.67804972795209 l 18.19011471146438 -26.539920982190726 a53.17526501766785,53.17526501766785 0 0,0 0.7485175889218483,0.5225234098729549 l -18.643027391559986 26.223752756512642" fill="#7dff26" stroke="none" /><path d="M 112.16784306229584 82.88440491214696 l 8.814161935585327 -12.398222590140895 a36.21201413427562,36.21201413427562 0 0,0 0.5035521799911791,0.3645329454768182 l -9.025695125950474 12.245088873291001" fill="#ffb410" stroke="none" /><path d="M 112.7482090630111 83.31218511350987 l 19.05474358181519 -24.94327101408242 a52.3886925795053,52.3886925795053 0 0,0 0.7099667105566447,0.5520744083241048 l -19.480120237007057 24.612495554137524" fill="#86ff25" stroke="none" /><path d="M 113.31354834802062 83.75963576809568 l 19.05295788320972 -23.24151064989842 a51.053003533568905,51.053003533568905 0 0,0 0.6729896045816884,0.5614318638467608 l -19.4491218219533 22.91101660213979" fill="#95ff23" stroke="none" /><path d="M 113.86319453409587 84.22622945171908 l 7.59291573422212 -8.639344293228067 a32.5017667844523,32.5017667844523 0 0,0 0.41592197261965197,0.37191999261864495 l -7.740102733665148 8.507728770726034" fill="#ff820c" stroke="none" /><path d="M 114.39649973595853 84.71141617570332 l 17.825206740211545 -18.92975184464154 a47.001413427561836,47.001413427561836 0 0,0 0.5826552913530435,0.5581705889203022 l -18.1475345174299 18.62096912541566" fill="#c3ff1e" stroke="none" /><path d="M 114.91283532996326 85.21462403516908 l 18.780687320137467 -18.62016958963159 a47.44664310954064,47.44664310954064 0 0,0 0.5684857927355864,0.5833165042116105 l -19.097559914023865 18.29503039335224" fill="#beff1f" stroke="none" /><path d="M 115.16444852881244 85.47280134310134 l 3.290095899890755 -3.151837447115115 a25.556183745583038,25.556183745583038 0 0,0 0.3007648440326221,0.31940184167885505 l -3.3437165776596367 3.0948941454917653" fill="#ff2003" stroke="none" /><path d="M 115.41159269507618 85.73525988315684 l 6.142853908143438 -5.685733869893667 a29.370318021201413,29.370318021201413 0 0,0 0.33930031804517624,0.37295048619884635 l -6.239551927030492 5.57944580813715" fill="#ff5708" stroke="none" /><path d="M 115.8921839302757 86.27271002978787 l 20.586836144307686 -17.782418738797755 a48.20353356890459,48.20353356890459 0 0,0 0.5355307828472788,0.6308539156210989 l -20.889061490662076 17.426398040727104" fill="#b5ff20" stroke="none" /><path d="M 116.35404254752997 86.82634096563983 l 14.435476425346245 -11.628197974498839 a39.536395759717315,39.536395759717315 0 0,0 0.4212199496614035,0.5321976462270651 l -14.632962805649207 11.378680384357095" fill="#ffe014" stroke="none" /><path d="M 116.57777611688842 87.10902102172516 l 19.987057282976416 -15.542056633877664 a46.318727915194344,46.318727915194344 0 0,0 0.4827029531287693,0.6318736606185211 l -20.250912213459493 15.19666206001826" fill="#cbff1d" stroke="none" /><path d="M 116.7966241395341 87.39550010848427 l 11.787312912054677 -8.84541935849832 a35.73710247349823,35.73710247349823 0 0,0 0.3640044783336732,0.49384198394385087 l -11.937419409972176 8.641771065285594" fill="#ffae10" stroke="none" /><path d="M 117.01052211995028 87.68569379921539 l 30.210206422215588 -21.869859704997683 a58.29540636042403,58.29540636042403 0 0,0 0.5798585816072895,0.8156437127102957 l -30.58118010235284 21.348038765577883" fill="#47ff2c" stroke="none" /><path d="M 117.21940702142032 87.97951657250589 l 8.031666879249052 -5.60672725240008 a30.795053003533567,30.795053003533567 0 0,0 0.2988737074969615,0.43606567118703105 l -8.12673032356134 5.468026846143" fill="#ff6b09" stroke="none" /><path d="M 117.42321728460499 88.27688183743584 l 7.0062265971309134 -4.714101932508132 a29.44452296819788,29.44452296819788 0 0,0 0.27856700578182536,0.4217859515019841 l -7.086118041833463 4.593136102667089" fill="#ff5808" stroke="none" /><path d="M 117.62189284568427 88.57770195909679 l 6.724962640755835 -4.359039535044338 a29.014134275618375,29.014134275618375 0 0,0 0.2673200797677634,0.42027156607999744 l -6.798800412149488 4.242954294285669" fill="#ff5207" stroke="none" /><path d="M 117.81537515405839 88.88188828441811 l 23.191463628109922 -14.473188537174448 a48.337102473498234,48.337102473498234 0 0,0 0.433266247186399,0.7077078535564136 l -23.436497839751723 14.07294356749348" fill="#b3ff20" stroke="none" /><line stroke="#e1ed5e" stroke-width="0.3" x1="172.87174338648825" x2="177.1583165268699" y1="56.24261187166439" y2="53.66864786411523" /><path d="M 173.72905801456457 55.72781907015455 a86.0,86.0 0 0,1 12.242430191666344,42.057860355516425" fill="none" id="id15" stroke="none" /><text fill="#e1ed5e" style="font-size:6.75px; font-family:Arial;" text-anchor="middle"><textPath startOffset="22.145653131862474" xlink:href="#id15">March</textPath></text><path d="M 118.00360718960297 89.18935116829356 l 8.346548633483785 -5.011862638586169 a30.735689045936397,30.735689045936397 0 0,0 0.26773169351325166,0.4546669473244131 l -8.431354037126804 4.867844522968199" fill="#ff6a09" stroke="none" /><path d="M 118.36410011445183 89.81374322990088 l 13.536223617931633 -7.508315060928185 a36.479151943462895,36.479151943462895 0 0,0 0.2990502690074142,0.5502188122398763 l -13.663119236554389 7.274841415213705" fill="#ffb811" stroke="none" /><path d="M 118.53625476483649 90.13048839642627 l 7.532400346134971 -4.010578920180135 a29.53356890459364,29.53356890459364 0 0,0 0.23442893479848784,0.449548393089787 l -7.600137349908404 3.88068428398585" fill="#ff5908" stroke="none" /><path d="M 118.70294669586156 90.45014215332178 l 13.627376709140108 -6.958235646590279 a36.301060070671376,36.301060070671376 0 0,0 0.27861942917603627,0.5574254981084568 l -13.744816051527883 6.7232782923180725" fill="#ffb610" stroke="none" /><path d="M 118.8641267826498 90.77261029715802 l 8.918799164376484 -4.362631598022106 a30.92862190812721,30.92862190812721 0 0,0 0.22919690912476567,0.4789333891846815 l -8.992375331461162 4.208885706772321" fill="#ff6d0a" stroke="none" /><path d="M 119.0197475246899 91.09779779509293 l 10.081138263969912 -4.718481734049687 a32.130742049469966,32.130742049469966 0 0,0 0.22952906967407327,0.5015624406397234 l -10.160651798499037 4.54473031119528" fill="#ff7d0b" stroke="none" /><path d="M 119.31412917781788 91.75594674310238 l 9.44549638943461 -4.031720744716004 a31.269964664310955,31.269964664310955 0 0,0 0.20649218767606353,0.4955060795810796 l -9.513314421647156 3.868982155693647" fill="#ff710a" stroke="none" /><path d="M 119.4528033332814 92.08871423366111 l 29.254816602984317 -11.897679230225549 a52.58162544169611,52.58162544169611 0 0,0 0.3328700456501916,0.8390499618461753 l -29.45474532360063 11.393728251165808" fill="#84ff25" stroke="none" /><path d="M 119.71291397450082 92.76114493625339 l 18.459089057394774 -6.778433186900537 a40.66431095406361,40.66431095406361 0 0,0 0.23500066012692267,0.657338671036246 l -18.57272988756564 6.460559559483375" fill="#ffee16" stroke="none" /><path d="M 119.83427380445688 93.10060997987247 l 19.694102258135636 -6.850631080055954 a41.851590106007066,41.851590106007066 0 0,0 0.23021279941055175,0.6805832353235789 l -19.808800479118553 6.511546170258214" fill="#fffd17" stroke="none" /><path d="M 119.94978838288452 93.4421083053983 l 9.502584713826268 -3.123688340750204 a31.002826855123676,31.002826855123676 0 0,0 0.1618573206652366,0.5070157516739876 l -9.554806750268762 2.9601035553848294" fill="#ff6e0a" stroke="none" /><path d="M 120.16314734710363 94.1308016681162 l 11.570654166677139 -3.368048795399042 a33.05088339222615,33.05088339222615 0 0,0 0.15389358173138218,0.5461140307194273 l -11.626766240483104 3.1689268407766016" fill="#ff8a0c" stroke="none" /><path d="M 120.26092885502905 94.47779374421319 l 30.398552621361613 -8.285260693311239 a52.507420494699645,52.507420494699645 0 0,0 0.2295587398677486,0.8716719261689319 l -30.53630084203409 7.762208262769508" fill="#84ff25" stroke="none" /><path d="M 120.43855184770803 95.1765574152323 l 17.997480990985306 -4.247356509272482 a39.491872791519434,39.491872791519434 0 0,0 0.150048690738551,0.6611422172355131 l -18.067740543281523 3.9377799580979422" fill="#ffdf14" stroke="none" /><path d="M 120.51834098615036 95.52812308129327 l 21.04036238226444 -4.58564905232754 a42.53427561837456,42.53427561837456 0 0,0 0.14936070726315528,0.714745053438891 l -21.115980800351963 4.223787547603244" fill="#f9ff18" stroke="none" /><path d="M 120.592083275326 95.88100663000786 l 15.964321804263339 -3.1933114677606884 a37.280565371024736,37.280565371024736 0 0,0 0.12013876592736526,0.6286167891422714 l -16.01678686247286 2.9187921135851025" fill="#ffc212" stroke="none" /><path d="M 120.65975698304385 96.23510406497455 l 15.08235262437052 -2.748507067760629 a36.33074204946996,36.33074204946996 0 0,0 0.10654454189329354,0.6145206045303103 l -15.127311983756048 2.4891934303097263" fill="#ffb610" stroke="none" /><path d="M 120.77682067341334 96.94652285012252 l 25.24053338346116 -3.7094892018652983 a46.51166077738516,46.51166077738516 0 0,0 0.10931454778513351,0.7909456127921778 l -25.300492447801503 3.2756552808730346" fill="#c9ff1d" stroke="none" /><path d="M 120.82617615685814 97.30363454192243 l 21.65039231571612 -2.8030767412241038 a42.831095406360426,42.831095406360426 0 0,0 0.08814621841315244,0.7299771366777599 l -21.695320620388937 2.4310059276229308" fill="#f5ff19" stroke="none" /><path d="M 120.9064616781168 98.02013634271609 l 20.28591652583348 -1.9210973861843221 a41.376678445229686,41.376678445229686 0 0,0 0.06089539216869164,0.7076967631919819 l -20.315905540699912 1.5725795756166783" fill="#fff717" stroke="none" /><path d="M 120.93736805541906 98.37931529534042 l 18.09639655956008 -1.40077554332061 a39.15053003533569,39.15053003533569 0 0,0 0.046115668160110014,0.6705116940500824 l -18.11777618888526 1.0899204251161934" fill="#ffdb14" stroke="none" /><path d="M 120.96210409425399 98.7389718711861 l 24.384186105400758 -1.466892084825228 a45.42826855123675,45.42826855123675 0 0,0 0.04014649800242477,0.7788313360239063 l -24.405774192859756 1.0480889554245911" fill="#d6ff1c" stroke="none" /><path d="M 120.98066250479742 99.09900007780936 l 2.4020263786411196 -0.10315334798225023 a23.404240282685514,23.404240282685514 0 0,0 0.013792133290438512,0.40154291221369814 l -2.4034431989284064 0.06190417120443213" fill="#ff0000" stroke="none" /><line stroke="#e1ed5e" stroke-width="0.3" x1="184.99686870605535" x2="189.99668451229388" y1="99.2704041080226" y2="99.22748670261217" /><path d="M 185.99683186730306 99.26182062694052 a86.0,86.0 0 0,1 -10.086455211305974,41.156179273409016" fill="none" id="id16" stroke="none" /><text fill="#e1ed5e" style="font-size:6.75px; font-family:Arial;" text-anchor="middle"><textPath startOffset="21.40746469413373" xlink:href="#id16">April</textPath></text><path d="M 120.99922638620191 99.81974689727618 l 15.834752335037054 -0.13592230431542374 a36.835335689045934,36.835335689045934 0 0,0 0.0,0.6323508140784994 l -15.834752335037054 -0.13592230431542182" fill="#ffbd11" stroke="none" /><path d="M 120.99922638620191 100.18025310272382 l 30.600992797419313 0.262672719304967 a51.60212014134275,51.60212014134275 0 0,0 -0.015206821435639653,0.8857211117848338 l -30.591974544385003 -0.787940747058872" fill="#8eff24" stroke="none" /><path d="M 120.99303781780057 100.54070618675476 l 22.521152938106905 0.5800650116563374 a43.52862190812721,43.52862190812721 0 0,0 -0.02565144384328711,0.7468137993169351 l -22.507876807266772 -0.9665850755373833" fill="#edff1a" stroke="none" /><path d="M 120.98066250479742 100.90099992219065 l 19.05311047255455 0.818222544180196 a40.07067137809187,40.07067137809187 0 0,0 -0.03541180810406628,0.6869796168783232 l -19.036257074993912 -1.14517395443525" fill="#ffe615" stroke="none" /><path d="M 120.93736805541906 101.62068470465957 l 31.280279907530666 2.4212914951592444 a52.37385159010601,52.37385159010601 0 0,0 -0.07708028657220688,0.8957897694779542 l -31.23410599826072 -2.957902312012856" fill="#86ff25" stroke="none" /><path d="M 120.86939407059847 102.33845913500097 l 8.465747135352313 0.9486046243749564 a29.518727915194347,29.518727915194347 0 0,0 -0.060749420798253705,0.5030923509535974 l -8.448215628294395 -1.0937906522519623" fill="#ff5908" stroke="none" /><path d="M 120.82617615685814 102.69636545807757 l 24.711766620045793 3.19943293576837 a45.918021201413424,45.918021201413424 0 0,0 -0.1079193397725651,0.7808505826352911 l -24.653202763718017 -3.623171826603746" fill="#d0ff1d" stroke="none" /><path d="M 120.77682067341334 103.0534771498775 l 12.407359342073688 1.8234545524003365 a33.540636042402824,33.540636042402824 0 0,0 -0.08860878287456918,0.5689319497066584 l -12.37422906706085 -2.0361746840384454" fill="#ff910d" stroke="none" /><path d="M 120.65975698304385 103.76489593502545 l 6.117624152576232 1.1148349093820937 a27.218374558303886,27.218374558303886 0 0,0 -0.08771277735301763,0.45895031500275696 l -6.097585082941055 -1.2196877894181652" fill="#ff3805" stroke="none" /><path d="M 120.51834098615036 104.47187691870673 l 30.886265936749314 6.731517905897755 a52.6113074204947,52.6113074204947 0 0,0 -0.19989575673362603,0.8807775874107313 l -30.766159318458023 -7.260729827247504" fill="#83ff25" stroke="none" /><path d="M 120.35273937422433 105.17358676015961 l 24.40890368767398 6.204647867131347 a46.18515901060071,46.18515901060071 0 0,0 -0.20191825847044478,0.7667165161779762 l -24.298795948398805 -6.622744887682126" fill="#cdff1d" stroke="none" /><path d="M 120.26092885502905 105.52220625578681 l 15.134842261318521 4.125068559976432 a36.686925795053,36.686925795053 0 0,0 -0.17082394882801338,0.6061939308210339 l -15.06179982041593 -4.384270414700475" fill="#ffbb11" stroke="none" /><path d="M 120.16314734710363 105.8691983318838 l 8.3787495689731 2.4389318863234433 a29.72650176678445,29.72650176678445 0 0,0 -0.14682581698426134,0.48873539223164725 l -8.33564743198521 -2.582404882145814" fill="#ff5c08" stroke="none" /><path d="M 120.05942366710727 106.21446072829308 l 2.565905076852591 0.794923951816994 a23.686219081272085,23.686219081272085 0 0,0 -0.12365930291130832,0.38736100510851723 l -2.5518810581640277 -0.8388539906168948" fill="#ff0400" stroke="none" /><path d="M 119.83427380445688 106.89939002012753 l 59.50282141337066 20.698170060382587 a84.0,84.0 0 0,0 -0.48543931982422706,1.3578601744763141 l -59.13874192350249 -21.716565191239823" fill="#4dd2ff" stroke="none" /><path d="M 119.58574465831526 107.57618678355244 l 13.606209893373787 5.263174281436083 a35.5886925795053,35.5886925795053 0 0,0 -0.22529561655917568,0.5678921277186383 l -13.513855601848487 -5.495967426368285" fill="#ffac0f" stroke="none" /><path d="M 119.4528033332814 107.91128576633889 l 23.0959078444613 9.39290465544122 a45.93286219081272,45.93286219081272 0 0,0 -0.30331908915871186,0.7278553945436361 l -22.931262910766105 -9.787992559426135" fill="#d0ff1d" stroke="none" /><path d="M 119.31412917781788 108.2440532568976 l 17.26669498935662 7.3701253498059875 a39.773851590106005,39.773851590106005 0 0,0 -0.27342840720461625,0.6256577053008736 l -17.137632700135036 -7.665445124882706" fill="#ffe315" stroke="none" /><path d="M 119.16976305983485 108.57439118712176 l 3.1972184325943624 1.4300751379227812 a24.502473498233215,24.502473498233215 0 0,0 -0.17503579401010771,0.3824847988434973 l -3.1721981737291984 -1.4847489189809675" fill="#ff1001" stroke="none" /><path d="M 118.8641267826498 109.22738970284198 l 24.263399819379973 11.868444706128894 a48.01060070671378,48.01060070671378 0 0,0 -0.3684929899364282,0.7372328235408356 l -24.056086916231813 -12.283209385833477" fill="#b7ff1f" stroke="none" /><path d="M 118.70294669586154 109.54985784667822 l 13.6009414487926 6.944737614298157 a36.27137809187279,36.27137809187279 0 0,0 -0.28791171690828554,0.5521086797544841 l -13.479721662909366 -7.177192537157144" fill="#ffb510" stroke="none" /><line stroke="#e1ed5e" stroke-width="0.3" x1="174.33088141563837" x2="178.70328620479359" y1="141.23008692659167" y2="143.65538615756765" /><path d="M 175.20536237346943 141.71514677278685 a86.0,86.0 0 0,1 -30.301960400862466,31.631185727798858" fill="none" id="id17" stroke="none" /><text fill="#e1ed5e" style="font-size:6.75px; font-family:Arial;" text-anchor="middle"><textPath startOffset="22.145653131862474" xlink:href="#id17">May</textPath></text><path d="M 118.36410011445183 110.18625677009912 l 18.519838065952484 10.272641986523986 a42.17809187279152,42.17809187279152 0 0,0 -0.35663913541289244,0.6301471797726453 l -18.340765565518215 -10.589045936395754" fill="#fdff18" stroke="none" /><path d="M 118.18653347947321 110.5 l 21.99092493524994 12.6964664310954 a46.39293286219081,46.39293286219081 0 0,0 -0.40411843260378333,0.6862814472893034 l -21.769732792516393 -13.072099046678252" fill="#caff1d" stroke="none" /><path d="M 118.00360718960297 110.81064883170644 l 21.45164785983789 12.881098183927254 a46.02190812720848,46.02190812720848 0 0,0 -0.4125141641157527,0.6738108854401049 l -21.227365731266733 -13.247446185491917" fill="#cfff1d" stroke="none" /><path d="M 117.62189284568427 111.42229804090321 l 3.661368548855955 2.3732548579685835 a25.363250883392226,25.363250883392226 0 0,0 -0.23995514762153927,0.36332267697423654 l -3.6200889623136887 -2.435757413281881" fill="#ff1d02" stroke="none" /><path d="M 117.423217284605 111.72311816256416 l 20.119814164695807 13.537508888784332 a45.25017667844523,45.25017667844523 0 0,0 -0.43916430561843695,0.64075384648158 l -19.884460122262052 -13.880897470335956" fill="#d8ff1c" stroke="none" /><path d="M 117.21940702142032 112.02048342749411 l 5.987242582712931 4.1795603154255145 a28.301766784452298,28.301766784452298 0 0,0 -0.28151484600944526,0.3959858859823151 l -5.914612638173526 -4.281723428117334" fill="#ff4806" stroke="none" /><path d="M 117.01052211995028 112.31430620078461 l 14.666315891405896 10.617281671347861 a39.10600706713781,39.10600706713781 0 0,0 -0.39831885399053923,0.5403960247890518 l -14.481895017831528 -10.867484005405789" fill="#ffda14" stroke="none" /><path d="M 116.57777611688842 112.89097897827486 l 21.580398309051915 16.78104825299101 a48.337102473498234,48.337102473498234 0 0,0 -0.5149824985162076,0.6506635637242952 l -21.289149379894145 -17.14903176062999" fill="#b3ff20" stroke="none" /><path d="M 116.1254893667686 113.45245675266167 l 9.891819625692683 8.252107746509072 a33.88197879858657,33.88197879858657 0 0,0 -0.37642142156413966,0.44342348810435483 l -9.748703640621429 -8.420698017062984" fill="#ff950d" stroke="none" /><line stroke="#e1ed5e" stroke-width="0.3" x1="143.1302829299769" x2="145.66735839644613" y1="173.24464959558577" y2="177.55315839532614" /><path d="M 143.63769802327073 174.10635135553383 a86.0,86.0 0 0,1 -40.68552437913181,11.842963189579606" fill="none" id="id18" stroke="none" /><text fill="#e1ed5e" style="font-size:6.75px; font-family:Arial;" text-anchor="middle"><textPath startOffset="21.407464694133747" xlink:href="#id18">June</textPath></text><line stroke="#e1ed5e" stroke-width="0.3" x1="101.45913802915013" x2="101.54496967792366" y1="184.9874750549273" y2="189.98673829345242" /><path d="M 101.47630435890484 185.9873277026323 a86.0,86.0 0 0,1 -42.54439059252881,-10.42667462771756" fill="none" id="id19" stroke="none" /><text fill="#e1ed5e" style="font-size:6.75px; font-family:Arial;" text-anchor="middle"><textPath startOffset="22.145653131862474" xlink:href="#id19">July</textPath></text><line stroke="#e1ed5e" stroke-width="0.3" x1="58.13341422392154" x2="55.67067388415222" y1="173.97424548756322" y2="178.32567169271397" /><path d="M 57.64086615596768 174.84453072859336 a86.0,86.0 0 0,1 -31.369924170532247,-30.572349798747897" fill="none" id="id20" stroke="none" /><text fill="#e1ed5e" style="font-size:6.75px; font-family:Arial;" text-anchor="middle"><textPath startOffset="22.145653131862474" xlink:href="#id20">August</textPath></text><line stroke="#e1ed5e" stroke-width="0.3" x1="26.387840678322732" x2="22.057713659400548" y1="142.50000000000003" y2="145.00000000000006" /><path d="M 25.521815274538298 143.00000000000003 a86.0,86.0 0 0,1 -11.493303480769221,-40.785679425670985" fill="none" id="id21" stroke="none" /><text fill="#e1ed5e" style="font-size:6.75px; font-family:Arial;" text-anchor="middle"><textPath startOffset="21.40746469413373" xlink:href="#id21">September</textPath></text><line stroke="#e1ed5e" stroke-width="0.3" x1="15.003131293944662" x2="10.003315487706104" y1="100.72959589197737" y2="100.7725132973878" /><path d="M 14.003168132696942 100.73817937305945 a86.0,86.0 0 0,1 10.791469493833604,-42.45332614584628" fill="none" id="id22" stroke="none" /><text fill="#e1ed5e" style="font-size:6.75px; font-family:Arial;" text-anchor="middle"><textPath startOffset="22.145653131862435" xlink:href="#id22">October</textPath></text><line stroke="#e1ed5e" stroke-width="0.3" x1="26.387840678322718" x2="22.05771365940052" y1="57.49999999999999" y2="54.99999999999999" /><path d="M 25.521815274538284 56.99999999999999 a86.0,86.0 0 0,1 29.574782752854787,-30.34633250058573" fill="none" id="id23" stroke="none" /><text fill="#e1ed5e" style="font-size:6.75px; font-family:Arial;" text-anchor="middle"><textPath startOffset="21.40746469413373" xlink:href="#id23">November</textPath></text><line stroke="#e1ed5e" stroke-width="0.3" x1="56.869717070023135" x2="54.33264160355391" y1="26.7553504044142" y2="22.446841604673864" /><path d="M 56.362301976729285 25.89364864446614 a86.0,86.0 0 0,1 42.16139366436587,-11.88097634709845" fill="none" id="id24" stroke="none" /><text fill="#e1ed5e" style="font-size:6.75px; font-family:Arial;" text-anchor="middle"><textPath startOffset="22.145653131862474" xlink:href="#id24">December</textPath></text></svg>