<?xml version="1.0" encoding="utf-8" ?>
<svg baseProfile="full" height="200mm" version="1.1" viewBox="0,0,200,200" width="200mm" xmlns="http://www.w3.org/2000/svg" xmlns:ev="http://www.w3.org/2001/xml-events" xmlns:xlink="http://www.w3.org/1999/xlink"><defs /><rect fill="#1a1a1a" height="200" width="200" x="0" y="0" /><text alignment-baseline="middle" fill="#e1ed5e" style="dominant-baseline: central; font-size:9.0px; font-family:Arial;" text-anchor="middle" x="100.0" y="100.0">2025</text><line stroke="#e1ed5e" stroke-width="0.3" x1="100.0" x2="100.0" y1="15.0" y2="10.0" /><path d="M 100.0 14.0 a86.0,86.0 0 0,1 42.46469731375804,11.215312516191453" fill="none" id="id25" stroke="none" /><text fill="#e1ed5e" style="font-size:6.75px; font-family:Arial;" text-anchor="middle"><textPath startOffset="22.20632615414155" xlink:href="#id25">January</textPath></text><path d="M 100.0 79.0 l 0.0 -42.49583333333333 a63.49583333333333,63.49583333333333 0 0,0 1.0929763935781864,0.009407592884489802 l -0.7314959143056581 42.4895371170574" fill="#32ff4d" stroke="none" /><path d="M 100.36148047927253 79.00311137660856 l 0.4829780848057949 -28.05417618847579 a49.05833333333334,49.05833333333334 0 0,0 0.8442083327808784,0.02180341057854317 l -0.9658130527815411 28.041705985754888" fill="#b4ff20" stroke="none" /><path d="M 100.72285384407766 79.0124445844662 l 0.12750338638592065 -3.701971580239989 a24.704166666666666,24.704166666666666 0 0,0 0.4248636318975502,0.018295521713898658 l -0.19120785067280244 3.6992283320018955" fill="#ff0000" stroke="none" /><path d="M 101.44485096284872 79.0497635885617 l 1.5311406731299597 -22.201431086010306 a43.25416666666666,43.25416666666666 0 0,0 0.7423440960772889,0.05762018913125987 l -1.9130749585695896 22.171785634690583" fill="#fbff18" stroke="none" /><path d="M 101.80526077348638 79.07773832637324 l 4.310060096698723 -49.951899745783905 a71.1375,71.1375 0 0,0 1.2190761319817978,0.1157659679548338 l -5.1692613557707645 49.87030823331389" fill="#3cffa7" stroke="none" /><path d="M 102.16513564639614 79.11191278185805 l 2.5410272516732375 -24.51449124906936 a45.64583333333333,45.64583333333333 0 0,0 0.7808334847323332,0.08773574002570793 l -2.962627439915296 24.46711955557305" fill="#ddff1b" stroke="none" /><path d="M 102.88285421437855 79.19881850522331 l 6.001942315768697 -43.30690425093089 a64.72083333333333,64.72083333333333 0 0,0 1.1021989339289067,0.1624354717316804 l -6.746510230126259 43.197174295038245" fill="#34ff5c" stroke="none" /><path d="M 103.2404852339499 79.25152402106235 l 6.746510230126259 -43.197174295038245 a64.72083333333333,64.72083333333333 0 0,0 1.0992395716358834,0.18138394796801785 l -7.489079007901018 43.0746440841306" fill="#34ff5c" stroke="none" /><path d="M 103.59715602781102 79.31037775812273 l 1.323953260236004 -7.6149304084687195 a28.729166666666668,28.729166666666668 0 0,0 0.486487230157837,0.08890243176322576 l -1.454835611496742 7.5910124953547555" fill="#ff3c05" stroke="none" /><path d="M 103.95276090670814 79.375362276772 l 3.8923715039667544 -20.30953909134536 a41.67916666666667,41.67916666666667 0 0,0 0.7034522234326082,0.14110589828565182 l -4.241390136866488 20.239529236982502" fill="#ffef16" stroke="none" /><path d="M 104.307194497241 79.44645832069477 l 2.9432495731146857 -14.044920147525236 a35.35,35.35 0 0,0 0.5944814143415613,0.12993061153861793 l -3.184573711609775 13.992176037890747" fill="#ff9b0e" stroke="none" /><path d="M 105.01212808612495 79.60689891045804 l 9.404701450492793 -38.26538829440443 a60.40416666666667,60.40416666666667 0 0,0 1.007573460462935,0.25685290963093704 l -10.061983799640752 38.09783238860462" fill="#37ff2e" stroke="none" /><path d="M 105.36241919743992 79.69619591428918 l 8.982052155711877 -34.008871843565636 a56.175,56.175 0 0,0 0.9327781463265734,0.25496350328966455 l -9.56612819126216 33.84922179944967" fill="#63ff29" stroke="none" /><path d="M 105.71112130821622 79.79150937346287 l 17.13336392464865 -60.62547187961136 a84.0,84.0 0 0,0 1.3880391291062915,0.40520668432518603 l -18.174393271478365 60.321566866367476" fill="#4dd2ff" stroke="none" /><path d="M 106.0581310904928 79.89281104454417 l 4.711879737049945 -15.638924743132304 a37.33333333333333,37.33333333333333 0 0,0 0.6137148929587231,0.19068420465329672 l -4.980380002719387 15.555500403596486" fill="#ffb610" stroke="none" /><path d="M 106.40334571778207 80.00007090966166 l 8.626729647567513 -26.944348913372497 a49.29166666666667,49.29166666666667 0 0,0 0.8058417089032146,0.2656733416692928 l -9.089254178713146 26.79186184744397" fill="#b1ff20" stroke="none" /><path d="M 106.74666289553966 80.11325718540242 l 6.8309961817339 -20.135327099780053 a42.2625,42.2625 0 0,0 0.6869024668226619,0.23964678299093248 l -7.176580652619835 20.014759463616915" fill="#fff617" stroke="none" /><path d="M 107.4271985657038 80.35727306442388 l 16.174787987532728 -42.77749421525465 a66.73333333333333,66.73333333333333 0 0,0 1.070964609001058,0.41551762985892904 l -16.908735761533453 42.492733881505174" fill="#37ff74" stroke="none" /><path d="M 107.76421540070413 80.48803036053334 l 21.405510514441268 -53.79341629769629 a78.89583333333334,78.89583333333334 0 0,0 1.25750990661585,0.5129698651019695 l -22.328304290645505 53.416985546410736" fill="#46fffa" stroke="none" /><path d="M 108.09893153111575 80.62456947434976 l 19.932370379357092 -47.685087349239204 a72.68333333333334,72.68333333333334 0 0,0 1.1501834383146312,0.4924485226621184 l -20.75023757546204 47.334919298614295" fill="#3effb8" stroke="none" /><path d="M 108.43124777332544 80.76684994638697 l 18.455064570501225 -42.099228450686304 a66.96666666666667,66.96666666666667 0 0,0 1.0517525777781564,0.4718907237972837 l -19.17699926674616 41.775317396372486" fill="#37ff77" stroke="none" /><path d="M 108.76106565485865 80.91482961587045 l 2.336284174628975 -5.089378769101217 a26.6,26.6 0 0,0 0.4144809323538426,0.19460435532266296 l -2.423543318282415 5.048409431138552" fill="#ff1d02" stroke="none" /><path d="M 109.08828744355905 81.06846463323043 l 13.733412136933683 -28.607653443118455 a52.733333333333334,52.733333333333334 0 0,0 0.8149277072849157,0.39988148677253305 l -14.22381111122903 28.36701679621109" fill="#89ff24" stroke="none" /><path d="M 109.73455568895987 81.39251694778311 l 9.072065093461209 -17.34114045560769 a40.57083333333333,40.57083333333333 0 0,0 0.6160100559432211,0.3290512381056389 l -9.369220195932742 17.182410491000297" fill="#ffe115" stroke="none" /><path d="M 110.05341064243156 81.56283822128135 l 9.662444673003664 -17.720161042879596 a41.18333333333334,41.18333333333334 0 0,0 0.6194677586531757,0.34473313700698055 l -9.966036520728876 17.551212508312435" fill="#ffe915" stroke="none" /><line stroke="#e1ed5e" stroke-width="0.3" x1="143.23703022742887" x2="145.7803849466894" y1="26.81831364943548" y2="22.513508569990506" /><path d="M 143.74570117128098 25.957352633546492 a86.0,86.0 0 0,1 28.547481713284135,27.462654790039103" fill="none" id="id26" stroke="none" /><text fill="#e1ed5e" style="font-size:6.75px; font-family:Arial;" text-anchor="middle"><textPath startOffset="19.985693538727396" xlink:href="#id26">February</textPath></text><path d="M 110.68208982089419 81.91981866633111 l 10.459546282958897 -17.703510889217444 a41.5625,41.5625 0 0,0 0.6128250772775924,0.3692202521131587 l -10.762733426454128 17.520844027645673" fill="#ffed16" stroke="none" /><line stroke="#e1ed5e" stroke-width="0.3" x1="172.23445277983987" x2="176.4835382374775" y1="55.19839476539836" y2="52.563006222186495" /><path d="M 173.08426987136738 54.67131705675599 a86.0,86.0 0 0,1 12.851231095245387,41.99856678651699" fill="none" id="id27" stroke="none" /><text fill="#e1ed5e" style="font-size:6.75px; font-family:Arial;" text-anchor="middle"><textPath startOffset="22.20632615414155" xlink:href="#id27">March</textPath></text><line stroke="#e1ed5e" stroke-width="0.3" x1="184.98032266829074" x2="189.97916517819016" y1="98.17113171792111" y2="98.06355123074" /><path d="M 185.9800911702706 98.14961562048488 a86.0,86.0 0 0,1 -9.607161424134198,41.387399972396054" fill="none" id="id28" stroke="none" /><text fill="#e1ed5e" style="font-size:6.75px; font-family:Arial;" text-anchor="middle"><textPath startOffset="21.466115282336823" xlink:href="#id28">April</textPath></text><line stroke="#e1ed5e" stroke-width="0.3" x1="174.80103733775053" x2="179.2010983576182" y1="140.37084112569926" y2="142.7455964860345" /><path d="M 175.68104954172406 140.8457921977663 a86.0,86.0 0 0,1 -30.038265399797805,32.042727171017184" fill="none" id="id29" stroke="none" /><text fill="#e1ed5e" style="font-size:6.75px; font-family:Arial;" text-anchor="middle"><textPath startOffset="22.206326154141568" xlink:href="#id29">May</textPath></text><line stroke="#e1ed5e" stroke-width="0.3" x1="143.8653032363475" x2="146.44561519142675" y1="172.8068346515853" y2="177.08958963109032" /><path d="M 144.38136562736335 173.6633856474863 a86.0,86.0 0 0,1 -40.68145358897372,12.25698825130547" fill="none" id="id30" stroke="none" /><text fill="#e1ed5e" style="font-size:6.75px; font-family:Arial;" text-anchor="middle"><textPath startOffset="21.466115282336833" xlink:href="#id30">June</textPath></text><line stroke="#e1ed5e" stroke-width="0.3" x1="102.19456741930631" x2="102.32365962044197" y1="184.97166512339345" y2="189.96999836594603" /><path d="M 102.22038585953345 185.97133177190398 a86.0,86.0 0 0,1 -42.740103519485714,-10.115201625700543" fill="none" id="id31" stroke="none" /><text fill="#e1ed5e" style="font-size:6.75px; font-family:Arial;" text-anchor="middle"><textPath startOffset="22.20632615414155" xlink:href="#id31">July</textPath></text><line stroke="#e1ed5e" stroke-width="0.3" x1="58.666819895761336" x2="56.23545636021788" y1="174.27360380694188" y2="178.64263932499728" /><path d="M 58.180547188652646 175.14741091055294 a86.0,86.0 0 0,1 -31.652253787137756,-30.449443065178592" fill="none" id="id32" stroke="none" /><text fill="#e1ed5e" style="font-size:6.75px; font-family:Arial;" text-anchor="middle"><textPath startOffset="22.20632615414155" xlink:href="#id32">August</textPath></text><line stroke="#e1ed5e" stroke-width="0.3" x1="26.63291911575756" x2="22.317208475507996" y1="142.92168965132927" y2="145.44649492493687" /><path d="M 25.769776987707644 143.4266507060508 a86.0,86.0 0 0,1 -11.730757126820373,-40.83630448921669" fill="none" id="id33" stroke="none" /><text fill="#e1ed5e" style="font-size:6.75px; font-family:Arial;" text-anchor="middle"><textPath startOffset="21.46611528233685" xlink:href="#id33">September</textPath></text><line stroke="#e1ed5e" stroke-width="0.3" x1="15.007084014347285" x2="10.007500721073583" y1="101.09737516637583" y2="101.16192664675087" /><path d="M 14.007167355692545 101.11028546245083 a86.0,86.0 0 0,1 10.666146001902534,-42.60595125391555" fill="none" id="id34" stroke="none" /><text fill="#e1ed5e" style="font-size:6.75px; font-family:Arial;" text-anchor="middle"><textPath startOffset="22.20632615414155" xlink:href="#id34">October</textPath></text><line stroke="#e1ed5e" stroke-width="0.3" x1="26.266209847984243" x2="21.928928074336255" y1="57.711370442889674" y2="55.22380399835377" /><path d="M 25.398753493254645 57.213857153982495 a86.0,86.0 0 0,1 29.58750427330803,-30.492523968695096" fill="none" id="id35" stroke="none" /><text fill="#e1ed5e" style="font-size:6.75px; font-family:Arial;" text-anchor="middle"><textPath startOffset="21.46611528233685" xlink:href="#id35">November</textPath></text><line stroke="#e1ed5e" stroke-width="0.3" x1="56.762969772571076" x2="54.21961505331055" y1="26.818313649435495" y2="22.513508569990535" /><path d="M 56.25429882871897 25.957352633546506 a86.0,86.0 0 0,1 42.265352541879196,-11.944610805530505" fill="none" id="id36" stroke="none" /><text fill="#e1ed5e" style="font-size:6.75px; font-family:Arial;" text-anchor="middle"><textPath startOffset="22.20632615414155" xlink:href="#id36">December</textPath></text></svg>