<?xml version="1.0" encoding="utf-8" ?>
<svg baseProfile="full" height="200mm" version="1.1" viewBox="0,0,200,200" width="200mm" xmlns="http://www.w3.org/2000/svg" xmlns:ev="http://www.w3.org/2001/xml-events" xmlns:xlink="http://www.w3.org/1999/xlink"><defs /><rect fill="#1a1a1a" height="200" width="200" x="0" y="0" /><text alignment-baseline="middle" fill="#e1ed5e" style="dominant-baseline: central; font-size:9.0px; font-family:Arial;" text-anchor="middle" x="100.0" y="100.0">2025</text><line stroke="#e1ed5e" stroke-width="0.3" x1="100.0" x2="100.0" y1="15.0" y2="10.0" /><path d="M 100.0 14.0 a86.0,86.0 0 0,1 42.46469731375804,11.215312516191453" fill="none" id="id25" stroke="none" /><text fill="#e1ed5e" style="font-size:6.75px; font-family:Arial;" text-anchor="middle"><textPath startOffset="22.20632615414155" xlink:href="#id25">January</textPath></text><path d="M 100.0 79.0 l 0.0 -21.58264754291089 a42.58264754291089,42.58264754291089 0 0,0 0.7329902782145039,0.006309078737881893 l -0.3715097989419755 21.579449840781567" fill="#f4ff19" stroke="none" /><path d="M 100.36148047927253 79.00311137660856 l 0.24529336072901883 -14.24806502871096 a35.25017634610863,35.25017634610863 0 0,0 0.6065940398175027,0.015666534421748063 l -0.4905140357413893 14.24173170214685" fill="#ffad10" stroke="none" /><path d="M 100.72285384407766 79.0124445844662 l 0.06475601095546402 -1.8801454534019215 a22.881260286856335,22.881260286856335 0 0,0 0.3935131866230514,0.01694550559296531 l -0.09711002996784694 1.8787522212847614" fill="#ff0000" stroke="none" /><path d="M 101.44485096284872 79.0497635885617 l 0.7776308144746564 -11.27559161668993 a32.302374794262875,32.302374794262875 0 0,0 0.5543853706069983,0.043030974550450296 l -0.971606374443996 11.260535379951015" fill="#ff860c" stroke="none" /><path d="M 101.80526077348638 79.07773832637324 l 2.1889794989111784 -25.369410639758577 a46.463672701622386,46.463672701622386 0 0,0 0.7962432527817546,0.07561289116204398 l -2.625347878783177 25.327972204081355" fill="#c6ff1e" stroke="none" /><path d="M 102.16513564639614 79.11191278185805 l 1.290528771129601 -12.450341193978325 a33.51704679050082,33.51704679050082 0 0,0 0.5733542479604948,0.06442303029427736 l -1.5046497225998212 12.426282210213447" fill="#ff960d" stroke="none" /><path d="M 102.88285421437855 79.19881850522331 l 3.0482472142159387 -21.99457163931595 a43.204796614154716,43.204796614154716 0 0,0 0.7357797839758434,0.10843481391759269 l -3.426395978620438 21.93884234123739" fill="#ecff1a" stroke="none" /><path d="M 103.2404852339499 79.25152402106235 l 3.426395978620438 -21.93884234123739 a43.204796614154716,43.204796614154716 0 0,0 0.7338042431894762,0.12108398760364077 l -3.8035294279487895 21.876612090694124" fill="#ecff1a" stroke="none" /><path d="M 103.59715602781102 79.31037775812273 l 0.6724051356947495 -3.8674464336450596 a24.92546437808606,24.92546437808606 0 0,0 0.4220769876963453,0.07713187165329695 l -0.7388772444939956 3.855299080641024" fill="#ff1e03" stroke="none" /><path d="M 103.95276090670814 79.375362276772 l 1.9768451560235574 -10.314743578016925 a31.50246884552081,31.50246884552081 0 0,0 0.5316920544556173,0.106652424224644 l -2.1541036199463 10.279187197715073" fill="#ff7b0b" stroke="none" /><path d="M 104.307194497241 79.44645832069477 l 1.494808153756812 -7.133089000389022 a28.2880319774277,28.2880319774277 0 0,0 0.47572020534315507,0.10397401114713324 l -1.617371083253495 7.106301491146018" fill="#ff4e07" stroke="none" /><path d="M 105.01212808612495 79.60689891045804 l 4.776429610407813 -19.43410268420258 a41.012461791676465,41.012461791676465 0 0,0 0.684109562798538,0.17439475989216638 l -5.110248061891377 19.349004928141543" fill="#fff717" stroke="none" /><path d="M 105.36241919743992 79.69619591428918 l 4.5617758420732795 -17.27231676042835 a38.86456618857277,38.86456618857277 0 0,0 0.6453407744933393,0.1763960115580162 l -4.858414505790329 17.19123420804404" fill="#ffdc14" stroke="none" /><path d="M 105.71112130821622 79.79150937346287 l 8.7016379208185 -30.790270223362462 a52.99623794968258,52.99623794968258 0 0,0 0.8757244282093715,0.25564797453927945 l -9.230352566751298 30.63592391990448" fill="#7cff26" stroke="none" /><path d="M 106.0581310904928 79.89281104454417 l 2.393054369157744 -7.942646942197458 a29.295320949917706,29.295320949917706 0 0,0 0.48157968109741567,0.14962915112673536 l -2.529419422965878 7.9002776561882015" fill="#ff5c08" stroke="none" /><path d="M 106.40334571778207 80.00007090966166 l 4.381315786208753 -13.684409511611708 a35.368680931107455,35.368680931107455 0 0,0 0.5782226532512494,0.1906309177359725 l -4.61622126170242 13.6069648696165" fill="#ffaf10" stroke="none" /><path d="M 106.74666289553966 80.11325718540242 l 3.4693044327639835 -10.226265350464358 a31.79873030801787,31.79873030801787 0 0,0 0.5168323286697667,0.18031265120408743 l -3.644818765497024 10.165031846088063" fill="#ff7f0b" stroke="none" /><path d="M 107.4271985657038 80.35727306442388 l 8.214799448170865 -21.725696568292978 a44.226898659769574,44.226898659769574 0 0,0 0.7097718765807624,0.27538046114563186 l -8.587554489751295 21.5810734032568" fill="#e0ff1b" stroke="none" /><path d="M 107.76421540070413 80.48803036053334 l 10.871362029436426 -27.320427745832106 a50.40395015283329,50.40395015283329 0 0,0 0.8033816739341031,0.3277195565102333 l -11.340027572958917 27.129247303138293" fill="#99ff23" stroke="none" /><path d="M 108.09893153111575 80.62456947434976 l 10.123188342208163 -24.218149229804062 a47.248765577239595,47.248765577239595 0 0,0 0.747692010746408,0.3201226985478614 l -10.538564110744886 24.04030700329341" fill="#bcff1f" stroke="none" /><path d="M 108.43124777332544 80.76684994638697 l 9.372899005944662 -21.381221127082625 a44.3454032447684,44.3454032447684 0 0,0 0.6964717597107564,0.31248657691771287 l -9.7395528841222 21.21671421964838" fill="#dfff1b" stroke="none" /><path d="M 108.76106565485865 80.91482961587045 l 1.1865445138016892 -2.584777366860717 a23.844110039971785,23.844110039971785 0 0,0 0.3715386827261325,0.17444239332974978 l -1.2308614078274196 2.563969990890964" fill="#ff0e01" stroke="none" /><path d="M 109.08828744355905 81.06846463323043 l 6.974881311022045 -14.529163281715464 a37.116623559840114,37.116623559840114 0 0,0 0.5735909912726509,0.28145860833916486 l -7.223943569305128 14.406949513241466" fill="#ffc612" stroke="none" /><path d="M 109.73455568895987 81.39251694778311 l 4.607491324212606 -8.807162798991914 a30.939572066776392,30.939572066776392 0 0,0 0.4697731338945691,0.2509365388525767 l -4.758409504635486 8.726547533637584" fill="#ff730a" stroke="none" /><path d="M 110.05341064243156 81.56283822128135 l 4.907331411636 -8.999658559280487 a31.250646602398305,31.250646602398305 0 0,0 0.47006316488668937,0.26158964233285237 l -5.061518665594725 8.913853519387455" fill="#ff770b" stroke="none" /><line stroke="#e1ed5e" stroke-width="0.3" x1="143.23703022742887" x2="145.7803849466894" y1="26.81831364943548" y2="22.513508569990506" /><path d="M 143.74570117128098 25.957352633546492 a86.0,86.0 0 0,1 28.547481713284135,27.462654790039103" fill="none" id="id26" stroke="none" /><text fill="#e1ed5e" style="font-size:6.75px; font-family:Arial;" text-anchor="middle"><textPath startOffset="19.985693538727396" xlink:href="#id26">February</textPath></text><path d="M 110.68208982089419 81.91981866633111 l 5.312160820877315 -8.991202332638064 a31.443216553021397,31.443216553021397 0 0,0 0.46361964785471066,0.27932565035681695 l -5.466142534949663 8.898430072822633" fill="#ff7a0b" stroke="none" /><path d="M 111.2981086023043 82.29822771554956 l 8.288290345447777 -12.986016818124943 a36.40559604984717,36.40559604984717 0 0,0 0.5253379070991071,0.341694388001834 l -8.510595278331165 12.841423505963581" fill="#ffbc11" stroke="none" /><path d="M 111.60114157652 82.49532879139004 l 12.708610064661825 -19.175702600732155 a44.00470256289678,44.00470256289678 0 0,0 0.6277905862800139,0.42388700625305714 l -13.03680534534838 18.954103682180428" fill="#e3ff1b" stroke="none" /><path d="M 112.19680574252982 82.90503203632743 l 19.45237087975071 -27.264323465222446 a54.492358335292735,54.492358335292735 0 0,0 0.7588831151468582,0.5513608569393784 l -19.918799311251355 26.925443373466393" fill="#6cff28" stroke="none" /><path d="M 112.48926042617603 83.11751280151076 l 5.655846597887383 -7.645349246247424 a30.509992946155656,30.509992946155656 0 0,0 0.4195179910479548,0.3159722533372606 l -5.78661074269372 7.546860403404316" fill="#ff6d0a" stroke="none" /><path d="M 112.77801427241765 83.33499621200491 l 10.383451052310226 -13.542029882744192 a38.06466023983071,38.06466023983071 0 0,0 0.5165328079651896,0.40316204972446873 l -10.615016415434846 13.3612894437965" fill="#ffd213" stroke="none" /><path d="M 113.06298171725822 83.55741782278167 l 1.677025162855157 -2.1108981586553486 a23.695979308723253,23.695979308723253 0 0,0 0.31718377387467833,0.25647388648705427 l -1.7131123352943265 2.0817181749041644" fill="#ff0c01" stroke="none" /><path d="M 113.89432698308785 84.25364557470407 l 9.546020090426211 -10.818445245876964 a35.427933223606864,35.427933223606864 0 0,0 0.45379641758729633,0.4074229043217237 l -9.730827495609498 10.652523332785943" fill="#ffb010" stroke="none" /><path d="M 114.16331599549186 84.49514656593476 l 27.474102271998074 -30.07642624759892 a61.735951093345875,61.735951093345875 0 0,0 0.7784377683783283,0.7234730684948907 l -27.98774792417125 29.59904859302939" fill="#31ff3f" stroke="none" /><path d="M 114.42810811169701 84.74124197986012 l 15.143915967697025 -16.015776111428266 a43.04185280978133,43.04185280978133 0 0,0 0.533958280138855,0.5136674424389875 l -15.417357491448298 15.752725582226978" fill="#eeff19" stroke="none" /><path d="M 114.94478906791727 85.2469230424477 l 9.550890356595138 -9.428371307459942 a34.420644251116855,34.420644251116855 0 0,0 0.4126145821127737,0.4252355967129445 l -9.71176920241102 9.262571515196884" fill="#ffa20f" stroke="none" /><path d="M 115.4437574822437 85.77008943001954 l 8.998267350340905 -8.291022429440769 a33.23559840112861,33.23559840112861 0 0,0 0.38403949095073214,0.4240659978576688 l -9.139650481907672 8.134903644313551" fill="#ff920d" stroke="none" /><path d="M 115.9244219780498 86.31012108654704 l 27.77881181640055 -23.88083979753293 a57.63272983776158,57.63272983776158 0 0,0 0.6402430565197197,0.7578458358638768 l -28.18576548640739 23.399135012039945" fill="#4cff2c" stroke="none" /><path d="M 116.38621287248628 86.86637796730983 l 12.39079722499786 -9.93127873433614 a36.879614389842466,36.879614389842466 0 0,0 0.39276072702649484,0.4987662378473446 l -12.55991203261832 9.716520102535755" fill="#ffc212" stroke="none" /><path d="M 116.82858285166822 87.43820079747576 l 9.247213290465226 -6.902639251422328 a32.53938396426052,32.53938396426052 0 0,0 0.33118490090176395,0.45173583263692846 l -9.364660803880616 6.742440975113905" fill="#ff890c" stroke="none" /><path d="M 117.2510076193507 88.02491185347247 l 36.72481142384228 -25.493169075631382 a65.70585469080649,65.70585469080649 0 0,0 0.6369573560654044,0.9346563236164358 l -37.15819324557642 24.857234728744537" fill="#36ff6e" stroke="none" /><path d="M 117.45458315368197 88.32363383020206 l 15.267117171807408 -10.213045415388743 a39.368210674817774,39.368210674817774 0 0,0 0.3719421646581859,0.5664934342595827 l -15.440655971823519 9.948733917151486" fill="#ffe215" stroke="none" /><path d="M 117.65298651832404 88.62581576622439 l 6.524922362286714 -4.204142397247887 a28.762050317422997,28.762050317422997 0 0,0 0.2645730665100654,0.4184910538595695 l -6.596323025042735 4.091203695674111" fill="#ff5507" stroke="none" /><line stroke="#e1ed5e" stroke-width="0.3" x1="172.23445277983987" x2="176.4835382374775" y1="55.19839476539836" y2="52.563006222186495" /><path d="M 173.08426987136738 54.67131705675599 a86.0,86.0 0 0,1 12.851231095245387,41.99856678651699" fill="none" id="id27" stroke="none" /><text fill="#e1ed5e" style="font-size:6.75px; font-family:Arial;" text-anchor="middle"><textPath startOffset="22.20632615414155" xlink:href="#id27">March</textPath></text><path d="M 117.84615892207809 88.93136811851018 l 5.727723237393977 -3.5524764914727487 a27.739948271808135,27.739948271808135 0 0,0 0.24818562079191017,0.40795190456680375 l -5.788024656472111 3.4533568136988633" fill="#ff4606" stroke="none" /><path d="M 118.21658344932153 89.55222093294921 l 15.00844307698628 -8.607810451668465 a38.30166940982836,38.30166940982836 0 0,0 0.32308800293783146,0.5747375060982374 l -15.154388721216545 8.348189435635433" fill="#ffd513" stroke="none" /><path d="M 118.3937258080291 89.86733742301442 l 7.434473233952979 -4.095473070735533 a29.487890900540794,29.487890900540794 0 0,0 0.24108723994058973,0.4466980408037988 l -7.503868573112034 3.966894046599276" fill="#ff5f08" stroke="none" /><path d="M 118.56541770881063 90.18545643968196 l 30.997656042855468 -16.38680315584727 a56.062544086527154,56.062544086527154 0 0,0 0.4436698085821864,0.8570288529170103 l -31.275135284597773 15.850801580669916" fill="#5cff2a" stroke="none" /><path d="M 118.73160827565052 90.50648371742162 l 14.481431462576749 -7.339450161560722 a37.23512814483894,37.23512814483894 0 0,0 0.2848309763269103,0.5742018676532845 l -14.605622451857068 7.089088705408488" fill="#ffc712" stroke="none" /><path d="M 118.89224826269711 90.83032412892265 l 13.086424496098209 -6.35171998969994 a35.54643780860569,35.54643780860569 0 0,0 0.26243732953990057,0.5527599458743827 l -13.193820019479865 6.125517628185016" fill="#ffb110" stroke="none" /><path d="M 119.34039704204932 91.81776055985345 l 20.559119451470725 -8.69783788123737 a43.32330119915353,43.32330119915353 0 0,0 0.28465123895144695,0.6893055534546716 l -20.705792377308367 8.342657757329395" fill="#ebff1a" stroke="none" /><path d="M 119.47837535516314 92.15188598940014 l 10.373505802832 -4.179632784859784 a32.18387020926405,32.18387020926405 0 0,0 0.20261501102070928,0.5156331027719909 l -10.44391436373441 4.000450677192009" fill="#ff840c" stroke="none" /><path d="M 119.7369772167798 92.82701384747503 l 3.8703595106499784 -1.4066001531168173 a25.118034328709147,25.118034328709147 0 0,0 0.14418579306853957,0.4076326532724693 l -3.8939983845283273 1.3397698734177335" fill="#ff2103" stroke="none" /><path d="M 119.85752413597 93.16781622104841 l 14.273325013792677 -4.910883097167877 a36.09452151422525,36.09452151422525 0 0,0 0.19708073889686356,0.5892463243916963 l -14.355743046461312 4.664463669853867" fill="#ffb811" stroke="none" /><path d="M 119.97218684219823 93.5106431181261 l 14.764297068392011 -4.797210918554322 a36.52410063484599,36.52410063484599 0 0,0 0.18913312639703242,0.5996036959660893 l -14.84468567855725 4.542357056161814" fill="#ffbe11" stroke="none" /><path d="M 120.08093135843002 93.85539295169968 l 5.042660402257997 -1.5430144198412268 a26.273454032447685,26.273454032447685 0 0,0 0.12860743509725656,0.43360033696725003 l -5.068473734466956 1.455984696127447" fill="#ff3204" stroke="none" /><path d="M 120.18372546131832 94.20196356495316 l 11.888133618763785 -3.4150202844562303 a33.36891605925229,33.36891605925229 0 0,0 0.15383583459029349,0.5534293466952088 l -11.945156223920442 3.20987963434207" fill="#ff940d" stroke="none" /><path d="M 120.28053869075195 94.5502522615342 l 6.866676631714744 -1.845200268843345 a28.11027509992946,28.11027509992946 0 0,0 0.12154838529564231,0.4683755112509745 l -6.897421348880688 1.72672833204352" fill="#ff4c07" stroke="none" /><path d="M 120.37134235888165 94.90015583598534 l 2.744598911742109 -0.6870939821256511 a23.829296966846933,23.829296966846933 0 0,0 0.09618775122061732,0.39876032730113004 l -2.7560194632235455 0.6397484231651149" fill="#ff0e01" stroke="none" /><path d="M 120.53481517161879 95.60439243477599 l 4.3309967573341295 -0.9270773538692554 a25.42910886433106,25.42910886433106 0 0,0 0.08793713285628167,0.428812690044305 l -4.346313186105408 0.8523890076615386" fill="#ff2503" stroke="none" /><path d="M 120.67395015179393 96.31383870115 l 62.02185045538181 -11.058483896549978 a84.0,84.0 0 0,0 0.2415525539191079,1.4256568467366484 l -62.20301487082114 9.98924126149749" fill="#4dd2ff" stroke="none" /><path d="M 120.87857604477298 97.74499172005257 l 2.842392553473679 -0.30699501389361894 a23.858923113096637,23.858923113096637 0 0,0 0.04058615770126288,0.4086970692772561 l -2.8472558368571708 0.2580224139119279" fill="#ff0e01" stroke="none" /><path d="M 120.91429891909075 98.10471618934814 l 32.67705532973386 -2.9612416933415564 a53.810956971549494,53.810956971549494 0 0,0 0.07565696575009316,0.9232066142181369 l -32.72318677930345 2.398321161915651" fill="#73ff27" stroke="none" /><path d="M 120.94382443527127 98.46500227214037 l 3.0137833422022133 -0.22088375486717504 a24.02186691747002,24.02186691747002 0 0,0 0.02667503521361828,0.41265098810462814 l -3.017138968420247 0.16897370250951166" fill="#ff1101" stroke="none" /><line stroke="#e1ed5e" stroke-width="0.3" x1="184.98032266829074" x2="189.97916517819016" y1="98.17113171792111" y2="98.06355123074" /><path d="M 185.9800911702706 98.14961562048488 a86.0,86.0 0 0,1 -9.607161424134198,41.387399972396054" fill="none" id="id28" stroke="none" /><text fill="#e1ed5e" style="font-size:6.75px; font-family:Arial;" text-anchor="middle"><textPath startOffset="21.466115282336823" xlink:href="#id28">April</textPath></text><path d="M 120.99513854157772 99.54816195383933 l 12.247575528251657 -0.26358104691385276 a33.25041147425347,33.25041147425347 0 0,0 0.007389496842065243,0.5723246739291897 l -12.250298032211438 0.052720114924200256" fill="#ff930d" stroke="none" /><path d="M 120.99980553446 99.90962569577887 l 27.640938486223146 -0.1189549388737094 a48.64119445097578,48.64119445097578 0 0,0 -0.003603392288056858,0.8373014648990129 l -27.638890796645587 -0.3568560042289882" fill="#acff20" stroke="none" /><path d="M 120.99824983174949 100.27111621757518 l 6.6801392011185206 0.08624976307999661 a27.680695979308723,27.680695979308723 0 0,0 -0.010252319912496638,0.4763850206161806 l -6.677664818521016 -0.20122459948629207" fill="#ff4606" stroke="none" /><path d="M 120.9904718944345 100.63252640178507 l 21.1286645144778 0.6366906950486447 a42.13825534916529,42.13825534916529 0 0,0 -0.028087890488556765,0.7248236477739175 l -21.114574491138043 -1.0002915898365683" fill="#f9ff18" stroke="none" /><path d="M 120.89721153311464 102.0752229133903 l 20.01769099127888 1.9878810602285637 a41.11615330355043,41.11615330355043 0 0,0 -0.07600164011303573,0.7036807965354671 l -19.98050704966479 -2.3321581786488226" fill="#fff817" stroke="none" /><path d="M 120.8583938346157 102.4346265915055 l 41.62360415574499 4.858376647568129 a62.90618387020926,62.90618387020926 0 0,0 -0.13479444443808014,1.074444347608415 l -41.53380820206006 -5.5741387494639385" fill="#32ff4d" stroke="none" /><path d="M 120.81339534386255 102.79330883721812 l 16.22299684103088 2.1772440149019623 a37.36844580296261,37.36844580296261 0 0,0 -0.09104723769253727,0.63678416836404 l -16.18311555232174 -2.4561736552464115" fill="#ffc912" stroke="none" /><path d="M 120.76222939487914 103.15116336523771 l 7.483775608358743 1.1358413917021868 a28.569480366799905,28.569480366799905 0 0,0 -0.07797869016355165,0.4855733780849086 l -7.463115163833902 -1.2644939994803002" fill="#ff5207" stroke="none" /><path d="M 120.64145759157962 103.86396538481128 l 6.785035907131042 1.2701207636882603 a27.90289207618152,27.90289207618152 0 0,0 -0.09243838437679804,0.4713413304347621 l -6.76216758977858 -1.3867258211909674" fill="#ff4906" stroke="none" /><path d="M 120.49622156327973 104.57218783832717 l 17.522751376460167 3.9088819610057786 a38.953444627321886,38.953444627321886 0 0,0 -0.15162059613775422,0.6531775598817707 l -17.45287021439186 -4.209928178236114" fill="#ffdd14" stroke="none" /><path d="M 120.41448212921028 104.9243191809786 l 8.092832558158607 1.9521284126804435 a29.324947096167413,29.324947096167413 0 0,0 -0.12259040780663852,0.4896877408461946 l -8.058030836056908 -2.091143992924034" fill="#ff5d08" stroke="none" /><path d="M 120.32669344350535 105.2749913415812 l 13.320125705866307 3.456713112858411 a34.76134493298848,34.76134493298848 0 0,0 -0.15528707795765068,0.5778809852913568 l -13.258650551566879 -3.685485031325316" fill="#ffa70f" stroke="none" /><path d="M 120.13307415673323 105.97154293290107 l 4.871134095292377 1.4447960681766294 a26.080884081824593,26.080884081824593 0 0,0 -0.1313647278680007,0.4293075313849128 l -4.845542594918244 -1.5284305721135993" fill="#ff2f04" stroke="none" /><path d="M 120.02730092923936 106.31721596034902 l 12.940282848236482 4.0817562800468155 a34.56877498236539,34.56877498236539 0 0,0 -0.18388571611456733,0.5659420412074901 l -12.868104881105667 -4.3038972212321" fill="#ffa40f" stroke="none" /><path d="M 119.9155931802556 106.66101706037122 l 10.479919477407016 3.5051390033178453 a32.05055255114037,32.05055255114037 0 0,0 -0.17949708825475874,0.5217025591928877 l -10.418031558209027 -3.6850142656000338" fill="#ff820c" stroke="none" /><path d="M 119.67450827220406 107.3425965602758 l 11.615962913591439 4.335118730978723 a33.398542205502,33.398542205502 0 0,0 -0.20564869335281455,0.5368838452717176 l -11.539619940645117 -4.534426143083585" fill="#ff950d" stroke="none" /><path d="M 119.54520255179757 107.68017299344265 l 14.352143797146438 5.639590937813635 a36.42040912297202,36.42040912297202 0 0,0 -0.23430009810427302,0.5815136286836133 l -14.252941084784773 -5.885803934340061" fill="#ffbd11" stroke="none" /><path d="M 119.12269723197855 108.67885076344098 l 13.93398512153809 6.3239498038804625 a36.30190453797319,36.30190453797319 0 0,0 -0.26314625370175404,0.5667936198838555 l -13.823064250996504 -6.5628634910431485" fill="#ffbb11" stroke="none" /><path d="M 118.81262510543309 109.33194174019688 l 13.522265447286372 6.707675969852304 a36.09452151422525,36.09452151422525 0 0,0 -0.28088641520394386,0.5542155448984962 l -13.40480036229616 -6.939445726453495" fill="#ffb811" stroke="none" /><path d="M 118.64920377521936 109.65438752849418 l 11.221093924473625 5.808976648346253 a33.635551375499645,33.635551375499645 0 0,0 -0.2706020018744482,0.5118770085194575 l -11.119439414374284 -6.001268671951844" fill="#ff980e" stroke="none" /><line stroke="#e1ed5e" stroke-width="0.3" x1="174.80103733775053" x2="179.2010983576182" y1="140.37084112569926" y2="142.7455964860345" /><path d="M 175.68104954172406 140.8457921977663 a86.0,86.0 0 0,1 -30.038265399797805,32.042727171017184" fill="none" id="id29" stroke="none" /><text fill="#e1ed5e" style="font-size:6.75px; font-family:Arial;" text-anchor="middle"><textPath startOffset="22.206326154141568" xlink:href="#id29">May</textPath></text><path d="M 118.48025628344425 109.97397251340804 l 15.786214690278149 8.519972288081693 a38.93863155419704,38.93863155419704 0 0,0 -0.32341980603465686,0.587100891585918 l -15.63721847479198 -8.790443698065417" fill="#ffdd14" stroke="none" /><path d="M 118.30583269289576 110.29060199501025 l 12.176628424218695 6.845077132349867 a34.96872795673642,34.96872795673642 0 0,0 -0.2994788533385488,0.522166623943431 l -12.056997574727767 -7.053663602151613" fill="#ffa90f" stroke="none" /><path d="M 117.94076556474637 110.91462005526583 l 11.073244676101389 6.7366277086933435 a33.96143898424641,33.96143898424641 0 0,0 -0.30813595305989916,0.4968132689559484 l -10.955644083373528 -6.926237309014565" fill="#ff9c0e" stroke="none" /><path d="M 117.55443506779139 111.5257021239791 l 2.860386433571462 1.878041752155541 a24.421819891841054,24.421819891841054 0 0,0 -0.233748093260892,0.34942168406726526 l -2.827635234899849 -1.927000350428613" fill="#ff1702" stroke="none" /><path d="M 117.35343817320211 111.8261652097733 l 15.203129704526463 10.360755130875921 a39.397836821067486,39.397836821067486 0 0,0 -0.38673496866995427,0.5571205664259984 l -15.022533828694371 -10.62091695948894" fill="#ffe315" stroke="none" /><path d="M 116.93607887273984 112.41649034213515 l 9.879711188165423 7.243195988440462 a33.25041147425347,33.25041147425347 0 0,0 -0.3423822313837879,0.45867695024318667 l -9.753567690086543 -7.412185818192963" fill="#ff930d" stroke="none" /><path d="M 116.71984013943494 112.70617746262583 l 3.2787083649867705 2.491641665607792 a25.118034328709147,25.118034328709147 0 0,0 -0.26456847420919016,0.34199041710460465 l -3.2353330735595116 -2.5477100768256493" fill="#ff2103" stroke="none" /><path d="M 116.498646956653 112.99209946851258 l 8.774968120373638 6.909976251534314 a32.169057136139195,32.169057136139195 0 0,0 -0.3463260764078595,0.4320950303874205 l -8.654724131910925 -7.059999115499984" fill="#ff840c" stroke="none" /><path d="M 116.27256486870786 113.27417163493432 l 10.215788431565944 8.333420706624649 a34.183635081119206,34.183635081119206 0 0,0 -0.3758637180195154,0.45275206136876717 l -10.070828713652885 -8.508034025107186" fill="#ff9f0e" stroke="none" /><path d="M 116.0416608686014 113.55231037782055 l 2.3649474170263516 1.9979540575813504 a24.095932283094285,24.095932283094285 0 0,0 -0.2703993776850693,0.3145355645642472 l -2.3302055297705033 -2.0383667213071255" fill="#ff1202" stroke="none" /><path d="M 115.80600337817218 113.82643327865902 l 5.21787649728515 4.56438098359682 a27.932518222431227,27.932518222431227 0 0,0 -0.3196825505618035,0.3591667344876366 l -5.1385350970750086 -4.653521887825323" fill="#ff4906" stroke="none" /><path d="M 115.32070863581623 114.36230785411682 l 2.1722048688918854 2.0363206292105436 a23.97742769809546,23.97742769809546 0 0,0 -0.28486719645044634,0.29868211659425004 l -2.136831121062474 -2.0734098623873005" fill="#ff1001" stroke="none" /><path d="M 115.07121518719521 114.62390073753431 l 5.400548305968844 5.24025975170522 a28.52504114742535,28.52504114742535 0 0,0 -0.34496198190787,0.34944466641751715 l -5.309545699005438 -5.332444912103402" fill="#ff5207" stroke="none" /><path d="M 114.55890576462653 115.13401014063108 l 14.336397211910631 14.902712078288962 a41.67905008229485,41.67905008229485 0 0,0 -0.5213139482499866,0.4929348768463854 l -14.077747429269836 -15.147281591881269" fill="#ffff18" stroke="none" /><path d="M 114.29624159901734 115.38237550388516 l 18.524944145822843 19.93234690851425 a48.211615330355045,48.211615330355045 0 0,0 -0.6127477072667624,0.5597305024802737 l -18.17909688908922 -20.24827017758111" fill="#b1ff20" stroke="none" /><path d="M 114.0293411484842 115.62618273729858 l 7.125176788320217 7.936175573140119 a31.665412649894193,31.665412649894193 0 0,0 -0.4087215355772521,0.3606492339088436 l -6.987512899836377 -8.05764794882125" fill="#ff7d0b" stroke="none" /><path d="M 113.48314897796784 116.09983520530334 l 8.749939143943386 10.44804729993821 a34.6280272748648,34.6280272748648 0 0,0 -0.46027222866590195,0.3787727090182478 l -8.568796786732793 -10.597115127813636" fill="#ffa50f" stroke="none" /><path d="M 113.20401910651253 116.32954008644616 l 4.498618313034718 5.563485442102159 a28.15471431930402,28.15471431930402 0 0,0 -0.37947528251250034,0.3014781148231299 l -4.402185537804866 -5.6400974709304155" fill="#ff4c07" stroke="none" /><path d="M 112.63410532772338 116.77436683061366 l 10.471483959610836 13.903043281898226 a38.405360921702325,38.405360921702325 0 0,0 -0.531484528587916,0.39317954824878354 l -10.230614460604356 -14.081232778886779" fill="#ffd614" stroke="none" /><path d="M 112.34349029814194 116.9893568818739 l 18.354157687620415 25.26233080671773 a52.22595814719022,52.22595814719022 0 0,0 -0.7318415361726658,0.5221495044612492 l -17.916588823598865 -25.5745245730232" fill="#85ff25" stroke="none" /><line stroke="#e1ed5e" stroke-width="0.3" x1="143.8653032363475" x2="146.44561519142675" y1="172.8068346515853" y2="177.08958963109032" /><path d="M 144.38136562736335 173.6633856474863 a86.0,86.0 0 0,1 -40.68145358897372,12.25698825130547" fill="none" id="id30" stroke="none" /><text fill="#e1ed5e" style="font-size:6.75px; font-family:Arial;" text-anchor="middle"><textPath startOffset="21.466115282336833" xlink:href="#id30">June</textPath></text><line stroke="#e1ed5e" stroke-width="0.3" x1="102.19456741930631" x2="102.32365962044197" y1="184.97166512339345" y2="189.96999836594603" /><path d="M 102.22038585953345 185.97133177190398 a86.0,86.0 0 0,1 -42.740103519485714,-10.115201625700543" fill="none" id="id31" stroke="none" /><text fill="#e1ed5e" style="font-size:6.75px; font-family:Arial;" text-anchor="middle"><textPath startOffset="22.20632615414155" xlink:href="#id31">July</textPath></text><line stroke="#e1ed5e" stroke-width="0.3" x1="58.666819895761336" x2="56.23545636021788" y1="174.27360380694188" y2="178.64263932499728" /><path d="M 58.180547188652646 175.14741091055294 a86.0,86.0 0 0,1 -31.652253787137756,-30.449443065178592" fill="none" id="id32" stroke="none" /><text fill="#e1ed5e" style="font-size:6.75px; font-family:Arial;" text-anchor="middle"><textPath startOffset="22.20632615414155" xlink:href="#id32">August</textPath></text><line stroke="#e1ed5e" stroke-width="0.3" x1="26.63291911575756" x2="22.317208475507996" y1="142.92168965132927" y2="145.44649492493687" /><path d="M 25.769776987707644 143.4266507060508 a86.0,86.0 0 0,1 -11.730757126820373,-40.83630448921669" fill="none" id="id33" stroke="none" /><text fill="#e1ed5e" style="font-size:6.75px; font-family:Arial;" text-anchor="middle"><textPath startOffset="21.46611528233685" xlink:href="#id33">September</textPath></text><line stroke="#e1ed5e" stroke-width="0.3" x1="15.007084014347285" x2="10.007500721073583" y1="101.09737516637583" y2="101.16192664675087" /><path d="M 14.007167355692545 101.11028546245083 a86.0,86.0 0 0,1 10.666146001902534,-42.60595125391555" fill="none" id="id34" stroke="none" /><text fill="#e1ed5e" style="font-size:6.75px; font-family:Arial;" text-anchor="middle"><textPath startOffset="22.20632615414155" xlink:href="#id34">October</textPath></text><line stroke="#e1ed5e" stroke-width="0.3" x1="26.266209847984243" x2="21.928928074336255" y1="57.711370442889674" y2="55.22380399835377" /><path d="M 25.398753493254645 57.213857153982495 a86.0,86.0 0 0,1 29.58750427330803,-30.492523968695096" fill="none" id="id35" stroke="none" /><text fill="#e1ed5e" style="font-size:6.75px; font-family:Arial;" text-anchor="middle"><textPath startOffset="21.46611528233685" xlink:href="#id35">November</textPath></text><line stroke="#e1ed5e" stroke-width="0.3" x1="56.762969772571076" x2="54.21961505331055" y1="26.818313649435495" y2="22.513508569990535" /><path d="M 56.25429882871897 25.957352633546506 a86.0,86.0 0 0,1 42.265352541879196,-11.944610805530505" fill="none" id="id36" stroke="none" /><text fill="#e1ed5e" style="font-size:6.75px; font-family:Arial;" text-anchor="middle"><textPath startOffset="22.20632615414155" xlink:href="#id36">December</textPath></text></svg>