<?xml version="1.0" encoding="utf-8" ?>
<svg baseProfile="full" height="200mm" version="1.1" viewBox="0,0,200,200" width="200mm" xmlns="http://www.w3.org/2000/svg" xmlns:ev="http://www.w3.org/2001/xml-events" xmlns:xlink="http://www.w3.org/1999/xlink"><defs /><rect fill="#1a1a1a" height="200" width="200" x="0" y="0" /><text alignment-baseline="middle" fill="#e1ed5e" style="dominant-baseline: central; font-size:9.0px; font-family:Arial;" text-anchor="middle" x="100.0" y="100.0">2025</text><line stroke="#e1ed5e" stroke-width="0.3" x1="100.0" x2="100.0" y1="15.0" y2="10.0" /><path d="M 100.0 14.0 a86.0,86.0 0 0,1 42.46469731375804,11.215312516191453" fill="none" id="id25" stroke="none" /><text fill="#e1ed5e" style="font-size:6.75px; font-family:Arial;" text-anchor="middle"><textPath startOffset="22.20632615414155" xlink:href="#id25">January</textPath></text><path d="M 100.0 79.0 l 0.0 -33.37854545454545 a54.37854545454545,54.37854545454545 0 0,0 0.9360372701453362,0.008056768301653711 l -0.5745567908728078 33.37360006285236" fill="#73ff27" stroke="none" /><path d="M 100.36148047927253 79.00311137660856 l 0.37935733206564254 -22.035280206220982 a43.038545454545456,43.038545454545456 0 0,0 0.7406182851060819,0.019127985267513112 l -0.7586022523665922 22.02548542881111" fill="#f7ff19" stroke="none" /><path d="M 100.72285384407766 79.0124445844662 l 0.10014811439766856 -2.9077304048430452 a23.909454545454544,23.909454545454544 0 0,0 0.4111961286505465,0.017706970273725885 l -0.1501850754375466 2.9055757080451245" fill="#ff0000" stroke="none" /><path d="M 101.44485096284872 79.0497635885617 l 1.202641401440259 -17.438214962102638 a38.47963636363636,38.47963636363636 0 0,0 0.66040183120115,0.05125989230266446 l -1.5026334220037503 17.41492980761151" fill="#ffcd13" stroke="none" /><path d="M 101.80526077348638 79.07773832637324 l 3.385356294134269 -39.234946709415716 a60.38072727272727,60.38072727272727 0 0,0 1.0347384073081596,0.09826087982490395 l -4.060219828532673 39.170860285075634" fill="#34ff2f" stroke="none" /><path d="M 102.16513564639614 79.11191278185805 l 1.995861404950616 -19.25501858108721 a40.35818181818182,40.35818181818182 0 0,0 0.6903810807094917,0.07757235851195442 l -2.327009189169833 19.217810269104653" fill="#ffe515" stroke="none" /><path d="M 102.88285421437855 79.19881850522331 l 4.714252873476504 -34.015604793458444 a55.34072727272727,55.34072727272727 0 0,0 0.9424552723031023,0.13889340846743928 l -5.299077126208262 33.929416900830034" fill="#68ff28" stroke="none" /><path d="M 103.2404852339499 79.25152402106235 l 5.299077126208262 -33.929416900830034 a55.34072727272727,55.34072727272727 0 0,0 0.9399248156769351,0.15509564817328728 l -5.882331148024072 33.83317498971712" fill="#68ff28" stroke="none" /><path d="M 103.59715602781102 79.31037775812273 l 1.039905106221734 -5.981181702651793 a27.07090909090909,27.07090909090909 0 0,0 0.45840701661462413,0.0837709522224116 l -1.142707243939259 5.962395269078643" fill="#ff2f04" stroke="none" /><path d="M 103.95276090670814 79.375362276772 l 3.057280890388432 -15.95221979538399 a37.24254545454545,37.24254545454545 0 0,0 0.6285718621923017,0.1260856022587109 l -3.3314191620478586 15.897230237048069" fill="#ffbd11" stroke="none" /><path d="M 104.307194497241 79.44645832069477 l 2.311788755610081 -11.031646370419823 a32.27127272727273,32.27127272727273 0 0,0 0.5427064173553422,0.11861460256249132 l -2.501337897118951 10.990218269761462" fill="#ff790b" stroke="none" /><path d="M 105.01212808612495 79.60689891045804 l 7.38696550293252 -30.055723169423114 a51.95018181818182,51.95018181818182 0 0,0 0.8665565201002816,0.22090455165934256 l -7.903230911717826 29.924115621594904" fill="#8eff24" stroke="none" /><path d="M 105.36241919743992 79.69619591428918 l 7.054993693213693 -26.712422975309735 a48.62836363636364,48.62836363636364 0 0,0 0.8074672877903307,0.22071131200660443 l -7.5137588702277345 26.587025122476838" fill="#b3ff20" stroke="none" /><path d="M 105.71112130821622 79.79150937346287 l 13.457478573542211 -47.61855245816747 a70.48363636363636,70.48363636363636 0 0,0 1.1646910146955518,0.34000524512013336 l -14.27515980596119 47.379848884128634" fill="#3cffa1" stroke="none" /><path d="M 106.0581310904928 79.89281104454417 l 3.7009673571010486 -12.28366452551483 a33.82909090909091,33.82909090909091 0 0,0 0.5561093814150975,0.17278589180743048 l -3.911862111226865 12.21813849882488" fill="#ff8f0d" stroke="none" /><path d="M 106.40334571778207 80.00007090966166 l 6.77590401408939 -21.163561328321663 a43.22181818181818,43.22181818181818 0 0,0 0.7066091731301516,0.23295793479735383 l -7.139196009461959 21.043789669265074" fill="#f5ff19" stroke="none" /><path d="M 106.74666289553966 80.11325718540242 l 5.365437000925537 -15.815384194736335 a37.70072727272728,37.70072727272728 0 0,0 0.6127588894325885,0.21377954468684066 l -5.636877894421398 15.720683796877287" fill="#ffc312" stroke="none" /><path d="M 107.4271985657038 80.35727306442388 l 12.70456074657116 -33.599777274527284 a56.921454545454544,56.921454545454544 0 0,0 0.913499450215448,0.3544235946181324 l -13.281043361786274 33.37611097601861" fill="#58ff2a" stroke="none" /><path d="M 107.76421540070413 80.48803036053334 l 16.813055531342954 -42.252283346554165 a66.47454545454545,66.47454545454545 0 0,0 1.0595286964483952,0.4322083584625244 l -17.537868097379736 41.95661410190806" fill="#37ff74" stroke="none" /><path d="M 108.09893153111575 80.62456947434976 l 15.65597091614957 -37.45446860885697 a61.59490909090909,61.59490909090909 0 0,0 0.974713748968479,0.41732155907350155 l -16.298368422908364 37.17942752182068" fill="#30ff39" stroke="none" /><path d="M 108.43124777332544 80.76684994638697 l 14.495614353557327 -33.06703034672088 a57.104727272727274,57.104727272727274 0 0,0 0.8968647702201519,0.40239707941722885 l -15.062661242244259 32.81261293678712" fill="#56ff2b" stroke="none" /><path d="M 108.76106565485865 80.91482961587045 l 1.8350450244358494 -3.9974756877304114 a25.398545454545456,25.398545454545456 0 0,0 0.39575987971546805,0.18581457008703647 l -1.9035831154509153 3.965296135003372" fill="#ff1602" stroke="none" /><path d="M 109.08828744355905 81.06846463323043 l 10.786970987555184 -22.47001143168577 a45.92509090909091,45.92509090909091 0 0,0 0.7097148364360957,0.34825398798149837 l -11.172157091001713 22.28100228356944" fill="#d4ff1c" stroke="none" /><path d="M 109.73455568895987 81.39251694778311 l 7.125694764318623 -13.62067759422277 a36.372,36.372 0 0,0 0.5522567794129651,0.2949964456989619 l -7.359096590259899 13.496002422022052" fill="#ffb110" stroke="none" /><path d="M 110.05341064243156 81.56283822128135 l 7.589411088613786 -13.918381037316335 a36.85309090909091,36.85309090909091 0 0,0 0.5543335076866759,0.3084859968634806 l -7.827868685372497 13.785679642892674" fill="#ffb811" stroke="none" /><line stroke="#e1ed5e" stroke-width="0.3" x1="143.23703022742887" x2="145.7803849466894" y1="26.81831364943548" y2="22.513508569990506" /><path d="M 143.74570117128098 25.957352633546492 a86.0,86.0 0 0,1 28.547481713284135,27.462654790039103" fill="none" id="id26" stroke="none" /><text fill="#e1ed5e" style="font-size:6.75px; font-family:Arial;" text-anchor="middle"><textPath startOffset="19.985693538727396" xlink:href="#id26">February</textPath></text><path d="M 110.68208982089419 81.91981866633111 l 8.215498171342263 -13.905303098439889 a37.150909090909096,37.150909090909096 0 0,0 0.5477776537640704,0.330029907266851 l -8.453637891323972 13.761826581714423" fill="#ffbc11" stroke="none" /><path d="M 111.2981086023043 82.29822771554956 l 12.818217759705234 -20.083465282721956 a44.82545454545455,44.82545454545455 0 0,0 0.6468376576895547,0.4207212055212984 l -13.162022443179069 19.859845153041128" fill="#e1ff1b" stroke="none" /><path d="M 111.60114157652 82.49532879139004 l 19.65444312909336 -29.65609569487776 a56.57781818181818,56.57781818181818 0 0,0 0.8071642251425205,0.545000887919692 l -20.16201204864242 29.313382894659398" fill="#5bff2a" stroke="none" /><path d="M 112.19680574252982 82.90503203632743 l 30.083975764210823 -42.165515526396746 a72.79745454545454,72.79745454545454 0 0,0 1.0138074542543025,0.7365742307245958 l -30.805328534818912 41.641422060855476" fill="#3fffbb" stroke="none" /><path d="M 112.48926042617603 83.11751280151076 l 8.747023847569107 -11.823880125196473 a35.70763636363637,35.70763636363637 0 0,0 0.49098654000938236,0.3698008827166029 l -8.949256541336872 11.671562652974023" fill="#ffa80f" stroke="none" /><path d="M 112.77801427241765 83.33499621200491 l 16.058479027445596 -20.943364760476747 a47.39127272727273,47.39127272727273 0 0,0 0.6430938046111183,0.5019449150838805 l -16.416605387216144 20.663841456169642" fill="#c2ff1e" stroke="none" /><path d="M 113.06298171725822 83.55741782278167 l 2.5935956427719953 -3.264599952276801 a25.169454545454546,25.169454545454546 0 0,0 0.3369070539387044,0.2724220739699741 l -2.6494060952751908 3.219471781042697" fill="#ff1302" stroke="none" /><path d="M 113.89432698308785 84.25364557470407 l 14.76335397984825 -16.731217320259905 a43.31345454545455,43.31345454545455 0 0,0 0.5548020648565617,0.4981067717311073 l -15.0491670323008 16.4746115397595" fill="#f3ff19" stroke="none" /><path d="M 114.16331599549186 84.49514656593476 l 42.48994798647556 -46.51456030219571 a84.0,84.0 0 0,0 1.0591684648206128,0.984381655701438 l -43.28432433509102 45.77627406041963" fill="#4dd2ff" stroke="none" /><path d="M 114.42810811169701 84.74124197986012 l 23.420754403860162 -24.76912574614706 a55.088727272727276,55.088727272727276 0 0,0 0.6834065020290964,0.6574365134897288 l -23.843644149501678 24.36230614589503" fill="#6bff28" stroke="none" /><path d="M 114.94478906791727 85.2469230424477 l 14.77088606785423 -14.581404789318961 a41.75563636363636,41.75563636363636 0 0,0 0.5005421840259635,0.5158527195389 l -15.019692515583301 14.324987874229947" fill="#fff717" stroke="none" /><path d="M 115.4437574822437 85.77008943001954 l 13.916229469454498 -12.822443051786033 a39.92290909090909,39.92290909090909 0 0,0 0.4613117988579511,0.5093920102381082 l -14.134884908928484 12.580998254278375" fill="#ffe015" stroke="none" /><path d="M 115.9244219780498 86.31012108654704 l 42.96119514732784 -36.932804239602746 a77.65418181818183,77.65418181818183 0 0,0 0.8626617350725474,1.0211193968078602 l -43.590567495887505 36.18782589316578" fill="#45ffee" stroke="none" /><path d="M 116.38621287248628 86.86637796730983 l 19.16293112651487 -15.359173984411488 a45.55854545454545,45.55854545454545 0 0,0 0.4851896564277856,0.6161415918822447 l -19.424474863536616 15.027039998576203" fill="#d8ff1c" stroke="none" /><path d="M 116.82858285166822 87.43820079747576 l 14.30123568158131 -10.675245358654239 a38.84618181818182,38.84618181818182 0 0,0 0.3953753055066118,0.5392914723793133 l -14.482873599601549 10.427491442603433" fill="#ffd213" stroke="none" /><line stroke="#e1ed5e" stroke-width="0.3" x1="172.23445277983987" x2="176.4835382374775" y1="55.19839476539836" y2="52.563006222186495" /><path d="M 173.08426987136738 54.67131705675599 a86.0,86.0 0 0,1 12.851231095245387,41.99856678651699" fill="none" id="id27" stroke="none" /><text fill="#e1ed5e" style="font-size:6.75px; font-family:Arial;" text-anchor="middle"><textPath startOffset="22.20632615414155" xlink:href="#id27">March</textPath></text><line stroke="#e1ed5e" stroke-width="0.3" x1="184.98032266829074" x2="189.97916517819016" y1="98.17113171792111" y2="98.06355123074" /><path d="M 185.9800911702706 98.14961562048488 a86.0,86.0 0 0,1 -9.607161424134198,41.387399972396054" fill="none" id="id28" stroke="none" /><text fill="#e1ed5e" style="font-size:6.75px; font-family:Arial;" text-anchor="middle"><textPath startOffset="21.466115282336823" xlink:href="#id28">April</textPath></text><line stroke="#e1ed5e" stroke-width="0.3" x1="174.80103733775053" x2="179.2010983576182" y1="140.37084112569926" y2="142.7455964860345" /><path d="M 175.68104954172406 140.8457921977663 a86.0,86.0 0 0,1 -30.038265399797805,32.042727171017184" fill="none" id="id29" stroke="none" /><text fill="#e1ed5e" style="font-size:6.75px; font-family:Arial;" text-anchor="middle"><textPath startOffset="22.206326154141568" xlink:href="#id29">May</textPath></text><line stroke="#e1ed5e" stroke-width="0.3" x1="143.8653032363475" x2="146.44561519142675" y1="172.8068346515853" y2="177.08958963109032" /><path d="M 144.38136562736335 173.6633856474863 a86.0,86.0 0 0,1 -40.68145358897372,12.25698825130547" fill="none" id="id30" stroke="none" /><text fill="#e1ed5e" style="font-size:6.75px; font-family:Arial;" text-anchor="middle"><textPath startOffset="21.466115282336833" xlink:href="#id30">June</textPath></text><line stroke="#e1ed5e" stroke-width="0.3" x1="102.19456741930631" x2="102.32365962044197" y1="184.97166512339345" y2="189.96999836594603" /><path d="M 102.22038585953345 185.97133177190398 a86.0,86.0 0 0,1 -42.740103519485714,-10.115201625700543" fill="none" id="id31" stroke="none" /><text fill="#e1ed5e" style="font-size:6.75px; font-family:Arial;" text-anchor="middle"><textPath startOffset="22.20632615414155" xlink:href="#id31">July</textPath></text><line stroke="#e1ed5e" stroke-width="0.3" x1="58.666819895761336" x2="56.23545636021788" y1="174.27360380694188" y2="178.64263932499728" /><path d="M 58.180547188652646 175.14741091055294 a86.0,86.0 0 0,1 -31.652253787137756,-30.449443065178592" fill="none" id="id32" stroke="none" /><text fill="#e1ed5e" style="font-size:6.75px; font-family:Arial;" text-anchor="middle"><textPath startOffset="22.20632615414155" xlink:href="#id32">August</textPath></text><line stroke="#e1ed5e" stroke-width="0.3" x1="26.63291911575756" x2="22.317208475507996" y1="142.92168965132927" y2="145.44649492493687" /><path d="M 25.769776987707644 143.4266507060508 a86.0,86.0 0 0,1 -11.730757126820373,-40.83630448921669" fill="none" id="id33" stroke="none" /><text fill="#e1ed5e" style="font-size:6.75px; font-family:Arial;" text-anchor="middle"><textPath startOffset="21.46611528233685" xlink:href="#id33">September</textPath></text><line stroke="#e1ed5e" stroke-width="0.3" x1="15.007084014347285" x2="10.007500721073583" y1="101.09737516637583" y2="101.16192664675087" /><path d="M 14.007167355692545 101.11028546245083 a86.0,86.0 0 0,1 10.666146001902534,-42.60595125391555" fill="none" id="id34" stroke="none" /><text fill="#e1ed5e" style="font-size:6.75px; font-family:Arial;" text-anchor="middle"><textPath startOffset="22.20632615414155" xlink:href="#id34">October</textPath></text><line stroke="#e1ed5e" stroke-width="0.3" x1="26.266209847984243" x2="21.928928074336255" y1="57.711370442889674" y2="55.22380399835377" /><path d="M 25.398753493254645 57.213857153982495 a86.0,86.0 0 0,1 29.58750427330803,-30.492523968695096" fill="none" id="id35" stroke="none" /><text fill="#e1ed5e" style="font-size:6.75px; font-family:Arial;" text-anchor="middle"><textPath startOffset="21.46611528233685" xlink:href="#id35">November</textPath></text><line stroke="#e1ed5e" stroke-width="0.3" x1="56.762969772571076" x2="54.21961505331055" y1="26.818313649435495" y2="22.513508569990535" /><path d="M 56.25429882871897 25.957352633546506 a86.0,86.0 0 0,1 42.265352541879196,-11.944610805530505" fill="none" id="id36" stroke="none" /><text fill="#e1ed5e" style="font-size:6.75px; font-family:Arial;" text-anchor="middle"><textPath startOffset="22.20632615414155" xlink:href="#id36">December</textPath></text></svg>