<?xml version="1.0" encoding="utf-8" ?>
<svg baseProfile="full" height="200mm" version="1.1" viewBox="0,0,200,200" width="200mm" xmlns="http://www.w3.org/2000/svg" xmlns:ev="http://www.w3.org/2001/xml-events" xmlns:xlink="http://www.w3.org/1999/xlink"><defs /><rect fill="#1a1a1a" height="200" width="200" x="0" y="0" /><text alignment-baseline="middle" fill="#e1ed5e" style="dominant-baseline: central; font-size:9.0px; font-family:Arial;" text-anchor="middle" x="100.0" y="100.0">2023</text><line stroke="#e1ed5e" stroke-width="0.3" x1="100.0" x2="100.0" y1="15.0" y2="10.0" /><path d="M 100.0 14.0 a86.0,86.0 0 0,1 42.46469731375804,11.215312516191453" fill="none" id="id1" stroke="none" /><text fill="#e1ed5e" style="font-size:6.75px; font-family:Arial;" text-anchor="middle"><textPath startOffset="22.20632615414155" xlink:href="#id1">January</textPath></text><line stroke="#e1ed5e" stroke-width="0.3" x1="143.23703022742887" x2="145.7803849466894" y1="26.81831364943548" y2="22.513508569990506" /><path d="M 143.74570117128098 25.957352633546492 a86.0,86.0 0 0,1 28.547481713284135,27.462654790039103" fill="none" id="id2" stroke="none" /><text fill="#e1ed5e" style="font-size:6.75px; font-family:Arial;" text-anchor="middle"><textPath startOffset="19.985693538727396" xlink:href="#id2">February</textPath></text><line stroke="#e1ed5e" stroke-width="0.3" x1="172.23445277983987" x2="176.4835382374775" y1="55.19839476539836" y2="52.563006222186495" /><path d="M 173.08426987136738 54.67131705675599 a86.0,86.0 0 0,1 12.851231095245387,41.99856678651699" fill="none" id="id3" stroke="none" /><text fill="#e1ed5e" style="font-size:6.75px; font-family:Arial;" text-anchor="middle"><textPath startOffset="22.20632615414155" xlink:href="#id3">March</textPath></text><line stroke="#e1ed5e" stroke-width="0.3" x1="184.98032266829074" x2="189.97916517819016" y1="98.17113171792111" y2="98.06355123074" /><path d="M 185.9800911702706 98.14961562048488 a86.0,86.0 0 0,1 -9.607161424134198,41.387399972396054" fill="none" id="id4" stroke="none" /><text fill="#e1ed5e" style="font-size:6.75px; font-family:Arial;" text-anchor="middle"><textPath startOffset="21.466115282336823" xlink:href="#id4">April</textPath></text><line stroke="#e1ed5e" stroke-width="0.3" x1="174.80103733775053" x2="179.2010983576182" y1="140.37084112569926" y2="142.7455964860345" /><path d="M 175.68104954172406 140.8457921977663 a86.0,86.0 0 0,1 -30.038265399797805,32.042727171017184" fill="none" id="id5" stroke="none" /><text fill="#e1ed5e" style="font-size:6.75px; font-family:Arial;" text-anchor="middle"><textPath startOffset="22.206326154141568" xlink:href="#id5">May</textPath></text><path d="M 116.71984013943494 112.70617746262583 l 11.9406677624809 9.07426400893 a35.99739357080799,35.99739357080799 0 0,0 -0.3791608597990886,0.4901165226885773 l -11.782700085463741 -9.278458525731828" fill="#ff8e0d" stroke="none" /><path d="M 114.55890576462653 115.13401014063108 l 10.814825741751246 11.242031859460967 a36.5994787141616,36.5994787141616 0 0,0 -0.4577795970565073,0.4328591821786981 l -10.619710310303931 -11.426525678385586" fill="#ff970d" stroke="none" /><path d="M 112.04921762599082 117.19931262002967 l 3.297570418928852 4.707023002006383 a26.747176368375325,26.747176368375325 0 0,0 -0.3793553493856239,0.26092406845418936 l -3.2160581849203447 -4.763087859825666" fill="#ff0300" stroke="none" /><path d="M 111.7513745106137 117.40417183066458 l 3.889898947475085 5.761068173312951 a27.95134665508254,27.95134665508254 0 0,0 -0.40106895006983057,0.2658066304848829 l -3.7901552986652907 -5.827172824889153" fill="#ff1502" stroke="none" /><line stroke="#e1ed5e" stroke-width="0.3" x1="143.8653032363475" x2="146.44561519142675" y1="172.8068346515853" y2="177.08958963109032" /><path d="M 144.38136562736335 173.6633856474863 a86.0,86.0 0 0,1 -40.68145358897372,12.25698825130547" fill="none" id="id6" stroke="none" /><text fill="#e1ed5e" style="font-size:6.75px; font-family:Arial;" text-anchor="middle"><textPath startOffset="21.466115282336833" xlink:href="#id6">June</textPath></text><path d="M 110.8373102113329 117.98757091392108 l 10.81847909020114 17.95631536063885 a41.9635099913119,41.9635099913119 0 0,0 -0.6219234549389411,0.36744333946513996 l -10.507787764233818 -18.139877272397737" fill="#ffe115" stroke="none" /><path d="M 109.89434966115114 118.52300852407294 l 15.21546385772156 28.484556983152977 a53.293657688966114,53.293657688966114 0 0,0 -0.8128782569245059,0.42525948502387684 l -14.722894698270558 -28.742245887121573" fill="#8fff24" stroke="none" /><path d="M 109.2508944713604 118.85261126421891 l 6.196732960398667 12.628465060567143 a35.066898349261514,35.066898349261514 0 0,0 -0.544183711645137,0.26124125157936195 l -5.978436580753297 -12.733260588646065" fill="#ff800b" stroke="none" /><path d="M 108.59647513512805 119.15986991738527 l 10.463650446841351 23.32144027302934 a46.56125108601216,46.56125108601216 0 0,0 -0.7340698855546588,0.3217946655017828 l -10.060659886628939 -23.498099491825574" fill="#e1ff1b" stroke="none" /><path d="M 107.93186726928326 119.44442032107085 l 3.473206866827771 8.514324797410692 a30.195482189400522,30.195482189400522 0 0,0 -0.48295362219870663,0.1921772132997011 l -3.3261321685871983 -8.572848855116463" fill="#ff3805" stroke="none" /><path d="M 105.88484417918355 120.15858648285463 l 1.5645198252216912 5.35927668440792 a26.582971329278887,26.582971329278887 0 0,0 -0.44035177069642867,0.12444780895376001 l -1.4720368864206568 -5.385413286700199" fill="#ff0000" stroke="none" /><path d="M 105.18746579009965 120.34920634021253 l 5.340701095801991 20.95031234852463 a42.62033014769766,42.62033014769766 0 0,0 -0.7124631857861502,0.1751061169230461 l -4.97928462527263 -21.039139723761707" fill="#ffea16" stroke="none" /><path d="M 104.13013068566511 120.58985236759428 l 6.835707173059971 34.07790509145707 a55.756733275412685,55.756733275412685 0 0,0 -0.9426402865932854,0.18065925442839392 l -6.248099271894982 -34.19052154423393" fill="#72ff27" stroke="none" /><path d="M 103.41894727170886 120.7198165907248 l 5.373480116873439 32.56485509350231 a54.00521285838401,54.00521285838401 0 0,0 -0.9185107243429967,0.1434524850152623 l -4.812133528921925 -32.65252588586468" fill="#86ff25" stroke="none" /><path d="M 102.70371172650421 120.8252237178851 l 2.797672168780635 21.54894999826337 a42.729800173761944,42.729800173761944 0 0,0 -0.730216833374168,0.08841908924867778 l -2.426327912355087 -21.5939146162374" fill="#ffeb16" stroke="none" /><path d="M 102.34483914955558 120.86867818915974 l 3.569207810618063 31.765355506001615 a52.96524761077324,52.96524761077324 0 0,0 -0.9068845977879544,0.09400229658812628 l -3.0218906162245056 -31.822087171045503" fill="#92ff23" stroke="none" /><line stroke="#e1ed5e" stroke-width="0.3" x1="102.19456741930631" x2="102.32365962044197" y1="184.97166512339345" y2="189.96999836594603" /><path d="M 102.22038585953345 185.97133177190398 a86.0,86.0 0 0,1 -42.740103519485714,-10.115201625700543" fill="none" id="id7" stroke="none" /><text fill="#e1ed5e" style="font-size:6.75px; font-family:Arial;" text-anchor="middle"><textPath startOffset="22.20632615414155" xlink:href="#id7">July</textPath></text><path d="M 100.54218724476979 120.99299961872073 l 1.626561734309384 62.97899885616221 a84.0,84.0 0 0,0 -1.4457612404293283,0.02489009088336136 l -0.5422408039873879 -62.99766642432473" fill="#4dd2ff" stroke="none" /><path d="M 99.81925306533755 120.99922214144158 l -0.15169551597213285 17.62402136284323 a38.624674196350995,38.624674196350995 0 0,0 -0.66478639139637,-0.011444900608183317 l 0.45504159726117077 -17.618798984955887" fill="#ffb310" stroke="none" /><path d="M 99.09653310690486 120.98055641714683 l -0.583995976075397 13.56171500812966 a34.574283231972196,34.574283231972196 0 0,0 -0.5943680367996859,-0.03072203838890305 l 0.8173520812885717 -13.549653162978554" fill="#ff790b" stroke="none" /><path d="M 98.73552117531835 120.96189622390904 l -3.5264787378176288 58.46019711446394 a79.56646394439618,79.56646394439618 0 0,0 -1.366410947213802,-0.09423569901344953 l 4.532252445810361 -58.3908330709342" fill="#47ffff" stroke="none" /><path d="M 98.01472825383883 120.90594882070398 l -0.6778556005572043 7.1381736633680815 a28.17028670721112,28.17028670721112 0 0,0 -0.48233889734227964,-0.04999639887428794 l 0.8006270945050773 -7.125447896038033" fill="#ff1902" stroke="none" /><path d="M 97.2962882734958 120.8252237178851 l -3.2557293248782035 25.0771156151075 a46.28757602085143,46.28757602085143 0 0,0 -0.7892503598253776,-0.10938290820613497 l 3.686908275890412 -25.01735814140876" fill="#e4ff1a" stroke="none" /><path d="M 96.93821686468263 120.77559828337769 l -7.110465960645795 48.24776212985975 a69.76889661164205,69.76889661164205 0 0,0 -1.186616557394466,-0.1853251022629605 l 7.939918381648779 -48.118218720249686" fill="#3aff92" stroke="none" /><path d="M 96.58105272829116 120.7198165907248 l -6.995326520307846 42.39371682984961 a63.96698523023458,63.96698523023458 0 0,0 -1.0848527419800111,-0.18861555491342513 l 7.724028233759908 -42.26702269641518" fill="#32ff4a" stroke="none" /><path d="M 96.22490169976321 120.6578951692458 l -3.7586990895494066 20.568156267554897 a41.90877497827975,41.90877497827975 0 0,0 -0.7085224929007962,-0.13579002206217958 l 4.112189197021897 -20.500409047144252" fill="#ffe015" stroke="none" /><path d="M 95.51606077576429 120.51570834832081 l -3.5061210267698883 16.04182234012922 a37.420503909643784,37.420503909643784 0 0,0 -0.6280939822721447,-0.14295214546669371 l 3.7817351584348957 -15.979093461084837" fill="#ffa20f" stroke="none" /><path d="M 95.16358092515715 120.4354850818985 l -5.307035005670305 22.42399449038906 a44.04344048653345,44.04344048653345 0 0,0 -0.7362526243526409,-0.1809529821285245 l 5.692240914766156 -22.329320249946505" fill="#fffc17" stroke="none" /><line stroke="#e1ed5e" stroke-width="0.3" x1="58.666819895761336" x2="56.23545636021788" y1="174.27360380694188" y2="178.64263932499728" /><path d="M 58.180547188652646 175.14741091055294 a86.0,86.0 0 0,1 -31.652253787137756,-30.449443065178592" fill="none" id="id8" stroke="none" /><text fill="#e1ed5e" style="font-size:6.75px; font-family:Arial;" text-anchor="middle"><textPath startOffset="22.20632615414155" xlink:href="#id8">August</textPath></text><line stroke="#e1ed5e" stroke-width="0.3" x1="26.63291911575756" x2="22.317208475507996" y1="142.92168965132927" y2="145.44649492493687" /><path d="M 25.769776987707644 143.4266507060508 a86.0,86.0 0 0,1 -11.730757126820373,-40.83630448921669" fill="none" id="id9" stroke="none" /><text fill="#e1ed5e" style="font-size:6.75px; font-family:Arial;" text-anchor="middle"><textPath startOffset="21.46611528233685" xlink:href="#id9">September</textPath></text><line stroke="#e1ed5e" stroke-width="0.3" x1="15.007084014347285" x2="10.007500721073583" y1="101.09737516637583" y2="101.16192664675087" /><path d="M 14.007167355692545 101.11028546245083 a86.0,86.0 0 0,1 10.666146001902534,-42.60595125391555" fill="none" id="id10" stroke="none" /><text fill="#e1ed5e" style="font-size:6.75px; font-family:Arial;" text-anchor="middle"><textPath startOffset="22.20632615414155" xlink:href="#id10">October</textPath></text><line stroke="#e1ed5e" stroke-width="0.3" x1="26.266209847984243" x2="21.928928074336255" y1="57.711370442889674" y2="55.22380399835377" /><path d="M 25.398753493254645 57.213857153982495 a86.0,86.0 0 0,1 29.58750427330803,-30.492523968695096" fill="none" id="id11" stroke="none" /><text fill="#e1ed5e" style="font-size:6.75px; font-family:Arial;" text-anchor="middle"><textPath startOffset="21.46611528233685" xlink:href="#id11">November</textPath></text><line stroke="#e1ed5e" stroke-width="0.3" x1="56.762969772571076" x2="54.21961505331055" y1="26.818313649435495" y2="22.513508569990535" /><path d="M 56.25429882871897 25.957352633546506 a86.0,86.0 0 0,1 42.265352541879196,-11.944610805530505" fill="none" id="id12" stroke="none" /><text fill="#e1ed5e" style="font-size:6.75px; font-family:Arial;" text-anchor="middle"><textPath startOffset="22.20632615414155" xlink:href="#id12">December</textPath></text></svg>