<?xml version="1.0" encoding="utf-8" ?>
<svg baseProfile="full" height="200mm" version="1.1" viewBox="0,0,200,200" width="200mm" xmlns="http://www.w3.org/2000/svg" xmlns:ev="http://www.w3.org/2001/xml-events" xmlns:xlink="http://www.w3.org/1999/xlink"><defs /><rect fill="#1a1a1a" height="200" width="200" x="0" y="0" /><text alignment-baseline="middle" fill="#e1ed5e" style="dominant-baseline: central; font-size:9.0px; font-family:Arial;" text-anchor="middle" x="100.0" y="100.0">2023</text><line stroke="#e1ed5e" stroke-width="0.3" x1="100.0" x2="100.0" y1="15.0" y2="10.0" /><path d="M 100.0 14.0 a86.0,86.0 0 0,1 42.46469731375804,11.215312516191453" fill="none" id="id1" stroke="none" /><text fill="#e1ed5e" style="font-size:6.75px; font-family:Arial;" text-anchor="middle"><textPath startOffset="22.20632615414155" xlink:href="#id1">January</textPath></text><line stroke="#e1ed5e" stroke-width="0.3" x1="143.23703022742887" x2="145.7803849466894" y1="26.81831364943548" y2="22.513508569990506" /><path d="M 143.74570117128098 25.957352633546492 a86.0,86.0 0 0,1 28.547481713284135,27.462654790039103" fill="none" id="id2" stroke="none" /><text fill="#e1ed5e" style="font-size:6.75px; font-family:Arial;" text-anchor="middle"><textPath startOffset="19.985693538727396" xlink:href="#id2">February</textPath></text><line stroke="#e1ed5e" stroke-width="0.3" x1="172.23445277983987" x2="176.4835382374775" y1="55.19839476539836" y2="52.563006222186495" /><path d="M 173.08426987136738 54.67131705675599 a86.0,86.0 0 0,1 12.851231095245387,41.99856678651699" fill="none" id="id3" stroke="none" /><text fill="#e1ed5e" style="font-size:6.75px; font-family:Arial;" text-anchor="middle"><textPath startOffset="22.20632615414155" xlink:href="#id3">March</textPath></text><path d="M 120.78858239683441 97.02765380044208 l 7.0499732266008515 -1.0080033706513338 a28.121670681169782,28.121670681169782 0 0,0 0.0643905923585042,0.4797847045505252 l -7.0662798180171915 0.8865003240361443" fill="#ff2904" stroke="none" /><path d="M 120.83666639777658 97.38593545837742 l 12.166064079678602 -1.5262938953224081 a33.26143092162348,33.26143092162348 0 0,0 0.06637975373908345,0.5687011926040131 l -12.190534186421274 1.3166489643935422" fill="#ff750a" stroke="none" /><path d="M 120.87857604477298 97.74499172005257 l 9.930515757823738 -1.0725537608512914 a30.988268858330848,30.988268858330848 0 0,0 0.0527138111310219,0.5308208842595881 l -9.947506694636989 0.9014573458872684" fill="#ff5407" stroke="none" /><line stroke="#e1ed5e" stroke-width="0.3" x1="184.98032266829074" x2="189.97916517819016" y1="98.17113171792111" y2="98.06355123074" /><path d="M 185.9800911702706 98.14961562048488 a86.0,86.0 0 0,1 -9.607161424134198,41.387399972396054" fill="none" id="id4" stroke="none" /><text fill="#e1ed5e" style="font-size:6.75px; font-family:Arial;" text-anchor="middle"><textPath startOffset="21.466115282336823" xlink:href="#id4">April</textPath></text><path d="M 120.13307415673323 105.97154293290107 l 17.61107683454049 5.223509365404442 a39.36940601550732,39.36940601550732 0 0,0 -0.19829662565603257,0.6480448460098891 l -17.518553436378326 -5.525881183966388" fill="#ffc912" stroke="none" /><line stroke="#e1ed5e" stroke-width="0.3" x1="174.80103733775053" x2="179.2010983576182" y1="140.37084112569926" y2="142.7455964860345" /><path d="M 175.68104954172406 140.8457921977663 a86.0,86.0 0 0,1 -30.038265399797805,32.042727171017184" fill="none" id="id5" stroke="none" /><text fill="#e1ed5e" style="font-size:6.75px; font-family:Arial;" text-anchor="middle"><textPath startOffset="22.206326154141568" xlink:href="#id5">May</textPath></text><path d="M 116.71984013943494 112.70617746262583 l 9.52174707158343 7.236014641098457 a32.95924643033159,32.95924643033159 0 0,0 -0.3471600295247172,0.4487511358036202 l -9.395780224840644 -7.39884377101533" fill="#ff700a" stroke="none" /><path d="M 114.55890576462653 115.13401014063108 l 8.626137264391211 8.966886038301181 a33.44247922754944,33.44247922754944 0 0,0 -0.4182924239146201,0.3955215953079663 l -8.470509006085782 -9.11404227035507" fill="#ff770b" stroke="none" /><path d="M 114.29624159901734 115.38237550388516 l 21.406404086341418 23.0327211220772 a52.44424236955179,52.44424236955179 0 0,0 -0.6665424722048741,0.6088707447896727 l -21.006762064669683 -23.397784633453455" fill="#91ff24" stroke="none" /><path d="M 112.63410532772338 116.77436683061366 l 8.034519581941325 10.667473103892378 a34.354717793157064,34.354717793157064 0 0,0 -0.47542844417715313,0.3517105971134098 l -7.849706167345607 -10.804193649745558" fill="#ff840c" stroke="none" /><path d="M 112.04921762599082 117.19931262002967 l 2.6409232654268693 3.7697107196079225 a25.6027377291564,25.6027377291564 0 0,0 -0.3631237698778661,0.24975984006130963 l -2.5756426109261197 -3.8146113490343265" fill="#ff0200" stroke="none" /><path d="M 111.7513745106137 117.40417183066458 l 3.1118167639464636 4.608702889721661 a26.56089434336843,26.56089434336843 0 0,0 -0.38111759475007023,0.25258396009309914 l -3.0320244704564288 -4.661584870906078" fill="#ff1101" stroke="none" /><path d="M 111.45004920935366 117.60387380957326 l 3.01032627709283 4.62822499175757 a26.52109870124461,26.52109870124461 0 0,0 -0.38483149542755957,0.24561766805389043 l -2.9302129796183403 -4.679357088635269" fill="#ff1101" stroke="none" /><line stroke="#e1ed5e" stroke-width="0.3" x1="143.8653032363475" x2="146.44561519142675" y1="172.8068346515853" y2="177.08958963109032" /><path d="M 144.38136562736335 173.6633856474863 a86.0,86.0 0 0,1 -40.68145358897372,12.25698825130547" fill="none" id="id6" stroke="none" /><text fill="#e1ed5e" style="font-size:6.75px; font-family:Arial;" text-anchor="middle"><textPath startOffset="21.466115282336833" xlink:href="#id6">June</textPath></text><path d="M 110.8373102113329 117.98757091392108 l 8.647219817801457 14.352498604156576 a37.756151907872365,37.756151907872365 0 0,0 -0.5595679780982347,0.33060262464350687 l -8.39888396867484 -14.499219801093831" fill="#ffb410" stroke="none" /><path d="M 109.89434966115114 118.52300852407294 l 16.59733697333171 31.071533224768444 a56.22657763030938,56.22657763030938 0 0,0 -0.8576135397518252,0.448662870679092 l -16.060032531053388 -31.35262551439225" fill="#67ff28" stroke="none" /><path d="M 109.2508944713604 118.85261126421891 l 4.9322991888902665 10.051646306726944 a32.19656950874977,32.19656950874977 0 0,0 -0.4996406731786438,0.23985788623945534 l -4.758545847711391 -10.13505846946596" fill="#ff6509" stroke="none" /><path d="M 108.59647513512805 119.15986991738527 l 8.352235731485987 18.615507823745375 a41.40335691130841,41.40335691130841 0 0,0 -0.6527521653857244,0.2861473666872323 l -8.030562891442509 -18.75651974372706" fill="#ffe415" stroke="none" /><path d="M 107.93186726928326 119.44442032107085 l 2.7758039190406536 6.804690030520311 a28.349074350448767,28.349074350448767 0 0,0 -0.4534217422875172,0.18042586881449763 l -2.65826110071127 -6.8514627437408775" fill="#ff2c04" stroke="none" /><path d="M 107.59598834532513 119.57807347666477 l 2.498180158496465 6.438866474971716 a27.90651182485197,27.90651182485197 0 0,0 -0.4493344134613323,0.16989982715368201 l -2.386975524274858 -6.480914552232028" fill="#ff2603" stroke="none" /><path d="M 105.88484417918355 120.15858648285463 l 1.2454655609715832 4.266353442470583 a25.444429790158335,25.444429790158335 0 0,0 -0.4214916223498453,0.11911774264208566 l -1.1718427705171321 -4.287159978451188" fill="#ff0000" stroke="none" /><path d="M 105.18746579009965 120.34920634021253 l 4.254837500947274 16.69072525087187 a38.22451600363735,38.22451600363735 0 0,0 -0.63898051358845,0.15704586392138356 l -3.966903702615613 -16.761492373107284" fill="#ffba11" stroke="none" /><path d="M 104.48393922423573 120.51570834832081 l 1.2210759310708097 5.586881628011565 a26.718764967617886,26.718764967617886 0 0,0 -0.45015843740975314,0.09433507736771794 l -1.1247260322316786 -5.607072686105825" fill="#ff1402" stroke="none" /><path d="M 104.13013068566511 120.58985236759428 l 5.450152115198974 27.170527030141 a48.71176099013613,48.71176099013613 0 0,0 -0.8235358429876679,0.15783260434041238 l -4.981648657639602 -27.26031683282988" fill="#bdff1f" stroke="none" /><path d="M 103.7750983002368 120.6578951692458 l 3.3544840964127283 18.35623215592808 a39.66022032333525,39.66022032333525 0 0,0 -0.6726203933238551,0.11694367707576185 l -3.038014731616823 -18.411254411524848" fill="#ffcd13" stroke="none" /><path d="M 103.41894727170886 120.7198165907248 l 4.29593936902498 26.03464421566877 a47.386697301837415,47.386697301837415 0 0,0 -0.805944229440732,0.12587191355842034 l -3.8471592759757307 -26.104734436574294" fill="#cdff1d" stroke="none" /><path d="M 102.70371172650421 120.8252237178851 l 2.2340656582134053 17.207795001463875 a38.35221191023247,38.35221191023247 0 0,0 -0.6554074819002225,0.07936071860821195 l -1.9375307532618025 -17.243701248797436" fill="#ffbc11" stroke="none" /><path d="M 102.34483914955558 120.86867818915974 l 2.8437203174905514 25.308637557050744 a46.46789901500059,46.46789901500059 0 0,0 -0.795635323334135,0.08247085442014829 l -2.4076523975508137 -25.35383777992665" fill="#d9ff1c" stroke="none" /><path d="M 101.26447882468166 120.96189622390904 l 0.4769016457016734 7.905836468812859 a28.920207412137913,28.920207412137913 0 0,0 -0.4971685685589863,0.02569793613274736 l -0.34074500872920754 -7.912874211707808" fill="#ff3505" stroke="none" /><line stroke="#e1ed5e" stroke-width="0.3" x1="102.19456741930631" x2="102.32365962044197" y1="184.97166512339345" y2="189.96999836594603" /><path d="M 102.22038585953345 185.97133177190398 a86.0,86.0 0 0,1 -42.740103519485714,-10.115201625700543" fill="none" id="id7" stroke="none" /><text fill="#e1ed5e" style="font-size:6.75px; font-family:Arial;" text-anchor="middle"><textPath startOffset="22.20632615414155" xlink:href="#id7">July</textPath></text><path d="M 100.54218724476979 120.99299961872073 l 1.2978757009798882 50.25257299696548 a71.2693303531143,71.2693303531143 0 0,0 -1.2266480411415013,0.021117858448634754 l -0.4326679699457191 -50.26746833269328" fill="#3cffa7" stroke="none" /><path d="M 99.81925306533755 120.99922214144158 l -0.1209174296172694 14.048215921598713 a35.04873629920659,35.04873629920659 0 0,0 -0.6032393388978731,-0.010385312283740693 l 0.3627164584078104 -14.044053132035813" fill="#ff8e0d" stroke="none" /><path d="M 99.09653310690486 120.98055641714683 l -0.4669886732741213 10.844539274959942 a31.854589375334058,31.854589375334058 0 0,0 -0.5476136590611668,-0.028305371107354475 l 0.653590400748777 -10.834894097090384" fill="#ff6008" stroke="none" /><path d="M 98.73552117531835 120.96189622390904 l -3.5931804409401362 59.56594451926054 a80.67422133679483,80.67422133679483 0 0,0 -1.3854346885338678,-0.09554768759551037 l 4.617977890252934 -59.49526848714874" fill="#49f3ff" stroke="none" /><path d="M 98.01472825383883 120.90594882070398 l -0.5423698302362572 5.711437708584883 a26.73713218705965,26.73713218705965 0 0,0 -0.45780005689114533,-0.04745284772826287 l 0.6406024837329959 -5.701255492400859" fill="#ff1402" stroke="none" /><path d="M 97.2962882734958 120.8252237178851 l -4.853810132898012 37.38626456025095 a58.70002984846696,58.70002984846696 0 0,0 -1.000895351676935,-0.13871497556320164 l 5.4966340757617775 -37.297175019195144" fill="#4cff2c" stroke="none" /><path d="M 96.93821686468263 120.77559828337769 l -6.8468187823821784 46.458795497648154 a67.96060696510506,67.96060696510506 0 0,0 -1.1558614997777497,-0.18052179477293492 l 7.645516145768445 -46.33405539552811" fill="#38ff80" stroke="none" /><path d="M 96.58105272829116 120.7198165907248 l -5.589035772953355 33.87118517236234 a55.32920776615462,55.32920776615462 0 0,0 -0.938359726359648,-0.16314586638985135 l 6.1712444707850524 -33.76996072745148" fill="#71ff27" stroke="none" /><path d="M 96.22490169976321 120.6578951692458 l -3.004334760452504 16.440163301404915 a37.71242043301102,37.71242043301102 0 0,0 -0.6375776469812882,-0.12219327349154983 l 3.2868800220054877 -16.386012829564898" fill="#ffb310" stroke="none" /><path d="M 95.51606077576429 120.51570834832081 l -2.7965131956595206 12.795099631208867 a34.097139406223754,34.097139406223754 0 0,0 -0.5723121240017374,-0.13025637613448782 l 3.0163454690541207 -12.745066521496693" fill="#ff800b" stroke="none" /><path d="M 95.16358092515715 120.4354850818985 l -4.235614167453707 17.896883787824084 a39.391271752937996,39.391271752937996 0 0,0 -0.658484598031259,-0.16183949334540887 l 4.543052050228177 -17.821323036164642" fill="#ffca12" stroke="none" /><path d="M 94.81253420990036 120.34920634021253 l -9.443455573102998 37.044451722160034 a59.22918069428922,59.22918069428922 0 0,0 -0.9857697484333007,-0.26035075008305664 l 10.079715764347787 -36.876409622773394" fill="#46ff2c" stroke="none" /><path d="M 94.46302465271185 120.25689768951611 l -11.300447773741164 41.34242976366317 a63.859031937859655,63.859031937859655 0 0,0 -1.0578365164853996,-0.2989551660021374 l 12.010415458331178 -41.14178580432251" fill="#33ff4e" stroke="none" /><path d="M 93.42475214034765 119.94407469862007 l -19.725743578957054 59.832224095860205 a84.0,84.0 0 0,0 -1.3693210682510968,-0.46454805240750785 l 20.752734380145377 -59.483813056554574" fill="#4dd2ff" stroke="none" /><path d="M 92.7421414339146 119.70592522655815 l -7.446583746311524 20.21833591299436 a42.54606034943531,42.54606034943531 0 0,0 -0.6850519044511543,-0.25902801270209963 l 7.793505871522962 -20.087159650185626" fill="#fff316" stroke="none" /><line stroke="#e1ed5e" stroke-width="0.3" x1="58.666819895761336" x2="56.23545636021788" y1="174.27360380694188" y2="178.64263932499728" /><path d="M 58.180547188652646 175.14741091055294 a86.0,86.0 0 0,1 -31.652253787137756,-30.449443065178592" fill="none" id="id8" stroke="none" /><text fill="#e1ed5e" style="font-size:6.75px; font-family:Arial;" text-anchor="middle"><textPath startOffset="22.20632615414155" xlink:href="#id8">August</textPath></text><line stroke="#e1ed5e" stroke-width="0.3" x1="26.63291911575756" x2="22.317208475507996" y1="142.92168965132927" y2="145.44649492493687" /><path d="M 25.769776987707644 143.4266507060508 a86.0,86.0 0 0,1 -11.730757126820373,-40.83630448921669" fill="none" id="id9" stroke="none" /><text fill="#e1ed5e" style="font-size:6.75px; font-family:Arial;" text-anchor="middle"><textPath startOffset="21.46611528233685" xlink:href="#id9">September</textPath></text><line stroke="#e1ed5e" stroke-width="0.3" x1="15.007084014347285" x2="10.007500721073583" y1="101.09737516637583" y2="101.16192664675087" /><path d="M 14.007167355692545 101.11028546245083 a86.0,86.0 0 0,1 10.666146001902534,-42.60595125391555" fill="none" id="id10" stroke="none" /><text fill="#e1ed5e" style="font-size:6.75px; font-family:Arial;" text-anchor="middle"><textPath startOffset="22.20632615414155" xlink:href="#id10">October</textPath></text><line stroke="#e1ed5e" stroke-width="0.3" x1="26.266209847984243" x2="21.928928074336255" y1="57.711370442889674" y2="55.22380399835377" /><path d="M 25.398753493254645 57.213857153982495 a86.0,86.0 0 0,1 29.58750427330803,-30.492523968695096" fill="none" id="id11" stroke="none" /><text fill="#e1ed5e" style="font-size:6.75px; font-family:Arial;" text-anchor="middle"><textPath startOffset="21.46611528233685" xlink:href="#id11">November</textPath></text><line stroke="#e1ed5e" stroke-width="0.3" x1="56.762969772571076" x2="54.21961505331055" y1="26.818313649435495" y2="22.513508569990535" /><path d="M 56.25429882871897 25.957352633546506 a86.0,86.0 0 0,1 42.265352541879196,-11.944610805530505" fill="none" id="id12" stroke="none" /><text fill="#e1ed5e" style="font-size:6.75px; font-family:Arial;" text-anchor="middle"><textPath startOffset="22.20632615414155" xlink:href="#id12">December</textPath></text></svg>