<?xml version="1.0" encoding="utf-8" ?>
<svg baseProfile="full" height="200mm" version="1.1" viewBox="0,0,200,200" width="200mm" xmlns="http://www.w3.org/2000/svg" xmlns:ev="http://www.w3.org/2001/xml-events" xmlns:xlink="http://www.w3.org/1999/xlink"><defs /><rect fill="#1a1a1a" height="200" width="200" x="0" y="0" /><text alignment-baseline="middle" fill="#e1ed5e" style="dominant-baseline: central; font-size:9.0px; font-family:Arial;" text-anchor="middle" x="100.0" y="100.0">2024</text><line stroke="#e1ed5e" stroke-width="0.3" x1="100.0" x2="100.0" y1="15.0" y2="10.0" /><path d="M 100.0 14.0 a86.0,86.0 0 0,1 42.35913384403234,11.155469271406648" fill="none" id="id13" stroke="none" /><text fill="#e1ed5e" style="font-size:6.75px; font-family:Arial;" text-anchor="middle"><textPath startOffset="22.145653131862478" xlink:href="#id13">January</textPath></text><path d="M 100.72087961077811 79.0123766808444 l 1.1033453445874393 -32.12269585229359 a53.141639033633346,53.141639033633346 0 0,0 0.9114404485411334,0.03914117454723411 l -1.6546115537294088 32.09902210932053" fill="#7eff26" stroke="none" /><path d="M 102.15924093988457 79.11130261209362 l 5.411399427976934 -52.35038063984777 a73.6293225959261,73.6293225959261 0 0,0 1.2561306131225503,0.14075205523811235 l -6.309265942700281 52.249772824102685" fill="#40ffc5" stroke="none" /><path d="M 102.87502721639298 79.19773525538626 l 2.4861971499409683 -17.988884079247928 a39.159876835622924,39.159876835622924 0 0,0 0.6651116635600947,0.0977485101653005 l -2.794633919108745 17.943554495783744" fill="#ffdb14" stroke="none" /><path d="M 103.23170211078529 79.25015418208739 l 2.140179796720913 -13.741489556343842 a34.90715300805306,34.90715300805306 0 0,0 0.591298077587293,0.09729787365168154 l -2.3757553773612767 13.70272568419649" fill="#ffa30f" stroke="none" /><path d="M 103.94208987418118 79.37332000966035 l 2.0055919113550837 -10.494104362683464 a31.68403600189484,31.68403600189484 0 0,0 0.5333532418682626,0.10668558580236553 l -2.185441638754303 10.45812938021824" fill="#ff770b" stroke="none" /><path d="M 104.29559338865022 79.4440306129975 l 2.646337850279302 -12.663684598672084 a33.937233538607295,33.937233538607295 0 0,0 0.5692366251557669,0.12406247303496847 l -2.8633368920542033 12.616390667503396" fill="#ff960d" stroke="none" /><path d="M 104.64783097203109 79.52079915486377 l 4.574073351205389 -20.15421115858386 a41.66674561819043,41.66674561819043 0 0,0 0.6961676807486934,0.16429367709037243 l -4.919373185693967 20.07272133784726" fill="#fffa17" stroke="none" /><path d="M 105.3480935250658 79.69241777938227 l 2.9337244443515873 -11.139829564886467 a32.51965892941734,32.51965892941734 0 0,0 0.5386162957576928,0.1468022665290382 l -3.1245221410439727 11.087826804213286" fill="#ff830c" stroke="none" /><path d="M 105.69591212413111 79.78721728523813 l 4.120160025366274 -14.620994412809743 a36.19043107531975,36.19043107531975 0 0,0 0.5965216840150274,0.17363876841660209 l -4.370541721762906 14.548111950090625" fill="#ffb410" stroke="none" /><path d="M 107.06938296918511 80.22567764915836 l 13.50248798283012 -37.76886201733468 a61.10990052108006,61.10990052108006 0 0,0 0.984773965603369,0.36162264071028966 l -14.148851100087615 37.53150852761567" fill="#30ff35" stroke="none" /><path d="M 108.07796709384702 80.6158196554323 l 13.316591893220108 -31.954972808666792 a55.61866414021791,55.61866414021791 0 0,0 0.8781522949891644,0.37483099656763896 l -13.863179263379703 31.72166716243975" fill="#63ff29" stroke="none" /><path d="M 108.4095320186766 80.7573450057729 l 7.576944528433388 -17.337531880161034 a39.92089057318806,39.92089057318806 0 0,0 0.6255919063668168,0.27981930251007175 l -7.873449837655836 17.204908826741107" fill="#ffe415" stroke="none" /><path d="M 109.3889696526874 81.21577127319529 l 28.166908958062173 -56.352686180414125 a84.0,84.0 0 0,0 1.2842911131456847,0.6557681933086643 l -29.130127292921436 55.86086003543262" fill="#4dd2ff" stroke="none" /><path d="M 110.34350942703115 81.72400993836675 l 7.246826358398426 -12.804447797799904 a35.71293225959261,35.71293225959261 0 0,0 0.530945068868391,0.30654127843607 l -7.4655638951272145 12.678159622087662" fill="#ffae10" stroke="none" /><line stroke="#e1ed5e" stroke-width="0.3" x1="143.13028292997686" x2="145.6673583964461" y1="26.7553504044142" y2="22.446841604673864" /><path d="M 143.63769802327073 25.89364864446614 a86.0,86.0 0 0,1 29.32050498858742,28.57503671076993" fill="none" id="id14" stroke="none" /><text fill="#e1ed5e" style="font-size:6.75px; font-family:Arial;" text-anchor="middle"><textPath startOffset="20.669276256404974" xlink:href="#id14">February</textPath></text><path d="M 110.65571695917076 81.90426304109057 l 4.57322575320166 -7.766337131583111 a30.012790146849834,30.012790146849834 0 0,0 0.4417128723193846,0.2652358883861327 l -4.705871382078479 7.686687242661057" fill="#ff6008" stroke="none" /><path d="M 111.8722381534696 82.67804972795209 l 18.28920818336482 -26.68450131913776 a53.35054476551397,53.35054476551397 0 0,0 0.7509849010114263,0.5242457853325938 l -18.74458817555001 26.366610718000036" fill="#7bff26" stroke="none" /><path d="M 112.16784306229584 82.88440491214696 l 8.862178450156255 -12.46576383115777 a36.29488394126007,36.29488394126007 0 0,0 0.5047045398628983,0.3653671651564836 l -9.074864000393122 12.31179589462821" fill="#ffb510" stroke="none" /><path d="M 112.7482090630111 83.31218511350987 l 19.15854725362517 -25.079153352624314 a52.55968735196589,52.55968735196589 0 0,0 0.7122840158786279,0.5538763589585749 l -19.586241214139022 24.74657594204495" fill="#84ff25" stroke="none" /><path d="M 113.31354834802062 83.75963576809568 l 19.156751827149517 -23.368122384845755 a51.2167219327333,51.2167219327333 0 0,0 0.6751477690987662,0.563232281444688 l -19.555073930410174 23.035827919489197" fill="#93ff23" stroke="none" /><path d="M 113.86319453409587 84.22622945171908 l 7.634279320647297 -8.686408461571089 a32.56442444339176,32.56442444339176 0 0,0 0.41672379663367126,0.37263698859627326 l -7.782268144104345 8.554075943091428" fill="#ff830c" stroke="none" /><path d="M 114.39649973595853 84.71141617570332 l 17.922312319326863 -19.032874604572086 a47.14306016106111,47.14306016106111 0 0,0 0.5844112219252894,0.5598527306877573 l -18.246396027117463 18.722409743578748" fill="#c1ff1e" stroke="none" /><path d="M 114.91283532996326 85.21462403516908 l 18.882998027944943 -18.721605852199456 a47.59071530080531,47.59071530080531 0 0,0 0.5702120053503157,0.585087750425354 l -19.20159683444607 18.394695409706358" fill="#bcff1f" stroke="none" /><path d="M 115.16444852881244 85.47280134310134 l 3.3080192077300468 -3.1690075705835308 a25.581004263382283,25.581004263382283 0 0,0 0.30105695099346635,0.3197120491486175 l -3.361931992459773 3.1117540614904184" fill="#ff2003" stroke="none" /><path d="M 115.41159269507618 85.73525988315684 l 6.176318057808833 -5.716707787233211 a29.415916627190903,29.415916627190903 0 0,0 0.33982709550476936,0.37352950690476766 l -6.27354285415548 5.609840704770771" fill="#ff5708" stroke="none" /><path d="M 115.8921839302757 86.27271002978787 l 20.698986128040296 -17.87929122363725 a48.351729038370436,48.351729038370436 0 0,0 0.5371772023087074,0.6327933936067989 l -21.002857893856113 17.521331047580897" fill="#b3ff20" stroke="none" /><path d="M 116.35404254752997 86.82634096563983 l 14.514115922689436 -11.691544386960578 a39.63737565135007,39.63737565135007 0 0,0 0.4222957873560904,0.5335569320094574 l -14.712678140687085 11.440667511036443" fill="#ffe115" stroke="none" /><path d="M 116.57777611688842 87.10902102172516 l 20.095939878312382 -15.626724398581402 a46.456655613453336,46.456655613453336 0 0,0 0.4841403437969623,0.633755251144046 l -20.361232199463654 15.279448234196474" fill="#c9ff1d" stroke="none" /><path d="M 116.7966241395341 87.39550010848427 l 11.851526127823805 -8.893606152729836 a35.81738512553292,35.81738512553292 0 0,0 0.3648222067685625,0.4949513896150713 l -12.002450354176192 8.688848453845889" fill="#ffaf10" stroke="none" /><path d="M 117.01052211995028 87.68569379921539 l 30.374781208504302 -21.988999158625095 a58.49857887257224,58.49857887257224 0 0,0 0.581879518282599,0.818486413232952 l -30.74777582531686 21.46433551868264" fill="#45ff2d" stroke="none" /><path d="M 117.21940702142032 87.97951657250589 l 8.075420630604508 -5.637270768933761 a30.848413074372335,30.848413074372335 0 0,0 0.29939158035797114,0.436821263168062 l -8.171001947777803 5.49781477069565" fill="#ff6b09" stroke="none" /><path d="M 117.42321728460499 88.27688183743584 l 7.044394103462985 -4.7397827341300385 a29.49052581714827,29.49052581714827 0 0,0 0.2790022268211808,0.4224449316266511 l -7.124720769204891 4.618157924164328" fill="#ff5808" stroke="none" /><path d="M 117.62189284568427 88.57770195909679 l 6.761597918050336 -4.382786079171771 a29.057792515395548,29.057792515395548 0 0,0 0.2677223224826033,0.42090395843846484 l -6.83583793215883 4.266068446054634" fill="#ff5207" stroke="none" /><path d="M 117.81537515405839 88.88188828441811 l 23.31780272414178 -14.552033477097472 a48.4860255802937,48.4860255802937 0 0,0 0.4346011090688626,0.7098882501226529 l -23.56417179766605 14.149608110850265" fill="#b2ff20" stroke="none" /><line stroke="#e1ed5e" stroke-width="0.3" x1="172.87174338648825" x2="177.1583165268699" y1="56.24261187166439" y2="53.66864786411523" /><path d="M 173.72905801456457 55.72781907015455 a86.0,86.0 0 0,1 12.242430191666344,42.057860355516425" fill="none" id="id15" stroke="none" /><text fill="#e1ed5e" style="font-size:6.75px; font-family:Arial;" text-anchor="middle"><textPath startOffset="22.145653131862474" xlink:href="#id15">March</textPath></text><path d="M 118.00360718960297 89.18935116829356 l 8.392017752046105 -5.0391655378489535 a30.78872572240644,30.78872572240644 0 0,0 0.2681936841062856,0.45545150835217557 l -8.477285146282158 4.894362861203221" fill="#ff6b09" stroke="none" /><path d="M 118.36410011445183 89.81374322990088 l 13.609964296096589 -7.54921777206067 a36.563477025106586,36.563477025106586 0 0,0 0.2997415525764155,0.5514906961459477 l -13.737551198288346 7.31447224244012" fill="#ffb911" stroke="none" /><path d="M 118.53625476483649 90.13048839642627 l 7.573434265595205 -4.032427171048004 a29.58005684509711,29.58005684509711 0 0,0 0.23479794263524506,0.450256014272276 l -7.641540277205395 3.90182491367123" fill="#ff5a08" stroke="none" /><path d="M 118.70294669586156 90.45014215332178 l 13.701613957910887 -6.996141714773978 a36.384414969208905,36.384414969208905 0 0,0 0.2792591982132032,0.5587054647470785 l -13.819693069335827 6.75990439386315" fill="#ffb710" stroke="none" /><path d="M 118.8641267826498 90.77261029715802 l 8.967385706484645 -4.386397710469881 a30.982709616295594,30.982709616295594 0 0,0 0.2295977267095472,0.4797709437793629 l -9.041362691154104 4.231814264625415" fill="#ff6d0a" stroke="none" /><path d="M 119.0197475246899 91.09779779509293 l 10.136056828648101 -4.744186395319973 a32.19137849360493,32.19137849360493 0 0,0 0.22996223198913013,0.5025089784714742 l -10.216003525492283 4.569488434633815" fill="#ff7e0b" stroke="none" /><path d="M 119.31412917781788 91.75594674310238 l 9.496952196387944 -4.053684168952969 a31.325911890099476,31.325911890099476 0 0,0 0.20686163692781354,0.4963926232920019 l -9.565139677852242 3.890059036219689" fill="#ff720a" stroke="none" /><path d="M 119.4528033332814 92.08871423366111 l 29.414186755013837 -11.962493683635115 a52.753671245855045,52.753671245855045 0 0,0 0.33395918837263955,0.8417953129874293 l -29.615204618352603 11.455797353434122" fill="#82ff25" stroke="none" /><path d="M 119.71291397450082 92.76114493625339 l 18.559647808773278 -6.815359753290567 a40.771435338702034,40.771435338702034 0 0,0 0.23561973617948773,0.6590703369364341 l -18.67390771499671 6.495754459973216" fill="#ffef16" stroke="none" /><path d="M 119.83427380445688 93.10060997987247 l 19.801388935524816 -6.887950955669713 a41.9651823780199,41.9651823780199 0 0,0 0.23083763576360888,0.6824304529752483 l -19.91671199286079 6.547018828220303" fill="#fffe18" stroke="none" /><path d="M 119.94978838288452 93.4421083053983 l 9.554351518283395 -3.1407051175946497 a31.057318806252958,31.057318806252958 0 0,0 0.16214180831047043,0.5079069051707672 l -9.606858042371123 2.9762291787324955" fill="#ff6e0a" stroke="none" /><path d="M 120.16314734710363 94.1308016681162 l 11.633687100318442 -3.386396763730207 a33.11653244907627,33.11653244907627 0 0,0 0.15419926095865294,0.5471987784589623 l -11.690104853351677 3.1861900613682317" fill="#ff8b0c" stroke="none" /><path d="M 120.26092885502905 94.47779374421319 l 30.564153452790155 -8.330395936311275 a52.679062055897674,52.679062055897674 0 0,0 0.23030914467008565,0.8745213354305282 l -30.702652078264972 7.804494096507948" fill="#83ff25" stroke="none" /><path d="M 120.43855184770803 95.1765574152323 l 18.095525060808296 -4.2704946427905455 a39.59261013737565,39.59261013737565 0 0,0 0.15043144054973365,0.6628286835256634 l -18.166167362915697 3.959231625325856" fill="#ffe015" stroke="none" /><path d="M 120.51834098615036 95.52812308129327 l 21.154983020538268 -4.610630086956515 a42.65158692562767,42.65158692562767 0 0,0 0.14977265032710912,0.716716350124978 l -21.231013381689742 4.246797285546133" fill="#f7ff18" stroke="none" /><path d="M 120.592083275326 95.88100663000786 l 16.051289923992865 -3.210707527390839 a37.36925627664614,37.36925627664614 0 0,0 0.12042457747137734,0.6301122759130052 l -16.1040407937464 2.9346926864445195" fill="#ffc312" stroke="none" /><path d="M 120.65975698304385 96.23510406497455 l 15.164516080164107 -2.763479986414939 a36.41425864519185,36.41425864519185 0 0,0 0.10678946497852973,0.6159332558001754 l -15.209720362634872 2.5027536976941707" fill="#ffb711" stroke="none" /><path d="M 120.77682067341334 96.94652285012252 l 25.37803510487745 -3.729697219781665 a46.65063950734249,46.65063950734249 0 0,0 0.10964118409016144,0.7933089903816667 l -25.438320805522828 3.2934999211999125" fill="#c7ff1e" stroke="none" /><path d="M 120.82617615685814 97.30363454192243 l 21.768336186692306 -2.81834693664053 a42.950023685457126,42.950023685457126 0 0,0 0.08839097232302329,0.732004050157823 l -21.813509245274993 2.444249209559294" fill="#f4ff19" stroke="none" /><path d="M 120.9064616781168 98.02013634271609 l 20.396427203259854 -1.9315628622341179 a41.48768356229275,41.48768356229275 0 0,0 0.061058761979664616,0.709595368034013 l -20.42657958793726 1.581146446824443" fill="#fff817" stroke="none" /><path d="M 120.93736805541906 98.37931529534042 l 18.194979487288617 -1.4084064854088083 a39.24940786357177,39.24940786357177 0 0,0 0.046232137007689134,0.6722051255324845 l -18.21647558546137 1.0958579357219898" fill="#ffdc14" stroke="none" /><path d="M 120.96210409425399 98.7389718711861 l 24.517022742166322 -1.4748832070305764 a45.561345333964944,45.561345333964944 0 0,0 0.04026410245802803,0.7811128310443267 l -24.538728434080923 1.053798582609519" fill="#d4ff1c" stroke="none" /><path d="M 120.98066250479742 99.09900007780936 l 2.415111789988524 -0.1037152918485675 a23.417337754618664,23.417337754618664 0 0,0 0.013799851638758642,0.401767623503582 l -2.416536328624131 0.062241403780865526" fill="#ff0000" stroke="none" /><line stroke="#e1ed5e" stroke-width="0.3" x1="184.99686870605535" x2="189.99668451229388" y1="99.2704041080226" y2="99.22748670261217" /><path d="M 185.99683186730306 99.26182062694052 a86.0,86.0 0 0,1 -10.086455211305974,41.156179273409016" fill="none" id="id16" stroke="none" /><text fill="#e1ed5e" style="font-size:6.75px; font-family:Arial;" text-anchor="middle"><textPath startOffset="21.40746469413373" xlink:href="#id16">April</textPath></text><path d="M 120.99922638620191 99.81974689727618 l 15.921014604981597 -0.13666276215513357 a36.92160113690194,36.92160113690194 0 0,0 0.0,0.6338317297579189 l -15.921014604981597 -0.13666276215513162" fill="#ffbe11" stroke="none" /><path d="M 120.99922638620191 100.18025310272382 l 30.76769645311345 0.26410366969435933 a51.76882993841781,51.76882993841781 0 0,0 -0.015255949768133516,0.8885825908559708 l -30.75862907174665 -0.7922331765194012" fill="#8dff24" stroke="none" /><path d="M 120.99303781780057 100.54070618675476 l 22.64384041266315 0.5832250057984728 a43.65135007105637,43.65135007105637 0 0,0 -0.02572376762569428,0.748919427329551 l -22.63049195804061 -0.9718506976921346" fill="#ebff1a" stroke="none" /><path d="M 120.98066250479742 100.90099992219065 l 19.156905247748472 0.8226799384284538 a40.174561819043106,40.174561819043106 0 0,0 -0.03550361960190965,0.6887607354088456 l -19.139960038689992 -1.1514124672140302" fill="#ffe815" stroke="none" /><path d="M 120.93736805541906 101.62068470465957 l 31.450684085141564 2.4344818562176673 a52.54476551397442,52.54476551397442 0 0,0 -0.07733182610636338,0.8987130401524291 l -31.40425863633746 -2.9740159437457536" fill="#84ff25" stroke="none" /><path d="M 120.86939407059847 102.33845913500097 l 8.511865606245989 0.9537722952325177 a29.56513500710564,29.56513500710564 0 0,0 -0.06084492640278523,0.5038832743645807 l -8.49423859358354 -1.099749246520507" fill="#ff5908" stroke="none" /><path d="M 120.82617615685814 102.69636545807757 l 24.846387802485648 3.2168623430451757 a46.05376598768356,46.05376598768356 0 0,0 -0.10823837546549235,0.7831589659818599 l -24.787504910464946 -3.642909617227121" fill="#ceff1d" stroke="none" /><path d="M 120.77682067341334 103.0534771498775 l 12.474950356964193 1.8333881039648108 a33.608953102794885,33.608953102794885 0 0,0 -0.088789265187524,0.5700907756251039 l -12.441639599638401 -2.047267061521365" fill="#ff910d" stroke="none" /><path d="M 120.65975698304385 103.76489593502545 l 6.150950859234037 1.1209081455061554 a27.252250118427284,27.252250118427284 0 0,0 -0.08782194329371139,0.45952151733360247 l -6.130802623658166 -1.2263322278730724" fill="#ff3805" stroke="none" /><path d="M 120.51834098615036 104.47187691870673 l 31.054523662127153 6.7681888940161 a52.78351492183799,52.78351492183799 0 0,0 -0.2005500561700779,0.8836605514540863 l -30.933762744399413 -7.300283779409203" fill="#81ff25" stroke="none" /><path d="M 120.35273937422433 105.17358676015961 l 24.54187497730366 6.2384486489750275 a46.32235907153008,46.32235907153008 0 0,0 -0.20251808746223282,0.7689941645608914 l -24.431167409036696 -6.658823317908722" fill="#cbff1d" stroke="none" /><path d="M 120.26092885502905 105.52220625578681 l 15.217291662552618 4.147540510918987 a36.77238275698721,36.77238275698721 0 0,0 -0.17122185885661587,0.6076059731371526 l -15.143851311621422 -4.408154407959148" fill="#ffbc11" stroke="none" /><path d="M 120.16314734710363 105.8691983318838 l 8.424394107127146 2.452218346149459 a29.774040738986262,29.774040738986262 0 0,0 -0.14706062256235736,0.4895169836347535 l -8.38105716456116 -2.5964729333749363" fill="#ff5c08" stroke="none" /><line stroke="#e1ed5e" stroke-width="0.3" x1="174.33088141563837" x2="178.70328620479359" y1="141.23008692659167" y2="143.65538615756765" /><path d="M 175.20536237346943 141.71514677278685 a86.0,86.0 0 0,1 -30.301960400862466,31.631185727798858" fill="none" id="id17" stroke="none" /><text fill="#e1ed5e" style="font-size:6.75px; font-family:Arial;" text-anchor="middle"><textPath startOffset="22.145653131862474" xlink:href="#id17">May</textPath></text><line stroke="#e1ed5e" stroke-width="0.3" x1="143.1302829299769" x2="145.66735839644613" y1="173.24464959558577" y2="177.55315839532614" /><path d="M 143.63769802327073 174.10635135553383 a86.0,86.0 0 0,1 -40.68552437913181,11.842963189579606" fill="none" id="id18" stroke="none" /><text fill="#e1ed5e" style="font-size:6.75px; font-family:Arial;" text-anchor="middle"><textPath startOffset="21.407464694133747" xlink:href="#id18">June</textPath></text><line stroke="#e1ed5e" stroke-width="0.3" x1="101.45913802915013" x2="101.54496967792366" y1="184.9874750549273" y2="189.98673829345242" /><path d="M 101.47630435890484 185.9873277026323 a86.0,86.0 0 0,1 -42.54439059252881,-10.42667462771756" fill="none" id="id19" stroke="none" /><text fill="#e1ed5e" style="font-size:6.75px; font-family:Arial;" text-anchor="middle"><textPath startOffset="22.145653131862474" xlink:href="#id19">July</textPath></text><line stroke="#e1ed5e" stroke-width="0.3" x1="58.13341422392154" x2="55.67067388415222" y1="173.97424548756322" y2="178.32567169271397" /><path d="M 57.64086615596768 174.84453072859336 a86.0,86.0 0 0,1 -31.369924170532247,-30.572349798747897" fill="none" id="id20" stroke="none" /><text fill="#e1ed5e" style="font-size:6.75px; font-family:Arial;" text-anchor="middle"><textPath startOffset="22.145653131862474" xlink:href="#id20">August</textPath></text><line stroke="#e1ed5e" stroke-width="0.3" x1="26.387840678322732" x2="22.057713659400548" y1="142.50000000000003" y2="145.00000000000006" /><path d="M 25.521815274538298 143.00000000000003 a86.0,86.0 0 0,1 -11.493303480769221,-40.785679425670985" fill="none" id="id21" stroke="none" /><text fill="#e1ed5e" style="font-size:6.75px; font-family:Arial;" text-anchor="middle"><textPath startOffset="21.40746469413373" xlink:href="#id21">September</textPath></text><line stroke="#e1ed5e" stroke-width="0.3" x1="15.003131293944662" x2="10.003315487706104" y1="100.72959589197737" y2="100.7725132973878" /><path d="M 14.003168132696942 100.73817937305945 a86.0,86.0 0 0,1 10.791469493833604,-42.45332614584628" fill="none" id="id22" stroke="none" /><text fill="#e1ed5e" style="font-size:6.75px; font-family:Arial;" text-anchor="middle"><textPath startOffset="22.145653131862435" xlink:href="#id22">October</textPath></text><line stroke="#e1ed5e" stroke-width="0.3" x1="26.387840678322718" x2="22.05771365940052" y1="57.49999999999999" y2="54.99999999999999" /><path d="M 25.521815274538284 56.99999999999999 a86.0,86.0 0 0,1 29.574782752854787,-30.34633250058573" fill="none" id="id23" stroke="none" /><text fill="#e1ed5e" style="font-size:6.75px; font-family:Arial;" text-anchor="middle"><textPath startOffset="21.40746469413373" xlink:href="#id23">November</textPath></text><line stroke="#e1ed5e" stroke-width="0.3" x1="56.869717070023135" x2="54.33264160355391" y1="26.7553504044142" y2="22.446841604673864" /><path d="M 56.362301976729285 25.89364864446614 a86.0,86.0 0 0,1 42.16139366436587,-11.88097634709845" fill="none" id="id24" stroke="none" /><text fill="#e1ed5e" style="font-size:6.75px; font-family:Arial;" text-anchor="middle"><textPath startOffset="22.145653131862474" xlink:href="#id24">December</textPath></text></svg>