<?xml version="1.0" encoding="utf-8" ?>
<svg baseProfile="full" height="200mm" version="1.1" viewBox="0,0,200,200" width="200mm" xmlns="http://www.w3.org/2000/svg" xmlns:ev="http://www.w3.org/2001/xml-events" xmlns:xlink="http://www.w3.org/1999/xlink"><defs /><rect fill="#1a1a1a" height="200" width="200" x="0" y="0" /><text alignment-baseline="middle" fill="#e1ed5e" style="dominant-baseline: central; font-size:9.0px; font-family:Arial;" text-anchor="middle" x="100.0" y="100.0">2026</text><line stroke="#e1ed5e" stroke-width="0.3" x1="100.0" x2="100.0" y1="15.0" y2="10.0" /><path d="M 100.0 14.0 a86.0,86.0 0 0,1 42.46469731375804,11.215312516191453" fill="none" id="id37" stroke="none" /><text fill="#e1ed5e" style="font-size:6.75px; font-family:Arial;" text-anchor="middle"><textPath startOffset="22.20632615414155" xlink:href="#id37">January</textPath></text><path d="M 100.0 79.0 l 0.0 -15.794241573033709 a36.79424157303371,36.79424157303371 0 0,0 0.6333523846804483,0.005451463931428637 l -0.2718719054079199 15.79190148571084" fill="#ffbf11" stroke="none" /><path d="M 100.36148047927253 79.00311137660856 l 0.5620209137004057 -32.64544340743585 a53.6502808988764,53.6502808988764 0 0,0 0.9232277395794037,0.023844248726190745 l -1.1238752884746772 32.6309323665673" fill="#76ff27" stroke="none" /><path d="M 101.08401301168833 79.027996857942 l 0.9348089735626883 -18.085407203965744 a39.109550561797754,39.109550561797754 0 0,0 0.6720100045487003,0.04053747865409661 l -1.2459810269510005 18.066636455931345" fill="#ffdd14" stroke="none" /><path d="M 101.44485096284872 79.0497635885617 l 1.0329060956320182 -14.977065075031032 a36.0126404494382,36.0126404494382 0 0,0 0.6180623297592436,0.047973532117815756 l -1.290558614753603 14.957066280724751" fill="#ffb510" stroke="none" /><path d="M 102.16513564639614 79.11191278185805 l 0.3542672792207154 -3.417783933867326 a24.436095505617978,24.436095505617978 0 0,0 0.41801234008734917,0.04696855695169553 l -0.41304632281778986 3.41117942344503" fill="#ff1302" stroke="none" /><path d="M 102.88285421437855 79.19881850522331 l 0.8765982267035931 -6.32507836182465 a27.385533707865168,27.385533707865168 0 0,0 0.46637696864043976,0.06873184193334315 l -0.9853441757726886 6.309052035730338" fill="#ff3e05" stroke="none" /><path d="M 103.59715602781102 79.31037775812273 l 6.820450333630464 -39.228918576593145 a60.81741573033708,60.81741573033708 0 0,0 1.0298557026486215,0.18819954698704658 l -7.494701157381986 39.10570354825536" fill="#30ff33" stroke="none" /><path d="M 103.95276090670814 79.375362276772 l 3.56692258786513 -18.611418170188198 a39.9501404494382,39.9501404494382 0 0,0 0.6742700819898577,0.13525223524356927 l -3.886759079322113 18.54726197886742" fill="#ffe715" stroke="none" /><path d="M 104.66035177308747 79.52364482259891 l 1.760722790674903 -7.736151043147323 a28.933988764044944,28.933988764044944 0 0,0 0.4846805661373096,0.11470823060366273 l -1.893627043774736 7.704696900402791" fill="#ff5407" stroke="none" /><path d="M 105.01212808612495 79.60689891045804 l 0.5561209533762234 -2.2627176770699635 a23.33005617977528,23.33005617977528 0 0,0 0.3891576812502039,0.09920495790790101 l -0.5949875233114523 2.2528097229931947" fill="#ff0300" stroke="none" /><path d="M 107.08798089147638 80.2323363322302 l 6.4409039842489015 -17.963031450908787 a40.08286516853933,40.08286516853933 0 0,0 0.6474674428020627,0.2384677233865235 l -6.749153752823541 17.849500459715937" fill="#ffe915" stroke="none" /><path d="M 107.4271985657038 80.35727306442388 l 7.375041272405322 -19.504786437433022 a41.85252808988764,41.85252808988764 0 0,0 0.6716669787436411,0.26059635277993554 l -7.70969141614863 19.374947380762542" fill="#ffff18" stroke="none" /><path d="M 107.76421540070413 80.48803036053334 l 6.232091434694403 -15.661644169880898 a37.8560393258427,37.8560393258427 0 0,0 0.6033822378978999,0.24613476486429212 l -6.500757542180691 15.552048518833027" fill="#ffcd13" stroke="none" /><path d="M 108.09893153111575 80.62456947434976 l 6.523507349852363 -15.606473885478108 a37.91502808988764,37.91502808988764 0 0,0 0.599989507528862,0.2568841949492028 l -6.791180615171539 15.491870162566116" fill="#ffcd13" stroke="none" /><path d="M 108.43124777332544 80.76684994638697 l 2.58147754857436 -5.888801561359046 a27.429775280898877,27.429775280898877 0 0,0 0.43080144638468315,0.1932880514320589 l -2.682461113425824 5.843493179410456" fill="#ff3f05" stroke="none" /><path d="M 109.08828744355905 81.06846463323043 l 3.414490015662987 -7.11262038007143 a28.889747191011235,28.889747191011235 0 0,0 0.4464549072518006,0.21907348405608437 l -3.5364161899252196 7.052791735880513" fill="#ff5407" stroke="none" /><path d="M 109.41281617654863 81.2277094730956 l 7.786725741554971 -15.529324607228498 a38.372191011235955,38.372191011235955 0 0,0 0.5878976202907711,0.30114399518038876 l -8.052883849434497 15.392988086735608" fill="#ffd313" stroke="none" /><path d="M 110.36928655335952 81.73862282372117 l 16.165601227849816 -28.469281833805482 a53.73876404494382,53.73876404494382 0 0,0 0.8004600469777694,0.46367812533051933 l -16.653258007292912 28.186799551084913" fill="#75ff27" stroke="none" /><line stroke="#e1ed5e" stroke-width="0.3" x1="143.23703022742887" x2="145.7803849466894" y1="26.81831364943548" y2="22.513508569990506" /><path d="M 143.74570117128098 25.957352633546492 a86.0,86.0 0 0,1 28.547481713284135,27.462654790039103" fill="none" id="id38" stroke="none" /><text fill="#e1ed5e" style="font-size:6.75px; font-family:Arial;" text-anchor="middle"><textPath startOffset="19.985693538727396" xlink:href="#id38">February</textPath></text><path d="M 110.68208982089419 81.91981866633111 l 5.258528767167716 -8.900426344734468 a31.337780898876403,31.337780898876403 0 0,0 0.46206503461202264,0.2783890132727837 l -5.410955867997377 8.808590722003071" fill="#ff760a" stroke="none" /><path d="M 110.99172775467656 82.1063720568725 l 5.194826389675086 -8.456749723121352 a30.9248595505618,30.9248595505618 0 0,0 0.4511802229461826,0.28252901421754634 l -5.3396257649935315 8.366076367580861" fill="#ff700a" stroke="none" /><path d="M 111.2981086023043 82.29822771554956 l 5.839471861865141 -9.149230618929442 a31.853932584269664,31.853932584269664 0 0,0 0.45965675864182226,0.2989735420052103 l -5.996095646291243 9.047358152764703" fill="#ff7d0b" stroke="none" /><path d="M 111.60114157652 82.49532879139004 l 6.786341947500823 -10.239740952789399 a33.28441011235955,33.28441011235955 0 0,0 0.47485014376715945,0.32062093675695336 l -6.961596785674524 10.121408103733776" fill="#ff900d" stroke="none" /><path d="M 112.77801427241765 83.33499621200491 l 10.37316327170983 -13.528612625647702 a38.04775280898876,38.04775280898876 0 0,0 0.5163033761858635,0.4029829745815181 l -10.604499203055124 13.34805126184296" fill="#ffcf13" stroke="none" /><path d="M 113.06298171725822 83.55741782278167 l 11.824567017939497 -14.88376996238372 a40.00912921348315,40.00912921348315 0 0,0 0.5355442975382975,0.4330395773331575 l -12.079014714042286 14.678024287786434" fill="#ffe815" stroke="none" /><path d="M 113.6212207817346 84.01681056812373 l 11.947264576114135 -14.018963202537542 a39.41924157303371,39.41924157303371 0 0,0 0.5126494917255614,0.4445645874924289 l -12.18680786648646 13.811233621625442" fill="#ffe115" stroke="none" /><path d="M 114.16331599549186 84.49514656593476 l 9.528410620562639 -10.430933700726472 a35.127808988764045,35.127808988764045 0 0,0 0.4429317561802492,0.4116567949228977 l -9.706550260537734 10.265372319728934" fill="#ffa90f" stroke="none" /><path d="M 114.42810811169701 84.74124197986012 l 3.1409505018441517 -3.321780186968653 a25.571629213483146,25.571629213483146 0 0,0 0.31723037610678845,0.3051753704734329 l -3.197664121563358 3.267221729732918" fill="#ff2403" stroke="none" /><path d="M 115.19652480421416 85.50635884689758 l 21.89836299034231 -20.885499751521174 a51.26123595505618,51.26123595505618 0 0,0 0.6034977449653588,0.6437693166656471 l -22.254628057278133 20.50546101797747" fill="#91ff24" stroke="none" /><path d="M 115.4437574822437 85.77008943001954 l 14.890645381404914 -13.720271918948866 a41.24789325842697,41.24789325842697 0 0,0 0.47662207668325024,0.5262980014094603 l -15.1246110987042 13.461921130269857" fill="#fff817" stroke="none" /><path d="M 115.68641384162765 86.03803664274999 l 8.371962443565325 -7.45160965695928 a32.20786516853933,32.20786516853933 0 0,0 0.36503495080476095,0.4172980514415464 l -8.498989257947935 7.3063960493147855" fill="#ff820b" stroke="none" /><path d="M 116.15771136456269 86.58626213691792 l 13.026020116936781 -10.81388417613639 a37.92977528089888,37.92977528089888 0 0,0 0.4127148022327784,0.5059395475898628 l -13.21023341124597 10.588060458938427" fill="#ffce13" stroke="none" /><path d="M 116.38621287248628 86.86637796730983 l 4.073538874199541 -3.264959409812024 a26.22050561797753,26.22050561797753 0 0,0 0.27924328982017693,0.35461062047155745 l -4.129136244613682 3.194356395387428" fill="#ff2d04" stroke="none" /><path d="M 116.82858285166822 87.43820079747576 l 20.102120386718834 -15.005351435037737 a46.08497191011236,46.08497191011236 0 0,0 0.4690514999262061,0.6397857187686673 l -20.357434499158668 14.657103272597576" fill="#ccff1d" stroke="none" /><line stroke="#e1ed5e" stroke-width="0.3" x1="172.23445277983987" x2="176.4835382374775" y1="55.19839476539836" y2="52.563006222186495" /><path d="M 173.08426987136738 54.67131705675599 a86.0,86.0 0 0,1 12.851231095245387,41.99856678651699" fill="none" id="id39" stroke="none" /><text fill="#e1ed5e" style="font-size:6.75px; font-family:Arial;" text-anchor="middle"><textPath startOffset="22.20632615414155" xlink:href="#id39">March</textPath></text><path d="M 117.84615892207809 88.93136811851018 l 8.133537317716767 -5.044622254976749 a30.570926966292134,30.570926966292134 0 0,0 0.27351400993866415,0.4495851166725563 l -8.219167125941656 4.903869365097112" fill="#ff6b09" stroke="none" /><path d="M 118.3937258080291 89.86733742301442 l 19.427081190502648 -10.701913283557813 a43.17977528089888,43.17977528089888 0 0,0 0.35302941396652743,0.6541098882040456 l -19.60841870368764 10.365922412021309" fill="#efff19" stroke="none" /><path d="M 118.56541770881063 90.18545643968196 l 17.496341689061712 -9.249380237322207 a40.79073033707866,40.79073033707866 0 0,0 0.32281117126342573,0.6235684341487966 l -17.652962293485256 8.946839080913065" fill="#fff216" stroke="none" /><path d="M 118.73160827565052 90.50648371742162 l 6.498184331581007 -3.2933968002764917 a28.28511235955056,28.28511235955056 0 0,0 0.21636762300236181,0.4361839250414425 l -6.553911967536777 3.181053286736099" fill="#ff4b07" stroke="none" /><path d="M 119.04729006885535 91.15688171328212 l 4.587935739899851 -2.13004885698331 a26.058286516853933,26.058286516853933 0 0,0 0.1853832204534873,0.40846735279218754 l -4.6239212773166845 2.0507594953490598" fill="#ff2b04" stroke="none" /><path d="M 119.196687751892 91.48605970444005 l 2.143450388027266 -0.9506436144620998 a23.344803370786515,23.344803370786515 0 0,0 0.15975548196561543,0.3687376784546403 l -2.159496579835562 0.9136067914208568" fill="#ff0300" stroke="none" /><path d="M 119.47837535516314 92.15188598940014 l 10.450476665270106 -4.210645438271268 a32.26685393258427,32.26685393258427 0 0,0 0.20313743880536478,0.5169626245000166 l -10.521407653957171 4.030133808875466" fill="#ff820c" stroke="none" /><path d="M 119.61058180528143 92.48833698450437 l 15.93359771679116 -6.103226200090203 a38.0625,38.0625 0 0,0 0.2290916833408042,0.6138518141343334 l -16.03629398863359 5.828051248926537" fill="#ffcf13" stroke="none" /><path d="M 119.7369772167798 92.82701384747503 l 10.783264237819305 -3.9189488951295126 a32.473314606741575,32.473314606741575 0 0,0 0.18640752532078608,0.5269991759891818 l -10.8491248439499 3.7327520927137163" fill="#ff850c" stroke="none" /><path d="M 119.97218684219823 93.5106431181261 l 7.181010999442059 -2.333251912583873 a28.55056179775281,28.55056179775281 0 0,0 0.14784366813536015,0.46870482991464363 l -7.220110151345625 2.20929691624281" fill="#ff4f07" stroke="none" /><path d="M 120.08093135843002 93.85539295169968 l 2.2562844222955083 -0.6904052863258784 a23.359550561797754,23.359550561797754 0 0,0 0.11434400208923004,0.38551113159655664 l -2.2678343214964407 0.6514647679827918" fill="#ff0400" stroke="none" /><path d="M 120.18372546131832 94.20196356495316 l 6.392457993718092 -1.8363163147514945 a27.650983146067418,27.650983146067418 0 0,0 0.12747528454218343,0.45859642281563573 l -6.423120048826639 1.726008588516907" fill="#ff4206" stroke="none" /><path d="M 120.28053869075195 94.5502522615342 l 4.2583434470048 -1.1442939422761755 a25.409410112359552,25.409410112359552 0 0,0 0.10986988777209865,0.4233734963337997 l -4.277409666647202 1.0708240203935255" fill="#ff2203" stroke="none" /><path d="M 120.45610955862082 95.25157060432595 l 7.196987983756345 -1.6706201736184696 a28.388342696629213,28.388342696629213 0 0,0 0.1063962816159253,0.4769536682698873 l -7.224678652374307 1.5464883357986186" fill="#ff4d07" stroke="none" /><path d="M 120.6074358757038 95.95851677861258 l 61.822307627111385 -12.124449664162288 a84.0,84.0 0 0,0 0.26605710436056285,1.4212876901497489 l -62.02185045538181 11.058483896549978" fill="#4dd2ff" stroke="none" /><path d="M 120.67395015179393 96.31383870115 l 2.5697255455530392 -0.45818156593851744 a23.610252808988765,23.610252808988765 0 0,0 0.06789424838913127,0.40071569726569073 l -2.5772316554623935 0.41388008035698887" fill="#ff0701" stroke="none" /><path d="M 120.73433829027371 96.67025291283417 l 2.1549733616295716 -0.34606921973352733 a23.18258426966292,23.18258426966292 0 0,0 0.05988183673695265,0.3945464854772801 l -2.160611091805824 0.3089236218641651" fill="#ff0100" stroke="none" /><path d="M 120.83666639777658 97.38593545837742 l 2.2241385480772755 -0.2790293611844324 a23.241573033707866,23.241573033707866 0 0,0 0.04638314864209542,0.39738249185395513 l -2.22861204972296 0.24070313100562454" fill="#ff0200" stroke="none" /><path d="M 120.87857604477298 97.74499172005257 l 10.908469506538697 -1.17817848334332 a31.971910112359552,31.971910112359552 0 0,0 0.05438707269728107,0.5476703998825737 l -10.927133704918207 0.9902325527563114" fill="#ff7e0b" stroke="none" /><path d="M 120.94382443527127 98.46500227214037 l 32.107000521205876 -2.3531601403915587 a53.19311797752809,53.19311797752809 0 0,0 0.05906819399373122,0.9137588168815322 l -32.142749306204024 1.8001422592569911" fill="#7bff26" stroke="none" /><path d="M 120.98425023603335 99.18683210126433 l 2.372517056180737 -0.09193822450592878 a23.37429775280899,23.37429775280899 0 0,0 0.012119356943681584,0.40218245528888796 l -2.373748107580064 0.05108562179204174" fill="#ff0400" stroke="none" /><line stroke="#e1ed5e" stroke-width="0.3" x1="184.98032266829074" x2="189.97916517819016" y1="98.17113171792111" y2="98.06355123074" /><path d="M 185.9800911702706 98.14961562048488 a86.0,86.0 0 0,1 -9.607161424134198,41.387399972396054" fill="none" id="id40" stroke="none" /><text fill="#e1ed5e" style="font-size:6.75px; font-family:Arial;" text-anchor="middle"><textPath startOffset="21.466115282336823" xlink:href="#id40">April</textPath></text><path d="M 120.99513854157772 99.54816195383933 l 16.675211861323305 -0.3588685605391255 a37.679073033707866,37.679073033707866 0 0,0 0.008373712650447167,0.6485532729322456 l -16.67891858109147 0.07177902954641721" fill="#ffca12" stroke="none" /><path d="M 120.99980553446 99.90962569577887 l 6.134774650516402 -0.02640148213201552 a27.134831460674157,27.134831460674157 0 0,0 -0.0020101776596309377,0.467094494455913 l -6.134320175567268 -0.07920249052758219" fill="#ff3b05" stroke="none" /><path d="M 120.99824983174949 100.27111621757518 l 2.1234185223117468 0.027416246721086147 a23.123595505617978,23.123595505617978 0 0,0 -0.008564470301901904,0.39795728148953646 l -2.1226319893248373 -0.06396334400073746" fill="#ff0000" stroke="none" /><path d="M 120.9764740272857 100.99374915477107 l 31.508903050817505 1.4927173048141196 a52.54424157303371,52.54424157303371 0 0,0 -0.05057670771610471,0.9030810917815215 l -31.47853999221387 -2.0348701129310647" fill="#82ff25" stroke="none" /><path d="M 120.95626037817324 101.35467743843564 l 9.580425215021611 0.6193082952398891 a30.600421348314605,30.600421348314605 0 0,0 -0.038503258968749524,0.5253463776469113 l -9.568345397388523 -0.7841278093835706" fill="#ff6c09" stroke="none" /><path d="M 120.92983693683757 101.71520430193887 l 6.2760114972118295 0.5143203911010519 a27.297050561797754,27.297050561797754 0 0,0 -0.04240844262017805,0.46797363047513757 l -6.266228458314576 -0.6222754101247601" fill="#ff3d05" stroke="none" /><path d="M 120.89721153311464 102.0752229133903 l 17.111059443547525 1.6992344922844729 a38.19522471910112,38.19522471910112 0 0,0 -0.07060241510693512,0.6536906785943751 l -17.079274726939538 -1.9935214927636393" fill="#ffd113" stroke="none" /><path d="M 120.8583938346157 102.4346265915055 l 6.225293103730106 0.7266266161445513 a27.26755617977528,27.26755617977528 0 0,0 -0.058428517838888916,0.46573277550744857 l -6.211863076644369 -0.8336771459393948" fill="#ff3d05" stroke="none" /><path d="M 120.76222939487914 103.15116336523771 l 7.217207549483975 1.0953833327195672 a28.2998595505618,28.2998595505618 0 0,0 -0.0772427762504828,0.4809908414457442 l -7.197283018872204 -1.2194534038585165" fill="#ff4b07" stroke="none" /><path d="M 120.5718875245553 104.21870165774334 l 23.157820015352623 4.749001936350118 a44.63974719101124,44.63974719101124 0 0,0 -0.1608433039193194,0.7514063684180171 l -23.07264267270886 -5.146922124184305" fill="#ddff1b" stroke="none" /><path d="M 120.32669344350535 105.2749913415812 l 14.231540283128393 3.693234808677291 a35.702949438202246,35.702949438202246 0 0,0 -0.15949344605095317,0.5935344457738748 l -14.165858760735661 -3.937660187626714" fill="#ffb110" stroke="none" /><path d="M 120.23288151984713 105.62410040840565 l 11.25311949699363 3.1280109013042714 a32.67977528089888,32.67977528089888 0 0,0 -0.1553181999019689,0.5406830296923079 l -11.197608660205562 -3.3212514065011614" fill="#ff880c" stroke="none" /><path d="M 120.13307415673323 105.97154293290107 l 4.835331012361491 1.4341767437164104 a26.043539325842698,26.043539325842698 0 0,0 -0.13117662904084948,0.42869281353445726 l -4.809927610814509 -1.5171965298029249" fill="#ff2b04" stroke="none" /><line stroke="#e1ed5e" stroke-width="0.3" x1="174.80103733775053" x2="179.2010983576182" y1="140.37084112569926" y2="142.7455964860345" /><path d="M 175.68104954172406 140.8457921977663 a86.0,86.0 0 0,1 -30.038265399797805,32.042727171017184" fill="none" id="id41" stroke="none" /><text fill="#e1ed5e" style="font-size:6.75px; font-family:Arial;" text-anchor="middle"><textPath startOffset="22.206326154141568" xlink:href="#id41">May</textPath></text><line stroke="#e1ed5e" stroke-width="0.3" x1="143.8653032363475" x2="146.44561519142675" y1="172.8068346515853" y2="177.08958963109032" /><path d="M 144.38136562736335 173.6633856474863 a86.0,86.0 0 0,1 -40.68145358897372,12.25698825130547" fill="none" id="id42" stroke="none" /><text fill="#e1ed5e" style="font-size:6.75px; font-family:Arial;" text-anchor="middle"><textPath startOffset="21.466115282336833" xlink:href="#id42">June</textPath></text><line stroke="#e1ed5e" stroke-width="0.3" x1="102.19456741930631" x2="102.32365962044197" y1="184.97166512339345" y2="189.96999836594603" /><path d="M 102.22038585953345 185.97133177190398 a86.0,86.0 0 0,1 -42.740103519485714,-10.115201625700543" fill="none" id="id43" stroke="none" /><text fill="#e1ed5e" style="font-size:6.75px; font-family:Arial;" text-anchor="middle"><textPath startOffset="22.20632615414155" xlink:href="#id43">July</textPath></text><line stroke="#e1ed5e" stroke-width="0.3" x1="58.666819895761336" x2="56.23545636021788" y1="174.27360380694188" y2="178.64263932499728" /><path d="M 58.180547188652646 175.14741091055294 a86.0,86.0 0 0,1 -31.652253787137756,-30.449443065178592" fill="none" id="id44" stroke="none" /><text fill="#e1ed5e" style="font-size:6.75px; font-family:Arial;" text-anchor="middle"><textPath startOffset="22.20632615414155" xlink:href="#id44">August</textPath></text><line stroke="#e1ed5e" stroke-width="0.3" x1="26.63291911575756" x2="22.317208475507996" y1="142.92168965132927" y2="145.44649492493687" /><path d="M 25.769776987707644 143.4266507060508 a86.0,86.0 0 0,1 -11.730757126820373,-40.83630448921669" fill="none" id="id45" stroke="none" /><text fill="#e1ed5e" style="font-size:6.75px; font-family:Arial;" text-anchor="middle"><textPath startOffset="21.46611528233685" xlink:href="#id45">September</textPath></text><line stroke="#e1ed5e" stroke-width="0.3" x1="15.007084014347285" x2="10.007500721073583" y1="101.09737516637583" y2="101.16192664675087" /><path d="M 14.007167355692545 101.11028546245083 a86.0,86.0 0 0,1 10.666146001902534,-42.60595125391555" fill="none" id="id46" stroke="none" /><text fill="#e1ed5e" style="font-size:6.75px; font-family:Arial;" text-anchor="middle"><textPath startOffset="22.20632615414155" xlink:href="#id46">October</textPath></text><line stroke="#e1ed5e" stroke-width="0.3" x1="26.266209847984243" x2="21.928928074336255" y1="57.711370442889674" y2="55.22380399835377" /><path d="M 25.398753493254645 57.213857153982495 a86.0,86.0 0 0,1 29.58750427330803,-30.492523968695096" fill="none" id="id47" stroke="none" /><text fill="#e1ed5e" style="font-size:6.75px; font-family:Arial;" text-anchor="middle"><textPath startOffset="21.46611528233685" xlink:href="#id47">November</textPath></text><line stroke="#e1ed5e" stroke-width="0.3" x1="56.762969772571076" x2="54.21961505331055" y1="26.818313649435495" y2="22.513508569990535" /><path d="M 56.25429882871897 25.957352633546506 a86.0,86.0 0 0,1 42.265352541879196,-11.944610805530505" fill="none" id="id48" stroke="none" /><text fill="#e1ed5e" style="font-size:6.75px; font-family:Arial;" text-anchor="middle"><textPath startOffset="22.20632615414155" xlink:href="#id48">December</textPath></text></svg>