<?xml version="1.0" encoding="utf-8" ?>
<svg baseProfile="full" height="200mm" version="1.1" viewBox="0,0,200,200" width="200mm" xmlns="http://www.w3.org/2000/svg" xmlns:ev="http://www.w3.org/2001/xml-events" xmlns:xlink="http://www.w3.org/1999/xlink"><defs /><rect fill="#1a1a1a" height="200" width="200" x="0" y="0" /><text alignment-baseline="middle" fill="#e1ed5e" style="dominant-baseline: central; font-size:9.0px; font-family:Arial;" text-anchor="middle" x="100.0" y="100.0">2026</text><line stroke="#e1ed5e" stroke-width="0.3" x1="100.0" x2="100.0" y1="15.0" y2="10.0" /><path d="M 100.0 14.0 a86.0,86.0 0 0,1 42.46469731375804,11.215312516191453" fill="none" id="id37" stroke="none" /><text fill="#e1ed5e" style="font-size:6.75px; font-family:Arial;" text-anchor="middle"><textPath startOffset="22.20632615414155" xlink:href="#id37">January</textPath></text><path d="M 100.0 79.0 l 0.0 -24.989999999999995 a45.989999999999995,45.989999999999995 0 0,0 0.791642249606837,0.006813914772743923 l -0.4301617703343087 24.98629746183581" fill="#d9ff1c" stroke="none" /><path d="M 100.36148047927253 79.00311137660856 l 0.8892419790104198 -51.65234601354294 a72.66,72.66 0 0,0 1.2503518422257573,0.032292899187435636 l -1.7782204564310449 51.62938632221314" fill="#3effb8" stroke="none" /><path d="M 101.08401301168833 79.027996857942 l 1.4790755315036312 -28.615133176052467 a49.653333333333336,49.653333333333336 0 0,0 0.8531812889658954,0.0514662252874588 l -1.9714188693091386 28.585433681384703" fill="#adff20" stroke="none" /><path d="M 101.44485096284872 79.0497635885617 l 1.634286977977771 -23.69704518538243 a44.75333333333333,44.75333333333333 0 0,0 0.7680733520033662,0.05961727458058338 l -2.0419505193434784 23.66540264861338" fill="#e8ff1a" stroke="none" /><path d="M 102.16513564639614 79.11191278185805 l 0.5605295617892209 -5.40769369091897 a26.436666666666667,26.436666666666667 0 0,0 0.45223480547053474,0.05081384968645474 l -0.6535310707694809 5.397243887761915" fill="#ff1b02" stroke="none" /><path d="M 102.88285421437855 79.19881850522331 l 1.3869731942510182 -10.00767954137589 a31.10333333333333,31.10333333333333 0 0,0 0.5296912767651132,0.07806272512603153 l -1.5590334514447872 9.98232233208889" fill="#ff5f08" stroke="none" /><path d="M 103.59715602781102 79.31037775812273 l 10.791468083433088 -62.06886672563182 a84.0,84.0 0 0,0 1.4224195155883965,0.2599380745970459 l -11.858282720124386 61.87391316968404" fill="#4dd2ff" stroke="none" /><path d="M 103.95276090670814 79.375362276772 l 5.643664183466606 -29.44739941594222 a50.983333333333334,50.983333333333334 0 0,0 0.8604859947937012,0.17260539552366647 l -6.149716587727433 29.345890064341344" fill="#9dff22" stroke="none" /><path d="M 104.66035177308747 79.52364482259891 l 2.7858547265789575 -12.24031009493532 a33.553333333333335,33.553333333333335 0 0,0 0.5620603757198791,0.13302153149047877 l -2.9961387892613605 12.190542651303973" fill="#ff820c" stroke="none" /><path d="M 105.01212808612495 79.60689891045804 l 0.8799069306752695 -3.580122191275145 a24.686666666666667,24.686666666666667 0 0,0 0.41178666196804836,0.10497358894815313 l -0.9414024813283429 3.564445606158124" fill="#ff0000" stroke="none" /><path d="M 107.08798089147638 80.2323363322302 l 10.190941415078258 -28.421507540104557 a51.19333333333333,51.19333333333333 0 0,0 0.8269373080610747,0.3045679893699151 l -10.678661048911911 28.241876282928317" fill="#9bff22" stroke="none" /><path d="M 107.4271985657038 80.35727306442388 l 11.668954191005753 -30.860906541005136 a53.99333333333333,53.99333333333333 0 0,0 0.866507729100856,0.33619153688586073 l -12.198445085106275 30.65547230022873" fill="#7bff26" stroke="none" /><path d="M 107.76421540070413 80.48803036053334 l 9.860553558894253 -24.78020144212266 a47.67,47.67 0 0,0 0.7598056160343605,0.309943788363275 l -10.285643044517002 24.606796767575805" fill="#c4ff1e" stroke="none" /><path d="M 108.09893153111575 80.62456947434976 l 10.321638295766405 -24.69290979213425 a47.763333333333335,47.763333333333335 0 0,0 0.7558348308924719,0.3236090291779635 l -10.745156884449191 24.511581234993496" fill="#c3ff1e" stroke="none" /><path d="M 108.43124777332544 80.76684994638697 l 4.084471143522098 -9.317392692639201 a31.173333333333332,31.173333333333332 0 0,0 0.489596321920424,0.21966759825546026 l -4.244249583909302 9.24570476386721" fill="#ff6008" stroke="none" /><path d="M 109.08828744355905 81.06846463323043 l 5.402481980337883 -11.253746023579687 a33.483333333333334,33.483333333333334 0 0,0 0.5174430353778116,0.25390705022946236 l -5.595396282726126 11.159083813215393" fill="#ff810b" stroke="none" /><path d="M 109.41281617654863 81.2277094730956 l 12.320330506638086 -24.57084248965931 a48.486666666666665,48.486666666666665 0 0,0 0.742860785322851,0.38052214711180427 l -12.741451779549692 24.355127817235005" fill="#bbff1f" stroke="none" /><path d="M 110.36928655335952 81.73862282372117 l 25.577573498286817 -45.04473036815445 a72.8,72.8 0 0,0 1.084384660786862,0.6281455877144949 l -26.34915489153901 44.5977806230499" fill="#3effb9" stroke="none" /><line stroke="#e1ed5e" stroke-width="0.3" x1="143.23703022742887" x2="145.7803849466894" y1="26.81831364943548" y2="22.513508569990506" /><path d="M 143.74570117128098 25.957352633546492 a86.0,86.0 0 0,1 28.547481713284135,27.462654790039103" fill="none" id="id38" stroke="none" /><text fill="#e1ed5e" style="font-size:6.75px; font-family:Arial;" text-anchor="middle"><textPath startOffset="19.985693538727396" xlink:href="#id38">February</textPath></text><line stroke="#e1ed5e" stroke-width="0.3" x1="172.23445277983987" x2="176.4835382374775" y1="55.19839476539836" y2="52.563006222186495" /><path d="M 173.08426987136738 54.67131705675599 a86.0,86.0 0 0,1 12.851231095245387,41.99856678651699" fill="none" id="id39" stroke="none" /><text fill="#e1ed5e" style="font-size:6.75px; font-family:Arial;" text-anchor="middle"><textPath startOffset="22.20632615414155" xlink:href="#id39">March</textPath></text><line stroke="#e1ed5e" stroke-width="0.3" x1="184.98032266829074" x2="189.97916517819016" y1="98.17113171792111" y2="98.06355123074" /><path d="M 185.9800911702706 98.14961562048488 a86.0,86.0 0 0,1 -9.607161424134198,41.387399972396054" fill="none" id="id40" stroke="none" /><text fill="#e1ed5e" style="font-size:6.75px; font-family:Arial;" text-anchor="middle"><textPath startOffset="21.466115282336823" xlink:href="#id40">April</textPath></text><line stroke="#e1ed5e" stroke-width="0.3" x1="174.80103733775053" x2="179.2010983576182" y1="140.37084112569926" y2="142.7455964860345" /><path d="M 175.68104954172406 140.8457921977663 a86.0,86.0 0 0,1 -30.038265399797805,32.042727171017184" fill="none" id="id41" stroke="none" /><text fill="#e1ed5e" style="font-size:6.75px; font-family:Arial;" text-anchor="middle"><textPath startOffset="22.206326154141568" xlink:href="#id41">May</textPath></text><line stroke="#e1ed5e" stroke-width="0.3" x1="143.8653032363475" x2="146.44561519142675" y1="172.8068346515853" y2="177.08958963109032" /><path d="M 144.38136562736335 173.6633856474863 a86.0,86.0 0 0,1 -40.68145358897372,12.25698825130547" fill="none" id="id42" stroke="none" /><text fill="#e1ed5e" style="font-size:6.75px; font-family:Arial;" text-anchor="middle"><textPath startOffset="21.466115282336833" xlink:href="#id42">June</textPath></text><line stroke="#e1ed5e" stroke-width="0.3" x1="102.19456741930631" x2="102.32365962044197" y1="184.97166512339345" y2="189.96999836594603" /><path d="M 102.22038585953345 185.97133177190398 a86.0,86.0 0 0,1 -42.740103519485714,-10.115201625700543" fill="none" id="id43" stroke="none" /><text fill="#e1ed5e" style="font-size:6.75px; font-family:Arial;" text-anchor="middle"><textPath startOffset="22.20632615414155" xlink:href="#id43">July</textPath></text><line stroke="#e1ed5e" stroke-width="0.3" x1="58.666819895761336" x2="56.23545636021788" y1="174.27360380694188" y2="178.64263932499728" /><path d="M 58.180547188652646 175.14741091055294 a86.0,86.0 0 0,1 -31.652253787137756,-30.449443065178592" fill="none" id="id44" stroke="none" /><text fill="#e1ed5e" style="font-size:6.75px; font-family:Arial;" text-anchor="middle"><textPath startOffset="22.20632615414155" xlink:href="#id44">August</textPath></text><line stroke="#e1ed5e" stroke-width="0.3" x1="26.63291911575756" x2="22.317208475507996" y1="142.92168965132927" y2="145.44649492493687" /><path d="M 25.769776987707644 143.4266507060508 a86.0,86.0 0 0,1 -11.730757126820373,-40.83630448921669" fill="none" id="id45" stroke="none" /><text fill="#e1ed5e" style="font-size:6.75px; font-family:Arial;" text-anchor="middle"><textPath startOffset="21.46611528233685" xlink:href="#id45">September</textPath></text><line stroke="#e1ed5e" stroke-width="0.3" x1="15.007084014347285" x2="10.007500721073583" y1="101.09737516637583" y2="101.16192664675087" /><path d="M 14.007167355692545 101.11028546245083 a86.0,86.0 0 0,1 10.666146001902534,-42.60595125391555" fill="none" id="id46" stroke="none" /><text fill="#e1ed5e" style="font-size:6.75px; font-family:Arial;" text-anchor="middle"><textPath startOffset="22.20632615414155" xlink:href="#id46">October</textPath></text><line stroke="#e1ed5e" stroke-width="0.3" x1="26.266209847984243" x2="21.928928074336255" y1="57.711370442889674" y2="55.22380399835377" /><path d="M 25.398753493254645 57.213857153982495 a86.0,86.0 0 0,1 29.58750427330803,-30.492523968695096" fill="none" id="id47" stroke="none" /><text fill="#e1ed5e" style="font-size:6.75px; font-family:Arial;" text-anchor="middle"><textPath startOffset="21.46611528233685" xlink:href="#id47">November</textPath></text><line stroke="#e1ed5e" stroke-width="0.3" x1="56.762969772571076" x2="54.21961505331055" y1="26.818313649435495" y2="22.513508569990535" /><path d="M 56.25429882871897 25.957352633546506 a86.0,86.0 0 0,1 42.265352541879196,-11.944610805530505" fill="none" id="id48" stroke="none" /><text fill="#e1ed5e" style="font-size:6.75px; font-family:Arial;" text-anchor="middle"><textPath startOffset="22.20632615414155" xlink:href="#id48">December</textPath></text></svg>