<?xml version="1.0" encoding="utf-8" ?>
<svg baseProfile="full" height="200mm" version="1.1" viewBox="0,0,200,200" width="200mm" xmlns="http://www.w3.org/2000/svg" xmlns:ev="http://www.w3.org/2001/xml-events" xmlns:xlink="http://www.w3.org/1999/xlink"><defs /><rect fill="#1a1a1a" height="200" width="200" x="0" y="0" /><text alignment-baseline="middle" fill="#e1ed5e" style="dominant-baseline: central; font-size:9.0px; font-family:Arial;" text-anchor="middle" x="100.0" y="100.0">2024</text><line stroke="#e1ed5e" stroke-width="0.3" x1="100.0" x2="100.0" y1="15.0" y2="10.0" /><path d="M 100.0 14.0 a86.0,86.0 0 0,1 42.35913384403234,11.155469271406648" fill="none" id="id13" stroke="none" /><text fill="#e1ed5e" style="font-size:6.75px; font-family:Arial;" text-anchor="middle"><textPath startOffset="22.145653131862478" xlink:href="#id13">January</textPath></text><path d="M 100.72087961077811 79.0123766808444 l 1.097367266159757 -31.948650621527335 a52.967491166077735,52.967491166077735 0 0,0 0.9084536116011416,0.039012906917462495 l -1.6456466383617347 31.92510514618404" fill="#7cff26" stroke="none" /><path d="M 102.15924093988457 79.11130261209362 l 5.3820797137617475 -52.066739001516446 a73.34416961130742,73.34416961130742 0 0,0 1.2512658475539666,0.14020694810922263 l -6.275081462916511 51.96667629290025" fill="#40ffc3" stroke="none" /><path d="M 102.87502721639298 79.19773525538626 l 2.472726588233397 -17.891417805084746 a39.06148409893993,39.06148409893993 0 0,0 0.6634405102760289,0.09750290818186677 l -2.779492204117108 17.846333823604" fill="#ffdf14" stroke="none" /><path d="M 103.23170211078529 79.25015418208739 l 2.1285840051250156 -13.667036256038557 a34.83180212014134,34.83180212014134 0 0,0 0.59002169634943,0.09708784560471119 l -2.3628832045275163 13.628482411938178" fill="#ffa90f" stroke="none" /><path d="M 103.94208987418118 79.37332000966035 l 1.994725335628071 -10.437245846701904 a31.626148409893993,31.626148409893993 0 0,0 0.5323787910484317,0.10649066834731248 l -2.17360061220746 10.401465781691732" fill="#ff7e0b" stroke="none" /><path d="M 104.29559338865022 79.4440306129975 l 2.6319996239998145 -12.595070995428394 a33.86713780918728,33.86713780918728 0 0,0 0.5680608941873752,0.12380622794265284 l -2.8478229348063238 12.548033309352022" fill="#ff9c0e" stroke="none" /><path d="M 104.64783097203109 79.52079915486377 l 4.5492903860516245 -20.045012841352424 a41.5547703180212,41.5547703180212 0 0,0 0.6942967982532311,0.16385215391559224 l -4.89271933804474 19.963964543790603" fill="#fffe18" stroke="none" /><path d="M 105.3480935250658 79.69241777938227 l 2.9178291175624036 -11.079472420011935 a32.45724381625442,32.45724381625442 0 0,0 0.5375825273186056,0.14652050834400096 l -3.107593045815702 11.027751417523792" fill="#ff890c" stroke="none" /><path d="M 105.69591212413111 79.78721728523813 l 4.09783642569998 -14.541775832952357 a36.10812720848057,36.10812720848057 0 0,0 0.5951650811841388,0.1732438811038719 l -4.346861519265723 14.469288257545971" fill="#ffb911" stroke="none" /><path d="M 107.06938296918511 80.22567764915836 l 13.429329626268261 -37.56422507354229 a60.892579505300354,60.892579505300354 0 0,0 0.9812718803979692,0.3603366265139322 l -14.072190658320356 37.32815759801964" fill="#30ff35" stroke="none" /><path d="M 108.07796709384702 80.6158196554323 l 13.244440747508904 -31.781836324662237 a55.43109540636043,55.43109540636043 0 0,0 0.8751908086490771,0.3735669141499188 l -13.78806663132841 31.549794760852915" fill="#62ff29" stroke="none" /><path d="M 108.4095320186766 80.7573450057729 l 7.535891589881217 -17.243594722742024 a39.81837455830389,39.81837455830389 0 0,0 0.6239853993910532,0.2791007323737565 l -7.830790392127902 17.111690239458415" fill="#ffe915" stroke="none" /><path d="M 109.3889696526874 81.21577127319529 l 28.014296730491996 -56.047359494395394 a83.65865724381626,83.65865724381626 0 0,0 1.2790722623325486,0.6531034108976927 l -28.972296214538122 55.558198131824874" fill="#4dd5ff" stroke="none" /><path d="M 110.34350942703115 81.72400993836675 l 7.207562045973651 -12.735071519979078 a35.63321554770318,35.63321554770318 0 0,0 0.5297599184927109,0.3058570315476409 l -7.42511443232676 12.609467591155266" fill="#ffb310" stroke="none" /><line stroke="#e1ed5e" stroke-width="0.3" x1="143.13028292997686" x2="145.6673583964461" y1="26.7553504044142" y2="22.446841604673864" /><path d="M 143.63769802327073 25.89364864446614 a86.0,86.0 0 0,1 29.32050498858742,28.57503671076993" fill="none" id="id14" stroke="none" /><text fill="#e1ed5e" style="font-size:6.75px; font-family:Arial;" text-anchor="middle"><textPath startOffset="20.669276256404974" xlink:href="#id14">February</textPath></text><path d="M 110.65571695917076 81.90426304109057 l 4.5484473804516865 -7.724258037583956 a29.963957597173145,29.963957597173145 0 0,0 0.4409941798661062,0.26480433421765043 l -4.680374316875227 7.645039702830385" fill="#ff6709" stroke="none" /><path d="M 111.8722381534696 82.67804972795209 l 18.19011471146438 -26.539920982190726 a53.17526501766785,53.17526501766785 0 0,0 0.7485175889218483,0.5225234098729549 l -18.643027391559986 26.223752756512642" fill="#7aff26" stroke="none" /><path d="M 112.16784306229584 82.88440491214696 l 8.814161935585327 -12.398222590140895 a36.21201413427562,36.21201413427562 0 0,0 0.5035521799911791,0.3645329454768182 l -9.025695125950474 12.245088873291001" fill="#ffbb11" stroke="none" /><path d="M 112.7482090630111 83.31218511350987 l 19.05474358181519 -24.94327101408242 a52.3886925795053,52.3886925795053 0 0,0 0.7099667105566447,0.5520744083241048 l -19.480120237007057 24.612495554137524" fill="#82ff25" stroke="none" /><path d="M 113.31354834802062 83.75963576809568 l 19.05295788320972 -23.24151064989842 a51.053003533568905,51.053003533568905 0 0,0 0.6729896045816884,0.5614318638467608 l -19.4491218219533 22.91101660213979" fill="#91ff24" stroke="none" /><path d="M 113.86319453409587 84.22622945171908 l 7.59291573422212 -8.639344293228067 a32.5017667844523,32.5017667844523 0 0,0 0.41592197261965197,0.37191999261864495 l -7.740102733665148 8.507728770726034" fill="#ff890c" stroke="none" /><path d="M 114.39649973595853 84.71141617570332 l 17.825206740211545 -18.92975184464154 a47.001413427561836,47.001413427561836 0 0,0 0.5826552913530435,0.5581705889203022 l -18.1475345174299 18.62096912541566" fill="#bfff1e" stroke="none" /><path d="M 114.91283532996326 85.21462403516908 l 18.780687320137467 -18.62016958963159 a47.44664310954064,47.44664310954064 0 0,0 0.5684857927355864,0.5833165042116105 l -19.097559914023865 18.29503039335224" fill="#baff1f" stroke="none" /><path d="M 115.16444852881244 85.47280134310134 l 3.290095899890755 -3.151837447115115 a25.556183745583038,25.556183745583038 0 0,0 0.3007648440326221,0.31940184167885505 l -3.3437165776596367 3.0948941454917653" fill="#ff2803" stroke="none" /><path d="M 115.41159269507618 85.73525988315684 l 6.142853908143438 -5.685733869893667 a29.370318021201413,29.370318021201413 0 0,0 0.33930031804517624,0.37295048619884635 l -6.239551927030492 5.57944580813715" fill="#ff5e08" stroke="none" /><path d="M 115.8921839302757 86.27271002978787 l 20.586836144307686 -17.782418738797755 a48.20353356890459,48.20353356890459 0 0,0 0.5355307828472788,0.6308539156210989 l -20.889061490662076 17.426398040727104" fill="#b1ff20" stroke="none" /><path d="M 116.35404254752997 86.82634096563983 l 14.435476425346245 -11.628197974498839 a39.536395759717315,39.536395759717315 0 0,0 0.4212199496614035,0.5321976462270651 l -14.632962805649207 11.378680384357095" fill="#ffe515" stroke="none" /><path d="M 116.57777611688842 87.10902102172516 l 19.987057282976416 -15.542056633877664 a46.318727915194344,46.318727915194344 0 0,0 0.4827029531287693,0.6318736606185211 l -20.250912213459493 15.19666206001826" fill="#c7ff1e" stroke="none" /><path d="M 116.7966241395341 87.39550010848427 l 11.787312912054677 -8.84541935849832 a35.73710247349823,35.73710247349823 0 0,0 0.3640044783336732,0.49384198394385087 l -11.937419409972176 8.641771065285594" fill="#ffb410" stroke="none" /><path d="M 117.01052211995028 87.68569379921539 l 30.210206422215588 -21.869859704997683 a58.29540636042403,58.29540636042403 0 0,0 0.5798585816072895,0.8156437127102957 l -30.58118010235284 21.348038765577883" fill="#44ff2d" stroke="none" /><path d="M 117.21940702142032 87.97951657250589 l 8.031666879249052 -5.60672725240008 a30.795053003533567,30.795053003533567 0 0,0 0.2988737074969615,0.43606567118703105 l -8.12673032356134 5.468026846143" fill="#ff720a" stroke="none" /><path d="M 117.42321728460499 88.27688183743584 l 7.0062265971309134 -4.714101932508132 a29.44452296819788,29.44452296819788 0 0,0 0.27856700578182536,0.4217859515019841 l -7.086118041833463 4.593136102667089" fill="#ff6008" stroke="none" /><path d="M 117.62189284568427 88.57770195909679 l 6.724962640755835 -4.359039535044338 a29.014134275618375,29.014134275618375 0 0,0 0.2673200797677634,0.42027156607999744 l -6.798800412149488 4.242954294285669" fill="#ff5a08" stroke="none" /><path d="M 117.81537515405839 88.88188828441811 l 23.191463628109922 -14.473188537174448 a48.337102473498234,48.337102473498234 0 0,0 0.433266247186399,0.7077078535564136 l -23.436497839751723 14.07294356749348" fill="#afff20" stroke="none" /><line stroke="#e1ed5e" stroke-width="0.3" x1="172.87174338648825" x2="177.1583165268699" y1="56.24261187166439" y2="53.66864786411523" /><path d="M 173.72905801456457 55.72781907015455 a86.0,86.0 0 0,1 12.242430191666344,42.057860355516425" fill="none" id="id15" stroke="none" /><text fill="#e1ed5e" style="font-size:6.75px; font-family:Arial;" text-anchor="middle"><textPath startOffset="22.145653131862474" xlink:href="#id15">March</textPath></text><path d="M 118.00360718960297 89.18935116829356 l 8.346548633483785 -5.011862638586169 a30.735689045936397,30.735689045936397 0 0,0 0.26773169351325166,0.4546669473244131 l -8.431354037126804 4.867844522968199" fill="#ff710a" stroke="none" /><path d="M 118.36410011445183 89.81374322990088 l 13.536223617931633 -7.508315060928185 a36.479151943462895,36.479151943462895 0 0,0 0.2990502690074142,0.5502188122398763 l -13.663119236554389 7.274841415213705" fill="#ffbe11" stroke="none" /><path d="M 118.53625476483649 90.13048839642627 l 7.532400346134971 -4.010578920180135 a29.53356890459364,29.53356890459364 0 0,0 0.23442893479848784,0.449548393089787 l -7.600137349908404 3.88068428398585" fill="#ff6108" stroke="none" /><path d="M 118.70294669586156 90.45014215332178 l 13.627376709140108 -6.958235646590279 a36.301060070671376,36.301060070671376 0 0,0 0.27861942917603627,0.5574254981084568 l -13.744816051527883 6.7232782923180725" fill="#ffbc11" stroke="none" /><path d="M 118.8641267826498 90.77261029715802 l 8.918799164376484 -4.362631598022106 a30.92862190812721,30.92862190812721 0 0,0 0.22919690912476567,0.4789333891846815 l -8.992375331461162 4.208885706772321" fill="#ff740a" stroke="none" /><path d="M 119.0197475246899 91.09779779509293 l 10.081138263969912 -4.718481734049687 a32.130742049469966,32.130742049469966 0 0,0 0.22952906967407327,0.5015624406397234 l -10.160651798499037 4.54473031119528" fill="#ff840c" stroke="none" /><path d="M 119.31412917781788 91.75594674310238 l 9.44549638943461 -4.031720744716004 a31.269964664310955,31.269964664310955 0 0,0 0.20649218767606353,0.4955060795810796 l -9.513314421647156 3.868982155693647" fill="#ff790b" stroke="none" /><path d="M 119.4528033332814 92.08871423366111 l 29.254816602984317 -11.897679230225549 a52.58162544169611,52.58162544169611 0 0,0 0.3328700456501916,0.8390499618461753 l -29.45474532360063 11.393728251165808" fill="#80ff25" stroke="none" /><path d="M 119.71291397450082 92.76114493625339 l 18.459089057394774 -6.778433186900537 a40.66431095406361,40.66431095406361 0 0,0 0.23500066012692267,0.657338671036246 l -18.57272988756564 6.460559559483375" fill="#fff316" stroke="none" /><path d="M 119.83427380445688 93.10060997987247 l 19.694102258135636 -6.850631080055954 a41.851590106007066,41.851590106007066 0 0,0 0.23021279941055175,0.6805832353235789 l -19.808800479118553 6.511546170258214" fill="#fcff18" stroke="none" /><path d="M 119.94978838288452 93.4421083053983 l 9.502584713826268 -3.123688340750204 a31.002826855123676,31.002826855123676 0 0,0 0.1618573206652366,0.5070157516739876 l -9.554806750268762 2.9601035553848294" fill="#ff750a" stroke="none" /><path d="M 120.16314734710363 94.1308016681162 l 11.570654166677139 -3.368048795399042 a33.05088339222615,33.05088339222615 0 0,0 0.15389358173138218,0.5461140307194273 l -11.626766240483104 3.1689268407766016" fill="#ff910d" stroke="none" /><path d="M 120.26092885502905 94.47779374421319 l 30.398552621361613 -8.285260693311239 a52.507420494699645,52.507420494699645 0 0,0 0.2295587398677486,0.8716719261689319 l -30.53630084203409 7.762208262769508" fill="#81ff25" stroke="none" /><path d="M 120.43855184770803 95.1765574152323 l 17.997480990985306 -4.247356509272482 a39.491872791519434,39.491872791519434 0 0,0 0.150048690738551,0.6611422172355131 l -18.067740543281523 3.9377799580979422" fill="#ffe515" stroke="none" /><path d="M 120.51834098615036 95.52812308129327 l 21.04036238226444 -4.58564905232754 a42.53427561837456,42.53427561837456 0 0,0 0.14936070726315528,0.714745053438891 l -21.115980800351963 4.223787547603244" fill="#f4ff19" stroke="none" /><path d="M 120.592083275326 95.88100663000786 l 15.964321804263339 -3.1933114677606884 a37.280565371024736,37.280565371024736 0 0,0 0.12013876592736526,0.6286167891422714 l -16.01678686247286 2.9187921135851025" fill="#ffc812" stroke="none" /><path d="M 120.65975698304385 96.23510406497455 l 15.08235262437052 -2.748507067760629 a36.33074204946996,36.33074204946996 0 0,0 0.10654454189329354,0.6145206045303103 l -15.127311983756048 2.4891934303097263" fill="#ffbc11" stroke="none" /><path d="M 120.77682067341334 96.94652285012252 l 25.24053338346116 -3.7094892018652983 a46.51166077738516,46.51166077738516 0 0,0 0.10931454778513351,0.7909456127921778 l -25.300492447801503 3.2756552808730346" fill="#c4ff1e" stroke="none" /><path d="M 120.82617615685814 97.30363454192243 l 21.65039231571612 -2.8030767412241038 a42.831095406360426,42.831095406360426 0 0,0 0.08814621841315244,0.7299771366777599 l -21.695320620388937 2.4310059276229308" fill="#f0ff19" stroke="none" /><path d="M 120.9064616781168 98.02013634271609 l 20.28591652583348 -1.9210973861843221 a41.376678445229686,41.376678445229686 0 0,0 0.06089539216869164,0.7076967631919819 l -20.315905540699912 1.5725795756166783" fill="#fffc17" stroke="none" /><path d="M 120.93736805541906 98.37931529534042 l 18.09639655956008 -1.40077554332061 a39.15053003533569,39.15053003533569 0 0,0 0.046115668160110014,0.6705116940500824 l -18.11777618888526 1.0899204251161934" fill="#ffe015" stroke="none" /><path d="M 120.96210409425399 98.7389718711861 l 24.384186105400758 -1.466892084825228 a45.42826855123675,45.42826855123675 0 0,0 0.04014649800242477,0.7788313360239063 l -24.405774192859756 1.0480889554245911" fill="#d1ff1c" stroke="none" /><path d="M 120.98066250479742 99.09900007780936 l 2.4020263786411196 -0.10315334798225023 a23.404240282685514,23.404240282685514 0 0,0 0.013792133290438512,0.40154291221369814 l -2.4034431989284064 0.06190417120443213" fill="#ff0901" stroke="none" /><line stroke="#e1ed5e" stroke-width="0.3" x1="184.99686870605535" x2="189.99668451229388" y1="99.2704041080226" y2="99.22748670261217" /><path d="M 185.99683186730306 99.26182062694052 a86.0,86.0 0 0,1 -10.086455211305974,41.156179273409016" fill="none" id="id16" stroke="none" /><text fill="#e1ed5e" style="font-size:6.75px; font-family:Arial;" text-anchor="middle"><textPath startOffset="21.40746469413373" xlink:href="#id16">April</textPath></text><path d="M 120.99922638620191 99.81974689727618 l 15.834752335037054 -0.13592230431542374 a36.835335689045934,36.835335689045934 0 0,0 0.0,0.6323508140784994 l -15.834752335037054 -0.13592230431542182" fill="#ffc312" stroke="none" /><path d="M 120.99922638620191 100.18025310272382 l 30.600992797419313 0.262672719304967 a51.60212014134275,51.60212014134275 0 0,0 -0.015206821435639653,0.8857211117848338 l -30.591974544385003 -0.787940747058872" fill="#8bff24" stroke="none" /><path d="M 120.99303781780057 100.54070618675476 l 22.521152938106905 0.5800650116563374 a43.52862190812721,43.52862190812721 0 0,0 -0.02565144384328711,0.7468137993169351 l -22.507876807266772 -0.9665850755373833" fill="#e8ff1a" stroke="none" /><path d="M 120.98066250479742 100.90099992219065 l 19.05311047255455 0.818222544180196 a40.07067137809187,40.07067137809187 0 0,0 -0.03541180810406628,0.6869796168783232 l -19.036257074993912 -1.14517395443525" fill="#ffec16" stroke="none" /><path d="M 120.93736805541906 101.62068470465957 l 31.280279907530666 2.4212914951592444 a52.37385159010601,52.37385159010601 0 0,0 -0.07708028657220688,0.8957897694779542 l -31.23410599826072 -2.957902312012856" fill="#82ff25" stroke="none" /><path d="M 120.86939407059847 102.33845913500097 l 8.465747135352313 0.9486046243749564 a29.518727915194347,29.518727915194347 0 0,0 -0.060749420798253705,0.5030923509535974 l -8.448215628294395 -1.0937906522519623" fill="#ff6108" stroke="none" /><path d="M 120.82617615685814 102.69636545807757 l 24.711766620045793 3.19943293576837 a45.918021201413424,45.918021201413424 0 0,0 -0.1079193397725651,0.7808505826352911 l -24.653202763718017 -3.623171826603746" fill="#cbff1d" stroke="none" /><path d="M 120.77682067341334 103.0534771498775 l 12.407359342073688 1.8234545524003365 a33.540636042402824,33.540636042402824 0 0,0 -0.08860878287456918,0.5689319497066584 l -12.37422906706085 -2.0361746840384454" fill="#ff970e" stroke="none" /><path d="M 120.65975698304385 103.76489593502545 l 6.117624152576232 1.1148349093820937 a27.218374558303886,27.218374558303886 0 0,0 -0.08771277735301763,0.45895031500275696 l -6.097585082941055 -1.2196877894181652" fill="#ff4006" stroke="none" /><path d="M 120.51834098615036 104.47187691870673 l 30.886265936749314 6.731517905897755 a52.6113074204947,52.6113074204947 0 0,0 -0.19989575673362603,0.8807775874107313 l -30.766159318458023 -7.260729827247504" fill="#80ff26" stroke="none" /><path d="M 120.35273937422433 105.17358676015961 l 24.40890368767398 6.204647867131347 a46.18515901060071,46.18515901060071 0 0,0 -0.20191825847044478,0.7667165161779762 l -24.298795948398805 -6.622744887682126" fill="#c8ff1d" stroke="none" /><path d="M 120.26092885502905 105.52220625578681 l 15.134842261318521 4.125068559976432 a36.686925795053,36.686925795053 0 0,0 -0.17082394882801338,0.6061939308210339 l -15.06179982041593 -4.384270414700475" fill="#ffc111" stroke="none" /><path d="M 120.16314734710363 105.8691983318838 l 8.3787495689731 2.4389318863234433 a29.72650176678445,29.72650176678445 0 0,0 -0.14682581698426134,0.48873539223164725 l -8.33564743198521 -2.582404882145814" fill="#ff6309" stroke="none" /><path d="M 120.05942366710727 106.21446072829308 l 2.565905076852591 0.794923951816994 a23.686219081272085,23.686219081272085 0 0,0 -0.12365930291130832,0.38736100510851723 l -2.5518810581640277 -0.8388539906168948" fill="#ff0d01" stroke="none" /><path d="M 119.83427380445688 106.89939002012753 l 59.50282141337066 20.698170060382587 a84.0,84.0 0 0,0 -0.48543931982422706,1.3578601744763141 l -59.13874192350249 -21.716565191239823" fill="#4dd2ff" stroke="none" /><path d="M 119.58574465831526 107.57618678355244 l 13.606209893373787 5.263174281436083 a35.5886925795053,35.5886925795053 0 0,0 -0.22529561655917568,0.5678921277186383 l -13.513855601848487 -5.495967426368285" fill="#ffb310" stroke="none" /><path d="M 119.4528033332814 107.91128576633889 l 23.0959078444613 9.39290465544122 a45.93286219081272,45.93286219081272 0 0,0 -0.30331908915871186,0.7278553945436361 l -22.931262910766105 -9.787992559426135" fill="#cbff1d" stroke="none" /><path d="M 119.31412917781788 108.2440532568976 l 17.26669498935662 7.3701253498059875 a39.773851590106005,39.773851590106005 0 0,0 -0.27342840720461625,0.6256577053008736 l -17.137632700135036 -7.665445124882706" fill="#ffe815" stroke="none" /><path d="M 119.16976305983485 108.57439118712176 l 3.1972184325943624 1.4300751379227812 a24.502473498233215,24.502473498233215 0 0,0 -0.17503579401010771,0.3824847988434973 l -3.1721981737291984 -1.4847489189809675" fill="#ff1902" stroke="none" /><path d="M 118.8641267826498 109.22738970284198 l 24.263399819379973 11.868444706128894 a48.01060070671378,48.01060070671378 0 0,0 -0.3684929899364282,0.7372328235408356 l -24.056086916231813 -12.283209385833477" fill="#b3ff20" stroke="none" /><path d="M 118.70294669586154 109.54985784667822 l 13.6009414487926 6.944737614298157 a36.27137809187279,36.27137809187279 0 0,0 -0.28791171690828554,0.5521086797544841 l -13.479721662909366 -7.177192537157144" fill="#ffbb11" stroke="none" /><line stroke="#e1ed5e" stroke-width="0.3" x1="174.33088141563837" x2="178.70328620479359" y1="141.23008692659167" y2="143.65538615756765" /><path d="M 175.20536237346943 141.71514677278685 a86.0,86.0 0 0,1 -30.301960400862466,31.631185727798858" fill="none" id="id17" stroke="none" /><text fill="#e1ed5e" style="font-size:6.75px; font-family:Arial;" text-anchor="middle"><textPath startOffset="22.145653131862474" xlink:href="#id17">May</textPath></text><path d="M 118.36410011445183 110.18625677009912 l 18.519838065952484 10.272641986523986 a42.17809187279152,42.17809187279152 0 0,0 -0.35663913541289244,0.6301471797726453 l -18.340765565518215 -10.589045936395754" fill="#f8ff18" stroke="none" /><path d="M 118.18653347947321 110.5 l 21.99092493524994 12.6964664310954 a46.39293286219081,46.39293286219081 0 0,0 -0.40411843260378333,0.6862814472893034 l -21.769732792516393 -13.072099046678252" fill="#c6ff1e" stroke="none" /><path d="M 118.00360718960297 110.81064883170644 l 21.45164785983789 12.881098183927254 a46.02190812720848,46.02190812720848 0 0,0 -0.4125141641157527,0.6738108854401049 l -21.227365731266733 -13.247446185491917" fill="#caff1d" stroke="none" /><path d="M 117.62189284568427 111.42229804090321 l 3.661368548855955 2.3732548579685835 a25.363250883392226,25.363250883392226 0 0,0 -0.23995514762153927,0.36332267697423654 l -3.6200889623136887 -2.435757413281881" fill="#ff2603" stroke="none" /><path d="M 117.423217284605 111.72311816256416 l 20.119814164695807 13.537508888784332 a45.25017667844523,45.25017667844523 0 0,0 -0.43916430561843695,0.64075384648158 l -19.884460122262052 -13.880897470335956" fill="#d3ff1c" stroke="none" /><path d="M 117.21940702142032 112.02048342749411 l 5.987242582712931 4.1795603154255145 a28.301766784452298,28.301766784452298 0 0,0 -0.28151484600944526,0.3959858859823151 l -5.914612638173526 -4.281723428117334" fill="#ff5007" stroke="none" /><path d="M 117.01052211995028 112.31430620078461 l 14.666315891405896 10.617281671347861 a39.10600706713781,39.10600706713781 0 0,0 -0.39831885399053923,0.5403960247890518 l -14.481895017831528 -10.867484005405789" fill="#ffe015" stroke="none" /><path d="M 116.57777611688842 112.89097897827486 l 21.580398309051915 16.78104825299101 a48.337102473498234,48.337102473498234 0 0,0 -0.5149824985162076,0.6506635637242952 l -21.289149379894145 -17.14903176062999" fill="#afff20" stroke="none" /><path d="M 116.1254893667686 113.45245675266167 l 9.891819625692683 8.252107746509072 a33.88197879858657,33.88197879858657 0 0,0 -0.37642142156413966,0.44342348810435483 l -9.748703640621429 -8.420698017062984" fill="#ff9c0e" stroke="none" /><path d="M 115.89218393027572 113.72728997021213 l 14.35350605151404 12.398216665675683 a39.96678445229682,39.96678445229682 0 0,0 -0.45293583375231744,0.5153578345259275 l -14.138559153803138 -12.642786778012903" fill="#ffeb16" stroke="none" /><path d="M 115.6541949942343 113.99807769240083 l 7.113531718228025 6.360963926652813 a30.54275618374558,30.54275618374558 0 0,0 -0.3528448987048843,0.3878383530051671 l -7.00328911868126 -6.482139855215652" fill="#ff6f0a" stroke="none" /><path d="M 115.16444852881244 114.52719865689866 l 5.862157841173431 5.615814604468951 a29.118021201413427,29.118021201413427 0 0,0 -0.3488799266022024,0.3579815393378794 l -5.764891113420422 -5.715618835874568" fill="#ff5b08" stroke="none" /><path d="M 114.91283532996324 114.78537596483092 l 6.418315700316336 6.36345863080002 a30.03816254416961,30.03816254416961 0 0,0 -0.3661910626550891,0.3630612433195679 l -6.308132717531283 -6.47269988434825" fill="#ff6809" stroke="none" /><path d="M 114.39649973595853 115.28858382429668 l 16.919702516536415 17.96813773837836 a45.680565371024734,45.680565371024734 0 0,0 -0.5755103631771087,0.5326838002858909 l -16.608762382045338 -18.25593928479663" fill="#ceff1d" stroke="none" /><path d="M 114.13192950727249 115.5334660781643 l 4.134712944177251 4.544773820749129 a27.14416961130742,27.14416961130742 0 0,0 -0.3473613186855419,0.3106126331047952 l -4.056086598668331 -4.615081983737312" fill="#ff3f05" stroke="none" /><path d="M 113.86319453409587 115.77377054828091 l 15.812859348431614 17.992131211961407 a44.95335689045936,44.95335689045936 0 0,0 -0.5840094387267212,0.5044534436497315 l -15.501670429942036 -18.260928788075855" fill="#d7ff1c" stroke="none" /><path d="M 113.59037401385872 116.0094264158162 l 9.018629822624273 10.623923254029267 a34.9356890459364,34.9356890459364 0 0,0 -0.4605283515073492,0.3841891300858358 l -8.83492713695503 -10.777174568026972" fill="#ffaa0f" stroke="none" /><path d="M 113.03279911837588 116.46651593811092 l 4.11707505718305 5.2017898405198455 a27.6339222614841,27.6339222614841 0 0,0 -0.37449235554007104,0.29120752076472306 l -4.027172757007748 -5.271698412905362" fill="#ff4606" stroke="none" /><path d="M 112.7482090630111 116.68781488649013 l 8.414718915090013 11.015137175958852 a34.861484098939926,34.861484098939926 0 0,0 -0.47867641628877017,0.35920770668327134 l -8.224389509890477 -11.157963909906139" fill="#ffa90f" stroke="none" /><path d="M 112.16784306229584 117.11559508785304 l 7.9456445155910655 11.17654407150262 a34.713074204947,34.713074204947 0 0,0 -0.48863595883009125,0.34110584864439547 l -7.752613465587215 -11.311294735952139" fill="#ffa70f" stroke="none" /><path d="M 111.8722381534696 117.32195027204791 l 8.86851994927022 12.93943564491494 a36.686925795053,36.686925795053 0 0,0 -0.5225331277909595,0.3515836082903155 l -8.645090533382257 -13.089768927262377" fill="#ffc111" stroke="none" /><path d="M 111.5731344415666 117.5232005979908 l 5.16906075411314 7.826616804190942 a30.379505300353358,30.379505300353358 0 0,0 -0.43763032563243903,0.2836666897753552 l -5.033944796223691 -7.914197335670192" fill="#ff6c0a" stroke="none" /><path d="M 110.96478420261333 117.91015095944535 l 9.52347687986698 15.555883766189636 a39.23957597173145,39.23957597173145 0 0,0 -0.5775079799732422,0.3467769488219212 l -9.255036143336302 -15.717074715547481" fill="#ffe115" stroke="none" /><line stroke="#e1ed5e" stroke-width="0.3" x1="143.1302829299769" x2="145.66735839644613" y1="173.24464959558577" y2="177.55315839532614" /><path d="M 143.63769802327073 174.10635135553383 a86.0,86.0 0 0,1 -40.68552437913181,11.842963189579606" fill="none" id="id18" stroke="none" /><text fill="#e1ed5e" style="font-size:6.75px; font-family:Arial;" text-anchor="middle"><textPath startOffset="21.407464694133747" xlink:href="#id18">June</textPath></text><path d="M 110.65571695917076 118.09573695890943 l 7.470297684450455 12.686198631263709 a35.72226148409894,35.72226148409894 0 0,0 -0.5310837666855269,0.3066213556581306 l -7.251421449904529 -12.812566884198011" fill="#ffb410" stroke="none" /><path d="M 110.02825361518725 118.45085714620011 l 6.654791621668434 12.244067039068488 a34.9356890459364,34.9356890459364 0 0,0 -0.5293774753628641,0.28186368832584724 l -6.443625330519017 -12.356501195116904" fill="#ffaa0f" stroke="none" /><path d="M 109.71004243097381 118.62028667847754 l 5.489776639419821 10.527370560269988 a32.87279151943463,32.87279151943463 0 0,0 -0.5025980239607174,0.2566301321870443 l -5.308251393745521 -10.62005864412987" fill="#ff8e0d" stroke="none" /><path d="M 109.3889696526874 118.78422872680471 l 0.8028730233040108 1.606283869924644 a22.79575971731449,22.79575971731449 0 0,0 -0.35153205451128017,0.17195194335736025 l -0.7751807195306611 -1.6198295633792277" fill="#ff0000" stroke="none" /><path d="M 109.06512990194946 118.94263497670748 l 9.654523506881864 20.174240925723094 a43.36537102473498,43.36537102473498 0 0,0 -0.674251574605978,0.3155837818734282 l -9.30678321840438 -20.33700093916706" fill="#eaff1a" stroke="none" /><path d="M 108.4095320186766 119.2426549942271 l 7.1674173954233025 16.400453655857163 a38.898233215547705,38.898233215547705 0 0,0 -0.614156655815053,0.2621469563552667 l -6.884825664437819 -16.521075261871832" fill="#ffdd14" stroke="none" /><path d="M 108.07796709384702 119.3841803445677 l 4.178849408265739 10.027717323126184 a31.863604240282683,31.863604240282683 0 0,0 -0.5067004041159883,0.206070643197358 l -4.0060945429593104 -10.097975222902834" fill="#ff810b" stroke="none" /><path d="M 107.407793817531 119.65005319985036 l 5.392245676365318 14.303572293884013 a36.28621908127209,36.28621908127209 0 0,0 -0.584745246788452,0.21472655418634276 l -5.14591127792274 -14.394029697079077" fill="#ffbc11" stroke="none" /><path d="M 107.06938296918513 119.77432235084164 l 6.185085594241117 17.300785208722225 a39.373144876325085,39.373144876325085 0 0,0 -0.6383965984201817,0.2220674758979007 l -5.887183223775913 -17.404411117188715" fill="#ffe315" stroke="none" /><path d="M 106.72888874123015 119.89276391827305 l 5.521017546691307 16.32190735626503 a38.23038869257951,38.23038869257951 0 0,0 -0.6234780408617927,0.20494961587872687 l -5.24001676818178 -16.414277893545776" fill="#ffd513" stroke="none" /><path d="M 106.38641147887787 120.00534299687104 l 2.5635913215566317 8.0304133019242 a29.429681978798584,29.429681978798584 0 0,0 -0.48258984100040203,0.14950756634588283 l -2.425360847684605 -8.073237456076727" fill="#ff5f08" stroke="none" /><path d="M 106.0420521117495 120.11202640906438 l 2.532110884994668 8.42857361171391 a29.80070671378092,29.80070671378092 0 0,0 -0.4912007739489283,0.14298138645974792 l -2.3870500986641328 -8.470798692476176" fill="#ff6409" stroke="none" /><path d="M 105.69591212413111 120.21278271476187 l 0.5112232083142413 1.8141508160952362 a22.88480565371025,22.88480565371025 0 0,0 -0.3790362401121556,0.10330801274186074 l -0.4800055672673906 -1.8226593229812391" fill="#ff0100" stroke="none" /><path d="M 105.3480935250658 120.30758222061773 l 2.2148288379424463 8.410065852496105 a29.696819787985866,29.696819787985866 0 0,0 -0.49409103056959713,0.12559600784284433 l -2.070132514147452 -8.44684709217422" fill="#ff6309" stroke="none" /><path d="M 104.9986988182912 120.39639698878246 l 2.8155215252141956 11.488288621950257 a32.82826855123675,32.82826855123675 0 0,0 -0.5484944706200616,0.1294432015933215 l -2.617894900854255 -11.534927967189805" fill="#ff8e0d" stroke="none" /><path d="M 104.64783097203109 120.47920084513623 l 2.2730028499261543 10.015269953946483 a31.269964664310955,31.269964664310955 0 0,0 -0.5244979421791384,0.11431188530901383 l -2.10074249112788 -10.052813297389216" fill="#ff790b" stroke="none" /><path d="M 103.58742460773223 120.69131181640829 l 1.6453982829810738 9.490220048656525 a30.631802120141344,30.631802120141344 0 0,0 -0.5188771969600416,0.08538104530384147 l -1.4822435829679599 -9.517067092456037" fill="#ff700a" stroke="none" /><path d="M 103.2317021107853 120.74984581791261 l 0.9706525774443499 6.232285846369517 a27.30742049469965,27.30742049469965 0 0,0 -0.4638033962415963,0.06816312730039319 l -0.8635240755950682 -6.248030046968792" fill="#ff4106" stroke="none" /><path d="M 102.875027216393 120.80226474461374 l 0.6583101188065927 4.763204082865618 a25.808480565371024,25.808480565371024 0 0,0 -0.43938591359147816,0.05688730332686475 l -0.5764463833243393 -4.773802982392877" fill="#ff2c04" stroke="none" /><path d="M 102.15924093988457 120.88869738790638 l 1.307752286559062 12.651317075219621 a33.71872791519435,33.71872791519435 0 0,0 -0.5762698176602441,0.05457335087789586 l -1.0903829055138028 -12.6719021816027" fill="#ff9a0e" stroke="none" /><path d="M 101.80034050326958 120.92268563240118 l 0.9516994321170646 11.060190002145648 a32.10106007067138,32.10106007067138 0 0,0 -0.5494341090467597,0.04252967490438089 l -0.7616963282950691 -11.074897444045082" fill="#ff840c" stroke="none" /><path d="M 100.72087961077811 120.9876233191556 l 0.5440985330819947 15.840835127108264 a36.85017667844523,36.85017667844523 0 0,0 -0.6323958594786877,0.016288274077624038 l -0.2720893595325632 -15.847841118535932" fill="#ffc312" stroke="none" /><line stroke="#e1ed5e" stroke-width="0.3" x1="101.45913802915013" x2="101.54496967792366" y1="184.9874750549273" y2="189.98673829345242" /><path d="M 101.47630435890484 185.9873277026323 a86.0,86.0 0 0,1 -42.54439059252881,-10.42667462771756" fill="none" id="id19" stroke="none" /><text fill="#e1ed5e" style="font-size:6.75px; font-family:Arial;" text-anchor="middle"><textPath startOffset="22.145653131862474" xlink:href="#id19">July</textPath></text><path d="M 100.36049292484886 120.99690560180557 l 0.28024184970582355 16.322682799990194 a37.32508833922262,37.32508833922262 0 0,0 -0.6407347745546738,0.00549993742685781 l -1.9992467180426757e-15 -16.325088339222617" fill="#ffc912" stroke="none" /><path d="M 100.0 121.0 l 3.4877767744762676e-15 28.479858657243817 a49.47985865724382,49.47985865724382 0 0,0 -0.8493875699265534,-0.007290970728089041 l 0.4888946450776978 -28.475662084710162" fill="#a2ff22" stroke="none" /><path d="M 99.63950707515114 120.99690560180557 l -0.4010006103972362 23.35627520653142 a44.35971731448763,44.35971731448763 0 0,0 -0.7612691196060399,-0.019607592113574716 l 0.80188304407402 -23.345949897067797" fill="#deff1b" stroke="none" /><path d="M 98.91894614982273 120.97215588758144 l -0.2987223006496901 5.795132828299891 a26.802826855123676,26.802826855123676 0 0,0 -0.45929279155392366,-0.027629913815269764 l 0.3981594443360601 -5.789150936659929" fill="#ff3a05" stroke="none" /><path d="M 98.19965949673042 120.92268563240118 l -0.6043545859032174 7.02351637836789 a28.04946996466431,28.04946996466431 0 0,0 -0.4793793817684248,-0.04539772586233414 l 0.7248335310566576 -7.012106897000372" fill="#ff4c07" stroke="none" /><path d="M 97.48249496171623 120.84855314841334 l -1.65283546329726 13.687848674824027 a34.787279151943466,34.787279151943466 0 0,0 -0.5922487529950381,-0.07667845830831758 l 1.887562038183092 -13.657458620315312" fill="#ffa80f" stroke="none" /><path d="M 96.76829788921471 120.74984581791261 l -1.4182947072775025 9.106469436695221 a30.21625441696113,30.21625441696113 0 0,0 -0.5118381652183481,-0.08422277530941287 l 1.574410375548914 -9.08078066289014" fill="#ff6a09" stroke="none" /><path d="M 96.05791012581884 120.62667999033965 l -4.385052623294108 22.94444827193966 a44.35971731448763,44.35971731448763 0 0,0 -0.7467293319773614,-0.14936677977011098 l 4.778278440802427 -22.865792095506684" fill="#deff1b" stroke="none" /><path d="M 95.70440661134978 120.55596938700252 l -4.259164328110423 20.381643144851257 a41.82190812720848,41.82190812720848 0 0,0 -0.701487992909734,-0.15288604309482723 l 4.6084147376392925 -20.305525643622712" fill="#fcff18" stroke="none" /><path d="M 95.35216902796893 120.47920084513623 l -4.270092059109821 18.814813497298303 a40.29328621908127,40.29328621908127 0 0,0 -0.6732199311633953,-0.15887807067172605 l 4.592444144013104 -18.73873928298035" fill="#ffef16" stroke="none" /><path d="M 94.6519064749342 120.30758222061772 l -4.766039530111651 18.09742839590032 a39.714487632508835,39.714487632508835 0 0,0 -0.657782735758838,-0.17928160966096793 l 5.076003666805184 -18.012946292095208" fill="#ffe715" stroke="none" /><path d="M 94.30408787586889 120.21278271476187 l -0.6400353552910579 2.271259683142853 a23.359717314487632,23.359717314487632 0 0,0 -0.38503486961932926,-0.11207803898787273 l 0.678930237291994 -2.259937949852464" fill="#ff0801" stroke="none" /><path d="M 93.61358852112213 120.00534299687104 l -4.540445192756991 14.222879897422095 a35.93003533568905,35.93003533568905 0 0,0 -0.5859628637136487,-0.1926176320040324 l 4.783930794118383 -14.142841344016041" fill="#ffb711" stroke="none" /><path d="M 93.27111125876986 119.89276391827306 l -3.3382896793947365 9.869060261927695 a31.41837455830389,31.41837455830389 0 0,0 -0.5094178661347625,-0.17720197756345868 l 3.5072133175745206 -9.810299851795646" fill="#ff7b0b" stroke="none" /><path d="M 92.93061703081489 119.77432235084164 l -3.712050562618047 10.383266082456075 a32.02685512367491,32.02685512367491 0 0,0 -0.5161064386787361,-0.18952143310189626 l 3.889746152950902 -10.31801380034546" fill="#ff830c" stroke="none" /><path d="M 92.25597844496254 119.51999308798841 l -10.370968796322254 26.141616184973874 a49.12367491166078,49.12367491166078 0 0,0 -0.78117295650858,-0.3176962407933186 l 10.818196214021276 -25.959732687601264" fill="#a6ff21" stroke="none" /><path d="M 91.92203290615298 119.3841803445677 l -2.8601141441818774 6.863232758041283 a28.435335689045935,28.435335689045935 0 0,0 -0.44895999715438434,-0.19163432597355626 l 2.977509216506693 -6.813123782408323" fill="#ff5107" stroke="none" /><path d="M 91.26138138417905 119.09545874513695 l -1.3092488668226445 2.860945055808505 a24.146289752650176,24.146289752650176 0 0,0 -0.3754302915414035,-0.17572033302809417 l 1.358167872235538 -2.838048491209884" fill="#ff1402" stroke="none" /><path d="M 90.93487009805054 118.94263497670748 l -5.496736011217413 11.48606417668906 a33.73356890459364,33.73356890459364 0 0,0 -0.520203359312591,-0.25445753076255573 l 5.693099619792074 -11.390012895829283" fill="#ff9a0e" stroke="none" /><path d="M 90.6110303473126 118.78422872680471 l -6.243830701893173 12.49184398015776 a34.965371024734985,34.965371024734985 0 0,0 -0.5345918485108128,-0.2729664069673483 l 6.457349772117568 -12.382819621517575" fill="#ffaa0f" stroke="none" /><path d="M 89.97174638481275 118.45085714620012 l -18.77374122023394 34.54156931468841 a60.313780918727915,60.313780918727915 0 0,0 -0.9054414270908827,-0.502233096593417 l 19.363926835480925 -34.21420330266184" fill="#30ff2f" stroke="none" /><line stroke="#e1ed5e" stroke-width="0.3" x1="58.13341422392154" x2="55.67067388415222" y1="173.97424548756322" y2="178.32567169271397" /><path d="M 57.64086615596768 174.84453072859336 a86.0,86.0 0 0,1 -31.369924170532247,-30.572349798747897" fill="none" id="id20" stroke="none" /><text fill="#e1ed5e" style="font-size:6.75px; font-family:Arial;" text-anchor="middle"><textPath startOffset="22.145653131862474" xlink:href="#id20">August</textPath></text><path d="M 89.03521579738668 117.91015095944536 l -6.354150562645176 10.379027411127343 a33.169611307420496,33.169611307420496 0 0,0 -0.48306937961483565,-0.3014710205364954 l 6.531384071049724 -10.268420593749301" fill="#ff920d" stroke="none" /><path d="M 88.72937992617639 117.7192867562869 l -9.430681390393747 14.826597540242892 a38.57173144876325,38.57173144876325 0 0,0 -0.5556429977130968,-0.3601610780293836 l 9.683810020363854 -14.662522620509614" fill="#ffd914" stroke="none" /><path d="M 88.1277618465304 117.32195027204791 l -9.044715709851747 13.196510525277494 a36.998586572438164,36.998586572438164 0 0,0 -0.5208078004973872,-0.36356429271930274 l 9.2699186015229 -13.039301416753064" fill="#ffc512" stroke="none" /><path d="M 87.83215693770417 117.11559508785305 l -11.436912560320458 16.08744979989014 a40.73851590106007,40.73851590106007 0 0,0 -0.5664962024901036,-0.4100995636614385 l 11.711389773184516 -15.888749464855636" fill="#fff417" stroke="none" /><path d="M 87.2517909369889 116.68781488649013 l -4.684854213968745 6.132624551925699 a28.717314487632507,28.717314487632507 0 0,0 -0.38917438666489973,-0.30262435697085877 l 4.789438545268873 -6.051299143334046" fill="#ff5507" stroke="none" /><path d="M 86.96720088162412 116.46651593811092 l -6.134165521440521 7.7503177489624555 a30.88409893992933,30.88409893992933 0 0,0 -0.41288985645985876,-0.3325948414246732 l 6.266306148255642 -7.643874613744371" fill="#ff730a" stroke="none" /><path d="M 86.68645165197938 116.24036423190432 l -17.594583329186257 21.46253082237533 a48.75265017667844,48.75265017667844 0 0,0 -0.6426659450729205,-0.5361347885862235 l 17.96042360842107 -21.157333849877237" fill="#abff21" stroke="none" /><path d="M 86.13680546590413 115.77377054828092 l -5.3199396692678835 6.053114775771408 a29.058657243816256,29.058657243816256 0 0,0 -0.37186083214122956,-0.33252024910836575 l 5.423065528232484 -5.96089899677966" fill="#ff5a08" stroke="none" /><path d="M 85.86807049272751 115.53346607816431 l -7.560332605657439 8.310129908954332 a32.23462897526502,32.23462897526502 0 0,0 -0.40611062664739445,-0.37588993314521313 l 7.7018730036188 -8.179122229676741" fill="#ff860c" stroke="none" /><path d="M 85.60350026404147 115.28858382429668 l -2.8487773329105215 3.0253028062212524 a25.15547703180212,25.15547703180212 0 0,0 -0.3118410858362488,-0.29873670610038 l 2.900290904612085 -2.97595396981529" fill="#ff2303" stroke="none" /><path d="M 84.58840730492382 114.26474011684316 l -14.453133220046709 13.377604335724987 a40.69399293286219,40.69399293286219 0 0,0 -0.47011696416365045,-0.5167408959864718 l 14.68064788505224 -13.127525864180843" fill="#fff417" stroke="none" /><path d="M 84.3458050057657 113.99807769240083 l -9.458895208530267 8.458202421910038 a33.68904593639576,33.68904593639576 0 0,0 -0.38179143803109183,-0.4344085719917658 l 9.602697710519951 -8.294581572106972" fill="#ff990e" stroke="none" /><path d="M 84.1078160697243 113.72728997021213 l -1.403903174052624 1.2126581245770423 a22.85512367491166,22.85512367491166 0 0,0 -0.2539154573844857,-0.29911177033758746 l 1.4245131949442218 -1.1883795717899004" fill="#ff0100" stroke="none" /><path d="M 83.8745106332314 113.45245675266167 l -10.199514475800635 8.508797734015692 a34.28268551236749,34.28268551236749 0 0,0 -0.3731150866139682,-0.45513973800457674 l 10.344076381653233 -8.332455714312621" fill="#ffa10e" stroke="none" /><path d="M 83.20337586046588 112.60449989151573 l -9.662510282389233 7.250927852787137 a33.08056537102473,33.08056537102473 0 0,0 -0.3369460058993936,-0.45713196935665523 l 9.785558307872458 -7.083989574161602" fill="#ff910d" stroke="none" /><path d="M 82.98947788004972 112.3143062007846 l -16.301249466185574 11.800847497006309 a41.1243816254417,41.1243816254417 0 0,0 -0.40906011446888985,-0.575394279002095 l 16.501424679184424 -11.51927599129471" fill="#fff917" stroke="none" /><path d="M 82.37810715431573 111.42229804090323 l -16.102549434254247 10.43747799780061 a40.189399293286215,40.189399293286215 0 0,0 -0.37028274987780213,-0.5821459851379196 l 16.279349875757937 -10.159518337984018" fill="#ffed16" stroke="none" /><path d="M 82.18462484594161 111.11811171558189 l -5.7412092369262355 3.582939181841233 a27.76749116607774,27.76749116607774 0 0,0 -0.24889197067416105,-0.40654632913848326 l 5.801869172055801 -3.4838557365781924" fill="#ff4806" stroke="none" /><path d="M 81.99639281039703 110.81064883170644 l -5.776422377441519 3.4685756675581114 a27.73780918727915,27.73780918727915 0 0,0 -0.2416178344646359,-0.4103199056249743 l 5.835113922035925 -3.3689045936395785" fill="#ff4806" stroke="none" /><line stroke="#e1ed5e" stroke-width="0.3" x1="26.387840678322732" x2="22.057713659400548" y1="142.50000000000003" y2="145.00000000000006" /><path d="M 25.521815274538298 143.00000000000003 a86.0,86.0 0 0,1 -11.493303480769221,-40.785679425670985" fill="none" id="id21" stroke="none" /><text fill="#e1ed5e" style="font-size:6.75px; font-family:Arial;" text-anchor="middle"><textPath startOffset="21.40746469413373" xlink:href="#id21">September</textPath></text><path d="M 81.81346652052679 110.50000000000001 l -14.934806998691071 8.622614840989407 a38.2452296819788,38.2452296819788 0 0,0 -0.3233846066006418,-0.5713896137488083 l 15.08062497031309 -8.364968457141478" fill="#ffd513" stroke="none" /><path d="M 81.63589988554817 110.18625677009913 l -10.732940490919903 5.953381165280552 a33.27349823321555,33.27349823321555 0 0,0 -0.27277083121019857,-0.5018676066077569 l 10.83355667174543 -5.7682587251982085" fill="#ff940d" stroke="none" /><path d="M 81.4637452351635 109.86951160357371 l -7.283503639045293 3.8780554428176575 a29.251590106007065,29.251590106007065 0 0,0 -0.23219066858683746,-0.44525622250249103 l 7.34900237660708 -3.752452977210664" fill="#ff5d08" stroke="none" /><path d="M 81.1358732173502 109.22738970284198 l -19.63735600766302 9.60561486380652 a42.86077738515901,42.86077738515901 0 0,0 -0.3176202848139747,-0.6637042360678288 l 19.799355550436907 -9.267098125673588" fill="#f0ff19" stroke="none" /><path d="M 80.83023694016515 108.57439118712176 l -4.077808255130945 1.82395176489304 a25.467137809187278,25.467137809187278 0 0,0 -0.17507580103101267,-0.40060769488667314 l 4.108517938178926 -1.7536820002305173" fill="#ff2703" stroke="none" /><path d="M 80.68587082218212 108.24405325689762 l -14.782474840690291 6.309759489201498 a37.07279151943463,37.07279151943463 0 0,0 -0.2448113359348828,-0.5874580858061338 l 14.88861202116166 -6.055068893954083" fill="#ffc612" stroke="none" /><path d="M 80.5471966667186 107.91128576633889 l -20.112686414551714 8.179654470780076 a42.71236749116608,42.71236749116608 0 0,0 -0.27039232045759287,-0.6815652808900063 l 20.25013740997543 -7.833188172676504" fill="#f2ff19" stroke="none" /><path d="M 80.28708602549918 107.23885506374661 l -10.392815424012449 3.81638577919079 a32.07137809187279,32.07137809187279 0 0,0 -0.18534176150886122,-0.5184338934705502 l 10.456797355565252 -3.6374169293393184" fill="#ff840c" stroke="none" /><path d="M 80.05021161711548 106.5578916946017 l -9.460288342696478 3.109784683447163 a30.958303886925798,30.958303886925798 0 0,0 -0.16162487836653458,-0.5062876294839272 l 9.512277936840267 -2.9469280202718444" fill="#ff740a" stroke="none" /><path d="M 79.83685265289637 105.86919833188381 l -19.02318141935219 5.537370864356806 a40.812720848056536,40.812720848056536 0 0,0 -0.19003473271725696,-0.6743662256302204 l 19.115434644144024 -5.20999671482359" fill="#fff517" stroke="none" /><path d="M 79.73907114497094 105.5222062557868 l -30.84243162807957 8.406241890434467 a52.967491166077735,52.967491166077735 0 0,0 -0.23157013640134932,-0.8793095264264786 l 30.98219124528565 -7.875551859635185" fill="#7cff26" stroke="none" /><path d="M 79.64726062577567 105.17358676015961 l -20.093835269110524 5.107774349076303 a41.732862190812725,41.732862190812725 0 0,0 -0.1705333395308711,-0.695834219930759 l 20.178556135157688 -4.762084304537445" fill="#feff18" stroke="none" /><path d="M 79.56144815229197 104.8234425847677 l -1.9788562566332148 0.467004688419205 a23.03321554770318,23.03321554770318 0 0,0 -0.08751430590989522,-0.38560417931210683 l 1.9865814241007764 -0.4329661751680719" fill="#ff0400" stroke="none" /><path d="M 79.48165901384964 104.47187691870673 l -17.197704883091404 3.7481597353965954 a38.60141342756184,38.60141342756184 0 0,0 -0.1355503138839731,-0.6486573217008134 l 17.259512907799742 -3.4523859624103728" fill="#ffd914" stroke="none" /><path d="M 79.407916724674 104.11899336999214 l -3.6236245480962346 0.7248263951434928 a24.695406360424027,24.695406360424027 0 0,0 -0.07958236723850946,-0.4164085736993389 l 3.635533207616901 -0.6625152564108393" fill="#ff1c02" stroke="none" /><path d="M 79.34024301695615 103.76489593502545 l -12.103843490419326 2.2057234841951248 a33.303180212014134,33.303180212014134 0 0,0 -0.09766583006885242,-0.5633105541527844 l 12.139924137980412 -1.9976198971217474" fill="#ff940d" stroke="none" /><path d="M 79.2786578344484 103.40968896794605 l -10.9683994925782 1.8048459625382252 a32.11590106007067,32.11590106007067 0 0,0 -0.08484486997370252,-0.544764928834164 l 10.99776585469017 -1.616292851772611" fill="#ff840c" stroke="none" /><path d="M 79.22317932658666 103.0534771498775 l -14.66858222808475 2.1557764471573275 a35.82614840989399,35.82614840989399 0 0,0 -0.08420080355881054,-0.6092350699681931 l 14.703427548198773 -1.9036530689890487" fill="#ffb610" stroke="none" /><path d="M 79.17382384314188 102.69636545807758 l -8.168570860110433 1.0575850383272498 a29.236749116607776,29.236749116607776 0 0,0 -0.06016910958902275,-0.498286541668483 l 8.185522055959117 -0.9172048197353675" fill="#ff5d08" stroke="none" /><path d="M 79.13060592940153 102.33845913500099 l -11.916940218405346 1.3353180078309494 a32.99151943462898,32.99151943462898 0 0,0 -0.058234128277919676,-0.5633623653463206 l 11.938106739164931 -1.1305511202016973" fill="#ff900d" stroke="none" /><path d="M 79.0935383218832 101.97986365728391 l -30.99770784500993 2.935515161117774 a52.13639575971732,52.13639575971732 0 0,0 -0.07673081516808239,-0.8917283820277735 l 31.043532282875756 -2.4029657317143385" fill="#85ff25" stroke="none" /><path d="M 79.06263194458094 101.62068470465958 l -11.408276163058725 0.8830727260017895 a32.44240282685512,32.44240282685512 0 0,0 -0.03821412077255515,-0.5556249291862936 l 11.421754244996345 -0.6871043726611527" fill="#ff890c" stroke="none" /><path d="M 79.03789590574601 101.26102812881392 l -8.32558480633975 0.5008465076985316 a29.340636042402828,29.340636042402828 0 0,0 -0.02592931282286631,-0.5030217416920164 l 8.332955708619188 -0.3578529726297844" fill="#ff5e08" stroke="none" /><path d="M 79.00696218219943 100.54070618675478 l -12.491970206776033 0.3217488404576082 a33.49611307420495,33.49611307420495 0 0,0 -0.009871094616120688,-0.574941774316501 l 12.49565273299082 -0.10726015017205488" fill="#ff970d" stroke="none" /><line stroke="#e1ed5e" stroke-width="0.3" x1="15.003131293944662" x2="10.003315487706104" y1="100.72959589197737" y2="100.7725132973878" /><path d="M 14.003168132696942 100.73817937305945 a86.0,86.0 0 0,1 10.791469493833604,-42.45332614584628" fill="none" id="id22" stroke="none" /><text fill="#e1ed5e" style="font-size:6.75px; font-family:Arial;" text-anchor="middle"><textPath startOffset="22.145653131862435" xlink:href="#id22">October</textPath></text><path d="M 79.00077361379809 100.18025310272382 l -12.376929191584729 0.10624105135806859 a33.3773851590106,33.3773851590106 0 0,0 0.0,-0.5729883081637677 l 12.376929191584729 0.10624105135806404" fill="#ff950d" stroke="none" /><path d="M 79.00077361379809 99.81974689727619 l -7.984158159559454 -0.0685343952405737 a28.98445229681979,28.98445229681979 0 0,0 0.008541536457812896,-0.49750167711126553 l 7.981805191502976 0.2055829883208916" fill="#ff5908" stroke="none" /><path d="M 79.01933749520258 99.09900007780938 l -25.562305412205486 -1.0977553822308366 a46.58586572438163,46.58586572438163 0 0,0 0.04116950579210297,-0.7986774138448771 l 25.539694316956812 1.5364045894524256" fill="#c3ff1e" stroke="none" /><line stroke="#e1ed5e" stroke-width="0.3" x1="26.387840678322718" x2="22.05771365940052" y1="57.49999999999999" y2="54.99999999999999" /><path d="M 25.521815274538284 56.99999999999999 a86.0,86.0 0 0,1 29.574782752854787,-30.34633250058573" fill="none" id="id23" stroke="none" /><text fill="#e1ed5e" style="font-size:6.75px; font-family:Arial;" text-anchor="middle"><textPath startOffset="21.40746469413373" xlink:href="#id23">November</textPath></text><line stroke="#e1ed5e" stroke-width="0.3" x1="56.869717070023135" x2="54.33264160355391" y1="26.7553504044142" y2="22.446841604673864" /><path d="M 56.362301976729285 25.89364864446614 a86.0,86.0 0 0,1 42.16139366436587,-11.88097634709845" fill="none" id="id24" stroke="none" /><text fill="#e1ed5e" style="font-size:6.75px; font-family:Arial;" text-anchor="middle"><textPath startOffset="22.145653131862474" xlink:href="#id24">December</textPath></text></svg>