<?xml version="1.0" encoding="utf-8" ?>
<svg baseProfile="full" height="200mm" version="1.1" viewBox="0,0,200,200" width="200mm" xmlns="http://www.w3.org/2000/svg" xmlns:ev="http://www.w3.org/2001/xml-events" xmlns:xlink="http://www.w3.org/1999/xlink"><defs /><rect fill="#1a1a1a" height="200" width="200" x="0" y="0" /><text alignment-baseline="middle" fill="#e1ed5e" style="dominant-baseline: central; font-size:9.0px; font-family:Arial;" text-anchor="middle" x="100.0" y="100.0">2023</text><line stroke="#e1ed5e" stroke-width="0.3" x1="100.0" x2="100.0" y1="15.0" y2="10.0" /><path d="M 100.0 14.0 a86.0,86.0 0 0,1 42.46469731375804,11.215312516191453" fill="none" id="id1" stroke="none" /><text fill="#e1ed5e" style="font-size:6.75px; font-family:Arial;" text-anchor="middle"><textPath startOffset="22.20632615414155" xlink:href="#id1">January</textPath></text><line stroke="#e1ed5e" stroke-width="0.3" x1="143.23703022742887" x2="145.7803849466894" y1="26.81831364943548" y2="22.513508569990506" /><path d="M 143.74570117128098 25.957352633546492 a86.0,86.0 0 0,1 28.547481713284135,27.462654790039103" fill="none" id="id2" stroke="none" /><text fill="#e1ed5e" style="font-size:6.75px; font-family:Arial;" text-anchor="middle"><textPath startOffset="19.985693538727396" xlink:href="#id2">February</textPath></text><line stroke="#e1ed5e" stroke-width="0.3" x1="172.23445277983987" x2="176.4835382374775" y1="55.19839476539836" y2="52.563006222186495" /><path d="M 173.08426987136738 54.67131705675599 a86.0,86.0 0 0,1 12.851231095245387,41.99856678651699" fill="none" id="id3" stroke="none" /><text fill="#e1ed5e" style="font-size:6.75px; font-family:Arial;" text-anchor="middle"><textPath startOffset="22.20632615414155" xlink:href="#id3">March</textPath></text><path d="M 120.78858239683441 97.02765380044208 l 7.436442422861762 -1.0632606375887486 a28.512070226773957,28.512070226773957 0 0,0 0.06528449579272569,0.486445323429395 l -7.453642917712323 0.9350969720946891" fill="#ff2b04" stroke="none" /><path d="M 120.83666639777658 97.38593545837742 l 12.849531655688113 -1.6120383383963655 a33.950256035113384,33.950256035113384 0 0,0 0.06775444027949415,0.5804786673753295 l -12.875376448971195 1.3906159326961833" fill="#ff7b0b" stroke="none" /><path d="M 120.87857604477298 97.74499172005257 l 10.492744508236315 -1.1332777529801639 a31.553767373811265,31.553767373811265 0 0,0 0.05367577457842158,0.5405077248961891 l -10.510697408496965 0.9524944973795397" fill="#ff5808" stroke="none" /><line stroke="#e1ed5e" stroke-width="0.3" x1="184.98032266829074" x2="189.97916517819016" y1="98.17113171792111" y2="98.06355123074" /><path d="M 185.9800911702706 98.14961562048488 a86.0,86.0 0 0,1 -9.607161424134198,41.387399972396054" fill="none" id="id4" stroke="none" /><text fill="#e1ed5e" style="font-size:6.75px; font-family:Arial;" text-anchor="middle"><textPath startOffset="21.466115282336823" xlink:href="#id4">April</textPath></text><path d="M 120.13307415673323 105.97154293290107 l 18.601369904867635 5.5172338875304 a40.40234089246525,40.40234089246525 0 0,0 -0.20349933307159546,0.665047594870585 l -18.503643799289907 -5.836608454953042" fill="#ffd513" stroke="none" /><line stroke="#e1ed5e" stroke-width="0.3" x1="174.80103733775053" x2="179.2010983576182" y1="140.37084112569926" y2="142.7455964860345" /><path d="M 175.68104954172406 140.8457921977663 a86.0,86.0 0 0,1 -30.038265399797805,32.042727171017184" fill="none" id="id5" stroke="none" /><text fill="#e1ed5e" style="font-size:6.75px; font-family:Arial;" text-anchor="middle"><textPath startOffset="22.206326154141568" xlink:href="#id5">May</textPath></text><path d="M 116.71984013943494 112.70617746262583 l 10.163999382494827 7.724091785985415 a33.76591075347476,33.76591075347476 0 0,0 -0.35565663186151103,0.4597341396774474 l -10.029535933415248 -7.897903919776115" fill="#ff790b" stroke="none" /><path d="M 114.55890576462653 115.13401014063108 l 9.105972515549148 9.46567569147006 a34.13460131675201,34.13460131675201 0 0,0 -0.42694936063176697,0.40370726931277434 l -8.941687320526572 -9.621017597528756" fill="#ff7e0b" stroke="none" /><path d="M 112.04921762599082 117.19931262002967 l 2.9351788364703317 4.189737456086233 a26.115581565471835,26.115581565471835 0 0,0 -0.3703974368259681,0.2547627345130504 l -2.8626245150214804 -4.239640979964378" fill="#ff0601" stroke="none" /><path d="M 111.7513745106137 117.40417183066458 l 3.3010444857905363 4.888955364283247 a26.89904901243599,26.89904901243599 0 0,0 -0.3859697165371784,0.2557996818354802 l -3.216400070513394 -4.945053067210046" fill="#ff1302" stroke="none" /><path d="M 111.45004920935366 117.60387380957326 l 3.1912719449625078 4.906419840122467 a26.852962692026335,26.852962692026335 0 0,0 -0.3896469714864415,0.248691132711033 l -3.1063431714291356 -4.960625401657309" fill="#ff1202" stroke="none" /><line stroke="#e1ed5e" stroke-width="0.3" x1="143.8653032363475" x2="146.44561519142675" y1="172.8068346515853" y2="177.08958963109032" /><path d="M 144.38136562736335 173.6633856474863 a86.0,86.0 0 0,1 -40.68145358897372,12.25698825130547" fill="none" id="id6" stroke="none" /><text fill="#e1ed5e" style="font-size:6.75px; font-family:Arial;" text-anchor="middle"><textPath startOffset="21.466115282336833" xlink:href="#id6">June</textPath></text><path d="M 110.8373102113329 117.98757091392108 l 9.251749097750919 15.35588533763416 a38.927578639356256,38.927578639356256 0 0,0 -0.5769291988398535,0.3408599398739128 l -8.986052027882684 -15.512863849801821" fill="#ffc111" stroke="none" /><path d="M 109.89434966115114 118.52300852407294 l 16.719786186729433 31.300767879011314 a56.48646671543526,56.48646671543526 0 0,0 -0.8615775796708673,0.4507366690126382 l -16.17851770453207 -31.58393396696867" fill="#65ff29" stroke="none" /><path d="M 109.2508944713604 118.85261126421891 l 5.156680019880484 10.508917178737972 a32.70592538405267,32.70592538405267 0 0,0 -0.5075450839996375,0.24365248378378687 l -4.975022267880613 -10.596123939021318" fill="#ff6909" stroke="none" /><path d="M 108.59647513512805 119.15986991738527 l 8.772555094004115 19.55231787472747 a42.43013899049012,42.43013899049012 0 0,0 -0.6689400852928193,0.29324367505538884 l -8.43469433405354 -19.700426103077316" fill="#ffef16" stroke="none" /><path d="M 107.93186726928326 119.44442032107085 l 2.7851472489070717 6.827594553119245 a28.37381126554499,28.37381126554499 0 0,0 -0.4538173903077345,0.18058330532698663 l -2.667208782557471 -6.8745247028523" fill="#ff2904" stroke="none" /><path d="M 107.59598834532513 119.57807347666477 l 2.6338686727755016 6.788593144066645 a28.281638624725677,28.281638624725677 0 0,0 -0.4553744868912466,0.1721836660963369 l -2.5166239651239803 -6.832925060269613" fill="#ff2803" stroke="none" /><path d="M 106.91757812671514 119.82793768551818 l 1.5484849354607406 4.4384410620106545 a25.70080468178493,25.70080468178493 0 0,0 -0.41896015859255253,0.14213403285986845 l -1.471855043930961 -4.464438081768646" fill="#ff0000" stroke="none" /><path d="M 105.88484417918355 120.15858648285463 l 1.3302244706420758 4.55669584725829 a25.746891002194587,25.746891002194587 0 0,0 -0.42650194751768894,0.12053371058130366 l -1.2515913550197812 -4.578918351178112" fill="#ff0100" stroke="none" /><path d="M 105.18746579009965 120.34920634021253 l 4.33743481937374 17.014735074515663 a38.558888076079,38.558888076079 0 0,0 -0.6445700477648427,0.15841963542925003 l -4.043911486865687 -17.086875968258944" fill="#ffbc11" stroke="none" /><path d="M 104.48393922423573 120.51570834832081 l 1.2890915253289252 5.898078552223905 a27.03730797366496,27.03730797366496 0 0,0 -0.4555252581450583,0.09545974683342173 l -1.1873748057544888 -5.919394279783868" fill="#ff1502" stroke="none" /><path d="M 104.13013068566511 120.58985236759428 l 5.755595432474051 28.693247081395093 a50.26481346013168,50.26481346013168 0 0,0 -0.8497922202789929,0.16286470153899948 l -5.260835597623354 -28.78806898128256" fill="#adff20" stroke="none" /><path d="M 103.7750983002368 120.6578951692458 l 3.5376012601341285 19.358276307098663 a40.67885881492319,40.67885881492319 0 0,0 -0.6898960669656267,0.11994727437920676 l -3.203856221696452 -19.416302159998878" fill="#ffd814" stroke="none" /><path d="M 103.41894727170886 120.7198165907248 l 4.479396169444454 27.146445877094454 a48.513533284564744,48.513533284564744 0 0,0 -0.825109248518144,0.12886509538978785 l -4.011451057317793 -27.21952927983135" fill="#c2ff1e" stroke="none" /><path d="M 102.70371172650421 120.8252237178851 l 2.183538951031928 16.818615204495348 a37.959765910753475,37.959765910753475 0 0,0 -0.6487009053694508,0.07854864558863048 l -1.893710622611097 -16.853709378809327" fill="#ffb410" stroke="none" /><path d="M 102.34483914955558 120.86867818915974 l 2.969214753387508 26.425517151013544 a47.59180687637162,47.59180687637162 0 0,0 -0.8148791629230746,0.08446555707685477 l -2.5139029938588306 -26.472712076546156" fill="#cdff1d" stroke="none" /><path d="M 101.26447882468166 120.96189622390904 l 0.5022765192407774 8.326488404961669 a29.341623994147767,29.341623994147767 0 0,0 -0.5044131597148895,0.02607239874483861 l -0.35887529111240835 -8.33390061046871" fill="#ff3805" stroke="none" /><line stroke="#e1ed5e" stroke-width="0.3" x1="102.19456741930631" x2="102.32365962044197" y1="184.97166512339345" y2="189.96999836594603" /><path d="M 102.22038585953345 185.97133177190398 a86.0,86.0 0 0,1 -42.740103519485714,-10.115201625700543" fill="none" id="id7" stroke="none" /><text fill="#e1ed5e" style="font-size:6.75px; font-family:Arial;" text-anchor="middle"><textPath startOffset="22.20632615414155" xlink:href="#id7">July</textPath></text><path d="M 100.54218724476979 120.99299961872073 l 1.356459676015141 52.52089151135692 a73.53840526700805,73.53840526700805 0 0,0 -1.265702095452669,0.0217902094108725 l -0.45219789066980415 -52.536459198046956" fill="#3fffc0" stroke="none" /><path d="M 99.81925306533755 120.99922214144158 l -0.12732940605701357 14.79316087945006 a35.79370885149963,35.79370885149963 0 0,0 -0.6160613917703611,-0.010606055551980973 l 0.3819504877200426 -14.78877734661892" fill="#ff950d" stroke="none" /><path d="M 99.09653310690486 120.98055641714683 l -0.46792579393661826 10.866301348456442 a31.87637161667886,31.87637161667886 0 0,0 -0.547988118538413,-0.02832472638509954 l 0.6549019808885201 -10.856636815309141" fill="#ff5d08" stroke="none" /><path d="M 98.73552117531835 120.96189622390904 l -3.793436474044945 62.885688671727095 a84.0,84.0 0 0,0 -1.4425489568842798,-0.09948662193485935 l 4.875348191708155 -62.81107370527595" fill="#4dd2ff" stroke="none" /><path d="M 98.01472825383883 120.90594882070398 l -0.5751043244183072 6.056149036575549 a27.083394294074616,27.083394294074616 0 0,0 -0.4637288457822523,-0.048067390938181284 l 0.6792657668061528 -6.045352277181607" fill="#ff1502" stroke="none" /><path d="M 97.2962882734958 120.8252237178851 l -5.132503240876652 39.53288628230564 a60.864667154352595,60.864667154352595 0 0,0 -1.0378046245192212,-0.14383026446108219 l 5.812236456582704 -39.43868145235195" fill="#36ff2e" stroke="none" /><path d="M 96.93821686468263 120.77559828337769 l -7.1225094150030825 48.32948247340239 a69.85149963423555,69.85149963423555 0 0,0 -1.18802145440532,-0.1855445182828896 l 7.95336673301692 -48.1997196477724" fill="#3aff95" stroke="none" /><path d="M 96.58105272829116 120.7198165907248 l -5.769942469518879 34.96753246144998 a56.440380395025606,56.440380395025606 0 0,0 -0.957204739437958,-0.16642231347024383 l 6.370996180428887 -34.86303156945873" fill="#66ff29" stroke="none" /><path d="M 96.22490169976321 120.6578951692458 l -3.115077456230509 17.0461636802555 a38.32845647403072,38.32845647403072 0 0,0 -0.6479925396076232,-0.12418931245104024 l 3.408037610409827 -16.990017169455992" fill="#ffb911" stroke="none" /><path d="M 95.51606077576429 120.51570834832081 l -2.9717987835827038 13.597097120394041 a34.918068763716164,34.918068763716164 0 0,0 -0.5860912219678297,-0.13339245397067886 l 3.205410154943396 -13.543927932845676" fill="#ff890c" stroke="none" /><path d="M 95.16358092515715 120.4354850818985 l -4.468469123282019 18.880773707708705 a40.40234089246525,40.40234089246525 0 0,0 -0.6753861456659518,-0.16599348254140542 l 4.792808553691181 -18.801058966853272" fill="#ffd513" stroke="none" /><path d="M 94.81253420990036 120.34920634021253 l -10.15483427527918 39.83502279912856 a62.10899780541332,62.10899780541332 0 0,0 -1.0336994438281997,-0.273009418263072 l 10.83902416191887 -39.654322031561904" fill="#30ff37" stroke="none" /><line stroke="#e1ed5e" stroke-width="0.3" x1="58.666819895761336" x2="56.23545636021788" y1="174.27360380694188" y2="178.64263932499728" /><path d="M 58.180547188652646 175.14741091055294 a86.0,86.0 0 0,1 -31.652253787137756,-30.449443065178592" fill="none" id="id8" stroke="none" /><text fill="#e1ed5e" style="font-size:6.75px; font-family:Arial;" text-anchor="middle"><textPath startOffset="22.20632615414155" xlink:href="#id8">August</textPath></text><line stroke="#e1ed5e" stroke-width="0.3" x1="26.63291911575756" x2="22.317208475507996" y1="142.92168965132927" y2="145.44649492493687" /><path d="M 25.769776987707644 143.4266507060508 a86.0,86.0 0 0,1 -11.730757126820373,-40.83630448921669" fill="none" id="id9" stroke="none" /><text fill="#e1ed5e" style="font-size:6.75px; font-family:Arial;" text-anchor="middle"><textPath startOffset="21.46611528233685" xlink:href="#id9">September</textPath></text><line stroke="#e1ed5e" stroke-width="0.3" x1="15.007084014347285" x2="10.007500721073583" y1="101.09737516637583" y2="101.16192664675087" /><path d="M 14.007167355692545 101.11028546245083 a86.0,86.0 0 0,1 10.666146001902534,-42.60595125391555" fill="none" id="id10" stroke="none" /><text fill="#e1ed5e" style="font-size:6.75px; font-family:Arial;" text-anchor="middle"><textPath startOffset="22.20632615414155" xlink:href="#id10">October</textPath></text><line stroke="#e1ed5e" stroke-width="0.3" x1="26.266209847984243" x2="21.928928074336255" y1="57.711370442889674" y2="55.22380399835377" /><path d="M 25.398753493254645 57.213857153982495 a86.0,86.0 0 0,1 29.58750427330803,-30.492523968695096" fill="none" id="id11" stroke="none" /><text fill="#e1ed5e" style="font-size:6.75px; font-family:Arial;" text-anchor="middle"><textPath startOffset="21.46611528233685" xlink:href="#id11">November</textPath></text><line stroke="#e1ed5e" stroke-width="0.3" x1="56.762969772571076" x2="54.21961505331055" y1="26.818313649435495" y2="22.513508569990535" /><path d="M 56.25429882871897 25.957352633546506 a86.0,86.0 0 0,1 42.265352541879196,-11.944610805530505" fill="none" id="id12" stroke="none" /><text fill="#e1ed5e" style="font-size:6.75px; font-family:Arial;" text-anchor="middle"><textPath startOffset="22.20632615414155" xlink:href="#id12">December</textPath></text></svg>