<?xml version="1.0" encoding="utf-8" ?>
<svg baseProfile="full" height="200mm" version="1.1" viewBox="0,0,200,200" width="200mm" xmlns="http://www.w3.org/2000/svg" xmlns:ev="http://www.w3.org/2001/xml-events" xmlns:xlink="http://www.w3.org/1999/xlink"><defs /><rect fill="#1a1a1a" height="200" width="200" x="0" y="0" /><text alignment-baseline="middle" fill="#e1ed5e" style="dominant-baseline: central; font-size:9.0px; font-family:Arial;" text-anchor="middle" x="100.0" y="100.0">2025</text><line stroke="#e1ed5e" stroke-width="0.3" x1="100.0" x2="100.0" y1="15.0" y2="10.0" /><path d="M 100.0 14.0 a86.0,86.0 0 0,1 42.46469731375804,11.215312516191453" fill="none" id="id25" stroke="none" /><text fill="#e1ed5e" style="font-size:6.75px; font-family:Arial;" text-anchor="middle"><textPath startOffset="22.20632615414155" xlink:href="#id25">January</textPath></text><path d="M 100.0 79.0 l 0.0 -30.414512922465207 a51.41451292246521,51.41451292246521 0 0,0 0.8850163225131584,0.007617614897495521 l -0.5235358432406301 30.41000668417627" fill="#92ff23" stroke="none" /><path d="M 100.36148047927253 79.00311137660856 l 0.34567019986100617 -20.078535641851452 a41.081510934393634,41.081510934393634 0 0,0 0.7069411351257456,0.018258203840791472 l -0.6912379701816196 20.069610645868302" fill="#fff116" stroke="none" /><path d="M 100.72285384407766 79.0124445844662 l 0.09125490874539051 -2.6495224033526754 a23.651093439363816,23.651093439363816 0 0,0 0.4067528199829894,0.017515632055752812 l -0.13684856111771146 2.647559044772728" fill="#ff0000" stroke="none" /><path d="M 101.44485096284872 79.0497635885617 l 1.0958462074091162 -15.889692228556083 a36.92743538767395,36.92743538767395 0 0,0 0.6337623807336167,0.049192158239171224 l -1.369198777505074 15.868474808128447" fill="#ffbb11" stroke="none" /><path d="M 101.80526077348638 79.07773832637324 l 3.0847348604603186 -35.7508626411177 a56.88369781312127,56.88369781312127 0 0,0 0.9748101676730463,0.09256997136793178 l -3.699670155223609 35.69246712523459" fill="#57ff2a" stroke="none" /><path d="M 102.16513564639614 79.11191278185805 l 1.8186278540802496 -17.54516272299199 a38.639165009940356,38.639165009940356 0 0,0 0.6609749819120263,0.07426824068182691 l -2.1203695395020015 17.51125852883956" fill="#ffd213" stroke="none" /><path d="M 102.88285421437855 79.19881850522331 l 4.295624719039226 -30.995001054344172 a52.29125248508946,52.29125248508946 0 0,0 0.89052256861453,0.13123987790931685 l -4.828516268082412 30.916466692273886" fill="#88ff25" stroke="none" /><path d="M 103.2404852339499 79.25152402106235 l 4.828516268082412 -30.916466692273886 a52.29125248508946,52.29125248508946 0 0,0 0.8881315493261607,0.14654931544357871 l -5.359977023547447 30.828771113890685" fill="#88ff25" stroke="none" /><path d="M 103.59715602781102 79.31037775812273 l 0.9475609814810363 -5.450049596518366 a26.531809145129223,26.531809145129223 0 0,0 0.4492781322845059,0.08210270696144267 l -1.0412342348684431 5.432931408206184" fill="#ff2b04" stroke="none" /><path d="M 103.95276090670814 79.375362276772 l 2.785792726497081 -14.535654220445986 a35.80019880715706,35.80019880715706 0 0,0 0.6042282383338768,0.12120250032563393 l -3.0355873742980832 14.485547764043144" fill="#ffac10" stroke="none" /><path d="M 104.307194497241 79.44645832069477 l 2.1065006885115043 -10.052030324272533 a31.27037773359841,31.27037773359841 0 0,0 0.5258743530994187,0.114935765260821 l -2.279217765764451 10.01428106091584" fill="#ff6e0a" stroke="none" /><path d="M 105.01212808612495 79.60689891045804 l 6.730999050054483 -27.386759017864005 a49.20178926441352,49.20178926441352 0 0,0 0.8207118781007913,0.20921773164013766 l -7.2014198168403 27.266838290055" fill="#abff21" stroke="none" /><path d="M 105.36241919743992 79.69619591428918 l 6.428506513034344 -24.340345653446576 a46.17495029821073,46.17495029821073 0 0,0 0.7667286968560154,0.20957591619506807 l -6.846533099114071 24.22608319642521" fill="#cfff1d" stroke="none" /><path d="M 105.71112130821622 79.79150937346287 l 12.262447341696847 -43.38999975479144 a66.08946322067595,66.08946322067595 0 0,0 1.0920804877610635,0.31880824119620754 l -13.007518047181337 43.17249318467653" fill="#36ff70" stroke="none" /><path d="M 106.0581310904928 79.89281104454417 l 3.372319493713679 -11.19286860343465 a32.68986083499006,32.68986083499006 0 0,0 0.5373818154423611,0.16696714589858128 l -3.564486681866758 11.13316132265355" fill="#ff820c" stroke="none" /><path d="M 106.40334571778207 80.00007090966166 l 6.174200145376351 -19.284225862453475 a41.24850894632207,41.24850894632207 0 0,0 0.6743486513409375,0.2223221479758939 l -6.505231618959706 19.175089990218346" fill="#fff316" stroke="none" /><path d="M 106.74666289553966 80.11325718540242 l 4.888983350743943 -14.410969693679556 a36.21769383697813,36.21769383697813 0 0,0 0.5886547941851095,0.20537009915131213 l -5.136320148992326 14.324678741356037" fill="#ffb210" stroke="none" /><path d="M 107.4271985657038 80.35727306442388 l 11.576389016922029 -30.616099239546067 a53.731610337972164,53.731610337972164 0 0,0 0.8623074883606928,0.3345619087333325 l -12.10167967028239 30.412294626922186" fill="#78ff26" stroke="none" /><path d="M 107.76421540070413 80.48803036053334 l 15.320047286677644 -38.500258185229946 a62.43638170974155,62.43638170974155 0 0,0 0.9951649563231939,0.4059527727881852 l -15.980496112589226 38.23084452625818" fill="#31ff44" stroke="none" /><path d="M 108.09893153111575 80.62456947434976 l 14.265712398744638 -34.128491939813344 a57.990059642147116,57.990059642147116 0 0,0 0.917668509799706,0.3928977647309812 l -14.85106466633466 33.87787464711957" fill="#4bff2c" stroke="none" /><path d="M 108.43124777332544 80.76684994638697 l 13.208396114076425 -30.130660521365943 a53.8986083499006,53.8986083499006 0 0,0 0.8465107058834727,0.3798046785351057 l -13.725088938426678 29.898835512314307" fill="#77ff27" stroke="none" /><path d="M 108.76106565485865 80.91482961587045 l 1.6720920534123862 -3.642497727388543 a25.007952286282304,25.007952286282304 0 0,0 0.38967366089769545,0.18295700874480764 l -1.7345439256096795 3.613175736003732" fill="#ff1402" stroke="none" /><path d="M 109.08828744355905 81.06846463323043 l 9.829082245121523 -20.47466250402116 a43.711729622266404,43.711729622266404 0 0,0 0.6755101062426996,0.3314698754251112 l -10.180063618374655 20.302437468461218" fill="#ecff1a" stroke="none" /><path d="M 109.73455568895987 81.39251694778311 l 6.492929291542816 -12.411154202820617 a35.00695825049702,35.00695825049702 0 0,0 0.5315305735308372,0.2839252243106942 l -6.705604911601964 12.297550252008168" fill="#ffa20e" stroke="none" /><path d="M 110.05341064243156 81.56283822128135 l 6.915467360400236 -12.682421422339273 a35.44532803180915,35.44532803180915 0 0,0 0.5331583466756307,0.29670204268669437 l -7.132749796147903 12.561503982092399" fill="#ffa80f" stroke="none" /><line stroke="#e1ed5e" stroke-width="0.3" x1="143.23703022742887" x2="145.7803849466894" y1="26.81831364943548" y2="22.513508569990506" /><path d="M 143.74570117128098 25.957352633546492 a86.0,86.0 0 0,1 28.547481713284135,27.462654790039103" fill="none" id="id26" stroke="none" /><text fill="#e1ed5e" style="font-size:6.75px; font-family:Arial;" text-anchor="middle"><textPath startOffset="19.985693538727396" xlink:href="#id26">February</textPath></text><path d="M 110.68208982089419 81.91981866633111 l 7.485957578260843 -12.670504811368353 a35.716699801192846,35.716699801192846 0 0,0 0.5266307203793462,0.31728911651720726 l -7.702950364857826 12.539769085392532" fill="#ffab0f" stroke="none" /><path d="M 111.2981086023043 82.29822771554956 l 11.679953227034257 -18.300042918318546 a42.709741550695824,42.709741550695824 0 0,0 0.6163076195281936,0.40086361945288834 l -11.993227872346731 18.09628037470613" fill="#f9ff18" stroke="none" /><path d="M 111.60114157652 82.49532879139004 l 17.9091181593793 -27.022618674921745 a53.41848906560636,53.41848906560636 0 0,0 0.7620918359976733,0.5145678095702815 l -18.371614689783517 26.710338953052794" fill="#7cff26" stroke="none" /><path d="M 112.19680574252982 82.90503203632743 l 27.41250276725638 -38.42119539350267 a68.19781312127236,68.19781312127236 0 0,0 0.949750945797388,0.6900344531351126 l -28.06979902940756 37.94364170555088" fill="#39ff88" stroke="none" /><path d="M 112.48926042617603 83.11751280151076 l 7.970283492649116 -10.773913301620375 a34.40159045725646,34.40159045725646 0 0,0 0.47302816958865296,0.35627501043177295 l -8.154557815996153 10.635121701682754" fill="#ff9a0e" stroke="none" /><path d="M 112.77801427241765 83.33499621200491 l 14.632477576366929 -19.083582866570925 a45.04771371769384,45.04771371769384 0 0,0 0.6112919940019378,0.4771230974714537 l -14.958802125528297 18.828881379876247" fill="#dcff1b" stroke="none" /><path d="M 113.06298171725822 83.55741782278167 l 2.3632829746928388 -2.97470174577906 a24.79920477137177,24.79920477137177 0 0,0 0.3319510561683743,0.2684146684395765 l -2.414137429425704 2.933580980075354" fill="#ff1101" stroke="none" /><path d="M 113.89432698308785 84.25364557470407 l 13.452360319609902 -15.245476352125493 a41.33200795228628,41.33200795228628 0 0,0 0.529421714274294,0.4753200423824961 l -13.712793021480186 15.011657300973699" fill="#fff417" stroke="none" /><path d="M 114.16331599549186 84.49514656593476 l 38.716818079127826 -42.38404268755407 a78.4055666003976,78.4055666003976 0 0,0 0.9886274239230172,0.9188214460274853 l -39.44065338684569 41.711316655451945" fill="#46fff6" stroke="none" /><path d="M 114.42810811169701 84.74124197986012 l 21.340978996227783 -22.569614248477276 a52.061630218687874,52.061630218687874 0 0,0 0.6458536684201083,0.6213107173109533 l -21.726315908260307 22.19892044440402" fill="#8bff24" stroke="none" /><path d="M 114.94478906791727 85.2469230424477 l 13.459223554207794 -13.286568313660416 a39.91252485089463,39.91252485089463 0 0,0 0.4784480395622817,0.49308276153894764 l -13.685935857473185 13.052921356571353" fill="#ffe215" stroke="none" /><path d="M 115.4437574822437 85.77008943001954 l 12.680460914844227 -11.683803310938236 a38.24254473161034,38.24254473161034 0 0,0 0.441895079911951,0.48795158421688484 l -12.879699635372212 11.463798939451802" fill="#ffcd13" stroke="none" /><path d="M 115.9244219780498 86.31012108654704 l 39.1462182422636 -33.65315164311052 a72.62326043737575,72.62326043737575 0 0,0 0.8067731368571761,0.9549649246921852 l -39.719701992607895 32.97432776878923" fill="#3effba" stroke="none" /><path d="M 116.38621287248628 86.86637796730983 l 17.46125268320606 -13.995271191892508 a43.37773359840954,43.37773359840954 0 0,0 0.4619644339222094,0.5866479178584356 l -17.699571197722232 13.692630880081035" fill="#f0ff19" stroke="none" /><path d="M 116.82858285166822 87.43820079747576 l 13.0312783712222 -9.727277911298595 a37.261431411530815,37.261431411530815 0 0,0 0.3792457620906331,0.5172907932866637 l -13.19678674582646 9.501524674340436" fill="#ffc011" stroke="none" /><path d="M 117.2510076193507 88.02491185347247 l 51.75302285805209 -35.92526443958259 a84.0,84.0 0 0,0 0.8143021373250665,1.1948879069183742 l -52.36374946104589 35.02909850939381" fill="#4dd2ff" stroke="none" /><path d="M 117.45458315368197 88.32363383020206 l 21.514595537341584 -14.392340010486521 a46.884691848906556,46.884691848906556 0 0,0 0.44295621966809207,0.6746527120339405 l -21.7591483923676 14.019869234474905" fill="#c6ff1e" stroke="none" /><path d="M 117.65298651832404 88.62581576622439 l 9.194994965806954 -5.924525386181331 a31.938369781312126,31.938369781312126 0 0,0 0.29379103155436165,0.4647068578501635 l -9.295613593607271 5.7653708806169615" fill="#ff780b" stroke="none" /><line stroke="#e1ed5e" stroke-width="0.3" x1="172.23445277983987" x2="176.4835382374775" y1="55.19839476539836" y2="52.563006222186495" /><path d="M 173.08426987136738 54.67131705675599 a86.0,86.0 0 0,1 12.851231095245387,41.99856678651699" fill="none" id="id27" stroke="none" /><text fill="#e1ed5e" style="font-size:6.75px; font-family:Arial;" text-anchor="middle"><textPath startOffset="22.20632615414155" xlink:href="#id27">March</textPath></text><path d="M 117.84615892207809 88.93136811851018 l 8.071572872311659 -5.0061903638945005 a30.498011928429424,30.498011928429424 0 0,0 0.2728616488109611,0.44851280650542147 l -8.156550319408844 4.866509784181997" fill="#ff6409" stroke="none" /><path d="M 118.21658344932153 89.55222093294921 l 21.150069054480664 -12.130224602699132 a45.381709741550694,45.381709741550694 0 0,0 0.38281062408573624,0.6809773850912108 l -21.355737319858832 11.764363707673127" fill="#d8ff1c" stroke="none" /><path d="M 118.3937258080291 89.86733742301442 l 10.47674442147184 -5.771387332617039 a32.961232604373755,32.961232604373755 0 0,0 0.2694846037117734,0.4993140430596895 l -10.57453712440208 5.59019230622489" fill="#ff860c" stroke="none" /><line stroke="#e1ed5e" stroke-width="0.3" x1="184.98032266829074" x2="189.97916517819016" y1="98.17113171792111" y2="98.06355123074" /><path d="M 185.9800911702706 98.14961562048488 a86.0,86.0 0 0,1 -9.607161424134198,41.387399972396054" fill="none" id="id28" stroke="none" /><text fill="#e1ed5e" style="font-size:6.75px; font-family:Arial;" text-anchor="middle"><textPath startOffset="21.466115282336823" xlink:href="#id28">April</textPath></text><line stroke="#e1ed5e" stroke-width="0.3" x1="174.80103733775053" x2="179.2010983576182" y1="140.37084112569926" y2="142.7455964860345" /><path d="M 175.68104954172406 140.8457921977663 a86.0,86.0 0 0,1 -30.038265399797805,32.042727171017184" fill="none" id="id29" stroke="none" /><text fill="#e1ed5e" style="font-size:6.75px; font-family:Arial;" text-anchor="middle"><textPath startOffset="22.206326154141568" xlink:href="#id29">May</textPath></text><line stroke="#e1ed5e" stroke-width="0.3" x1="143.8653032363475" x2="146.44561519142675" y1="172.8068346515853" y2="177.08958963109032" /><path d="M 144.38136562736335 173.6633856474863 a86.0,86.0 0 0,1 -40.68145358897372,12.25698825130547" fill="none" id="id30" stroke="none" /><text fill="#e1ed5e" style="font-size:6.75px; font-family:Arial;" text-anchor="middle"><textPath startOffset="21.466115282336833" xlink:href="#id30">June</textPath></text><line stroke="#e1ed5e" stroke-width="0.3" x1="102.19456741930631" x2="102.32365962044197" y1="184.97166512339345" y2="189.96999836594603" /><path d="M 102.22038585953345 185.97133177190398 a86.0,86.0 0 0,1 -42.740103519485714,-10.115201625700543" fill="none" id="id31" stroke="none" /><text fill="#e1ed5e" style="font-size:6.75px; font-family:Arial;" text-anchor="middle"><textPath startOffset="22.20632615414155" xlink:href="#id31">July</textPath></text><line stroke="#e1ed5e" stroke-width="0.3" x1="58.666819895761336" x2="56.23545636021788" y1="174.27360380694188" y2="178.64263932499728" /><path d="M 58.180547188652646 175.14741091055294 a86.0,86.0 0 0,1 -31.652253787137756,-30.449443065178592" fill="none" id="id32" stroke="none" /><text fill="#e1ed5e" style="font-size:6.75px; font-family:Arial;" text-anchor="middle"><textPath startOffset="22.20632615414155" xlink:href="#id32">August</textPath></text><line stroke="#e1ed5e" stroke-width="0.3" x1="26.63291911575756" x2="22.317208475507996" y1="142.92168965132927" y2="145.44649492493687" /><path d="M 25.769776987707644 143.4266507060508 a86.0,86.0 0 0,1 -11.730757126820373,-40.83630448921669" fill="none" id="id33" stroke="none" /><text fill="#e1ed5e" style="font-size:6.75px; font-family:Arial;" text-anchor="middle"><textPath startOffset="21.46611528233685" xlink:href="#id33">September</textPath></text><line stroke="#e1ed5e" stroke-width="0.3" x1="15.007084014347285" x2="10.007500721073583" y1="101.09737516637583" y2="101.16192664675087" /><path d="M 14.007167355692545 101.11028546245083 a86.0,86.0 0 0,1 10.666146001902534,-42.60595125391555" fill="none" id="id34" stroke="none" /><text fill="#e1ed5e" style="font-size:6.75px; font-family:Arial;" text-anchor="middle"><textPath startOffset="22.20632615414155" xlink:href="#id34">October</textPath></text><line stroke="#e1ed5e" stroke-width="0.3" x1="26.266209847984243" x2="21.928928074336255" y1="57.711370442889674" y2="55.22380399835377" /><path d="M 25.398753493254645 57.213857153982495 a86.0,86.0 0 0,1 29.58750427330803,-30.492523968695096" fill="none" id="id35" stroke="none" /><text fill="#e1ed5e" style="font-size:6.75px; font-family:Arial;" text-anchor="middle"><textPath startOffset="21.46611528233685" xlink:href="#id35">November</textPath></text><line stroke="#e1ed5e" stroke-width="0.3" x1="56.762969772571076" x2="54.21961505331055" y1="26.818313649435495" y2="22.513508569990535" /><path d="M 56.25429882871897 25.957352633546506 a86.0,86.0 0 0,1 42.265352541879196,-11.944610805530505" fill="none" id="id36" stroke="none" /><text fill="#e1ed5e" style="font-size:6.75px; font-family:Arial;" text-anchor="middle"><textPath startOffset="22.20632615414155" xlink:href="#id36">December</textPath></text></svg>