<?xml version="1.0" encoding="utf-8" ?>
<svg baseProfile="full" height="200mm" version="1.1" viewBox="0,0,200,200" width="200mm" xmlns="http://www.w3.org/2000/svg" xmlns:ev="http://www.w3.org/2001/xml-events" xmlns:xlink="http://www.w3.org/1999/xlink"><defs /><rect fill="#1a1a1a" height="200" width="200" x="0" y="0" /><text alignment-baseline="middle" fill="#e1ed5e" style="dominant-baseline: central; font-size:9.0px; font-family:Arial;" text-anchor="middle" x="100.0" y="100.0">2026</text><line stroke="#e1ed5e" stroke-width="0.3" x1="100.0" x2="100.0" y1="15.0" y2="10.0" /><path d="M 100.0 14.0 a86.0,86.0 0 0,1 42.46469731375804,11.215312516191453" fill="none" id="id37" stroke="none" /><text fill="#e1ed5e" style="font-size:6.75px; font-family:Arial;" text-anchor="middle"><textPath startOffset="22.20632615414155" xlink:href="#id37">January</textPath></text><path d="M 100.0 79.0 l 0.0 -15.794241573033709 a36.79424157303371,36.79424157303371 0 0,0 0.6333523846804483,0.005451463931428637 l -0.2718719054079199 15.79190148571084" fill="#ffc212" stroke="none" /><path d="M 100.36148047927253 79.00311137660856 l 0.5620209137004057 -32.64544340743585 a53.6502808988764,53.6502808988764 0 0,0 0.9232277395794037,0.023844248726190745 l -1.1238752884746772 32.6309323665673" fill="#75ff27" stroke="none" /><path d="M 101.08401301168833 79.027996857942 l 0.9348089735626883 -18.085407203965744 a39.109550561797754,39.109550561797754 0 0,0 0.6720100045487003,0.04053747865409661 l -1.2459810269510005 18.066636455931345" fill="#ffdf14" stroke="none" /><path d="M 101.44485096284872 79.0497635885617 l 1.0329060956320182 -14.977065075031032 a36.0126404494382,36.0126404494382 0 0,0 0.6180623297592436,0.047973532117815756 l -1.290558614753603 14.957066280724751" fill="#ffb811" stroke="none" /><path d="M 102.16513564639614 79.11191278185805 l 0.3542672792207154 -3.417783933867326 a24.436095505617978,24.436095505617978 0 0,0 0.41801234008734917,0.04696855695169553 l -0.41304632281778986 3.41117942344503" fill="#ff1702" stroke="none" /><path d="M 102.88285421437855 79.19881850522331 l 0.8765982267035931 -6.32507836182465 a27.385533707865168,27.385533707865168 0 0,0 0.46637696864043976,0.06873184193334315 l -0.9853441757726886 6.309052035730338" fill="#ff4206" stroke="none" /><path d="M 103.59715602781102 79.31037775812273 l 6.820450333630464 -39.228918576593145 a60.81741573033708,60.81741573033708 0 0,0 1.0298557026486215,0.18819954698704658 l -7.494701157381986 39.10570354825536" fill="#30ff34" stroke="none" /><path d="M 103.95276090670814 79.375362276772 l 3.56692258786513 -18.611418170188198 a39.9501404494382,39.9501404494382 0 0,0 0.6742700819898577,0.13525223524356927 l -3.886759079322113 18.54726197886742" fill="#ffea16" stroke="none" /><path d="M 104.66035177308747 79.52364482259891 l 1.760722790674903 -7.736151043147323 a28.933988764044944,28.933988764044944 0 0,0 0.4846805661373096,0.11470823060366273 l -1.893627043774736 7.704696900402791" fill="#ff5808" stroke="none" /><path d="M 105.01212808612495 79.60689891045804 l 0.5561209533762234 -2.2627176770699635 a23.33005617977528,23.33005617977528 0 0,0 0.3891576812502039,0.09920495790790101 l -0.5949875233114523 2.2528097229931947" fill="#ff0701" stroke="none" /><path d="M 107.08798089147638 80.2323363322302 l 6.4409039842489015 -17.963031450908787 a40.08286516853933,40.08286516853933 0 0,0 0.6474674428020627,0.2384677233865235 l -6.749153752823541 17.849500459715937" fill="#ffec16" stroke="none" /><path d="M 107.4271985657038 80.35727306442388 l 7.375041272405322 -19.504786437433022 a41.85252808988764,41.85252808988764 0 0,0 0.6716669787436411,0.26059635277993554 l -7.70969141614863 19.374947380762542" fill="#fcff18" stroke="none" /><path d="M 107.76421540070413 80.48803036053334 l 6.232091434694403 -15.661644169880898 a37.8560393258427,37.8560393258427 0 0,0 0.6033822378978999,0.24613476486429212 l -6.500757542180691 15.552048518833027" fill="#ffcf13" stroke="none" /><path d="M 108.09893153111575 80.62456947434976 l 6.523507349852363 -15.606473885478108 a37.91502808988764,37.91502808988764 0 0,0 0.599989507528862,0.2568841949492028 l -6.791180615171539 15.491870162566116" fill="#ffd013" stroke="none" /><path d="M 108.43124777332544 80.76684994638697 l 2.58147754857436 -5.888801561359046 a27.429775280898877,27.429775280898877 0 0,0 0.43080144638468315,0.1932880514320589 l -2.682461113425824 5.843493179410456" fill="#ff4306" stroke="none" /><path d="M 109.08828744355905 81.06846463323043 l 3.414490015662987 -7.11262038007143 a28.889747191011235,28.889747191011235 0 0,0 0.4464549072518006,0.21907348405608437 l -3.5364161899252196 7.052791735880513" fill="#ff5708" stroke="none" /><path d="M 109.41281617654863 81.2277094730956 l 7.786725741554971 -15.529324607228498 a38.372191011235955,38.372191011235955 0 0,0 0.5878976202907711,0.30114399518038876 l -8.052883849434497 15.392988086735608" fill="#ffd614" stroke="none" /><path d="M 110.36928655335952 81.73862282372117 l 16.165601227849816 -28.469281833805482 a53.73876404494382,53.73876404494382 0 0,0 0.8004600469777694,0.46367812533051933 l -16.653258007292912 28.186799551084913" fill="#74ff27" stroke="none" /><line stroke="#e1ed5e" stroke-width="0.3" x1="143.23703022742887" x2="145.7803849466894" y1="26.81831364943548" y2="22.513508569990506" /><path d="M 143.74570117128098 25.957352633546492 a86.0,86.0 0 0,1 28.547481713284135,27.462654790039103" fill="none" id="id38" stroke="none" /><text fill="#e1ed5e" style="font-size:6.75px; font-family:Arial;" text-anchor="middle"><textPath startOffset="19.985693538727396" xlink:href="#id38">February</textPath></text><path d="M 110.68208982089419 81.91981866633111 l 5.258528767167716 -8.900426344734468 a31.337780898876403,31.337780898876403 0 0,0 0.46206503461202264,0.2783890132727837 l -5.410955867997377 8.808590722003071" fill="#ff790b" stroke="none" /><path d="M 110.99172775467656 82.1063720568725 l 5.194826389675086 -8.456749723121352 a30.9248595505618,30.9248595505618 0 0,0 0.4511802229461826,0.28252901421754634 l -5.3396257649935315 8.366076367580861" fill="#ff730a" stroke="none" /><path d="M 111.2981086023043 82.29822771554956 l 5.839471861865141 -9.149230618929442 a31.853932584269664,31.853932584269664 0 0,0 0.45965675864182226,0.2989735420052103 l -5.996095646291243 9.047358152764703" fill="#ff800b" stroke="none" /><path d="M 111.60114157652 82.49532879139004 l 6.786341947500823 -10.239740952789399 a33.28441011235955,33.28441011235955 0 0,0 0.47485014376715945,0.32062093675695336 l -6.961596785674524 10.121408103733776" fill="#ff930d" stroke="none" /><path d="M 112.77801427241765 83.33499621200491 l 10.37316327170983 -13.528612625647702 a38.04775280898876,38.04775280898876 0 0,0 0.5163033761858635,0.4029829745815181 l -10.604499203055124 13.34805126184296" fill="#ffd213" stroke="none" /><path d="M 113.06298171725822 83.55741782278167 l 11.824567017939497 -14.88376996238372 a40.00912921348315,40.00912921348315 0 0,0 0.5355442975382975,0.4330395773331575 l -12.079014714042286 14.678024287786434" fill="#ffeb16" stroke="none" /><path d="M 113.6212207817346 84.01681056812373 l 11.947264576114135 -14.018963202537542 a39.41924157303371,39.41924157303371 0 0,0 0.5126494917255614,0.4445645874924289 l -12.18680786648646 13.811233621625442" fill="#ffe315" stroke="none" /><path d="M 114.16331599549186 84.49514656593476 l 9.528410620562639 -10.430933700726472 a35.127808988764045,35.127808988764045 0 0,0 0.4429317561802492,0.4116567949228977 l -9.706550260537734 10.265372319728934" fill="#ffac0f" stroke="none" /><path d="M 114.42810811169701 84.74124197986012 l 3.1409505018441517 -3.321780186968653 a25.571629213483146,25.571629213483146 0 0,0 0.31723037610678845,0.3051753704734329 l -3.197664121563358 3.267221729732918" fill="#ff2803" stroke="none" /><path d="M 115.19652480421416 85.50635884689758 l 21.89836299034231 -20.885499751521174 a51.26123595505618,51.26123595505618 0 0,0 0.6034977449653588,0.6437693166656471 l -22.254628057278133 20.50546101797747" fill="#8fff24" stroke="none" /><path d="M 115.4437574822437 85.77008943001954 l 14.890645381404914 -13.720271918948866 a41.24789325842697,41.24789325842697 0 0,0 0.47662207668325024,0.5262980014094603 l -15.1246110987042 13.461921130269857" fill="#fffa17" stroke="none" /><path d="M 115.68641384162765 86.03803664274999 l 8.371962443565325 -7.45160965695928 a32.20786516853933,32.20786516853933 0 0,0 0.36503495080476095,0.4172980514415464 l -8.498989257947935 7.3063960493147855" fill="#ff850c" stroke="none" /><path d="M 116.15771136456269 86.58626213691792 l 13.026020116936781 -10.81388417613639 a37.92977528089888,37.92977528089888 0 0,0 0.4127148022327784,0.5059395475898628 l -13.21023341124597 10.588060458938427" fill="#ffd013" stroke="none" /><path d="M 116.38621287248628 86.86637796730983 l 4.073538874199541 -3.264959409812024 a26.22050561797753,26.22050561797753 0 0,0 0.27924328982017693,0.35461062047155745 l -4.129136244613682 3.194356395387428" fill="#ff3104" stroke="none" /><path d="M 116.82858285166822 87.43820079747576 l 20.102120386718834 -15.005351435037737 a46.08497191011236,46.08497191011236 0 0,0 0.4690514999262061,0.6397857187686673 l -20.357434499158668 14.657103272597576" fill="#caff1d" stroke="none" /><line stroke="#e1ed5e" stroke-width="0.3" x1="172.23445277983987" x2="176.4835382374775" y1="55.19839476539836" y2="52.563006222186495" /><path d="M 173.08426987136738 54.67131705675599 a86.0,86.0 0 0,1 12.851231095245387,41.99856678651699" fill="none" id="id39" stroke="none" /><text fill="#e1ed5e" style="font-size:6.75px; font-family:Arial;" text-anchor="middle"><textPath startOffset="22.20632615414155" xlink:href="#id39">March</textPath></text><path d="M 117.84615892207809 88.93136811851018 l 8.133537317716767 -5.044622254976749 a30.570926966292134,30.570926966292134 0 0,0 0.27351400993866415,0.4495851166725563 l -8.219167125941656 4.903869365097112" fill="#ff6f0a" stroke="none" /><path d="M 118.3937258080291 89.86733742301442 l 19.427081190502648 -10.701913283557813 a43.17977528089888,43.17977528089888 0 0,0 0.35302941396652743,0.6541098882040456 l -19.60841870368764 10.365922412021309" fill="#ecff1a" stroke="none" /><path d="M 118.56541770881063 90.18545643968196 l 17.496341689061712 -9.249380237322207 a40.79073033707866,40.79073033707866 0 0,0 0.32281117126342573,0.6235684341487966 l -17.652962293485256 8.946839080913065" fill="#fff417" stroke="none" /><path d="M 118.73160827565052 90.50648371742162 l 6.498184331581007 -3.2933968002764917 a28.28511235955056,28.28511235955056 0 0,0 0.21636762300236181,0.4361839250414425 l -6.553911967536777 3.181053286736099" fill="#ff4f07" stroke="none" /><path d="M 119.04729006885535 91.15688171328212 l 4.587935739899851 -2.13004885698331 a26.058286516853933,26.058286516853933 0 0,0 0.1853832204534873,0.40846735279218754 l -4.6239212773166845 2.0507594953490598" fill="#ff2f04" stroke="none" /><path d="M 119.196687751892 91.48605970444005 l 2.143450388027266 -0.9506436144620998 a23.344803370786515,23.344803370786515 0 0,0 0.15975548196561543,0.3687376784546403 l -2.159496579835562 0.9136067914208568" fill="#ff0701" stroke="none" /><path d="M 119.47837535516314 92.15188598940014 l 10.450476665270106 -4.210645438271268 a32.26685393258427,32.26685393258427 0 0,0 0.20313743880536478,0.5169626245000166 l -10.521407653957171 4.030133808875466" fill="#ff860c" stroke="none" /><path d="M 119.61058180528143 92.48833698450437 l 15.93359771679116 -6.103226200090203 a38.0625,38.0625 0 0,0 0.2290916833408042,0.6138518141343334 l -16.03629398863359 5.828051248926537" fill="#ffd213" stroke="none" /><path d="M 119.7369772167798 92.82701384747503 l 10.783264237819305 -3.9189488951295126 a32.473314606741575,32.473314606741575 0 0,0 0.18640752532078608,0.5269991759891818 l -10.8491248439499 3.7327520927137163" fill="#ff890c" stroke="none" /><path d="M 119.97218684219823 93.5106431181261 l 7.181010999442059 -2.333251912583873 a28.55056179775281,28.55056179775281 0 0,0 0.14784366813536015,0.46870482991464363 l -7.220110151345625 2.20929691624281" fill="#ff5207" stroke="none" /><path d="M 120.08093135843002 93.85539295169968 l 2.2562844222955083 -0.6904052863258784 a23.359550561797754,23.359550561797754 0 0,0 0.11434400208923004,0.38551113159655664 l -2.2678343214964407 0.6514647679827918" fill="#ff0801" stroke="none" /><path d="M 120.18372546131832 94.20196356495316 l 6.392457993718092 -1.8363163147514945 a27.650983146067418,27.650983146067418 0 0,0 0.12747528454218343,0.45859642281563573 l -6.423120048826639 1.726008588516907" fill="#ff4606" stroke="none" /><path d="M 120.28053869075195 94.5502522615342 l 4.2583434470048 -1.1442939422761755 a25.409410112359552,25.409410112359552 0 0,0 0.10986988777209865,0.4233734963337997 l -4.277409666647202 1.0708240203935255" fill="#ff2603" stroke="none" /><path d="M 120.45610955862082 95.25157060432595 l 7.196987983756345 -1.6706201736184696 a28.388342696629213,28.388342696629213 0 0,0 0.1063962816159253,0.4769536682698873 l -7.224678652374307 1.5464883357986186" fill="#ff5007" stroke="none" /><path d="M 120.6074358757038 95.95851677861258 l 61.822307627111385 -12.124449664162288 a84.0,84.0 0 0,0 0.26605710436056285,1.4212876901497489 l -62.02185045538181 11.058483896549978" fill="#4dd2ff" stroke="none" /><path d="M 120.67395015179393 96.31383870115 l 2.5697255455530392 -0.45818156593851744 a23.610252808988765,23.610252808988765 0 0,0 0.06789424838913127,0.40071569726569073 l -2.5772316554623935 0.41388008035698887" fill="#ff0b01" stroke="none" /><path d="M 120.73433829027371 96.67025291283417 l 2.1549733616295716 -0.34606921973352733 a23.18258426966292,23.18258426966292 0 0,0 0.05988183673695265,0.3945464854772801 l -2.160611091805824 0.3089236218641651" fill="#ff0500" stroke="none" /><path d="M 120.83666639777658 97.38593545837742 l 2.2241385480772755 -0.2790293611844324 a23.241573033707866,23.241573033707866 0 0,0 0.04638314864209542,0.39738249185395513 l -2.22861204972296 0.24070313100562454" fill="#ff0601" stroke="none" /><path d="M 120.87857604477298 97.74499172005257 l 10.908469506538697 -1.17817848334332 a31.971910112359552,31.971910112359552 0 0,0 0.05438707269728107,0.5476703998825737 l -10.927133704918207 0.9902325527563114" fill="#ff820b" stroke="none" /><path d="M 120.94382443527127 98.46500227214037 l 32.107000521205876 -2.3531601403915587 a53.19311797752809,53.19311797752809 0 0,0 0.05906819399373122,0.9137588168815322 l -32.142749306204024 1.8001422592569911" fill="#7aff26" stroke="none" /><path d="M 120.98425023603335 99.18683210126433 l 2.372517056180737 -0.09193822450592878 a23.37429775280899,23.37429775280899 0 0,0 0.012119356943681584,0.40218245528888796 l -2.373748107580064 0.05108562179204174" fill="#ff0801" stroke="none" /><line stroke="#e1ed5e" stroke-width="0.3" x1="184.98032266829074" x2="189.97916517819016" y1="98.17113171792111" y2="98.06355123074" /><path d="M 185.9800911702706 98.14961562048488 a86.0,86.0 0 0,1 -9.607161424134198,41.387399972396054" fill="none" id="id40" stroke="none" /><text fill="#e1ed5e" style="font-size:6.75px; font-family:Arial;" text-anchor="middle"><textPath startOffset="21.466115282336823" xlink:href="#id40">April</textPath></text><path d="M 120.99513854157772 99.54816195383933 l 16.675211861323305 -0.3588685605391255 a37.679073033707866,37.679073033707866 0 0,0 0.008373712650447167,0.6485532729322456 l -16.67891858109147 0.07177902954641721" fill="#ffcd13" stroke="none" /><path d="M 120.99980553446 99.90962569577887 l 6.134774650516402 -0.02640148213201552 a27.134831460674157,27.134831460674157 0 0,0 -0.0020101776596309377,0.467094494455913 l -6.134320175567268 -0.07920249052758219" fill="#ff3e05" stroke="none" /><path d="M 120.99824983174949 100.27111621757518 l 2.1234185223117468 0.027416246721086147 a23.123595505617978,23.123595505617978 0 0,0 -0.008564470301901904,0.39795728148953646 l -2.1226319893248373 -0.06396334400073746" fill="#ff0400" stroke="none" /><path d="M 120.9764740272857 100.99374915477107 l 31.508903050817505 1.4927173048141196 a52.54424157303371,52.54424157303371 0 0,0 -0.05057670771610471,0.9030810917815215 l -31.47853999221387 -2.0348701129310647" fill="#81ff25" stroke="none" /><path d="M 120.95626037817324 101.35467743843564 l 9.580425215021611 0.6193082952398891 a30.600421348314605,30.600421348314605 0 0,0 -0.038503258968749524,0.5253463776469113 l -9.568345397388523 -0.7841278093835706" fill="#ff6f0a" stroke="none" /><path d="M 120.92983693683757 101.71520430193887 l 6.2760114972118295 0.5143203911010519 a27.297050561797754,27.297050561797754 0 0,0 -0.04240844262017805,0.46797363047513757 l -6.266228458314576 -0.6222754101247601" fill="#ff4106" stroke="none" /><path d="M 120.89721153311464 102.0752229133903 l 17.111059443547525 1.6992344922844729 a38.19522471910112,38.19522471910112 0 0,0 -0.07060241510693512,0.6536906785943751 l -17.079274726939538 -1.9935214927636393" fill="#ffd413" stroke="none" /><path d="M 120.8583938346157 102.4346265915055 l 6.225293103730106 0.7266266161445513 a27.26755617977528,27.26755617977528 0 0,0 -0.058428517838888916,0.46573277550744857 l -6.211863076644369 -0.8336771459393948" fill="#ff4006" stroke="none" /><path d="M 120.76222939487914 103.15116336523771 l 7.217207549483975 1.0953833327195672 a28.2998595505618,28.2998595505618 0 0,0 -0.0772427762504828,0.4809908414457442 l -7.197283018872204 -1.2194534038585165" fill="#ff4f07" stroke="none" /><path d="M 120.5718875245553 104.21870165774334 l 23.157820015352623 4.749001936350118 a44.63974719101124,44.63974719101124 0 0,0 -0.1608433039193194,0.7514063684180171 l -23.07264267270886 -5.146922124184305" fill="#dbff1b" stroke="none" /><path d="M 120.32669344350535 105.2749913415812 l 14.231540283128393 3.693234808677291 a35.702949438202246,35.702949438202246 0 0,0 -0.15949344605095317,0.5935344457738748 l -14.165858760735661 -3.937660187626714" fill="#ffb410" stroke="none" /><path d="M 120.23288151984713 105.62410040840565 l 11.25311949699363 3.1280109013042714 a32.67977528089888,32.67977528089888 0 0,0 -0.1553181999019689,0.5406830296923079 l -11.197608660205562 -3.3212514065011614" fill="#ff8b0c" stroke="none" /><path d="M 120.13307415673323 105.97154293290107 l 4.835331012361491 1.4341767437164104 a26.043539325842698,26.043539325842698 0 0,0 -0.13117662904084948,0.42869281353445726 l -4.809927610814509 -1.5171965298029249" fill="#ff2f04" stroke="none" /><path d="M 119.67450827220406 107.3425965602758 l 20.752184989361304 7.744789349392022 a43.1502808988764,43.1502808988764 0 0,0 -0.2656941979700837,0.6936437102852676 l -20.615796511797715 -8.100856626510433" fill="#edff1a" stroke="none" /><path d="M 119.54520255179757 107.68017299344265 l 13.135364355386425 5.161464574947059 a35.113061797752806,35.113061797752806 0 0,0 -0.22588965972833464,0.5606396103695652 l -13.044572081400698 -5.386803553159439" fill="#ffac0f" stroke="none" /><path d="M 119.41010516605496 108.01547362559984 l 5.356861889227248 2.212135628413438 a26.79564606741573,26.79564606741573 0 0,0 -0.17972097413874627,0.4248072941464754 l -5.317989933896192 -2.3040174482260767" fill="#ff3a05" stroke="none" /><path d="M 119.12269723197855 108.67885076344098 l 10.581942007583631 4.802622473027736 a32.62078651685393,32.62078651685393 0 0,0 -0.23646246316734063,0.5093191089741761 l -10.49770492757646 -4.984061649280742" fill="#ff8b0c" stroke="none" /><path d="M 118.81262510543309 109.33194174019688 l 6.275278739522975 3.112831690023537 a28.00491573033708,28.00491573033708 0 0,0 -0.21793336100833924,0.4300031966127693 l -6.220766708728367 -3.2203890983390004" fill="#ff4b06" stroke="none" /><path d="M 118.64920377521936 109.65438752849418 l 17.73245920761728 9.179803871896855 a40.96769662921348,40.96769662921348 0 0,0 -0.3295899804432914,0.6234600337715721 l -17.571816718949094 -9.483678920754562" fill="#fff717" stroke="none" /><line stroke="#e1ed5e" stroke-width="0.3" x1="174.80103733775053" x2="179.2010983576182" y1="140.37084112569926" y2="142.7455964860345" /><path d="M 175.68104954172406 140.8457921977663 a86.0,86.0 0 0,1 -30.038265399797805,32.042727171017184" fill="none" id="id41" stroke="none" /><text fill="#e1ed5e" style="font-size:6.75px; font-family:Arial;" text-anchor="middle"><textPath startOffset="22.206326154141568" xlink:href="#id41">May</textPath></text><path d="M 118.48025628344425 109.97397251340804 l 8.656131278832383 4.67179751856964 a30.83637640449438,30.83637640449438 0 0,0 -0.25612340437984094,0.46493837502120056 l -8.574431465001032 -4.820106411988646" fill="#ff720a" stroke="none" /><path d="M 118.12598468904814 110.60418214915192 l 2.2021034769700343 1.2882889830079243 a23.55126404494382,23.55126404494382 0 0,0 -0.20772116679068198,0.3481526236403734 l -2.179601434481125 -1.3260037005344019" fill="#ff0a01" stroke="none" /><path d="M 117.75023020441432 111.22182372390056 l 4.973554671040251 3.144317181064831 a26.884129213483146,26.884129213483146 0 0,0 -0.2506562739210936,0.3890241034713422 l -4.918693533742107 -3.229462884457626" fill="#ff3b05" stroke="none" /><path d="M 117.35343817320211 111.8261652097733 l 17.987131140201054 12.258019557321193 a42.76685393258427,42.76685393258427 0 0,0 -0.4198057368186833,0.604761474478682 l -17.773464496220235 -12.565822293986894" fill="#f1ff19" stroke="none" /><path d="M 117.14729908036423 112.12312394758627 l 1.9989126736941452 1.4132293365866015 a23.448033707865168,23.448033707865168 0 0,0 -0.23584278800757832,0.327565005149369 l -1.974290093310964 -1.4474279471871017" fill="#ff0901" stroke="none" /><path d="M 116.93607887273984 112.41649034213515 l 19.968873895597042 14.639948935705686 a45.760533707865164,45.760533707865164 0 0,0 -0.4711999925878717,0.6312493924737328 l -19.713912636314078 -14.981511207688735" fill="#cdff1d" stroke="none" /><path d="M 116.71984013943494 112.70617746262583 l 2.53615552676822 1.92734152522976 a24.185393258426966,24.185393258426966 0 0,0 -0.254744957698292,0.32929219779091684 l -2.5026037518518596 -1.9707117171339297" fill="#ff1402" stroke="none" /><path d="M 116.498646956653 112.99209946851258 l 1.737919272119346 1.368549803565228 a23.212078651685392,23.212078651685392 0 0,0 -0.24989691462476116,0.31178482440156885 l -1.7141044454397307 -1.3982624615450472" fill="#ff0500" stroke="none" /><path d="M 116.27256486870786 113.27417163493432 l 3.039678549913125 2.4795854318065524 a24.922752808988765,24.922752808988765 0 0,0 -0.2740363484409492,0.3300944350264943 l -2.9965462015786324 -2.531541123946817" fill="#ff1f03" stroke="none" /><path d="M 116.0416608686014 113.55231037782055 l 3.9878847945820906 3.3690434506660654 a26.22050561797753,26.22050561797753 0 0,0 -0.2942408834151372,0.3422686219738787 l -3.9293014015961742 -3.437189171801472" fill="#ff3104" stroke="none" /><path d="M 115.80600337817218 113.82643327865902 l 22.321539883078827 19.525953176533214 a50.65660112359551,50.65660112359551 0 0,0 -0.5797555136642963,0.6513614655478397 l -21.982125519766193 -19.90728881182192" fill="#96ff23" stroke="none" /><path d="M 115.56566222782051 114.09645910891815 l 4.284929489680927 3.8804859344774694 a26.780898876404493,26.780898876404493 0 0,0 -0.3123846369942197,0.33903182674211796 l -4.217498444690985 -3.953669016020922" fill="#ff3905" stroke="none" /><path d="M 114.81725581225074 114.88116024355365 l 4.120529003968605 4.1383001800893595 a26.83988764044944,26.83988764044944 0 0,0 -0.33019458333992596,0.32316489654558916 l -4.048684468252885 -4.208615179557521" fill="#ff3a05" stroke="none" /><path d="M 114.55890576462653 115.13401014063108 l 5.868547688831201 6.100366447136405 a29.46488764044944,29.46488764044944 0 0,0 -0.36854143461177413,0.3484789296219445 l -5.76267041982862 -6.200480013504271" fill="#ff5f08" stroke="none" /><path d="M 114.29624159901734 115.38237550388516 l 9.467244261147018 10.186502879328446 a34.90660112359551,34.90660112359551 0 0,0 -0.44364702697467207,0.4052610403718807 l -9.290497684705482 -10.347956686286908" fill="#ffa90f" stroke="none" /><path d="M 114.0293411484842 115.62618273729858 l 4.512245959273711 5.0258368635412545 a27.754213483146067,27.754213483146067 0 0,0 -0.35823770493665863,0.31610312302285987 l -4.4250659014304645 -5.102763128336403" fill="#ff4706" stroke="none" /><path d="M 113.75828350139079 115.86535959552629 l 3.536188034767576 4.0777539409849854 a26.39747191011236,26.39747191011236 0 0,0 -0.34585027874093077,0.2947411106045823 l -3.465472279449598 -4.1380194418125145" fill="#ff3404" stroke="none" /><path d="M 112.92097659922987 116.55440617244103 l 6.524004336268456 8.358580082854706 a31.60323033707865,31.60323033707865 0 0,0 -0.43171708907194023,0.3310222545392858 l -6.379158518703022 -8.469641679221363" fill="#ff7d0b" stroke="none" /><path d="M 112.34349029814194 116.9893568818739 l 6.414454227967017 8.82873882906368 a31.912921348314605,31.912921348314605 0 0,0 -0.44719526863413883,0.3190619503996555 l -6.261531631483994 -8.937845041307554" fill="#ff810b" stroke="none" /><path d="M 112.04921762599082 117.19931262002967 l 6.853838677705451 9.783316869539348 a32.94522471910112,32.94522471910112 0 0,0 -0.4672623031969654,0.3213872728640306 l -6.684419489885603 -9.899844931768474" fill="#ff8f0d" stroke="none" /><path d="M 111.1453310114006 117.79835938074945 l 7.388477861490284 11.798912398474355 a34.92134831460674,34.92134831460674 0 0,0 -0.5122143641575091,0.31464389785842733 l -7.184284297400467 -11.92434476316116" fill="#ffa90f" stroke="none" /><line stroke="#e1ed5e" stroke-width="0.3" x1="143.8653032363475" x2="146.44561519142675" y1="172.8068346515853" y2="177.08958963109032" /><path d="M 144.38136562736335 173.6633856474863 a86.0,86.0 0 0,1 -40.68145358897372,12.25698825130547" fill="none" id="id42" stroke="none" /><text fill="#e1ed5e" style="font-size:6.75px; font-family:Arial;" text-anchor="middle"><textPath startOffset="21.466115282336833" xlink:href="#id42">June</textPath></text><path d="M 110.8373102113329 117.98757091392108 l 8.675936545589547 14.40016210805479 a37.811797752808985,37.811797752808985 0 0,0 -0.5603926816595703,0.33108987404411955 l -8.426775992901595 -14.547370554392659" fill="#ffcf13" stroke="none" /><path d="M 110.21172684928248 118.3499491758327 l 4.123414984787521 7.409565151758285 a29.47963483146067,29.47963483146067 0 0,0 -0.4455316004737157,0.24293935191869295 l -3.995260572445157 -7.479445155436749" fill="#ff5f08" stroke="none" /><path d="M 109.57404056367764 118.69057910512821 l 9.17063997812942 17.903054704631234 a41.11516853932584,41.11516853932584 0 0,0 -0.6326764784975167,0.3172371204669001 l -8.861109591949143 -18.058259666007437" fill="#fff817" stroke="none" /><path d="M 108.59647513512805 119.15986991738527 l 5.040770181061741 11.23489563273645 a33.31390449438202,33.31390449438202 0 0,0 -0.5252164297388583,0.2302394481094292 l -4.846633076665129 -11.319999634140332" fill="#ff940d" stroke="none" /><path d="M 107.59598834532513 119.57807347666477 l 4.7634955002635815 12.277541864228684 a34.16924157303371,34.16924157303371 0 0,0 -0.5501732433275585,0.2080284441734103 l -4.551452036175749 -12.357718558508726" fill="#ff9f0e" stroke="none" /><path d="M 107.2578585660854 119.70592522655815 l 3.9704156060256515 10.78013746593314 a32.488061797752806,32.488061797752806 0 0,0 -0.5264310448965549,0.18875944318045493 l -3.784265000499362 -10.846884450153555" fill="#ff890c" stroke="none" /><path d="M 106.57524785965236 119.94407469862006 l 2.017825361424216 6.1204779798433755 a27.444522471910112,27.444522471910112 0 0,0 -0.4499315848214606,0.14405388508868402 l -1.912172431511815 -6.154304711591767" fill="#ff4306" stroke="none" /><path d="M 105.53697534728816 120.25689768951611 l 0.5715838314967413 2.0911263766565096 a23.167837078651687,23.167837078651687 0 0,0 -0.385589546589282,0.10183770382308258 l -0.5355038420959618 -2.1006554297831763" fill="#ff0500" stroke="none" /><path d="M 105.18746579009965 120.34920634021253 l 3.3259524342422644 13.04692794144244 a34.464185393258425,34.464185393258425 0 0,0 -0.5761209083954463,0.14159650233153934 l -3.1008782411036067 -13.10224570208801" fill="#ffa30f" stroke="none" /><path d="M 104.83641907484287 120.43548508189849 l 2.4216058991312943 10.232093302944964 a31.514747191011235,31.514747191011235 0 0,0 -0.5289673038956838,0.12039123619697219 l -2.2451184458427482 -10.27226127271962" fill="#ff7b0b" stroke="none" /><path d="M 104.48393922423573 120.51570834832081 l 2.8622898559201384 13.096052590325577 a34.405196629213485,34.405196629213485 0 0,0 -0.579659635172234,0.12147331247540691 l -2.6364387593185263 -13.143381883527525" fill="#ffa20f" stroke="none" /><path d="M 103.7750983002368 120.6578951692458 l 1.3255260885662958 7.253474427403724 a28.373595505617978,28.373595505617978 0 0,0 -0.4812040582077078,0.08366349362751693 l -1.200473058886538 -7.275216499552246" fill="#ff5007" stroke="none" /><path d="M 102.70371172650421 120.8252237178851 l 0.5221353404414728 4.021725085967978 a25.055477528089888,25.055477528089888 0 0,0 -0.42817732319923096,0.05184631088176178 l -0.4528305941908615 -4.03011692557509" fill="#ff2003" stroke="none" /><path d="M 101.62511606390274 120.93702456842531 l 0.7908746013234504 10.189155917077768 a31.219803370786515,31.219803370786515 0 0,0 -0.5361439855554806,0.036975628271786735 l -0.6153678549890395 -10.20125988986584" fill="#ff770b" stroke="none" /><path d="M 100.90346689309514 120.98055641714683 l 0.827332042553417 19.212531999971535 a40.23033707865169,40.23033707865169 0 0,0 -0.6921143824659751,0.023837818745516964 l -0.49649730841278955 -19.223926617143146" fill="#ffed16" stroke="none" /><line stroke="#e1ed5e" stroke-width="0.3" x1="102.19456741930631" x2="102.32365962044197" y1="184.97166512339345" y2="189.96999836594603" /><path d="M 102.22038585953345 185.97133177190398 a86.0,86.0 0 0,1 -42.740103519485714,-10.115201625700543" fill="none" id="id43" stroke="none" /><text fill="#e1ed5e" style="font-size:6.75px; font-family:Arial;" text-anchor="middle"><textPath startOffset="22.20632615414155" xlink:href="#id43">July</textPath></text><path d="M 100.18074693466247 120.99922214144158 l 0.10116243463903285 11.753075875511897 a32.75351123595506,32.75351123595506 0 0,0 -0.5638187386029685,0.0 l 0.10116243463902476 -11.753075875511897" fill="#ff8c0c" stroke="none" /><path d="M 99.81925306533755 120.99922214144158 l -0.01586612839382444 1.8433305952810355 a22.843398876404493,22.843398876404493 0 0,0 -0.39316786541872,-0.006768741358554555 l 0.0475936837052124 -1.8427843766433212" fill="#ff0000" stroke="none" /><path d="M 99.09653310690486 120.98055641714683 l -0.3591027117218032 8.339181834343474 a29.346910112359552,29.346910112359552 0 0,0 -0.5045040336075541,-0.026077095887091457 l 0.5025948137428462 -8.331764931694181" fill="#ff5e08" stroke="none" /><path d="M 98.37488393609728 120.93702456842531 l -1.6376696290030903 21.098757202029727 a42.1622191011236,42.1622191011236 0 0,0 -0.7230934659950368,-0.062391546864677884 l 2.0006074127396687 -21.067441402886384" fill="#f9ff18" stroke="none" /><path d="M 98.01472825383883 120.90594882070398 l -0.5353541787400924 5.6375592325493855 a26.662921348314605,26.662921348314605 0 0,0 -0.4565293998153702,-0.04732113892695546 l 0.6323161751610559 -5.62750872516667" fill="#ff3805" stroke="none" /><path d="M 97.2962882734958 120.8252237178851 l -0.29619313857770674 2.281414957858199 a23.30056179775281,23.30056179775281 0 0,0 -0.39729833281236443,-0.05506192873713782 l 0.3354200625769022 -2.275978463628456" fill="#ff0701" stroke="none" /><path d="M 96.22490169976321 120.6578951692458 l -1.9352680893067842 10.590072664009437 a31.765449438202246,31.765449438202246 0 0,0 -0.5370363470593882,-0.10292429407120761 l 2.1172720509378675 -10.55519117158976" fill="#ff7f0b" stroke="none" /><path d="M 94.81253420990036 120.34920634021253 l -1.293223564245346 5.073011412061412 a26.235252808988765,26.235252808988765 0 0,0 -0.43664150438087124,-0.11532098987986536 l 1.3803555114377064 -5.049999072877965" fill="#ff3204" stroke="none" /><line stroke="#e1ed5e" stroke-width="0.3" x1="58.666819895761336" x2="56.23545636021788" y1="174.27360380694188" y2="178.64263932499728" /><path d="M 58.180547188652646 175.14741091055294 a86.0,86.0 0 0,1 -31.652253787137756,-30.449443065178592" fill="none" id="id44" stroke="none" /><text fill="#e1ed5e" style="font-size:6.75px; font-family:Arial;" text-anchor="middle"><textPath startOffset="22.20632615414155" xlink:href="#id44">August</textPath></text><line stroke="#e1ed5e" stroke-width="0.3" x1="26.63291911575756" x2="22.317208475507996" y1="142.92168965132927" y2="145.44649492493687" /><path d="M 25.769776987707644 143.4266507060508 a86.0,86.0 0 0,1 -11.730757126820373,-40.83630448921669" fill="none" id="id45" stroke="none" /><text fill="#e1ed5e" style="font-size:6.75px; font-family:Arial;" text-anchor="middle"><textPath startOffset="21.46611528233685" xlink:href="#id45">September</textPath></text><line stroke="#e1ed5e" stroke-width="0.3" x1="15.007084014347285" x2="10.007500721073583" y1="101.09737516637583" y2="101.16192664675087" /><path d="M 14.007167355692545 101.11028546245083 a86.0,86.0 0 0,1 10.666146001902534,-42.60595125391555" fill="none" id="id46" stroke="none" /><text fill="#e1ed5e" style="font-size:6.75px; font-family:Arial;" text-anchor="middle"><textPath startOffset="22.20632615414155" xlink:href="#id46">October</textPath></text><line stroke="#e1ed5e" stroke-width="0.3" x1="26.266209847984243" x2="21.928928074336255" y1="57.711370442889674" y2="55.22380399835377" /><path d="M 25.398753493254645 57.213857153982495 a86.0,86.0 0 0,1 29.58750427330803,-30.492523968695096" fill="none" id="id47" stroke="none" /><text fill="#e1ed5e" style="font-size:6.75px; font-family:Arial;" text-anchor="middle"><textPath startOffset="21.46611528233685" xlink:href="#id47">November</textPath></text><line stroke="#e1ed5e" stroke-width="0.3" x1="56.762969772571076" x2="54.21961505331055" y1="26.818313649435495" y2="22.513508569990535" /><path d="M 56.25429882871897 25.957352633546506 a86.0,86.0 0 0,1 42.265352541879196,-11.944610805530505" fill="none" id="id48" stroke="none" /><text fill="#e1ed5e" style="font-size:6.75px; font-family:Arial;" text-anchor="middle"><textPath startOffset="22.20632615414155" xlink:href="#id48">December</textPath></text></svg>