<?xml version="1.0" encoding="utf-8" ?>
<svg baseProfile="full" height="200mm" version="1.1" viewBox="0,0,200,200" width="200mm" xmlns="http://www.w3.org/2000/svg" xmlns:ev="http://www.w3.org/2001/xml-events" xmlns:xlink="http://www.w3.org/1999/xlink"><defs /><rect fill="#1a1a1a" height="200" width="200" x="0" y="0" /><text alignment-baseline="middle" fill="#e1ed5e" style="dominant-baseline: central; font-size:9.0px; font-family:Arial;" text-anchor="middle" x="100.0" y="100.0">2024</text><line stroke="#e1ed5e" stroke-width="0.3" x1="100.0" x2="100.0" y1="15.0" y2="10.0" /><path d="M 100.0 14.0 a86.0,86.0 0 0,1 42.35913384403234,11.155469271406648" fill="none" id="id13" stroke="none" /><text fill="#e1ed5e" style="font-size:6.75px; font-family:Arial;" text-anchor="middle"><textPath startOffset="22.145653131862478" xlink:href="#id13">January</textPath></text><path d="M 100.72087961077811 79.0123766808444 l 1.0853504298341494 -31.598793543425806 a52.61742777260019,52.61742777260019 0 0,0 0.9024496203398432,0.038755069699117954 l -1.6276258107748287 31.575505905300858" fill="#80ff26" stroke="none" /><path d="M 102.15924093988457 79.11130261209362 l 5.323142680549538 -51.49657666855483 a72.77096924510718,72.77096924510718 0 0,0 1.241486937439737,0.1391112008340686 l -6.206365519590072 51.39760970721379" fill="#3fffbd" stroke="none" /><path d="M 102.87502721639298 79.19773525538626 l 2.4456487341683992 -17.69549594188834 a38.863699906803355,38.863699906803355 0 0,0 0.6600812409501822,0.09700921127375978 l -2.7490550807262633 17.650905657315697" fill="#ffdd14" stroke="none" /><path d="M 103.23170211078529 79.25015418208739 l 2.1052747208191267 -13.517373929842421 a34.68033550792171,34.68033550792171 0 0,0 0.5874559781826272,0.09666565765673406 l -2.3370082020548244 13.47924227369002" fill="#ffa70f" stroke="none" /><path d="M 103.94208987418118 79.37332000966035 l 1.9728818848418364 -10.3229516820246 a31.509785647716683,31.509785647716683 0 0,0 0.5304199984111457,0.10609885496066801 l -2.149798368783939 10.287563430401072" fill="#ff7c0b" stroke="none" /><path d="M 104.29559338865022 79.4440306129975 l 2.6031776337090435 -12.45714733820912 a33.7262348555452,33.7262348555452 0 0,0 0.565697498192989,0.12329113678571216 l -2.8166375485211663 12.410624743289688" fill="#ff9a0e" stroke="none" /><path d="M 104.64783097203109 79.52079915486377 l 4.499472900463454 -19.825507807907975 a41.329683131407265,41.329683131407265 0 0,0 0.6905360431871368,0.16296462595999917 l -4.839141097390476 19.745347038301748" fill="#fffc17" stroke="none" /><path d="M 105.3480935250658 79.69241777938227 l 2.8858771211678476 -10.958145485310034 a32.33178005591799,32.33178005591799 0 0,0 0.5355044973493827,0.14595413203530042 l -3.0735630194519232 10.906990859130591" fill="#ff870c" stroke="none" /><path d="M 105.69591212413111 79.78721728523813 l 4.052962634458623 -14.382534578490855 a35.94268406337372,35.94268406337372 0 0,0 0.5924381055556229,0.17245009824177956 l -4.299260752395851 14.31084078594656" fill="#ffb711" stroke="none" /><path d="M 107.06938296918511 80.22567764915836 l 13.282270331665602 -37.152874053398655 a60.45573159366263,60.45573159366263 0 0,0 0.974232162665805,0.35775154465243064 l -13.918091645985532 36.9193916597375" fill="#2fff30" stroke="none" /><path d="M 108.07796709384702 80.6158196554323 l 13.099406098130311 -31.433805964163838 a55.054054054054056,55.054054054054056 0 0,0 0.8692377759045484,0.37102591846048777 l -13.63707894920529 31.20430539604395" fill="#66ff29" stroke="none" /><path d="M 108.4095320186766 80.7573450057729 l 7.453369011893237 -17.054766914734365 a39.612301957129546,39.612301957129546 0 0,0 0.6207560788631888,0.2776562983769416 l -7.745038493612057 16.924306865447573" fill="#ffe615" stroke="none" /><path d="M 109.3889696526874 81.21577127319529 l 27.70752321084308 -55.433606955663656 a82.97250698974837,82.97250698974837 0 0,0 1.268581587647048,0.6477467976542596 l -28.655032020203706 54.949802206336564" fill="#4cdbff" stroke="none" /><path d="M 110.34350942703115 81.72400993836675 l 7.128634875386336 -12.595614772206709 a35.472972972972975,35.472972972972975 0 0,0 0.5273775880736531,0.3044815924388992 l -7.343804931320387 12.471386282491638" fill="#ffb110" stroke="none" /><line stroke="#e1ed5e" stroke-width="0.3" x1="143.13028292997686" x2="145.6673583964461" y1="26.7553504044142" y2="22.446841604673864" /><path d="M 143.63769802327073 25.89364864446614 a86.0,86.0 0 0,1 29.32050498858742,28.57503671076993" fill="none" id="id14" stroke="none" /><text fill="#e1ed5e" style="font-size:6.75px; font-family:Arial;" text-anchor="middle"><textPath startOffset="20.669276256404974" xlink:href="#id14">February</textPath></text><path d="M 110.65571695917076 81.90426304109057 l 4.498639126285509 -7.639672732885342 a29.86579683131407,29.86579683131407 0 0,0 0.4395494999938074,0.2639368454633592 l -4.629121382836751 7.561321886886061" fill="#ff6609" stroke="none" /><path d="M 111.8722381534696 82.67804972795209 l 17.99092193619904 -26.24929277013039 a52.822926374650514,52.822926374650514 0 0,0 0.7435579207101768,0.5190611762739638 l -18.43887494808298 25.936586778051296" fill="#7dff26" stroke="none" /><path d="M 112.16784306229584 82.88440491214696 l 8.717641522963586 -12.262454542205987 a36.04543336439888,36.04543336439888 0 0,0 0.5012357634144871,0.3628560385122457 l -8.92685829675204 12.110997732320666" fill="#ffb911" stroke="none" /><path d="M 112.7482090630111 83.31218511350987 l 18.84608259664619 -24.670127086388597 a52.044967381174274,52.044967381174274 0 0,0 0.7053085784983926,0.5484522166611481 l -19.26680111977981 24.342973818106657" fill="#86ff25" stroke="none" /><path d="M 113.31354834802062 83.75963576809568 l 18.844316452522197 -22.987002029081733 a50.723904939422184,50.723904939422184 0 0,0 0.6686513694649717,0.5578127538177171 l -19.23614215614906 22.660127091352145" fill="#94ff23" stroke="none" /><path d="M 113.86319453409587 84.22622945171908 l 7.509768707309619 -8.54473823969085 a32.375815470643055,32.375815470643055 0 0,0 0.4143101858130763,0.3704787229174344 l -7.655343919946071 8.414563986890029" fill="#ff880c" stroke="none" /><path d="M 114.39649973595853 84.71141617570332 l 17.63000992828472 -18.722459594711875 a46.716682199440825,46.716682199440825 0 0,0 0.5791256069333645,0.5547892310909415 l -17.948808021083398 18.417058233315352" fill="#c2ff1e" stroke="none" /><path d="M 114.91283532996326 85.21462403516908 l 18.575027417051153 -18.416267452932455 a47.15703634669152,47.15703634669152 0 0,0 0.5650158458780232,0.5797560330501171 l -18.888430064079987 18.094688727814596" fill="#bdff1f" stroke="none" /><path d="M 115.16444852881244 85.47280134310134 l 3.2540673567186067 -3.117322917754816 a25.506290773532154,25.506290773532154 0 0,0 0.30017766512881566,0.31877827803106906 l -3.3071008555836823 3.061003179779252" fill="#ff2803" stroke="none" /><path d="M 115.41159269507618 85.73525988315684 l 6.075585936642334 -5.623471639724748 a29.27865796831314,29.27865796831314 0 0,0 0.33824141616081194,0.3717865675356226 l -6.171225053645023 5.518347496631454" fill="#ff5d08" stroke="none" /><path d="M 115.8921839302757 86.27271002978787 l 20.361397817471143 -17.58769048140645 a47.90563839701771,47.90563839701771 0 0,0 0.5322212322231744,0.6269552733076506 l -20.66031361320143 17.235568425649248" fill="#b4ff20" stroke="none" /><path d="M 116.35404254752997 86.82634096563983 l 14.277399213791892 -11.500862162569328 a39.3334109972041,39.3334109972041 0 0,0 0.41905735416414364,0.5294652774626983 l -14.472722998597595 11.254076941191952" fill="#ffe315" stroke="none" /><path d="M 116.57777611688842 87.10902102172516 l 19.7681868980044 -15.371861698697737 a46.04147250698975,46.04147250698975 0 0,0 0.47981358180241696,0.6280913808022602 l -20.02915245716113 15.030249404654596" fill="#caff1d" stroke="none" /><path d="M 116.7966241395341 87.39550010848427 l 11.658234695170576 -8.748556658160618 a35.57572227399814,35.57572227399814 0 0,0 0.3623607212502337,0.4916119117674767 l -11.806697436004635 8.547138437124266" fill="#ffb310" stroke="none" /><path d="M 117.01052211995028 87.68569379921539 l 29.879386361208102 -21.630371492943887 a57.88699906803355,57.88699906803355 0 0,0 0.5757961950820214,0.8099294573159036 l -30.246297654820083 21.11426480891848" fill="#49ff2c" stroke="none" /><path d="M 117.21940702142032 87.97951657250589 l 7.943715261512636 -5.545330192553202 a30.687791239515377,30.687791239515377 0 0,0 0.2978327051943806,0.4345468177168347 l -8.03773770352234 5.408148639766318" fill="#ff710a" stroke="none" /><path d="M 117.42321728460499 88.27688183743584 l 6.929504171673047 -4.662479660647022 a29.352050326188255,29.352050326188255 0 0,0 0.2776921460658375,0.420461302386763 l -7.0085207566596095 4.5428384799212" fill="#ff5e08" stroke="none" /><path d="M 117.62189284568427 88.57770195909679 l 6.651320226003849 -4.311305411524514 a28.92637465051258,28.92637465051258 0 0,0 0.2665115114416912,0.41900036237178273 l -6.72434942907143 4.19649137447406" fill="#ff5908" stroke="none" /><path d="M 117.81537515405839 88.88188828441811 l 22.93750305249921 -14.314698355150403 a48.037744641192916,48.037744641192916 0 0,0 0.43058297413253954,0.703324928678733 l -23.17985399108715 13.918836310347114" fill="#b3ff20" stroke="none" /><line stroke="#e1ed5e" stroke-width="0.3" x1="172.87174338648825" x2="177.1583165268699" y1="56.24261187166439" y2="53.66864786411523" /><path d="M 173.72905801456457 55.72781907015455 a86.0,86.0 0 0,1 12.242430191666344,42.057860355516425" fill="none" id="id15" stroke="none" /><text fill="#e1ed5e" style="font-size:6.75px; font-family:Arial;" text-anchor="middle"><textPath startOffset="22.145653131862474" xlink:href="#id15">March</textPath></text><path d="M 118.00360718960297 89.18935116829356 l 8.255148869789998 -4.956979706616564 a30.629077353215287,30.629077353215287 0 0,0 0.2668030229700965,0.4530898617153627 l -8.339025602889862 4.814538676607644" fill="#ff700a" stroke="none" /><path d="M 118.36410011445183 89.81374322990088 l 13.387993769366211 -7.426094462637498 a36.3096458527493,36.3096458527493 0 0,0 0.2976606851128966,0.5476621343860598 l -13.51349980409445 7.195177494776835" fill="#ffbc11" stroke="none" /><path d="M 118.53625476483649 90.13048839642627 l 7.449915999380931 -3.9666606514829157 a29.440121155638398,29.440121155638398 0 0,0 0.23368717357356908,0.4481259681361217 l -7.516911241929444 3.838188440242296" fill="#ff6008" stroke="none" /><path d="M 118.70294669586156 90.45014215332178 l 13.478148679007402 -6.882038751112707 a36.13350419384902,36.13350419384902 0 0,0 0.27733339723469763,0.5548525727471348 l -13.594301989453836 6.649654322201822" fill="#ffba11" stroke="none" /><path d="M 118.8641267826498 90.77261029715802 l 8.82113291071253 -4.314858139236683 a30.81989748369059,30.81989748369059 0 0,0 0.228391205524351,0.47724977853958833 l -8.893903374196793 4.16279585863199" fill="#ff730a" stroke="none" /><path d="M 119.0197475246899 91.09779779509293 l 9.97074369304573 -4.666811500708509 a32.008853681267475,32.008853681267475 0 0,0 0.22865834830341417,0.4996597573046449 l -10.049386506204197 4.49496276118918" fill="#ff830c" stroke="none" /><path d="M 119.31412917781788 91.75594674310238 l 9.342062482094576 -3.9875709602328606 a31.157502329916124,31.157502329916124 0 0,0 0.20574953914065122,0.49372399344779655 l -9.40913786577171 3.8266144573437866" fill="#ff770b" stroke="none" /><path d="M 119.4528033332814 92.08871423366111 l 28.934458639251726 -11.767392435299964 a52.235787511649576,52.235787511649576 0 0,0 0.33068070504698405,0.8335313933429581 l -29.132198019264834 11.268960024743441" fill="#84ff25" stroke="none" /><path d="M 119.71291397450082 92.76114493625339 l 18.256950850102708 -6.704205237276977 a40.448974836905876,40.448974836905876 0 0,0 0.23375622419541506,0.6538577622551167 l -18.369347244342066 6.389812518640943" fill="#fff116" stroke="none" /><path d="M 119.83427380445688 93.10060997987247 l 19.478439908151394 -6.775612519766433 a41.62325256290774,41.62325256290774 0 0,0 0.2289567844091079,0.6768700501510501 l -19.59188211413287 6.440240795141221" fill="#ffff18" stroke="none" /><path d="M 119.94978838288452 93.4421083053983 l 9.398525654751282 -3.0894820611567138 a30.893289841565704,30.893289841565704 0 0,0 0.16128545773122047,0.5052243991781412 l -9.45017582825976 2.9276886282871852" fill="#ff740a" stroke="none" /><path d="M 120.16314734710363 94.1308016681162 l 11.443948494302065 -3.3311666207989132 a32.91891891891892,32.91891891891892 0 0,0 0.15327912053173626,0.5439335246925739 l -11.499446106908383 3.134225172203326" fill="#ff8f0d" stroke="none" /><path d="M 120.26092885502905 94.47779374421319 l 30.065670055377463 -8.194532069689238 a52.16239515377447,52.16239515377447 0 0,0 0.2280503134065169,0.8659441852007443 l -30.20190984958871 7.677207380115696" fill="#85ff25" stroke="none" /><path d="M 120.43855184770803 95.1765574152323 l 17.800397671652526 -4.200845382540002 a39.28937558247903,39.28937558247903 0 0,0 0.1492793060792029,0.6577521664654284 l -17.869887839289394 3.8946588821355466" fill="#ffe215" stroke="none" /><path d="M 120.51834098615036 95.52812308129327 l 20.809957668385962 -4.535433417318361 a42.29846225535881,42.29846225535881 0 0,0 0.14853263977710832,0.710782450754352 l -20.884748018987437 4.177534515278604" fill="#f6ff19" stroke="none" /><path d="M 120.592083275326 95.88100663000786 l 15.789502809668651 -3.1583427727502604 a37.102283317800556,37.102283317800556 0 0,0 0.11956424175778288,0.6256106359162106 l -15.84139334370859 2.8868295718007357" fill="#ffc612" stroke="none" /><path d="M 120.65975698304385 96.23510406497455 l 14.917191726573364 -2.718409250383009 a36.16286113699907,36.16286113699907 0 0,0 0.10605220967262259,0.6116809631136765 l -14.96165875373822 2.46193525434874" fill="#ffba11" stroke="none" /><path d="M 120.77682067341334 96.94652285012252 l 24.96413425274758 -3.6688680479772113 a46.23229263746505,46.23229263746505 0 0,0 0.10865795970871313,0.7861948685501843 l -25.023436729011504 3.239784871226941" fill="#c7ff1e" stroke="none" /><path d="M 120.82617615685814 97.30363454192243 l 21.413307404523515 -2.7723813528649393 a42.59203168685927,42.59203168685927 0 0,0 0.08765422626039791,0.7259027358764423 l -21.457743717043577 2.404384940065084" fill="#f3ff19" stroke="none" /><path d="M 120.9064616781168 98.02013634271609 l 20.06377345110976 -1.900060206046702 a41.15354147250699,41.15354147250699 0 0,0 0.060566994289212986,0.703880282041777 l -20.093434068096716 1.555358876629263" fill="#fffa17" stroke="none" /><path d="M 120.93736805541906 98.37931529534042 l 17.898230054830506 -1.3854362025619729 a38.95177073625349,38.95177073625349 0 0,0 0.04588154826768614,0.6671076421964924 l -17.91937556426326 1.0779851362111463" fill="#ffde14" stroke="none" /><path d="M 120.96210409425399 98.7389718711861 l 24.117164496138443 -1.4508287278851566 a45.160764212488345,45.160764212488345 0 0,0 0.03991009536715616,0.7742451880551667 l -24.138516180962174 1.0366117464532592" fill="#d4ff1c" stroke="none" /><path d="M 120.98066250479742 99.09900007780936 l 2.3757227346998016 -0.1020237563337959 a23.377912395153775,23.377912395153775 0 0,0 0.01377661825001389,0.40109120874012927 l -2.3771240399466635 0.06122628302954666" fill="#ff0901" stroke="none" /><line stroke="#e1ed5e" stroke-width="0.3" x1="184.99686870605535" x2="189.99668451229388" y1="99.2704041080226" y2="99.22748670261217" /><path d="M 185.99683186730306 99.26182062694052 a86.0,86.0 0 0,1 -10.086455211305974,41.156179273409016" fill="none" id="id16" stroke="none" /><text fill="#e1ed5e" style="font-size:6.75px; font-family:Arial;" text-anchor="middle"><textPath startOffset="21.40746469413373" xlink:href="#id16">April</textPath></text><path d="M 120.99922638620191 99.81974689727618 l 15.661352204620762 -0.13443387274440213 a36.66192917054986,36.66192917054986 0 0,0 0.0,0.6293739509364561 l -15.661352204620762 -0.13443387274440022" fill="#ffc111" stroke="none" /><path d="M 120.99922638620191 100.18025310272382 l 30.265893388873483 0.2597962939071727 a51.26700838769804,51.26700838769804 0 0,0 -0.015108066101852963,0.8799691086850125 l -30.25697389117296 -0.7793123185612563" fill="#8eff24" stroke="none" /><path d="M 120.99303781780057 100.54070618675476 l 22.274532670611332 0.5737129483879667 a43.28191985088537,43.28191985088537 0 0,0 -0.025506062168197122,0.7425811704720123 l -22.26140192144629 -0.9560003834240898" fill="#eaff1a" stroke="none" /><path d="M 120.98066250479742 100.90099992219065 l 18.84446737092126 0.8092625116600494 a39.86183597390494,39.86183597390494 0 0,0 -0.035227253191356576,0.6833993008759961 l -18.827798528273334 -1.1326336059127762" fill="#ffe915" stroke="none" /><path d="M 120.93736805541906 101.62068470465957 l 30.937741893631795 2.394776886521666 a52.03028890959925,52.03028890959925 0 0,0 -0.07657465429455367,0.8899135559662766 l -30.8920736166395 -2.9255114898636" fill="#86ff25" stroke="none" /><path d="M 120.86939407059847 102.33845913500097 l 8.37304207585521 0.9382168290940562 a29.425442684063373,29.425442684063373 0 0,0 -0.06055744017576486,0.5015024759978147 l -8.355702549419782 -1.0818129820152795" fill="#ff5f08" stroke="none" /><path d="M 120.82617615685814 102.69636545807757 l 24.441157805706993 3.1643972069750075 a45.64515377446412,45.64515377446412 0 0,0 -0.10727803006906897,0.7762103850888645 l -24.383235259082713 -3.5834959002639573" fill="#ceff1d" stroke="none" /><path d="M 120.77682067341334 103.0534771498775 l 12.271491241170274 1.8034866204425513 a33.40330848089469,33.40330848089469 0 0,0 -0.08824598629358052,0.5666025354040044 l -12.238723762738426 -2.0138773377780064" fill="#ff960d" stroke="none" /><path d="M 120.65975698304385 103.76489593502545 l 6.050632462182225 1.1026267917816843 a27.15027958993476,27.15027958993476 0 0,0 -0.08749333740128107,0.4578021124487739 l -6.030812832498785 -1.2063314692637728" fill="#ff3f06" stroke="none" /><path d="M 120.51834098615036 104.47187691870673 l 30.548042614515573 6.657803707021428 a52.265144454799625,52.265144454799625 0 0,0 -0.19858051650536634,0.8749823962869108 l -30.42925123645254 -7.181220437247356" fill="#83ff25" stroke="none" /><path d="M 120.35273937422433 105.17358676015961 l 24.14161140591241 6.136703214345893 a45.909366262814544,45.909366262814544 0 0,0 -0.20071251202451443,0.7621381005288881 l -24.032709413083168 -6.550221819247584" fill="#cbff1d" stroke="none" /><path d="M 120.26092885502905 105.52220625578681 l 14.969106570199704 4.079896560368117 a36.515144454799625,36.515144454799625 0 0,0 -0.1700240898526122,0.6033555134929747 l -14.896863988272512 -4.3362599977641" fill="#ffbf11" stroke="none" /><path d="M 120.16314734710363 105.8691983318838 l 8.286997185529081 2.4122241047164534 a29.6309412861137,29.6309412861137 0 0,0 -0.1463538224739093,0.4871642760145803 l -8.244367043051541 -2.554125984321757" fill="#ff6209" stroke="none" /><path d="M 120.05942366710727 106.21446072829308 l 2.537806861891715 0.7862190529970031 a23.656803355079216,23.656803355079216 0 0,0 -0.12350573141122385,0.3868799445717988 l -2.523936414703236 -0.8296680312601854" fill="#ff0d01" stroke="none" /><path d="M 119.83427380445688 106.89939002012753 l 58.85122947338269 20.471512559721365 a83.31011183597391,83.31011183597391 0 0,0 -0.48145242885875555,1.3467081308718665 l -58.491136874479984 -21.478755646974154" fill="#4cd8ff" stroke="none" /><path d="M 119.58574465831526 107.57618678355244 l 13.457213652696115 5.205539334738157 a35.4289375582479,35.4289375582479 0 0,0 -0.2242842811207579,0.5653429017606202 l -13.365870696609234 -5.435783253712342" fill="#ffb110" stroke="none" /><path d="M 119.4528033332814 107.91128576633889 l 22.842993662567157 9.29004665944734 a45.659832246039144,45.659832246039144 0 0,0 -0.3015161273964392,0.7235289426593652 l -22.680151690634233 -9.680808111547982" fill="#ceff1d" stroke="none" /><path d="M 119.31412917781788 108.2440532568976 l 17.077614219435894 7.289418012564403 a39.56826654240447,39.56826654240447 0 0,0 -0.27201509695451975,0.6224237748655042 l -16.949965240464408 -7.581503857205752" fill="#ffe615" stroke="none" /><path d="M 119.16976305983485 108.57439118712176 l 3.162206953952252 1.414414948854195 a24.464119291705497,24.464119291705497 0 0,0 -0.17476180701880697,0.3818860878207259 l -3.137460682078389 -1.46849001888961" fill="#ff1902" stroke="none" /><path d="M 118.8641267826498 109.22738970284198 l 23.99770089311929 11.738478046951808 a47.71481826654241,47.71481826654241 0 0,0 -0.36622278806132025,0.7326908990426727 l -23.79265819184624 -12.148700802158228" fill="#b6ff1f" stroke="none" /><path d="M 118.70294669586154 109.54985784667822 l 13.4520029007746 6.868688530450996 a36.10414725069897,36.10414725069897 0 0,0 -0.28658428682056136,0.5495631575330553 l -13.33211054497909 -7.098597931088554" fill="#ffb911" stroke="none" /><line stroke="#e1ed5e" stroke-width="0.3" x1="174.33088141563837" x2="178.70328620479359" y1="141.23008692659167" y2="143.65538615756765" /><path d="M 175.20536237346943 141.71514677278685 a86.0,86.0 0 0,1 -30.301960400862466,31.631185727798858" fill="none" id="id17" stroke="none" /><text fill="#e1ed5e" style="font-size:6.75px; font-family:Arial;" text-anchor="middle"><textPath startOffset="22.145653131862474" xlink:href="#id17">May</textPath></text><path d="M 118.36410011445183 110.18625677009912 l 18.317034620216283 10.160150333829058 a41.946178937558244,41.946178937558244 0 0,0 -0.3546781830549216,0.6266823648509368 l -18.139923072139982 -10.473089468779117" fill="#fbff18" stroke="none" /><path d="M 118.18653347947321 110.5 l 21.750110985586204 12.557432432432426 a46.11486486486486,46.11486486486486 0 0,0 -0.40169624464747467,0.6821680425986244 l -21.531341030808967 -12.9289516433246" fill="#c9ff1d" stroke="none" /><path d="M 118.00360718960297 110.81064883170644 l 21.216739320832215 12.740042355724885 a45.74790307548928,45.74790307548928 0 0,0 -0.41005813894267623,0.6697991528973419 l -20.994913217434135 -13.102378624746784" fill="#cdff1d" stroke="none" /><path d="M 117.62189284568427 111.42229804090321 l 3.621274345268761 2.3472662796077897 a25.315470643056848,25.315470643056848 0 0,0 -0.23950311114262815,0.36263823613087093 l -3.580446795205406 -2.4090843940777216" fill="#ff2503" stroke="none" /><path d="M 117.423217284605 111.72311816256416 l 19.89949001144774 13.389264965724484 a44.98462255358807,44.98462255358807 0 0,0 -0.43658703628144097,0.6369935334962756 l -19.66671323835098 -13.728893234290803" fill="#d6ff1c" stroke="none" /><path d="M 117.21940702142032 112.02048342749411 l 5.921678649491238 4.133791598085114 a28.221808014911463,28.221808014911463 0 0,0 -0.2807195041191023,0.394867138010154 l -5.849844046842175 -4.234835962804772" fill="#ff4f07" stroke="none" /><path d="M 117.01052211995028 112.31430620078461 l 14.505710847860673 10.501016005328903 a38.90773532152842,38.90773532152842 0 0,0 -0.3962993337067565,0.5376561576639998 l -14.32330949457009 -10.74847847226178" fill="#ffdd14" stroke="none" /><path d="M 116.57777611688842 112.89097897827486 l 21.344079874633124 16.597285609027686 a48.037744641192916,48.037744641192916 0 0,0 -0.5117931463096803,0.6466339213992645 l -21.056020297681883 -16.961239474341635" fill="#b3ff20" stroke="none" /><path d="M 116.1254893667686 113.45245675266167 l 9.78349820854274 8.161742167737888 a33.740913327120225,33.740913327120225 0 0,0 -0.37485421483106673,0.44157732251348025 l -9.64194943020456 -8.328486272700925" fill="#ff9a0e" stroke="none" /><path d="M 115.89218393027572 113.72728997021213 l 14.196326465209015 12.262448682617258 a39.759086672879775,39.759086672879775 0 0,0 -0.45058203501224,0.5126796436405945 l -13.983733366238189 -12.504340604069144" fill="#ffe815" stroke="none" /><path d="M 115.6541949942343 113.99807769240083 l 7.035634236691046 6.291307518322739 a30.43825722273998,30.43825722273998 0 0,0 -0.3516376754572846,0.38651140318166916 l -6.9265988603918816 -6.41115649706208" fill="#ff6e0a" stroke="none" /><path d="M 115.16444852881244 114.52719865689866 l 5.797963661645205 5.554318032611999 a29.029123951537745,29.029123951537745 0 0,0 -0.34781479701124446,0.35688862254476106 l -5.701762063483153 -5.653029347224497" fill="#ff5a08" stroke="none" /><path d="M 114.91283532996324 114.78537596483092 l 6.348031255322194 6.2937749039482975 a29.93918918918919,29.93918918918919 0 0,0 -0.36498449224714474,0.3618649854172457 l -6.239054842945085 -6.401819899594205" fill="#ff6709" stroke="none" /><path d="M 114.39649973595853 115.28858382429668 l 16.734421524393543 17.771375745437123 a45.410298229263745,45.410298229263745 0 0,0 -0.5721053803436789,0.5295321990087104 l -16.426886372735897 -18.056025690578213" fill="#d1ff1c" stroke="none" /><path d="M 114.13192950727249 115.5334660781643 l 4.089435332719581 4.495005794287061 a27.076887232059647,27.076887232059647 0 0,0 -0.34650031257209385,0.3098427161289228 l -4.011669993324109 -4.564544040299371" fill="#ff3e05" stroke="none" /><path d="M 113.86319453409587 115.77377054828091 l 15.639698959480947 17.79510647594972 a44.69105312208761,44.69105312208761 0 0,0 -0.5806017315577999,0.5015099473595688 l -15.331917748160292 -18.060960555774006" fill="#daff1c" stroke="none" /><path d="M 113.59037401385872 116.0094264158162 l 8.91987036277727 10.507584858656625 a34.78308480894688,34.78308480894688 0 0,0 -0.4585166958161902,0.38251093536125697 l -8.738179332799184 -10.659157977929752" fill="#ffa80f" stroke="none" /><path d="M 113.03279911837588 116.46651593811092 l 4.071990591272611 5.144827090635308 a27.561276794035415,27.561276794035415 0 0,0 -0.3735078708922986,0.29044197954801304 l -3.983072775745082 -5.213970121804115" fill="#ff4506" stroke="none" /><path d="M 112.7482090630111 116.68781488649013 l 8.32257264551657 10.894514751152222 a34.70969245107176,34.70969245107176 0 0,0 -0.4765921940044323,0.35764366742522796 l -8.13432746260137 -11.035777445841465" fill="#ffa70f" stroke="none" /><path d="M 112.16784306229584 117.11559508785304 l 7.8586348948471745 11.054154143413006 a34.56290773532153,34.56290773532153 0 0,0 -0.4865221518985486,0.3396302472396594 l -7.6677176517748675 -11.187429206457788" fill="#ffa50f" stroke="none" /><path d="M 111.8722381534696 117.32195027204791 l 8.771404283469732 12.797740986175192 a36.515144454799625,36.515144454799625 0 0,0 -0.5200864403383187,0.34993736777998713 l -8.55042155503441 -12.946428028012301" fill="#ffbf11" stroke="none" /><path d="M 111.5731344415666 117.5232005979908 l 5.112456407551322 7.740910608991272 a30.276794035414724,30.276794035414724 0 0,0 -0.4361507240432489,0.2827076299012814 l -4.978820051251064 -7.827532080596448" fill="#ff6b09" stroke="none" /><path d="M 110.96478420261333 117.91015095944535 l 9.419189038917834 15.385537415534722 a39.03984156570364,39.03984156570364 0 0,0 -0.5745683912926873,0.34501181028049105 l -9.15368789106771 -15.544963226351136" fill="#ffdf14" stroke="none" /><line stroke="#e1ed5e" stroke-width="0.3" x1="143.1302829299769" x2="145.66735839644613" y1="173.24464959558577" y2="177.55315839532614" /><path d="M 143.63769802327073 174.10635135553383 a86.0,86.0 0 0,1 -40.68552437913181,11.842963189579606" fill="none" id="id18" stroke="none" /><text fill="#e1ed5e" style="font-size:6.75px; font-family:Arial;" text-anchor="middle"><textPath startOffset="21.407464694133747" xlink:href="#id18">June</textPath></text><path d="M 110.65571695917076 118.09573695890943 l 7.3884933994623 12.547277071228905 a35.561043802423114,35.561043802423114 0 0,0 -0.5286869393267996,0.3052375467373682 l -7.172013992275102 -12.672261515242445" fill="#ffb210" stroke="none" /><path d="M 110.02825361518725 118.45085714620011 l 6.5819176220835285 12.109987087801894 a34.78308480894688,34.78308480894688 0 0,0 -0.5270650765548439,0.2806324662069573 l -6.373063729742131 -12.22119002173142" fill="#ffa80f" stroke="none" /><path d="M 109.71004243097381 118.62028667847754 l 5.429660259631208 10.41208947538353 a32.74277726001864,32.74277726001864 0 0,0 -0.5006102125565487,0.2556151415203588 l -5.250122825361077 -10.503762568576725" fill="#ff8d0d" stroke="none" /><path d="M 109.3889696526874 118.78422872680471 l 0.7940810773358631 1.58869408849723 a22.77609506057782,22.77609506057782 0 0,0 -0.35122880700956827,0.17180360980834686 l -0.7666920210642254 -1.6020914484028004" fill="#ff0000" stroke="none" /><path d="M 109.06512990194946 118.94263497670748 l 9.548800625981713 19.953320766471233 a43.12045666356011,43.12045666356011 0 0,0 -0.6704436077936663,0.31380146112975016 l -9.204868304316541 -20.11429845917152" fill="#ecff1a" stroke="none" /><path d="M 108.4095320186766 119.2426549942271 l 7.0889298330782635 16.220858753288358 a38.702236719478094,38.702236719478094 0 0,0 -0.611062105172854,0.2608260766994676 l -6.809432652734979 -16.34015947964723" fill="#ffdb14" stroke="none" /><path d="M 108.07796709384702 119.3841803445677 l 4.133088475789391 9.917907743865484 a31.744641192917054,31.744641192917054 0 0,0 -0.5048086336897529,0.2053012766341002 l -3.962225380909197 -9.987396277078876" fill="#ff7f0b" stroke="none" /><path d="M 107.407793817531 119.65005319985036 l 5.333197319704281 14.146939512473816 a36.118825722273996,36.118825722273996 0 0,0 -0.5820477359014992,0.2137359908242346 l -5.089560432148654 -14.236406352306773" fill="#ffba11" stroke="none" /><path d="M 107.06938296918513 119.77432235084164 l 6.117355160194209 17.111331130248335 a39.171947809878844,39.171947809878844 0 0,0 -0.6351343870008284,0.22093270942587717 l -5.822715001148358 -17.213822272242805" fill="#ffe115" stroke="none" /><path d="M 106.72888874123015 119.89276391827305 l 5.460559060043008 16.143172583258394 a38.04170549860205,38.04170549860205 0 0,0 -0.6204009121129698,0.20393810253944558 l -5.182635410282304 -16.23453160719986" fill="#ffd213" stroke="none" /><path d="M 106.38641147887787 120.00534299687104 l 2.5355184436178715 7.942475411618882 a29.337371854613234,29.337371854613234 0 0,0 -0.48107613357449686,0.149038615915974 l -2.3988016771717504 -7.9848306153415" fill="#ff5e08" stroke="none" /><path d="M 106.0420521117495 120.11202640906438 l 2.504382736906423 8.33627562481956 a29.704333643988818,29.704333643988818 0 0,0 -0.4896122704639481,0.14251899624636805 l -2.360910454060868 -8.378038315368446" fill="#ff6309" stroke="none" /><path d="M 105.69591212413111 120.21278271476187 l 0.5056250044953291 1.7942847656859906 a22.86416589002796,22.86416589002796 0 0,0 -0.3786943880317264,0.10321483943719109 l -0.4747492155289076 -1.8027000992673237" fill="#ff0100" stroke="none" /><path d="M 105.3480935250658 120.30758222061773 l 2.190575120471968 8.317970536776787 a29.601584342963655,29.601584342963655 0 0,0 -0.49250651817016455,0.12519323098709612 l -2.047463309076406 -8.354348999599154" fill="#ff6209" stroke="none" /><path d="M 104.9986988182912 120.39639698878246 l 2.7846898589315616 11.362484902185194 a32.69874184529357,32.69874184529357 0 0,0 -0.5463303393654212,0.12893247250985027 l -2.5892273658262615 -11.40861351834127" fill="#ff8c0c" stroke="none" /><path d="M 104.64783097203109 120.47920084513623 l 2.248112091783906 9.905596680918645 a31.157502329916124,31.157502329916124 0 0,0 -0.5226115868987286,0.1139007629553772 l -2.0777380882660417 -9.94272890200774" fill="#ff770b" stroke="none" /><path d="M 103.58742460773223 120.69131181640829 l 1.6273801750360342 9.386296390155394 a30.526328052190124,30.526328052190124 0 0,0 -0.5170905541593388,0.08508705391088317 l -1.4660121178236232 -9.412849442561948" fill="#ff6f0a" stroke="none" /><path d="M 103.2317021107853 120.74984581791261 l 0.9600233437211703 6.164038540968915 a27.2383504193849,27.2383504193849 0 0,0 -0.46263027425023645,0.06799071876633773 l -0.8540679638632483 -6.179610333034135" fill="#ff4106" stroke="none" /><path d="M 102.875027216393 120.80226474461374 l 0.6511012242157472 4.7110441127130835 a25.75582479030755,25.75582479030755 0 0,0 -0.43848945609668183,0.05677123895645907 l -0.5701339462282901 -4.721526947869937" fill="#ff2c04" stroke="none" /><path d="M 102.15924093988457 120.88869738790638 l 1.2934316068134246 12.512777489353983 a33.57945013979497,33.57945013979497 0 0,0 -0.5738894912601679,0.054347931492992614 l -1.0784425521682415 -12.53313717635216" fill="#ff980e" stroke="none" /><path d="M 101.80034050326958 120.92268563240118 l 0.9412777468166211 10.939074221600245 a31.979496738117426,31.979496738117426 0 0,0 -0.547353459960172,0.04236861950613451 l -0.7533552920812132 -10.953620608101433" fill="#ff830c" stroke="none" /><path d="M 100.72087961077811 120.9876233191556 l 0.5381403245417212 15.667368386433965 a36.676607642124885,36.676607642124885 0 0,0 -0.6294171942510961,0.01621155422741424 l -0.2691098162198814 -15.674297658011426" fill="#ffc111" stroke="none" /><line stroke="#e1ed5e" stroke-width="0.3" x1="101.45913802915013" x2="101.54496967792366" y1="184.9874750549273" y2="189.98673829345242" /><path d="M 101.47630435890484 185.9873277026323 a86.0,86.0 0 0,1 -42.54439059252881,-10.42667462771756" fill="none" id="id19" stroke="none" /><text fill="#e1ed5e" style="font-size:6.75px; font-family:Arial;" text-anchor="middle"><textPath startOffset="22.145653131862474" xlink:href="#id19">July</textPath></text><path d="M 100.36049292484886 120.99690560180557 l 0.2771730316871437 16.143939535405025 a37.14631873252563,37.14631873252563 0 0,0 -0.637665956535994,0.005473595315039572 l -1.977353755380046e-15 -16.14631873252563" fill="#ffc712" stroke="none" /><path d="M 100.0 121.0 l 3.449583505976644e-15 28.16798695246971 a49.16798695246971,49.16798695246971 0 0,0 -0.8440338774012385,-0.007245015716653406 l 0.48354095255238283 -28.163836334947494" fill="#a6ff21" stroke="none" /><path d="M 99.63950707515114 120.99690560180557 l -0.39660941079596174 23.100509844297733 a44.10391425908667,44.10391425908667 0 0,0 -0.7568792141114432,-0.019494523720100753 l 0.7931019389781488 -23.090297603227587" fill="#e1ff1b" stroke="none" /><path d="M 98.91894614982273 120.97215588758144 l -0.2954511104981207 5.731672613264918 a26.73928238583411,26.73928238583411 0 0,0 -0.45820389459370475,-0.02756440847811268 l 0.39379935722427173 -5.725756226962113" fill="#ff3a05" stroke="none" /><path d="M 98.19965949673042 120.92268563240118 l -0.5977365370827489 6.946604619331708 a27.972273998136068,27.972273998136068 0 0,0 -0.4780600643354771,-0.04527278512974482 l 0.7168961648032413 -6.93532007869678" fill="#ff4b07" stroke="none" /><path d="M 97.48249496171623 120.84855314841334 l -1.634735913722476 13.53795844003448 a34.636300093196645,34.636300093196645 0 0,0 -0.5896783548077981,-0.07634566880181487 l 1.8668920904210682 -13.507901175032266" fill="#ffa60f" stroke="none" /><path d="M 96.76829788921471 120.74984581791261 l -1.4027635210608105 9.006748079862819 a30.11533084808947,30.11533084808947 0 0,0 -0.5101286040793089,-0.08394146767454828 l 1.557169628193183 -8.981340613692602" fill="#ff6909" stroke="none" /><path d="M 96.05791012581884 120.62667999033965 l -4.3370336406997865 22.69319266411553 a44.10391425908667,44.10391425908667 0 0,0 -0.7424232710680204,-0.1485054469899736 l 4.725953397298765 -22.615397820462693" fill="#e1ff1b" stroke="none" /><path d="M 95.70440661134978 120.55596938700252 l -4.212523898608747 20.158451805660203 a41.59389561975769,41.59389561975769 0 0,0 -0.6976634893571112,-0.15205251034605238 l 4.557949804584995 -20.083167837180433" fill="#ffff18" stroke="none" /><path d="M 95.35216902796893 120.47920084513623 l -4.223331964333923 18.60877989189919 a40.08201304753029,40.08201304753029 0 0,0 -0.6696899805598412,-0.15804501194084447 l 4.5421540986336515 -18.533538736312117" fill="#ffec16" stroke="none" /><path d="M 94.6519064749342 120.30758222061772 l -4.713848510094117 17.899250591937754 a39.509552656104376,39.509552656104376 0 0,0 -0.6543884406925294,-0.17835647944688585 l 5.020418351721342 -17.815693618346724" fill="#ffe515" stroke="none" /><path d="M 94.30408787586889 120.21278271476187 l -0.6330265804311609 2.2463880137328553 a23.333876980428705,23.333876980428705 0 0,0 -0.38460894709974774,-0.11195405914988385 l 0.6714955399125154 -2.2351902602804556" fill="#ff0801" stroke="none" /><path d="M 93.61358852112213 120.00534299687104 l -4.490724567393622 14.067130746634854 a35.76654240447344,35.76654240447344 0 0,0 -0.5832965488804741,-0.19174116135862593 l 4.731543853921839 -13.987968663874206" fill="#ffb510" stroke="none" /><path d="M 93.27111125876986 119.89276391827306 l -3.301733385142277 9.760988073598103 a31.304287045666356,31.304287045666356 0 0,0 -0.5075680499664377,-0.1765585154767377 l 3.468807207153737 -9.702871125552775" fill="#ff790b" stroke="none" /><path d="M 92.93061703081489 119.77432235084164 l -3.6714013602781 10.269563028897025 a31.90610438024231,31.90610438024231 0 0,0 -0.5141605643204779,-0.18880688108437552 l 3.847151076252697 -10.20502529880393" fill="#ff820b" stroke="none" /><path d="M 92.25597844496254 119.51999308798841 l -10.257400405495797 25.85534965172742 a48.81570363466915,48.81570363466915 0 0,0 -0.7762755453641592,-0.3157045063160323 l 10.699730412050398 -25.675457888832096" fill="#aaff21" stroke="none" /><path d="M 91.92203290615298 119.3841803445677 l -2.8287941617083106 6.7880762017439995 a28.35391425908667,28.35391425908667 0 0,0 -0.44767444999705297,-0.1910856023354507 l 2.944903686875795 -6.738515949749145" fill="#ff5107" stroke="none" /><path d="M 91.26138138417905 119.09545874513695 l -1.2949117986165248 2.8296159743492777 a24.111835973904938,24.111835973904938 0 0,0 -0.37489459879806564,-0.17546960177549978 l 1.3432951112860803 -2.8069701410032515" fill="#ff1402" stroke="none" /><path d="M 90.93487009805054 118.94263497670748 l -5.43654342209178 11.360284815947123 a33.59412861136999,33.59412861136999 0 0,0 -0.5180530588459067,-0.2534057110513699 l 5.630756730199756 -11.265285354798532" fill="#ff980e" stroke="none" /><path d="M 90.6110303473126 118.78422872680471 l -6.175456973330967 12.355050721288368 a34.81244175209692,34.81244175209692 0 0,0 -0.5322536853466593,-0.2717725241956594 l 6.386637880391209 -12.247220245419873" fill="#ffa90f" stroke="none" /><path d="M 89.97174638481275 118.45085714620012 l -18.568157381149366 34.16331820616317 a59.88327120223672,59.88327120223672 0 0,0 -0.8989785370823533,-0.4986482404505352 l 19.15188010638782 -33.83953705027948" fill="#35ff2f" stroke="none" /><line stroke="#e1ed5e" stroke-width="0.3" x1="58.13341422392154" x2="55.67067388415222" y1="173.97424548756322" y2="178.32567169271397" /><path d="M 57.64086615596768 174.84453072859336 a86.0,86.0 0 0,1 -31.369924170532247,-30.572349798747897" fill="none" id="id20" stroke="none" /><text fill="#e1ed5e" style="font-size:6.75px; font-family:Arial;" text-anchor="middle"><textPath startOffset="22.145653131862474" xlink:href="#id20">August</textPath></text><path d="M 89.03521579738668 117.91015095944536 l -6.284568764778372 10.26537077358704 a33.03634669151911,33.03634669151911 0 0,0 -0.4811285653336116,-0.30025980888300796 l 6.459861458901696 -10.155975167862485" fill="#ff910d" stroke="none" /><path d="M 88.72937992617639 117.7192867562869 l -9.327409716267814 14.664237315547782 a38.37931034482759,38.37931034482759 0 0,0 -0.5528710858751203,-0.35836435826529595 l 9.577766434399944 -14.50195911557859" fill="#ffd714" stroke="none" /><path d="M 88.1277618465304 117.32195027204791 l -8.94567059373734 13.052000740867417 a36.823392357875115,36.823392357875115 0 0,0 -0.5183416924105875,-0.36184275774711067 l 9.168407377321692 -12.896513167315177" fill="#ffc312" stroke="none" /><path d="M 87.83215693770417 117.11559508785305 l -11.311671439552736 15.911282479155087 a40.52236719478098,40.52236719478098 0 0,0 -0.5634905107369323,-0.4079236746244809 l 11.583142960663622 -15.71475803315754" fill="#fff216" stroke="none" /><path d="M 87.2517909369889 116.68781488649013 l -4.6335522223432735 6.0654685980719005 a28.632805219012116,28.632805219012116 0 0,0 -0.38802912488225627,-0.30173379448162124 l 4.736991291860758 -5.985033751969486" fill="#ff5407" stroke="none" /><path d="M 86.96720088162412 116.46651593811092 l -6.066992693037046 7.66544707463784 a30.775862068965516,30.775862068965516 0 0,0 -0.41144283654832314,-0.33142922461310514 l 6.1976862999406315 -7.560169556231325" fill="#ff720a" stroke="none" /><path d="M 86.68645165197938 116.24036423190432 l -17.40191198331679 21.227503108337206 a48.44874184529357,48.44874184529357 0 0,0 -0.6386597723972364,-0.5327926968556993 l 17.76374608987592 -20.925648227569635" fill="#aeff20" stroke="none" /><path d="M 86.13680546590413 115.77377054828092 l -5.261683107185964 5.986829502131785 a28.97041006523765,28.97041006523765 0 0,0 -0.37073154151417076,-0.3315104304660982 l 5.363679675523506 -5.895623541782305" fill="#ff5908" stroke="none" /><path d="M 85.86807049272751 115.53346607816431 l -7.477542383740873 8.21912895235581 a32.11160298229264,32.11160298229264 0 0,0 -0.40456067354763114,-0.3744553196955284 l 7.617532828602472 -8.089555886527904" fill="#ff840c" stroke="none" /><path d="M 85.60350026404147 115.28858382429668 l -2.8175814953879668 2.9921739078306633 a25.10997204100652,25.10997204100652 0 0,0 -0.3112769810203183,-0.2981963064472858 l 2.8685309622735997 -2.943365471077795" fill="#ff2203" stroke="none" /><path d="M 84.58840730492382 114.26474011684316 l -14.294862655894288 13.231111464387833 a40.47833178005592,40.47833178005592 0 0,0 -0.4676255407584175,-0.5140023852309791 l 14.519885897494586 -12.983771503599181" fill="#fff116" stroke="none" /><path d="M 84.3458050057657 113.99807769240083 l -9.355314576004426 8.365579981595555 a33.55009319664492,33.55009319664492 0 0,0 -0.3802167135218852,-0.4326168245684797 l 9.497542353484905 -8.203750879215775" fill="#ff980e" stroke="none" /><path d="M 84.1078160697243 113.72728997021213 l -1.3885295838428229 1.199378783511079 a22.834808946877914,22.834808946877914 0 0,0 -0.25368976517062153,-0.2988459054771505 l 1.4089139125205565 -1.175366095584374" fill="#ff0100" stroke="none" /><path d="M 83.8745106332314 113.45245675266167 l -10.08782361364718 8.415621244384113 a34.137232059645854,34.137232059645854 0 0,0 -0.37153204617243224,-0.45320868606467823 l 10.23080247905824 -8.24121027662094" fill="#ffa00e" stroke="none" /><path d="M 83.20337586046588 112.60449989151573 l -9.556699941459067 7.171525800345155 a32.94827586206897,32.94827586206897 0 0,0 -0.33559855548054196,-0.4553038940781371 l 9.678400516523439 -7.006415596998139" fill="#ff900d" stroke="none" /><path d="M 82.98947788004972 112.3143062007846 l -16.12274090958941 11.671621068218029 a40.904007455731595,40.904007455731595 0 0,0 -0.40686807462477376,-0.5723109004446754 l 16.320724082744146 -11.393132941063849" fill="#fff617" stroke="none" /><path d="M 82.37810715431573 111.42229804090323 l -15.926216763375882 10.323181290928144 a39.979263746505126,39.979263746505126 0 0,0 -0.36834667794148496,-0.5791021584810279 l 16.101081132943257 -10.048265457768444" fill="#ffeb16" stroke="none" /><path d="M 82.18462484594161 111.11811171558189 l -5.678339517882542 3.543703827333652 a27.693383038210627,27.693383038210627 0 0,0 -0.24822770763802648,-0.40546130539026265 l 5.738335189975974 -3.4457054058188326" fill="#ff4706" stroke="none" /><path d="M 81.99639281039703 110.81064883170644 l -5.713167053177831 3.430592662810854 a27.664026095060578,27.664026095060578 0 0,0 -0.24097512649726938,-0.4092284469870034 l 5.771215889804871 -3.332013047530292" fill="#ff4706" stroke="none" /><line stroke="#e1ed5e" stroke-width="0.3" x1="26.387840678322732" x2="22.057713659400548" y1="142.50000000000003" y2="145.00000000000006" /><path d="M 25.521815274538298 143.00000000000003 a86.0,86.0 0 0,1 -11.493303480769221,-40.785679425670985" fill="none" id="id21" stroke="none" /><text fill="#e1ed5e" style="font-size:6.75px; font-family:Arial;" text-anchor="middle"><textPath startOffset="21.40746469413373" xlink:href="#id21">September</textPath></text><path d="M 81.81346652052679 110.50000000000001 l -14.771261814875022 8.528191985088544 a38.05638397017707,38.05638397017707 0 0,0 -0.3217878114780334,-0.5685682297691129 l 14.915482991374434 -8.27336698522031" fill="#ffd313" stroke="none" /><path d="M 81.63589988554817 110.18625677009913 l -10.615408290763046 5.888188035092252 a33.13909599254427,33.13909599254427 0 0,0 -0.2716690230790709,-0.4998404037457182 l 10.714922663457445 -5.705092797871947" fill="#ff920d" stroke="none" /><path d="M 81.4637452351635 109.86951160357371 l -7.203744862010082 3.83558838647739 a29.161230195712953,29.161230195712953 0 0,0 -0.2314734177328291,-0.44388079941685993 l 7.26852634871786 -3.7113613439560273" fill="#ff5c08" stroke="none" /><path d="M 81.1358732173502 109.22738970284198 l -19.42231506349709 9.500427562175835 a42.62138863000932,42.62138863000932 0 0,0 -0.31584629168481054,-0.6599972727192156 l 19.582540613141816 -9.165617787391515" fill="#f2ff19" stroke="none" /><path d="M 80.83023694016515 108.57439118712176 l -4.033153784489948 1.8039783881572584 a25.41821994408201,25.41821994408201 0 0,0 -0.17473951139838098,-0.39983819839572754 l 4.063527177905297 -1.7344781199856814" fill="#ff2703" stroke="none" /><path d="M 80.68587082218212 108.24405325689762 l -14.620597786283845 6.240663800480044 a36.89678471575023,36.89678471575023 0 0,0 -0.243649069513132,-0.5846690695021662 l 14.725572700333462 -5.9887622215365965" fill="#ffc412" stroke="none" /><path d="M 80.5471966667186 107.91128576633889 l -19.892440314485565 8.09008229926874 a42.47460391425909,42.47460391425909 0 0,0 -0.26888714879288766,-0.6777712650440447 l 20.028386138244578 -7.74741001701113" fill="#f4ff19" stroke="none" /><path d="M 80.28708602549918 107.23885506374661 l -10.279007799378578 3.774594043025375 a31.95013979496738,31.95013979496738 0 0,0 -0.18464112059949922,-0.5164740761492504 l 10.342289090022021 -3.597585010495203" fill="#ff820c" stroke="none" /><path d="M 80.05021161711548 106.5578916946017 l -9.35669245450758 3.075730657323673 a30.849254426840634,30.849254426840634 0 0,0 -0.16105556081649772,-0.5045042503671424 l 9.408112731101333 -2.914657373265139" fill="#ff730a" stroke="none" /><path d="M 79.83685265289637 105.86919833188381 l -18.814866058981842 5.476733298973589 a40.595759552656105,40.595759552656105 0 0,0 -0.18902450402079468,-0.6707812803767114 l 18.90610905507721 -5.152944094693882" fill="#fff316" stroke="none" /><path d="M 79.73907114497094 105.5222062557868 l -30.504688318079634 8.314188449416196 a52.61742777260019,52.61742777260019 0 0,0 -0.23003968392961452,-0.8734981491087792 l 30.64291748281398 -7.7893097959346145" fill="#80ff26" stroke="none" /><path d="M 79.64726062577567 105.17358676015961 l -19.87379560050656 5.051841125775606 a41.50582479030755,41.50582479030755 0 0,0 -0.16960559472560158,-0.6920487045315683 l 19.957588721748454 -4.709936596635939" fill="#fffe18" stroke="none" /><path d="M 79.56144815229197 104.8234425847677 l -1.9571865818751164 0.461890704179759 a23.01095060577819,23.01095060577819 0 0,0 -0.08742971064638744,-0.38523143697221796 l 1.9648271540791702 -0.42822493326851485" fill="#ff0300" stroke="none" /><path d="M 79.48165901384964 104.47187691870673 l -17.009379596626985 3.7071151157405753 a38.408667287977636,38.408667287977636 0 0,0 -0.13487347857146334,-0.6454184197133128 l 17.070510786022815 -3.4145802447418534" fill="#ffd714" stroke="none" /><path d="M 79.407916724674 104.11899336999214 l -3.5839436641818567 0.716889107032649 a24.654939422180803,24.654939422180803 0 0,0 -0.07945196020275194,-0.4157262289834875 l 3.5957219166667653 -0.655260313015847" fill="#ff1c02" stroke="none" /><path d="M 79.34024301695615 103.76489593502545 l -11.971299071954812 2.1815694758640043 a33.16845293569432,33.16845293569432 0 0,0 -0.09727072512118909,-0.5610316938097163 l 12.006984614568236 -1.9757447491336955" fill="#ff930d" stroke="none" /><path d="M 79.2786578344484 103.40968896794605 l -10.848288873717255 1.7850818059121079 a31.99417520969245,31.99417520969245 0 0,0 -0.0845232905190747,-0.5427001580499181 l 10.877333656374597 -1.5985934659307397" fill="#ff830c" stroke="none" /><path d="M 79.22317932658666 103.0534771498775 l -14.507952366780007 2.132169389138597 a35.66379310344828,35.66379310344828 0 0,0 -0.08381922619502699,-0.6064741662464064 l 14.542416109530247 -1.8828069146921051" fill="#ffb410" stroke="none" /><path d="M 79.17382384314188 102.69636545807758 l -8.079120060850133 1.0460038414956137 a29.14655172413793,29.14655172413793 0 0,0 -0.059983483725814885,-0.49674929323562683 l 8.09588563083561 -0.9071608713365874" fill="#ff5c08" stroke="none" /><path d="M 79.13060592940153 102.33845913500099 l -11.786442503991303 1.3206954667386714 a32.86020503261882,32.86020503261882 0 0,0 -0.058002342053385524,-0.5611200438834651 l 11.807377238526353 -1.1181709005722749" fill="#ff8f0d" stroke="none" /><path d="M 79.0935383218832 101.97986365728391 l -30.658264166371655 2.903369491832467 a51.79543336439888,51.79543336439888 0 0,0 -0.0762290098140065,-0.8858966431689753 l 30.703586798883403 -2.3766518012878297" fill="#89ff24" stroke="none" /><path d="M 79.06263194458094 101.62068470465958 l -11.283348628188325 0.8734025447058708 a32.317101584342964,32.317101584342964 0 0,0 -0.03806652761061009,-0.5534789570038589 l 11.296679116964 -0.6795801635476685" fill="#ff870c" stroke="none" /><path d="M 79.03789590574601 101.26102812881392 l -8.234414609252616 0.4953619350373406 a29.249301025163092,29.249301025163092 0 0,0 -0.025848596977774595,-0.5014558758606484 l 8.241704795686962 -0.35393426579996135" fill="#ff5d08" stroke="none" /><path d="M 79.00696218219943 100.54070618675478 l -12.35517556564871 0.31822549574616654 a33.35927306616962,33.35927306616962 0 0,0 -0.009830768723274702,-0.5725929932253031 l 12.35881776597065 -0.10608558655181104" fill="#ff950d" stroke="none" /><line stroke="#e1ed5e" stroke-width="0.3" x1="15.003131293944662" x2="10.003315487706104" y1="100.72959589197737" y2="100.7725132973878" /><path d="M 14.003168132696942 100.73817937305945 a86.0,86.0 0 0,1 10.791469493833604,-42.45332614584628" fill="none" id="id22" stroke="none" /><text fill="#e1ed5e" style="font-size:6.75px; font-family:Arial;" text-anchor="middle"><textPath startOffset="22.145653131862435" xlink:href="#id22">October</textPath></text><path d="M 79.00077361379809 100.18025310272382 l -12.24139431926309 0.10507764748718575 a33.24184529356943,33.24184529356943 0 0,0 0.0,-0.570661500422002 l 12.24139431926309 0.10507764748718125" fill="#ff940d" stroke="none" /><path d="M 79.00077361379809 99.81974689727619 l -7.896726791083385 -0.06778390209604737 a28.897017707362536,28.897017707362536 0 0,0 0.008515770032217715,-0.4960009119959871 l 7.894399589452501 0.20333173006108687" fill="#ff5808" stroke="none" /><path d="M 79.01933749520258 99.09900007780938 l -25.28238268285468 -1.0857342957991383 a46.30568499534017,46.30568499534017 0 0,0 0.040921900601821604,-0.793873939301677 l 25.260019192796292 1.5195800284775274" fill="#c7ff1e" stroke="none" /><path d="M 79.03789590574601 98.7389718711861 l -3.9560354884309747 -0.23798527128128336 a24.963187325256293,24.963187325256293 0 0,0 0.0294043033867299,-0.42753211788551587 l 3.9513672238791813 0.3058608133211242" fill="#ff2003" stroke="none" /><path d="M 79.06263194458094 98.37931529534042 l -9.424742563622928 -0.7295346806622365 a30.452935694315002,30.452935694315002 0 0,0 0.0448185676442793,-0.5208596927152291 l 9.410830373280906 0.8912154207531462" fill="#ff6e0a" stroke="none" /><path d="M 79.0935383218832 98.0201363427161 l -6.108271888247545 -0.5784596985633775 a27.135601118359737,27.135601118359737 0 0,0 0.047897705334737396,-0.46336684981802556 l 6.0974417904311435 0.6832310706643159" fill="#ff3f05" stroke="none" /><path d="M 79.17382384314186 97.30363454192245 l -13.159503666682022 -1.7037612120937395 a34.26933830382106,34.26933830382106 0 0,0 0.08054189330086767,-0.5827610180257993 l 13.128317256825946 1.9294105383196059" fill="#ffa10e" stroke="none" /><path d="M 79.22317932658666 96.9465228501225 l -35.797900484597314 -5.261058602829458 a57.182432432432435,57.182432432432435 0 0,0 0.15106647748836613,-0.9699551532542274 l 35.70231251497068 5.8748019380151355" fill="#50ff2b" stroke="none" /><path d="M 79.2786578344484 96.59031103205396 l -12.253207459499064 -2.0162606245682775 a33.41798695246971,33.41798695246971 0 0,0 0.0980025155004752,-0.565252466251713 l 12.216790126506355 2.2263061237405832" fill="#ff960d" stroke="none" /><path d="M 79.34024301695615 96.23510406497455 l -4.130025976573071 -0.7526283113354691 a25.198042870456664,25.198042870456664 0 0,0 0.08120214229890026,-0.4248839212671086 l 4.116497541992011 0.8234147976358923" fill="#ff2303" stroke="none" /><path d="M 79.407916724674 95.88100663000787 l -14.235021220384958 -2.8474029190975427 a35.51700838769804,35.51700838769804 0 0,0 0.12471930967519136,-0.5968270456941321 l 14.1840441998854 3.091346416077084" fill="#ffb210" stroke="none" /><path d="M 79.48165901384962 95.52812308129327 l -11.014505506078853 -2.400560209855612 a32.27306616961789,32.27306616961789 0 0,0 0.12262095926506596,-0.5402905716072465 l 10.971673685256127 2.5892851154018666" fill="#ff870c" stroke="none" /><path d="M 79.64726062577567 94.8264132398404 l -18.266251647137032 -4.643209739080795 a39.84715750232992,39.84715750232992 0 0,0 0.1742089627973706,-0.6614998071733557 l 18.183853203534934 4.956090050626935" fill="#ffe915" stroke="none" /><path d="M 79.73907114497095 94.47779374421319 l -39.39834860765902 -10.738195109691691 a61.83550792171482,61.83550792171482 0 0,0 0.28792234323425725,-1.0217348223936906 l 39.20820777235018 11.412937855988396" fill="#31ff41" stroke="none" /><path d="M 79.83685265289637 94.1308016681162 l -14.86867692301561 -4.328055153870507 a36.485787511649576,36.485787511649576 0 0,0 0.18021143563209074,-0.5998652586262756 l 14.792189167379888 4.582658016087507" fill="#ffbe11" stroke="none" /><path d="M 79.94057633289273 93.78553927170692 l -3.491237064149379 -1.0815941668301328 a24.654939422180803,24.654939422180803 0 0,0 0.12871672814501425,-0.4032033176209407 l 3.4721556202271073 1.141366518142465" fill="#ff1c02" stroke="none" /><path d="M 80.05021161711548 93.44210830539832 l -11.727240468317255 -3.854976874529369 a33.3445945945946,33.3445945945946 0 0,0 0.18341841844928533,-0.5422439628281893 l 11.659336628295605 4.0557225118317195" fill="#ff950d" stroke="none" /><path d="M 80.16572619554312 93.10060997987247 l -13.725021714640484 -4.774275013927945 a35.531686859273066,35.531686859273066 0 0,0 0.20533902263301124,-0.5743697918829795 l 13.641042521963529 5.009179762191846" fill="#ffb210" stroke="none" /><path d="M 80.28708602549916 92.7611449362534 l -2.8659968126953697 -1.052433727814045 a24.053122087604848,24.053122087604848 0 0,0 0.1456580518099331,-0.3863752876434258 l 2.8475080770710006 1.101477295651616" fill="#ff1302" stroke="none" /><path d="M 80.41425534168474 92.42381321644754 l -10.472806148842858 -4.051106399872528 a32.229030754892825,32.229030754892825 0 0,0 0.2040271453863216,-0.5142816867693686 l 10.401720328490406 4.230289103855479" fill="#ff860c" stroke="none" /><path d="M 80.5471966667186 92.08871423366112 l -9.531511046106893 -3.8763825644479613 a31.289608574091332,31.289608574091332 0 0,0 0.2066219068474417,-0.49581735836978513 l 9.463563294722972 4.0394324322590105" fill="#ff790b" stroke="none" /><path d="M 80.9802524753101 91.09779779509293 l -28.183968839009268 -13.19152050866938 a52.118359739049396,52.118359739049396 0 0,0 0.38622370554778473,-0.807059000000627 l 27.95336587550158 13.673392010735094" fill="#85ff25" stroke="none" /><path d="M 81.1358732173502 90.77261029715801 l -20.22663360991482 -9.89386006814511 a43.51677539608574,43.51677539608574 0 0,0 0.33400179214695924,-0.6682273232244704 l 20.053811904556117 10.23961924753335" fill="#e8ff1a" stroke="none" /><path d="M 81.29705330413844 90.45014215332179 l -11.634871313595136 -5.940848194461981 a34.06383970177073,34.06383970177073 0 0,0 0.2703889151436319,-0.518506396902741 l 11.531174329476565 6.139700834469209" fill="#ff9f0e" stroke="none" /><path d="M 81.46374523516351 90.13048839642627 l -8.693728061886267 -4.628920516773978 a30.849254426840634,30.849254426840634 0 0,0 0.252897267165707,-0.46530248717206973 l 8.61298544510521 4.777477837420667" fill="#ff730a" stroke="none" /><line stroke="#e1ed5e" stroke-width="0.3" x1="26.387840678322718" x2="22.05771365940052" y1="57.49999999999999" y2="54.99999999999999" /><path d="M 25.521815274538284 56.99999999999999 a86.0,86.0 0 0,1 29.574782752854787,-30.34633250058573" fill="none" id="id23" stroke="none" /><text fill="#e1ed5e" style="font-size:6.75px; font-family:Arial;" text-anchor="middle"><textPath startOffset="21.40746469413373" xlink:href="#id23">November</textPath></text><path d="M 81.99639281039701 89.18935116829357 l -2.340636722227043 -1.405485099741889 a23.730195712954334,23.730195712954334 0 0,0 0.21270395442482384,-0.3474359242301878 l 2.3161648033468265 1.44545814009662" fill="#ff0e01" stroke="none" /><path d="M 82.18462484594161 88.88188828441811 l -26.449107754347626 -16.506199406264628 a52.177073625349486,52.177073625349486 0 0,0 0.48073050710659593,-0.7557882043864498 l 26.16185955561514 16.957801285329747" fill="#84ff25" stroke="none" /><path d="M 82.37810715431573 88.57770195909679 l -20.360430247378453 -13.197384898611148 a45.263513513513516,45.263513513513516 0 0,0 0.4282263782722125,-0.6483893162826996 l 20.130879430185512 13.544954093232908" fill="#d3ff1c" stroke="none" /><path d="M 82.576782715395 88.27688183743585 l -19.35146244075304 -13.02052755846769 a44.32409133271202,44.32409133271202 0 0,0 0.43017641523533934,-0.6276402458062804 l 19.125096288702387 13.350802539344004" fill="#deff1b" stroke="none" /><path d="M 82.78059297857968 87.97951657250589 l -10.603656280897924 -7.402175605514203 a33.93173345759553,33.93173345759553 0 0,0 0.33751556190462306,-0.4747579060506702 l 10.47502562046333 7.583110738274393" fill="#ff9d0e" stroke="none" /><path d="M 83.2033758604659 87.39550010848427 l -2.4654876998850157 -1.85014793374998 a24.082479030754893,24.082479030754893 0 0,0 0.2509715674422419,-0.32852983807743885 l 2.433364155088467 1.892198685068303" fill="#ff1302" stroke="none" /><path d="M 83.64595745247003 86.82634096563983 l -24.313873601069147 -19.585535484215338 a52.22110904007456,52.22110904007456 0 0,0 0.5683476463807323,-0.6932917165498569 l 23.974079135449784 20.000029482463688" fill="#84ff25" stroke="none" /><path d="M 83.8745106332314 86.54754324733833 l -11.58690801656905 -9.666210770085879 a36.08946877912395,36.08946877912395 0 0,0 0.4009461555385655,-0.4723135630596621 l 11.41926729752337 9.863691115595099" fill="#ffb911" stroke="none" /><path d="M 84.10781606972428 86.27271002978789 l -13.16326045482996 -11.370110867685016 a38.39398881640261,38.39398881640261 0 0,0 0.4351116451810169,-0.49507717987295613 l 12.96613774569035 11.594400325369271" fill="#ffd714" stroke="none" /><path d="M 84.34580500576568 86.00192230759919 l -10.865295174236724 -9.71581394353729 a35.57572227399814,35.57572227399814 0 0,0 0.4109881913277711,-0.4517480168034181 l 10.696909282067088 9.900899535898365" fill="#ffb310" stroke="none" /><path d="M 84.83555147118756 85.47280134310135 l -3.7628466177039286 -3.60472194072625 a26.210857409133272,26.210857409133272 0 0,0 0.3140475084424863,-0.32224040973745777 l 3.7004123081106397 3.6687850425314377" fill="#ff3204" stroke="none" /><path d="M 85.34317274990677 84.96080404539775 l -43.140656721907675 -44.26611428110209 a82.81104380242311,82.81104380242311 0 0,0 1.026571103618311,-0.9834318952885026 l 42.37441313242407 45.000158306696164" fill="#4cddff" stroke="none" /><path d="M 85.60350026404147 84.71141617570332 l -3.079214062816852 -3.270018627843511 a25.49161230195713,25.49161230195713 0 0,0 0.3211581760145162,-0.2972592131058656 l 3.0226261154883827 3.322395587081742" fill="#ff2803" stroke="none" /><path d="M 85.86807049272753 84.46653392183569 l -14.115466402068295 -15.515370241633365 a41.97553588070829,41.97553588070829 0 0,0 0.5371568813798044,-0.48032899560351894 l 13.847044493865099 15.755394767120285" fill="#faff18" stroke="none" /><path d="M 86.13680546590413 84.22622945171909 l -15.60093886292709 -17.75100460116421 a44.63233923578751,44.63233923578751 0 0,0 0.5798389528432655,-0.500851077273278 l 15.293920430320977 18.0161998109022" fill="#daff1b" stroke="none" /><path d="M 86.40962598614128 83.9905735841838 l -5.832588288333591 -6.870774337822332 a30.012581547064308,30.012581547064308 0 0,0 0.3956310890612419,-0.3300495256021707 l 5.71378286511044 6.969886047336384" fill="#ff6809" stroke="none" /><path d="M 86.96720088162412 83.53348406188908 l -6.039663897122464 -7.630918033761094 a30.731826654240447,30.731826654240447 0 0,0 0.4164748689995406,-0.32385337715976814 l 5.907779083487679 7.733472462541667" fill="#ff720a" stroke="none" /><path d="M 87.25179093698888 83.31218511350988 l -19.149045626568665 -25.066715417800975 a52.54403541472507,52.54403541472507 0 0,0 0.7214721696382643,-0.5414061664053809 l 18.715920468019647 25.391740611470354" fill="#80ff25" stroke="none" /><path d="M 87.54013794807813 83.09580414077388 l -4.0236180810726285 -5.458810685202097 a27.781453867660765,27.781453867660765 0 0,0 0.38631962327507235,-0.279665615131327 l 3.929317447423588 5.527077071706502" fill="#ff4806" stroke="none" /><path d="M 87.83215693770416 82.88440491214696 l -10.52920995651602 -14.810652412927812 a39.171947809878844,39.171947809878844 0 0,0 0.5514009552802502,-0.38492069074188157 l 10.273413910062004 14.98921791947482" fill="#ffe115" stroke="none" /><path d="M 88.12776184653039 82.6780497279521 l -3.7176812857090296 -5.424208100100744 a27.57595526561044,27.57595526561044 0 0,0 0.39276526567692643,-0.26426999930431755 l 3.6240197319351135 5.487227773462171" fill="#ff4606" stroke="none" /><path d="M 88.4268655584334 82.4767994020092 l -6.0022826810175305 -9.088220999796718 a31.891425908667287,31.891425908667287 0 0,0 0.45941021643725644,-0.2977841518578608 l 5.845386832323248 9.189918993358486" fill="#ff810b" stroke="none" /><line stroke="#e1ed5e" stroke-width="0.3" x1="56.869717070023135" x2="54.33264160355391" y1="26.7553504044142" y2="22.446841604673864" /><path d="M 56.362301976729285 25.89364864446614 a86.0,86.0 0 0,1 42.16139366436587,-11.88097634709845" fill="none" id="id24" stroke="none" /><text fill="#e1ed5e" style="font-size:6.75px; font-family:Arial;" text-anchor="middle"><textPath startOffset="22.145653131862474" xlink:href="#id24">December</textPath></text><path d="M 89.34428304082924 81.90426304109057 l -31.967150877512267 -54.287210876728295 a84.0,84.0 0 0,0 1.2488301285584011,-0.721012410895304 l 31.030528281093464 54.827970184899776" fill="#4dd2ff" stroke="none" /><path d="M 89.65649057296885 81.72400993836675 l -2.725654511177128 -4.815970354079033 a26.533783783783782,26.533783783783782 0 0,0 0.39832997847843793,-0.22094692441893032 l 2.6425803445425875 4.862050193931109" fill="#ff3705" stroke="none" /><path d="M 89.97174638481275 81.54914285379989 l -3.6309194123953876 -6.680482759831077 a28.60344827586207,28.60344827586207 0 0,0 0.43342557849761404,-0.2307747077571817 l 3.5157050181112113 6.741827935310834" fill="#ff5407" stroke="none" /><path d="M 90.28995756902619 81.37971332152246 l -2.9455906908499334 -5.6485585403955625 a27.370456663560113,27.370456663560113 0 0,0 0.41847183637796376,-0.21367470138447509 l 2.8481916327583874 5.698291193452872" fill="#ff4306" stroke="none" /><path d="M 90.93487009805054 81.0573650232925 l -1.5207114467389575 -3.1777020464187764 a24.52283317800559,24.52283317800559 0 0,0 0.38128484764117637,-0.17846056089665402 l 1.4659378852262588 3.2033388388859736" fill="#ff1a02" stroke="none" /><path d="M 91.5904679813234 80.7573450057729 l -12.678956591998194 -29.01193393933913 a52.66146318732525,52.66146318732525 0 0,0 0.8314616230057431,-0.3549015250968862 l 12.17905989382202 29.22531011409542" fill="#7fff26" stroke="none" /><path d="M 91.92203290615298 80.6158196554323 l -5.104251341685259 -12.248345082587972 a34.26933830382106,34.26933830382106 0 0,0 0.5449567925960279,-0.22162918334544354 l 4.89324008789879 12.334161522512707" fill="#ffa10e" stroke="none" /><path d="M 92.25597844496254 80.48000691201159 l -8.730969316129148 -22.007746167934734 a44.67637465051258,44.67637465051258 0 0,0 0.7153064937492039,-0.2766959183158321 l 8.351890559886415 22.154381974388606" fill="#daff1c" stroke="none" /><path d="M 92.592206182469 80.34994680014964 l -3.929996859859759 -10.424783582492845 a32.14095992544269,32.14095992544269 0 0,0 0.5179452150009413,-0.19019665723711696 l 3.7504624932046906 10.490711088738683" fill="#ff850c" stroke="none" /><path d="M 93.27111125876988 80.10723608172694 l -3.8896488739496626 -11.499055750520844 a33.13909599254427,33.13909599254427 0 0,0 0.5404469939216483,-0.17765566154335058 l 3.6916791423802535 11.564132333466222" fill="#ff920d" stroke="none" /><path d="M 93.61358852112211 79.99465700312896 l -1.7989681915105709 -5.63524223746903 a26.91542404473439,26.91542404473439 0 0,0 0.44136087571603905,-0.13673472751063892 l 1.7019666829229156 5.66529355278631" fill="#ff3c05" stroke="none" /></svg>