<?xml version="1.0" encoding="utf-8" ?>
<svg baseProfile="full" height="200mm" version="1.1" viewBox="0,0,200,200" width="200mm" xmlns="http://www.w3.org/2000/svg" xmlns:ev="http://www.w3.org/2001/xml-events" xmlns:xlink="http://www.w3.org/1999/xlink"><defs /><rect fill="#1a1a1a" height="200" width="200" x="0" y="0" /><text alignment-baseline="middle" fill="#e1ed5e" style="dominant-baseline: central; font-size:9.0px; font-family:Arial;" text-anchor="middle" x="100.0" y="100.0">2025</text><line stroke="#e1ed5e" stroke-width="0.3" x1="100.0" x2="100.0" y1="15.0" y2="10.0" /><path d="M 100.0 14.0 a86.0,86.0 0 0,1 42.46469731375804,11.215312516191453" fill="none" id="id25" stroke="none" /><text fill="#e1ed5e" style="font-size:6.75px; font-family:Arial;" text-anchor="middle"><textPath startOffset="22.20632615414155" xlink:href="#id25">January</textPath></text><path d="M 100.0 79.0 l 0.0 -40.59752321981424 a61.59752321981424,61.59752321981424 0 0,0 1.0603001054999595,0.009126337756728182 l -0.698819626227431 40.591508258666074" fill="#30ff36" stroke="none" /><path d="M 100.36148047927253 79.00311137660856 l 0.46140321237528387 -26.80098211725241 a47.804953560371516,47.804953560371516 0 0,0 0.8226398534506923,0.021246360390656752 l -0.922669701020844 26.78906896471939" fill="#c2ff1e" stroke="none" /><path d="M 100.72285384407766 79.0124445844662 l 0.12180774639256468 -3.5366026595835383 a24.538699690402478,24.538699690402478 0 0,0 0.4220179216397108,0.018172979444085552 l -0.182666500421607 3.533981953615258" fill="#ff0000" stroke="none" /><path d="M 101.44485096284872 79.0497635885617 l 1.4627438540295061 -21.209682063592332 a42.26006191950464,42.26006191950464 0 0,0 0.7252829006640193,0.05629591200463795 l -1.8276169440558667 21.18136088939923" fill="#fff817" stroke="none" /><path d="M 101.80526077348638 79.07773832637324 l 4.117527558102274 -47.72052341923627 a68.89783281733746,68.89783281733746 0 0,0 1.1806951823284249,0.11212123431508536 l -4.9383478675209425 47.64257664040601" fill="#39ff8e" stroke="none" /><path d="M 102.16513564639614 79.11191278185805 l 2.427518294389294 -23.41941667314897 a44.54489164086687,44.54489164086687 0 0,0 0.7620003936166995,0.0856196228018569 l -2.830285391515719 23.374161096876513" fill="#e9ff1a" stroke="none" /><path d="M 102.88285421437855 79.19881850522331 l 5.733832552879428 -41.372363194166624 a62.76780185758514,62.76780185758514 0 0,0 1.0689387130752517,0.1575337797612436 l -6.445140246383335 41.26753493024441" fill="#32ff44" stroke="none" /><path d="M 103.2404852339499 79.25152402106235 l 6.445140246383335 -41.26753493024441 a62.76780185758514,62.76780185758514 0 0,0 1.0660686532125085,0.1759104622087645 l -7.154538105734719 41.15047820509602" fill="#32ff44" stroke="none" /><path d="M 103.59715602781102 79.31037775812273 l 1.2648116064174122 -7.274767661341191 a28.38390092879257,28.38390092879257 0 0,0 0.4806406501147877,0.08783400663075766 l -1.3898473776351006 7.251918173359695" fill="#ff3a05" stroke="none" /><path d="M 103.95276090670814 79.375362276772 l 3.7184973235595704 -19.40230182985669 a40.755417956656345,40.755417956656345 0 0,0 0.687861386668843,0.1379785231018177 l -4.051925119695539 19.335419350677665" fill="#ffe515" stroke="none" /><path d="M 104.307194497241 79.44645832069477 l 2.811773143709739 -13.417526545181115 a34.70897832817337,34.70897832817337 0 0,0 0.5837013444662831,0.1275745058008544 l -3.04231721232955 13.36713854128439" fill="#ff940d" stroke="none" /><path d="M 105.01212808612495 79.60689891045804 l 8.98458873642832 -36.556054275061285 a58.643962848297214,58.643962848297214 0 0,0 0.978212329430673,0.24936810357796038 l -9.612509954544016 36.395983175314456" fill="#48ff2c" stroke="none" /><path d="M 105.36241919743992 79.69619591428918 l 8.580819396876452 -32.4896785413984 a54.60371517027864,54.60371517027864 0 0,0 0.9066871779096878,0.24783185602928784 l -9.13880446400985 32.337160144542814" fill="#74ff27" stroke="none" /><path d="M 105.71112130821622 79.79150937346287 l 16.36800799524152 -57.91730175141996 a81.18575851393189,81.18575851393189 0 0,0 1.3415358278989489,0.39163109549828073 l -17.362534040863896 57.62697232700298" fill="#49edff" stroke="none" /><path d="M 106.0581310904928 79.89281104454417 l 4.501397714298048 -14.940326158852628 a36.60371517027864,36.60371517027864 0 0,0 0.6017208519005128,0.18695759771251058 l -4.757903938909279 14.860628426257597" fill="#ffae10" stroke="none" /><path d="M 106.40334571778207 80.00007090966166 l 8.241369322753572 -25.74073138119619 a48.027863777089784,48.027863777089784 0 0,0 0.7851805069369567,0.2588616682244536 l -8.683232651932945 25.595055988712502" fill="#bfff1e" stroke="none" /><path d="M 106.74666289553966 80.11325718540242 l 6.525852168308369 -19.235871975022075 a41.31269349845201,41.31269349845201 0 0,0 0.6714650357923745,0.23426096642636937 l -6.855999208164017 19.1206901554235" fill="#ffec16" stroke="none" /><path d="M 107.4271985657038 80.35727306442388 l 15.452252124312553 -40.86660216937197 a64.69040247678018,64.69040247678018 0 0,0 1.0381787951248647,0.4027972434331452 l -16.153414084437085 40.594562222048275" fill="#34ff5c" stroke="none" /><path d="M 107.76421540070413 80.48803036053334 l 20.449315661739554 -51.39043750686598 a76.30959752321982,76.30959752321982 0 0,0 1.216288247439986,0.49615451530991267 l -21.33088777876793 51.030822105372486" fill="#43ffdf" stroke="none" /><path d="M 108.09893153111575 80.62456947434976 l 19.041981432733888 -45.55497066535014 a70.37461300309597,70.37461300309597 0 0,0 1.1136489019118891,0.47680634083411494 l -19.82331409243609 45.22044479655324" fill="#3bff9f" stroke="none" /><path d="M 108.43124777332544 80.76684994638697 l 17.630667612685826 -40.21863487548979 a64.91331269349845,64.91331269349845 0 0,0 1.0195033940891964,0.45742145511718846 l -18.3203531252418 39.90919308985607" fill="#34ff5f" stroke="none" /><path d="M 108.76106565485865 80.91482961587045 l 2.231921192922858 -4.862033675921549 a26.349845201238388,26.349845201238388 0 0,0 0.4105830227965681,0.19277423452026168 l -2.315282427019024 4.822894458761285" fill="#ff1b02" stroke="none" /><path d="M 109.08828744355905 81.06846463323043 l 13.119933753107807 -27.329735266313953 a51.315789473684205,51.315789473684205 0 0,0 0.7930213400121027,0.3891321274900722 l -13.588426360130342 27.09984797868905" fill="#99ff23" stroke="none" /><path d="M 109.73455568895987 81.39251694778311 l 8.666811411709954 -16.566503044720303 a39.69659442724458,39.69659442724458 0 0,0 0.6027359890039796,0.32196069125674603 l -8.950692447242245 16.414863626961804" fill="#ffd714" stroke="none" /><path d="M 110.05341064243156 81.56283822128135 l 9.230818440375016 -16.928592592932294 a40.28173374613003,40.28173374613003 0 0,0 0.6059061590865032,0.3371861215309596 l -9.520848688533555 16.767191073841154" fill="#ffde14" stroke="none" /><line stroke="#e1ed5e" stroke-width="0.3" x1="143.23703022742887" x2="145.7803849466894" y1="26.81831364943548" y2="22.513508569990506" /><path d="M 143.74570117128098 25.957352633546492 a86.0,86.0 0 0,1 28.547481713284135,27.462654790039103" fill="none" id="id26" stroke="none" /><text fill="#e1ed5e" style="font-size:6.75px; font-family:Arial;" text-anchor="middle"><textPath startOffset="19.985693538727396" xlink:href="#id26">February</textPath></text><path d="M 110.68208982089419 81.91981866633111 l 9.992313123039018 -16.91268620995563 a40.643962848297214,40.643962848297214 0 0,0 0.5992815560511359,0.3610604321137119 l -10.281956745307792 16.738179168383304" fill="#ffe315" stroke="none" /><path d="M 111.2981086023043 82.29822771554956 l 15.59049041980955 -24.42703650043581 a49.978328173374614,49.978328173374614 0 0,0 0.7211943539384292,0.4690848691276337 l -16.00865179953226 24.155052707148652" fill="#a8ff21" stroke="none" /><path d="M 111.60114157652 82.49532879139004 l 23.905227158339997 -36.06999697519409 a64.27244582043343,64.27244582043343 0 0,0 0.9169391927053208,0.6191214360429911 l -24.52257104545186 35.653163626852425" fill="#33ff57" stroke="none" /><path d="M 112.19680574252982 82.90503203632743 l 36.590417227589455 -51.28490389101772 a84.0,84.0 0 0,0 1.1698187345848452,0.8499230607333006 l -37.46778127852809 50.647461595467746" fill="#4dd2ff" stroke="none" /><line stroke="#e1ed5e" stroke-width="0.3" x1="172.23445277983987" x2="176.4835382374775" y1="55.19839476539836" y2="52.563006222186495" /><path d="M 173.08426987136738 54.67131705675599 a86.0,86.0 0 0,1 12.851231095245387,41.99856678651699" fill="none" id="id27" stroke="none" /><text fill="#e1ed5e" style="font-size:6.75px; font-family:Arial;" text-anchor="middle"><textPath startOffset="22.20632615414155" xlink:href="#id27">March</textPath></text><line stroke="#e1ed5e" stroke-width="0.3" x1="184.98032266829074" x2="189.97916517819016" y1="98.17113171792111" y2="98.06355123074" /><path d="M 185.9800911702706 98.14961562048488 a86.0,86.0 0 0,1 -9.607161424134198,41.387399972396054" fill="none" id="id28" stroke="none" /><text fill="#e1ed5e" style="font-size:6.75px; font-family:Arial;" text-anchor="middle"><textPath startOffset="21.466115282336823" xlink:href="#id28">April</textPath></text><line stroke="#e1ed5e" stroke-width="0.3" x1="174.80103733775053" x2="179.2010983576182" y1="140.37084112569926" y2="142.7455964860345" /><path d="M 175.68104954172406 140.8457921977663 a86.0,86.0 0 0,1 -30.038265399797805,32.042727171017184" fill="none" id="id29" stroke="none" /><text fill="#e1ed5e" style="font-size:6.75px; font-family:Arial;" text-anchor="middle"><textPath startOffset="22.206326154141568" xlink:href="#id29">May</textPath></text><line stroke="#e1ed5e" stroke-width="0.3" x1="143.8653032363475" x2="146.44561519142675" y1="172.8068346515853" y2="177.08958963109032" /><path d="M 144.38136562736335 173.6633856474863 a86.0,86.0 0 0,1 -40.68145358897372,12.25698825130547" fill="none" id="id30" stroke="none" /><text fill="#e1ed5e" style="font-size:6.75px; font-family:Arial;" text-anchor="middle"><textPath startOffset="21.466115282336833" xlink:href="#id30">June</textPath></text><line stroke="#e1ed5e" stroke-width="0.3" x1="102.19456741930631" x2="102.32365962044197" y1="184.97166512339345" y2="189.96999836594603" /><path d="M 102.22038585953345 185.97133177190398 a86.0,86.0 0 0,1 -42.740103519485714,-10.115201625700543" fill="none" id="id31" stroke="none" /><text fill="#e1ed5e" style="font-size:6.75px; font-family:Arial;" text-anchor="middle"><textPath startOffset="22.20632615414155" xlink:href="#id31">July</textPath></text><line stroke="#e1ed5e" stroke-width="0.3" x1="58.666819895761336" x2="56.23545636021788" y1="174.27360380694188" y2="178.64263932499728" /><path d="M 58.180547188652646 175.14741091055294 a86.0,86.0 0 0,1 -31.652253787137756,-30.449443065178592" fill="none" id="id32" stroke="none" /><text fill="#e1ed5e" style="font-size:6.75px; font-family:Arial;" text-anchor="middle"><textPath startOffset="22.20632615414155" xlink:href="#id32">August</textPath></text><line stroke="#e1ed5e" stroke-width="0.3" x1="26.63291911575756" x2="22.317208475507996" y1="142.92168965132927" y2="145.44649492493687" /><path d="M 25.769776987707644 143.4266507060508 a86.0,86.0 0 0,1 -11.730757126820373,-40.83630448921669" fill="none" id="id33" stroke="none" /><text fill="#e1ed5e" style="font-size:6.75px; font-family:Arial;" text-anchor="middle"><textPath startOffset="21.46611528233685" xlink:href="#id33">September</textPath></text><line stroke="#e1ed5e" stroke-width="0.3" x1="15.007084014347285" x2="10.007500721073583" y1="101.09737516637583" y2="101.16192664675087" /><path d="M 14.007167355692545 101.11028546245083 a86.0,86.0 0 0,1 10.666146001902534,-42.60595125391555" fill="none" id="id34" stroke="none" /><text fill="#e1ed5e" style="font-size:6.75px; font-family:Arial;" text-anchor="middle"><textPath startOffset="22.20632615414155" xlink:href="#id34">October</textPath></text><line stroke="#e1ed5e" stroke-width="0.3" x1="26.266209847984243" x2="21.928928074336255" y1="57.711370442889674" y2="55.22380399835377" /><path d="M 25.398753493254645 57.213857153982495 a86.0,86.0 0 0,1 29.58750427330803,-30.492523968695096" fill="none" id="id35" stroke="none" /><text fill="#e1ed5e" style="font-size:6.75px; font-family:Arial;" text-anchor="middle"><textPath startOffset="21.46611528233685" xlink:href="#id35">November</textPath></text><line stroke="#e1ed5e" stroke-width="0.3" x1="56.762969772571076" x2="54.21961505331055" y1="26.818313649435495" y2="22.513508569990535" /><path d="M 56.25429882871897 25.957352633546506 a86.0,86.0 0 0,1 42.265352541879196,-11.944610805530505" fill="none" id="id36" stroke="none" /><text fill="#e1ed5e" style="font-size:6.75px; font-family:Arial;" text-anchor="middle"><textPath startOffset="22.20632615414155" xlink:href="#id36">December</textPath></text></svg>