<?xml version="1.0" encoding="utf-8" ?>
<svg baseProfile="full" height="200mm" version="1.1" viewBox="0,0,200,200" width="200mm" xmlns="http://www.w3.org/2000/svg" xmlns:ev="http://www.w3.org/2001/xml-events" xmlns:xlink="http://www.w3.org/1999/xlink"><defs /><rect fill="#1a1a1a" height="200" width="200" x="0" y="0" /><text alignment-baseline="middle" fill="#e1ed5e" style="dominant-baseline: central; font-size:9.0px; font-family:Arial;" text-anchor="middle" x="100.0" y="100.0">2023</text><line stroke="#e1ed5e" stroke-width="0.3" x1="100.0" x2="100.0" y1="15.0" y2="10.0" /><path d="M 100.0 14.0 a86.0,86.0 0 0,1 42.46469731375804,11.215312516191453" fill="none" id="id1" stroke="none" /><text fill="#e1ed5e" style="font-size:6.75px; font-family:Arial;" text-anchor="middle"><textPath startOffset="22.20632615414155" xlink:href="#id1">January</textPath></text><line stroke="#e1ed5e" stroke-width="0.3" x1="143.23703022742887" x2="145.7803849466894" y1="26.81831364943548" y2="22.513508569990506" /><path d="M 143.74570117128098 25.957352633546492 a86.0,86.0 0 0,1 28.547481713284135,27.462654790039103" fill="none" id="id2" stroke="none" /><text fill="#e1ed5e" style="font-size:6.75px; font-family:Arial;" text-anchor="middle"><textPath startOffset="19.985693538727396" xlink:href="#id2">February</textPath></text><line stroke="#e1ed5e" stroke-width="0.3" x1="172.23445277983987" x2="176.4835382374775" y1="55.19839476539836" y2="52.563006222186495" /><path d="M 173.08426987136738 54.67131705675599 a86.0,86.0 0 0,1 12.851231095245387,41.99856678651699" fill="none" id="id3" stroke="none" /><text fill="#e1ed5e" style="font-size:6.75px; font-family:Arial;" text-anchor="middle"><textPath startOffset="22.20632615414155" xlink:href="#id3">March</textPath></text><path d="M 120.78858239683441 97.02765380044208 l 2.4020833629612532 -0.34344926549712157 a23.426512287334592,23.426512287334592 0 0,0 0.053640020899800404,0.3996804600927976 l -2.4076393829188896 0.30205046333965957" fill="#ff0d01" stroke="none" /><path d="M 120.83666639777658 97.38593545837742 l 4.150593046627044 -0.5207127619536465 a25.18312854442344,25.18312854442344 0 0,0 0.05025790607438239,0.43057904725930346 l -4.1589413057050155 0.44918997636949026" fill="#ff2703" stroke="none" /><path d="M 120.87857604477298 97.74499172005257 l 3.3893151566065782 -0.36606585262851693 a24.409026465028354,24.409026465028354 0 0,0 0.04152193260139819,0.41812019481684415 l -3.395114214890205 0.30767012710723785" fill="#ff1c02" stroke="none" /><line stroke="#e1ed5e" stroke-width="0.3" x1="184.98032266829074" x2="189.97916517819016" y1="98.17113171792111" y2="98.06355123074" /><path d="M 185.9800911702706 98.14961562048488 a86.0,86.0 0 0,1 -9.607161424134198,41.387399972396054" fill="none" id="id4" stroke="none" /><text fill="#e1ed5e" style="font-size:6.75px; font-family:Arial;" text-anchor="middle"><textPath startOffset="21.466115282336823" xlink:href="#id4">April</textPath></text><path d="M 120.13307415673323 105.97154293290107 l 6.008523785433379 1.7821499821016207 a27.267249527410208,27.267249527410208 0 0,0 -0.13734023749499075,0.4488358425865893 l -5.976956775432256 -1.885312797240267" fill="#ff4506" stroke="none" /><line stroke="#e1ed5e" stroke-width="0.3" x1="174.80103733775053" x2="179.2010983576182" y1="140.37084112569926" y2="142.7455964860345" /><path d="M 175.68104954172406 140.8457921977663 a86.0,86.0 0 0,1 -30.038265399797805,32.042727171017184" fill="none" id="id5" stroke="none" /><text fill="#e1ed5e" style="font-size:6.75px; font-family:Arial;" text-anchor="middle"><textPath startOffset="22.206326154141568" xlink:href="#id5">May</textPath></text><path d="M 116.71984013943494 112.70617746262583 l 3.283125509421178 2.4949984573350803 a25.123582230623818,25.123582230623818 0 0,0 -0.2646269103083458,0.34206595364002873 l -3.2396917818947637 -2.5511424050883615" fill="#ff2603" stroke="none" /><path d="M 114.55890576462653 115.13401014063108 l 2.9413668309914183 3.0575563965594448 a25.24267485822306,25.24267485822306 0 0,0 -0.3157307680656809,0.29854314812700794 l -2.8883002285349297 -3.1077341814323742" fill="#ff2803" stroke="none" /><path d="M 112.04921762599082 117.19931262002967 l 0.948107152517708 1.3533485591847536 a22.652410207939507,22.652410207939507 0 0,0 -0.3212792584349097,0.2209788035322177 l -0.9246710094599151 -1.3694681520820653" fill="#ff0200" stroke="none" /><path d="M 111.7513745106137 117.40417183066458 l 1.0662872901880114 1.5792065177162573 a22.905482041587902,22.905482041587902 0 0,0 -0.3286667274613246,0.2178223853124939 l -1.0389458639867226 -1.5973269241200696" fill="#ff0600" stroke="none" /><path d="M 111.45004920935366 117.60387380957326 l 1.0308290994243254 1.58484780752538 a22.890595463137995,22.890595463137995 0 0,0 -0.33215147617143426,0.21199478729578677 l -1.0033958212059608 -1.6023570236449756" fill="#ff0500" stroke="none" /><line stroke="#e1ed5e" stroke-width="0.3" x1="143.8653032363475" x2="146.44561519142675" y1="172.8068346515853" y2="177.08958963109032" /><path d="M 144.38136562736335 173.6633856474863 a86.0,86.0 0 0,1 -40.68145358897372,12.25698825130547" fill="none" id="id6" stroke="none" /><text fill="#e1ed5e" style="font-size:6.75px; font-family:Arial;" text-anchor="middle"><textPath startOffset="21.466115282336833" xlink:href="#id6">June</textPath></text><path d="M 110.8373102113329 117.98757091392108 l 2.98845487160338 4.960183189164908 a26.790879017013232,26.790879017013232 0 0,0 -0.397056300642194,0.23458786110256294 l -2.902630699932804 -5.010889622561221" fill="#ff3e05" stroke="none" /><path d="M 109.89434966115114 118.52300852407294 l 5.400743789522479 10.110621382468917 a32.46266540642722,32.46266540642722 0 0,0 -0.49514700275795503,0.2590375097503929 l -5.225905884238028 -10.202088311164028" fill="#ff8c0c" stroke="none" /><path d="M 109.2508944713604 118.85261126421891 l 1.6656856302402228 3.3945391737558626 a24.781190926275993,24.781190926275993 0 0,0 -0.3845655330829012,0.1846148258887517 l -1.6070074291570888 -3.4227082761441743" fill="#ff2103" stroke="none" /><path d="M 108.59647513512805 119.15986991738527 l 2.833667961602936 6.315694360763813 a27.92225897920605,27.92225897920605 0 0,0 -0.4402134602317626,0.19297664428452369 l -2.7245338267134196 -6.363535558342791" fill="#ff4e07" stroke="none" /><path d="M 107.93186726928326 119.44442032107085 l 0.8996446808260791 2.2054162935052 a23.381852551984878,23.381852551984878 0 0,0 -0.373974832157544,0.14881230367641857 l -0.8615487726266688 -2.220575441587688" fill="#ff0d01" stroke="none" /><path d="M 107.59598834532513 119.57807347666477 l 0.8507794129688355 2.192818248567842 a23.352079395085067,23.352079395085067 0 0,0 -0.3760015928880309,0.14217162925288163 l -0.8129075993205298 -2.207138127927354" fill="#ff0c01" stroke="none" /><path d="M 106.91757812671514 119.82793768551818 l 0.5001840516953764 1.433683585011476 a22.51843100189036,22.51843100189036 0 0,0 -0.3670828808910359,0.12453444363334538 l -0.4754314378671135 -1.4420810155429444" fill="#ff0000" stroke="none" /><path d="M 105.88484417918355 120.15858648285463 l 0.4296826208335812 1.4718816689986 a22.533317580340263,22.533317580340263 0 0,0 -0.37326851740004374,0.10548941149569589 l -0.4042829353289317 -1.479059873832815" fill="#ff0000" stroke="none" /><path d="M 105.18746579009965 120.34920634021253 l 1.4010570411351382 5.496016740752107 a26.671786389413988,26.671786389413988 0 0,0 -0.4458591905730719,0.10958134134264863 l -1.3062445658188553 -5.519319340408786" fill="#ff3c05" stroke="none" /><path d="M 104.48393922423573 120.51570834832081 l 0.4163960574491115 1.90516856826325 a22.950141776937617,22.950141776937617 0 0,0 -0.3866645772422322,0.081029321630375 l -0.3835400187775013 -1.9120538706201662" fill="#ff0601" stroke="none" /><path d="M 104.13013068566511 120.58985236759428 l 1.859144365829874 9.26835273163211 a30.45297731568998,30.45297731568998 0 0,0 -0.51484729427539,0.09867170929476633 l -1.6993294569827797 -9.298981639275345" fill="#ff710a" stroke="none" /><path d="M 103.7750983002368 120.6578951692458 l 1.142698705719129 6.253015999953656 a27.35656899810964,27.35656899810964 0 0,0 -0.46395572312726574,0.0806646494833868 l -1.0348940111198133 -6.271759227958049" fill="#ff4606" stroke="none" /><path d="M 103.41894727170886 120.7198165907248 l 1.4469127040714955 8.768712550564299 a29.887287334593573,29.887287334593573 0 0,0 -0.508317484283058,0.07938873696795415 l -1.2957593561799203 -8.792319594879359" fill="#ff6909" stroke="none" /><path d="M 102.70371172650421 120.8252237178851 l 0.7053161025663153 5.432667056839589 a26.47826086956522,26.47826086956522 0 0,0 -0.4524915100656509,0.0547904203028184 l -0.611697169449284 -5.444003005867759" fill="#ff3905" stroke="none" /><path d="M 102.34483914955558 120.86867818915974 l 0.9591012684028174 8.535841669526349 a29.589555765595463,29.589555765595463 0 0,0 -0.5066399873442323,0.05251530621415705 l -0.8120286844529824 -8.551086344196264" fill="#ff6509" stroke="none" /><path d="M 101.26447882468166 120.96189622390904 l 0.1622429115789562 2.689581675232183 a23.69447069943289,23.69447069943289 0 0,0 -0.40733269691059426,0.021054447710417284 l -0.11592214625488236 -2.6919759297048023" fill="#ff1101" stroke="none" /><line stroke="#e1ed5e" stroke-width="0.3" x1="102.19456741930631" x2="102.32365962044197" y1="184.97166512339345" y2="189.96999836594603" /><path d="M 102.22038585953345 185.97133177190398 a86.0,86.0 0 0,1 -42.740103519485714,-10.115201625700543" fill="none" id="id7" stroke="none" /><text fill="#e1ed5e" style="font-size:6.75px; font-family:Arial;" text-anchor="middle"><textPath startOffset="22.20632615414155" xlink:href="#id7">July</textPath></text><path d="M 100.54218724476979 120.99299961872073 l 0.43815698892076976 16.965042224958626 a37.970699432892246,37.970699432892246 0 0,0 -0.6535305418103272,0.01125112094987483 l -0.14606675721777462 -16.97007082318766" fill="#ffd413" stroke="none" /><path d="M 99.81925306533755 120.99922214144158 l -0.041129323742896406 4.778414679160736 a25.77859168241966,25.77859168241966 0 0,0 -0.44368677008685964,-0.007638470116910578 l 0.12337578372242397 -4.776998731764666" fill="#ff2f04" stroke="none" /><path d="M 99.09653310690486 120.98055641714683 l -0.15114710782404472 3.5099796652504627 a24.513232514177695,24.513232514177695 0 0,0 -0.4214080675891694,-0.021781983599887204 l 0.211543243826703 -3.506857874888374" fill="#ff1d02" stroke="none" /><path d="M 98.73552117531835 120.96189622390904 l -1.2253373487758599 20.313028453272906 a41.34995274102079,41.34995274102079 0 0,0 -0.7101110856401645,-0.04897341804012187 l 1.5748111951949544 -20.288926690716497" fill="#fffe18" stroke="none" /><path d="M 98.01472825383883 120.90594882070398 l -0.18576739401697215 1.9562277251887472 a22.965028355387524,22.965028355387524 0 0,0 -0.3932131245059816,-0.0407581481065074 l 0.21941311512854705 -1.9527402086264791" fill="#ff0701" stroke="none" /><path d="M 97.2962882734958 120.8252237178851 l -1.657876164999618 12.769720120016968 a33.87689035916824,33.87689035916824 0 0,0 -0.577635517005554,-0.080055019230148 l 1.877440273192003 -12.739290535294217" fill="#ff9f0e" stroke="none" /><path d="M 96.93821686468263 120.77559828337769 l -2.3006782538537833 15.61115371955129 a36.77977315689981,36.77977315689981 0 0,0 -0.625543615059941,-0.09769704771815974 l 2.5690577325222415 -15.569238364486024" fill="#ffc512" stroke="none" /><path d="M 96.58105272829116 120.7198165907248 l -1.8637786757637778 11.295041794612978 a32.44777882797732,32.44777882797732 0 0,0 -0.5503004668110268,-0.0956767899459217 l 2.0579281140468546 -11.261286426146048" fill="#ff8c0c" stroke="none" /><path d="M 96.22490169976321 120.6578951692458 l -1.006217127284288 5.506168655696898 a26.597353497164463,26.597353497164463 0 0,0 -0.44966294562753184,-0.08617897373634471 l 1.1008476874835147 -5.488032483612086" fill="#ff3b05" stroke="none" /><path d="M 95.51606077576429 120.51570834832081 l -0.9599359492338274 4.392067997064902 a25.495746691871457,25.495746691871457 0 0,0 -0.42793985643182225,-0.09739771807132455 l 1.0353959550585123 -4.37489354541589" fill="#ff2b04" stroke="none" /><path d="M 95.16358092515715 120.4354850818985 l -1.443383102912694 6.098775439139368 a27.267249527410208,27.267249527410208 0 0,0 -0.4558132562230761,-0.11202780849820544 l 1.5481496438789806 -6.073026372327133" fill="#ff4506" stroke="none" /><path d="M 94.81253420990036 120.34920634021253 l -3.280165041187768 12.867314784123044 a34.278827977315686,34.278827977315686 0 0,0 -0.5705132374901304,-0.1506777313352689 l 3.5011687214893876 -12.808945703484193" fill="#ffa40f" stroke="none" /><path d="M 94.46302465271185 120.25689768951611 l -3.438367488816932 12.579188829879095 a34.0406427221172,34.0406427221172 0 0,0 -0.5638894581290993,-0.15936079340683917 l 3.6543881150506454 -12.518139243133735" fill="#ffa10e" stroke="none" /><path d="M 93.42475214034765 119.94407469862007 l -6.679345592780119 20.25982446346117 a42.33246691871456,42.33246691871456 0 0,0 -0.6900802240814099,-0.23411267929397742 l 7.027095549798754 -20.141848797269073" fill="#f4ff19" stroke="none" /><path d="M 92.7421414339146 119.70592522655815 l -2.5982173269421973 7.054460472172872 a28.51772211720227,28.51772211720227 0 0,0 -0.45917576590043807,-0.17362098455509897 l 2.7192633136029185 -7.008691237511139" fill="#ff5608" stroke="none" /><path d="M 92.40401165467489 119.57807347666478 l -3.2846546956391682 8.465943871053058 a30.080812854442343,30.080812854442343 0 0,0 -0.481119573968397,-0.19144740765841786 l 3.4298953456494234 -8.408149618988574" fill="#ff6c09" stroke="none" /><path d="M 92.06813273071674 119.44442032107085 l -3.4523864626700753 8.463285026326204 a30.140359168241964,30.140359168241964 0 0,0 -0.47869857160028684,-0.2000960417525243 l 3.5975564937678244 -8.402603941553707" fill="#ff6d0a" stroke="none" /><path d="M 91.40352486487194 119.15986991738527 l -4.686216478435827 10.44466443747822 a32.44777882797732,32.44777882797732 0 0,0 -0.5076254195833753,-0.23302593267615496 l 4.8653098937866215 -10.36245143446799" fill="#ff8c0c" stroke="none" /><path d="M 91.07499286063937 119.00905698771935 l -4.9032706991997825 10.443302811069826 a32.53709829867675,32.53709829867675 0 0,0 -0.5049251502652204,-0.24239475637815916 l 5.082308517465245 -10.357353778192104" fill="#ff8d0d" stroke="none" /><path d="M 90.7491055286396 118.85261126421891 l -1.7115903523334557 3.4880894659459836 a24.88539697542533,24.88539697542533 0 0,0 -0.38293422801771176,-0.1920111715122519 l 1.7713784880339278 -3.4581104535244296" fill="#ff2303" stroke="none" /><path d="M 90.42595943632237 118.69057910512821 l -2.0835754629364596 4.067585859126437 a25.570179584120982,25.570179584120982 0 0,0 -0.3900171973726295,-0.20403856431424253 l 2.1532835628355844 -4.031117875867477" fill="#ff2c04" stroke="none" /><line stroke="#e1ed5e" stroke-width="0.3" x1="58.666819895761336" x2="56.23545636021788" y1="174.27360380694188" y2="178.64263932499728" /><path d="M 58.180547188652646 175.14741091055294 a86.0,86.0 0 0,1 -31.652253787137756,-30.449443065178592" fill="none" id="id8" stroke="none" /><text fill="#e1ed5e" style="font-size:6.75px; font-family:Arial;" text-anchor="middle"><textPath startOffset="22.20632615414155" xlink:href="#id8">August</textPath></text><path d="M 89.1626897886671 117.98757091392108 l -16.317424543150583 27.083365279656217 a52.619092627599244,52.619092627599244 0 0,0 -0.7717988099994798,-0.47410186619845895 l 16.781202553082373 -26.79847494662938" fill="#7eff26" stroke="none" /><path d="M 88.54995079064634 117.60387380957326 l -4.074615810322927 6.264516530533394 a28.47306238185255,28.47306238185255 0 0,0 -0.4085549571432181,-0.270767947773633 l 4.181845466206107 -6.193450561668443" fill="#ff5507" stroke="none" /><path d="M 88.24862548938628 117.40417183066458 l -2.8739774618348743 4.256455067282097 a26.13586956521739,26.13586956521739 0 0,0 -0.3706851816378159,-0.25496064801843393 l 2.9468195280955807 -4.206353629898563" fill="#ff3405" stroke="none" /><path d="M 87.36589467227662 116.77436683061367 l -7.397758270817228 9.82204182567596 a33.29631379962193,33.29631379962193 0 0,0 -0.4548455179132098,-0.34875614752796996 l 7.565732517223924 -9.693246336320623" fill="#ff970d" stroke="none" /><path d="M 87.07902340077011 116.55440617244103 l -7.492456657492942 9.599365015871998 a33.17722117202268,33.17722117202268 0 0,0 -0.44716970786666915,-0.35525866043518345 l 7.656583858076969 -9.468972441431683" fill="#ff960d" stroke="none" /><path d="M 86.51685102203217 116.09983520530335 l -13.75395891727012 16.42320146060835 a42.42178638941399,42.42178638941399 0 0,0 -0.5557951419524441,-0.4736606776899782 l 14.03461953579962 -16.18401639269542" fill="#f3ff19" stroke="none" /><path d="M 85.97065885151581 115.62618273729859 l -10.46233475061817 11.653174082919262 a36.66068052930056,36.66068052930056 0 0,0 -0.4659405785772396,-0.4256256711858168 l 10.661374878662265 -11.47135564514687" fill="#ffc312" stroke="none" /><path d="M 85.44109423537348 115.13401014063109 l -9.082115127271743 9.44087589113093 a34.10018903591683,34.10018903591683 0 0,0 -0.41951359340112054,-0.4105823470501185 l 9.243278673048659 -9.28314344115824" fill="#ffa20f" stroke="none" /><path d="M 85.18274418774928 114.88116024355367 l -9.264286124578312 9.304241494433597 a34.129962192816635,34.129962192816635 0 0,0 -0.4127439935888569,-0.41810748638964756 l 9.423070743222702 -9.143393514063286" fill="#ffa20f" stroke="none" /><path d="M 84.9287848128048 114.62390073753433 l -10.405976081518041 10.097126170859003 a35.49952741020794,35.49952741020794 0 0,0 -0.42175711990428594,-0.4422106540568984 l 10.578239752801284 -9.916508400219604" fill="#ffb410" stroke="none" /><path d="M 84.67929136418377 114.36230785411682 l -20.722054875097385 19.425767995502056 a49.40359168241966,49.40359168241966 0 0,0 -0.5762660590724297,-0.6254229931941914 l 21.05336734216554 -19.06619374750652" fill="#a2ff22" stroke="none" /><path d="M 84.19399662182784 113.82643327865904 l -11.507158886613526 10.065983206887637 a36.28851606805293,36.28851606805293 0 0,0 -0.40722193466656303,-0.47369110912848034 l 11.678723330850868 -9.866414998597625" fill="#ffbe11" stroke="none" /><path d="M 83.95833913139862 113.55231037782056 l -1.3759742191168005 1.1624500631259123 a22.801275992438562,22.801275992438562 0 0,0 -0.25070980162788287,-0.30199610670185906 l 1.3957800206382198 -1.1385926993102922" fill="#ff0400" stroke="none" /><path d="M 83.72743513129214 113.27417163493432 l -8.836095006684934 7.2079504766254905 a32.4031190926276,32.4031190926276 0 0,0 -0.34884594382839273,-0.4352389524418631 l 8.958858862568189 -7.054783690605368" fill="#ff8b0c" stroke="none" /><path d="M 83.50135304334701 112.99209946851258 l -5.333211020014485 4.199714572997452 a27.7882797731569,27.7882797731569 0 0,0 -0.2926941927171117,-0.37834669966110235 l 5.404712029949664 -4.107289879223098" fill="#ff4c07" stroke="none" /><path d="M 83.28015986056508 112.70617746262583 l -1.6000792193929914 1.2159739774015739 a23.00968809073724,23.00968809073724 0 0,0 -0.2369326574515337,-0.31741001363784 l 1.62077314353961 -1.1882510842544258" fill="#ff0701" stroke="none" /><path d="M 83.06392112726016 112.41649034213515 l -18.692916922156847 13.704495838401053 a44.17840264650283,44.17840264650283 0 0,0 -0.44435101807182575,-0.6171647000634491 l 18.926047732604278 -13.380697532886465" fill="#deff1b" stroke="none" /><path d="M 82.6465618267979 111.8261652097733 l -23.373014552753297 15.928436128475374 a49.284499054820415,49.284499054820415 0 0,0 -0.47171577435269985,-0.7051510794205545 l 23.643733432516726 -15.523748134848999" fill="#a3ff22" stroke="none" /><path d="M 82.44556493220864 111.52570212397912 l -3.2354582591865 2.1243023763477584 a24.870510396975426,24.870510396975426 0 0,0 -0.23188214195516238,-0.3598862337414228 l 3.2715452645187084 -2.068294542684887" fill="#ff2203" stroke="none" /><path d="M 82.24976979558568 111.22182372390057 l -19.855763182348156 12.552956878295198 a44.49102079395085,44.49102079395085 0 0,0 -0.4036720323102806,-0.6508478480574295 l 20.068899854326393 -12.209312698872505" fill="#daff1c" stroke="none" /><path d="M 82.05923443525364 110.91462005526583 l -9.76737331313224 5.942175001732627 a32.43289224952741,32.43289224952741 0 0,0 -0.2860567571919557,-0.4794475790076507 l 9.868210946022426 -5.773165328838865" fill="#ff8c0c" stroke="none" /><line stroke="#e1ed5e" stroke-width="0.3" x1="26.63291911575756" x2="22.317208475507996" y1="142.92168965132927" y2="145.44649492493687" /><path d="M 25.769776987707644 143.4266507060508 a86.0,86.0 0 0,1 -11.730757126820373,-40.83630448921669" fill="none" id="id9" stroke="none" /><text fill="#e1ed5e" style="font-size:6.75px; font-family:Arial;" text-anchor="middle"><textPath startOffset="21.46611528233685" xlink:href="#id9">September</textPath></text><path d="M 81.87401531095188 110.60418214915194 l -2.9681728236083065 1.736459884064814 a24.438799621928165,24.438799621928165 0 0,0 -0.20929853944932472,-0.36492964535629446 l 2.9976233592100083 -1.6851103928502125" fill="#ff1c02" stroke="none" /><path d="M 81.69416730710424 110.29060199501025 l -13.885095213656752 7.805489698483671 a36.928638941398866,36.928638941398866 0 0,0 -0.30672503801082557,-0.5567950382994813 l 14.017396661119095 -7.565324141786367" fill="#ffc712" stroke="none" /><path d="M 81.51974371655577 109.97397251340807 l -9.261962092907664 4.998770250694356 a31.524810964083176,31.524810964083176 0 0,0 -0.25362084481268876,-0.479755058874726 l 9.346635445945239 -4.838600176733505" fill="#ff7f0b" stroke="none" /><path d="M 81.35079622478065 109.6543875284942 l -9.227654230933204 4.77700554930691 a31.390831758034025,31.390831758034025 0 0,0 -0.2442824515434964,-0.48199245197750823 l 9.308515352262967 -4.617458885626717" fill="#ff7e0b" stroke="none" /><path d="M 81.18737489456691 109.33194174019688 l -10.61544157650619 5.265755405385194 a32.84971644612476,32.84971644612476 0 0,0 -0.24691527438812863,-0.508718599128028 l 10.704510107509037 -5.082247850291882" fill="#ff910d" stroke="none" /><path d="M 81.02952815118164 109.00673069616217 l -20.158367652206095 9.570715486919012 a43.31498109640832,43.31498109640832 0 0,0 -0.31398283780840097,-0.6762910994147254 l 20.320125106854324 -9.22230432022546" fill="#e8ff1a" stroke="none" /><path d="M 80.73074385275274 108.34839909993369 l -13.441125743542989 5.82336345534127 a35.648393194707,35.648393194707 0 0,0 -0.2390972001688255,-0.5651551530279573 l 13.53937392490412 -5.591133776647154" fill="#ffb610" stroke="none" /><path d="M 80.58989483394504 108.01547362559985 l -28.427181431760072 11.739108112350628 a51.75567107750473,51.75567107750473 0 0,0 -0.3329550409488293,-0.8263671061908177 l 28.625039086966286 -11.248041638317005" fill="#88ff25" stroke="none" /><path d="M 80.32549172779594 107.34259656027581 l -21.687519161113403 8.093859393593256 a44.148629489603024,44.148629489603024 0 0,0 -0.25958498342072744,-0.7142663870596824 l 21.823628405539356 -7.719345209527456" fill="#deff1b" stroke="none" /><path d="M 80.20201598880116 107.00284435728193 l -4.771725825005391 1.6878311069063252 a26.061436672967865,26.061436672967865 0 0,0 -0.14595542435873446,-0.42421478340619395 l 4.800072080307354 -1.6054436204108344" fill="#ff3304" stroke="none" /><path d="M 80.0844068197444 106.66101706037122 l -21.106199294292622 7.059230036806461 a43.255434782608695,43.255434782608695 0 0,0 -0.23009367861326907,-0.708155526676155 l 21.22458522392214 -6.694875610152502" fill="#e9ff1a" stroke="none" /><path d="M 79.97269907076064 106.31721596034903 l -10.250267914161729 3.233244274602078 a31.748109640831757,31.748109640831757 0 0,0 -0.15990952493047683,-0.522593579775992 l 10.304404211598337 -3.0563237222740383" fill="#ff820c" stroke="none" /><path d="M 79.76711848015287 105.62410040840567 l -21.614569317398118 6.00816586635209 a43.43407372400756,43.43407372400756 0 0,0 -0.1940301908743961,-0.7220585212463393 l 21.71478758461429 -5.6352164119302115" fill="#e7ff1a" stroke="none" /><path d="M 79.67330655649465 105.27499134158121 l -15.345885054820318 3.9824190303289155 a36.85420604914934,36.85420604914934 0 0,0 -0.1540658243692345,-0.6154163839309005 l 15.412162193484612 -3.7176748070006234" fill="#ffc612" stroke="none" /><path d="M 79.58551787078972 104.9243191809786 l -5.976735198036755 1.4416898547335748 a27.148156899810964,27.148156899810964 0 0,0 -0.10567023719138297,-0.4552246161734287 l 6.0006660011586925 -1.3385965812115719" fill="#ff4306" stroke="none" /><path d="M 79.4281124754447 104.21870165774334 l -17.64554624625135 3.61859334064469 a39.012759924385634,39.012759924385634 0 0,0 -0.12924382489255917,-0.6590114786842484 l 17.705220004119575 -3.3143181348924866" fill="#ffe115" stroke="none" /><path d="M 79.35854240842038 103.8639653848113 l -10.94504509345574 2.0488512106608106 a32.1351606805293,32.1351606805293 0 0,0 -0.0970995367229239,-0.5445857680178895 l 10.978691072517853 -1.8601466919097072" fill="#ff880c" stroke="none" /><path d="M 79.18660465613746 102.79330883721812 l -31.249601610326703 4.19392352355481 a52.52977315689981,52.52977315689981 0 0,0 -0.11256002436504389,-0.8972141429852297 l 31.317163143938593 -3.6553916262821717" fill="#7fff26" stroke="none" /><path d="M 79.10278846688536 102.07522291339032 l -14.176723608594555 1.407836716527314 a35.24645557655955,35.24645557655955 0 0,0 -0.05475856395178022,-0.6042561902503626 l 14.19885676882341 -1.1635991377283852" fill="#ffb110" stroke="none" /><path d="M 79.04373962182676 101.35467743843564 l -20.02531119313151 1.2944980059153433 a41.06710775047259,41.06710775047259 0 0,0 -0.03952933838723729,-0.7058228912117009 l 20.04462688240628 -0.9496033983682046" fill="#fffb17" stroke="none" /><line stroke="#e1ed5e" stroke-width="0.3" x1="15.007084014347285" x2="10.007500721073583" y1="101.09737516637583" y2="101.16192664675087" /><path d="M 14.007167355692545 101.11028546245083 a86.0,86.0 0 0,1 10.666146001902534,-42.60595125391555" fill="none" id="id10" stroke="none" /><text fill="#e1ed5e" style="font-size:6.75px; font-family:Arial;" text-anchor="middle"><textPath startOffset="22.20632615414155" xlink:href="#id10">October</textPath></text><path d="M 79.00175016825051 100.2711162175752 l -29.27945941804201 0.3780379961983178 a50.281899810964084,50.281899810964084 0 0,0 -0.003724937515469274,-0.8655442952179011 l 29.28162865284698 0.12601577722325866" fill="#98ff23" stroke="none" /><path d="M 79.00019446554 99.90962569577889 l -13.606206704983293 -0.05855537385971449 a34.60633270321361,34.60633270321361 0 0,0 0.007690833733707879,-0.5956635482718026 l 13.60318286413187 0.292755180191989" fill="#ffa90f" stroke="none" /><path d="M 79.01574976396665 99.18683210126434 l -14.101892171852278 -0.5464672741030716 a35.11247637051039,35.11247637051039 0 0,0 0.02860227508028413,-0.6037488207787305 l 14.090396288538495 0.7891272015048111" fill="#ffaf10" stroke="none" /><path d="M 79.05617556472873 98.46500227214037 l -9.680085206850332 -0.7094649233680158 a30.706049149338376,30.706049149338376 0 0,0 0.043171997666576575,-0.5268077221924072 l 9.666438725364259 0.8759865627682014" fill="#ff740a" stroke="none" /><path d="M 79.12142395522702 97.74499172005258 l -27.010917732781696 -2.917337035139922 a48.16800567107751,48.16800567107751 0 0,0 0.09612876734266598,-0.8235725737430452 l 26.956698612435442 3.3818533472078287" fill="#afff20" stroke="none" /><path d="M 79.16333360222342 97.38593545837743 l -14.977584872881936 -1.8790133118184866 a36.09499054820416,36.09499054820416 0 0,0 0.08264721712034889,-0.6158177646081445 l 14.943021656703754 2.1365494184912905" fill="#ffbc11" stroke="none" /><path d="M 79.26566170972629 96.67025291283419 l -14.051531714675095 -2.2565488293930867 a35.23156899810964,35.23156899810964 0 0,0 0.10131280321512677,-0.5979538995646553 l 14.010607049939745 2.4980885172735703" fill="#ffb110" stroke="none" /><path d="M 79.32604984820605 96.31383870115002 l -10.874341455078758 -1.9388929705198634 a32.04584120982987,32.04584120982987 0 0,0 0.10150028237006466,-0.5422185670478983 l 10.839355448798832 2.1257896150303344" fill="#ff860c" stroke="none" /><path d="M 79.3925641242962 95.95851677861259 l -17.85133741028595 -3.5009634899825723 a39.1913988657845,39.1913988657845 0 0,0 0.13552890379569302,-0.6608870670183004 l 17.788429210575263 3.8077262131642753" fill="#ffe315" stroke="none" /><path d="M 79.46518482838121 95.60439243477599 l -25.69278032460338 -5.4997027546930815 a47.27481096408317,47.27481096408317 0 0,0 0.17718061791861717,-0.7942659685013087 l 25.594305319682725 5.941146892744349" fill="#baff1f" stroke="none" /><path d="M 79.62865764111835 94.90015583598534 l -12.000415052148378 -3.0042323962401998 a33.37074669187145,33.37074669187145 0 0,0 0.1442945813261302,-0.5560258833137738 l 11.94692413895194 3.210354705102837" fill="#ff980e" stroke="none" /><path d="M 79.81627453868168 94.20196356495316 l -24.223332140367607 -6.958465749906173 a46.20297731568998,46.20297731568998 0 0,0 0.2261616001873574,-0.7625044848778292 l 24.099964643068542 7.374399621530541" fill="#c6ff1e" stroke="none" /><path d="M 79.91906864156998 93.8553929516997 l -24.882893205011115 -7.61396960332864 a47.02173913043478,47.02173913043478 0 0,0 0.24349315591032616,-0.7719398447408545 l 24.748144565332584 8.041159614495909" fill="#bdff1f" stroke="none" /><path d="M 80.02781315780177 93.51064311812611 l -1.9113269544164169 -0.6210277734307478 a23.00968809073724,23.00968809073724 0 0,0 0.12563586218815959,-0.3756352367082212 l 1.9003537984564849 0.6538361130612911" fill="#ff0701" stroke="none" /><path d="M 80.14247586403 93.16781622104843 l -59.572572407909995 -20.496551336854708 a84.0,84.0 0 0,0 0.4821876767607618,-1.3632094942935558 l 59.210931650339425 21.518958457574875" fill="#4dd2ff" stroke="none" /><path d="M 80.2630227832202 92.82701384747504 l -2.546405850747112 -0.9254372493569537 a23.7093572778828,23.7093572778828 0 0,0 0.142702569976187,-0.38237194028209043 l 2.530098692269297 0.9691323266683856" fill="#ff1101" stroke="none" /><path d="M 80.38941819471856 92.48833698450439 l -16.08419882942624 -6.160912648106162 a38.22377126654064,38.22377126654064 0 0,0 0.24063948139445493,-0.6124012323459201 l 15.975765798150093 6.436862885347846" fill="#ffd714" stroke="none" /><path d="M 80.65960295795068 91.81776055985345 l -30.038853912426802 -12.708378979225715 a53.61649338374291,53.61649338374291 0 0,0 0.36691372404296657,-0.8468874628406888 l 29.815649478541157 13.223565586653004" fill="#74ff27" stroke="none" /><path d="M 80.803312248108 91.48605970444005 l -8.545973469887654 -3.7902324000082555 a30.348771266540645,30.348771266540645 0 0,0 0.21590648143954191,-0.47572131236339654 l 8.47946467148476 3.936775721213723" fill="#ff6f0a" stroke="none" /><path d="M 81.10775173730289 90.83032412892265 l -22.834085506544362 -11.082914007693905 a46.38161625708885,46.38161625708885 0 0,0 0.35479724927326345,-0.7152496045132815 l 22.639928244317684 11.474323200706147" fill="#c4ff1e" stroke="none" /><path d="M 81.26839172434947 90.50648371742162 l -13.451171443691386 -6.817295837135089 a36.080103969754255,36.080103969754255 0 0,0 0.2855320443035943,-0.5515570265702033 l 13.331829966227678 7.047825585965628" fill="#ffbc11" stroke="none" /><path d="M 81.6062741919709 89.86733742301443 l -10.509458649294514 -5.789408816434571 a32.99858223062382,32.99858223062382 0 0,0 0.278354604301828,-0.49516178141155065 l 10.408246403700256 5.969454107780907" fill="#ff930d" stroke="none" /><line stroke="#e1ed5e" stroke-width="0.3" x1="26.266209847984243" x2="21.928928074336255" y1="57.711370442889674" y2="55.22380399835377" /><path d="M 25.398753493254645 57.213857153982495 a86.0,86.0 0 0,1 29.58750427330803,-30.492523968695096" fill="none" id="id11" stroke="none" /><text fill="#e1ed5e" style="font-size:6.75px; font-family:Arial;" text-anchor="middle"><textPath startOffset="21.46611528233685" xlink:href="#id11">November</textPath></text><path d="M 81.78341655067845 89.55222093294921 l -23.631626450088667 -13.553475207492628 a48.24243856332703,48.24243856332703 0 0,0 0.41934240189024113,-0.71679209666717 l 23.394824373728103 13.95824671651369" fill="#afff20" stroke="none" /><path d="M 81.96595687620814 89.24020034530311 l -14.586609076734295 -8.702928690460174 a37.98558601134215,37.98558601134215 0 0,0 0.33985197639863163,-0.5586272911389047 l 14.434641302049446 8.952723754806152" fill="#ffd413" stroke="none" /><path d="M 82.34701348167596 88.62581576622439 l -15.679956597915895 -10.102920258686787 a39.652882797731564,39.652882797731564 0 0,0 0.3746316840394279,-0.5705897567945328 l 15.503728278518548 10.371328079458987" fill="#ffe915" stroke="none" /><path d="M 82.7489923806493 88.02491185347247 l -24.042165155701902 -16.689288725949744 a50.267013232514174,50.267013232514174 0 0,0 0.4995281572274842,-0.7065471530337916 l 23.75132437867054 17.10066237931532" fill="#98ff23" stroke="none" /><path d="M 82.95767976084542 87.72973835380427 l -10.148073488343469 -7.306488503878369 a33.50472589792061,33.50472589792061 0 0,0 0.3410101229461124,-0.4651374244636171 l 10.020800752883723 7.480088372013487" fill="#ff9a0e" stroke="none" /><path d="M 83.39014120810768 87.1503855733568 l -13.670164974518189 -10.57542699621888 a38.28331758034027,38.28331758034027 0 0,0 0.40770989324610435,-0.5177501608346496 l 13.486101000678113 10.809169551006576" fill="#ffd814" stroke="none" /><path d="M 83.84228863543731 86.58626213691792 l -21.24708500562178 -17.638811722129436 a48.61460302457467,48.61460302457467 0 0,0 0.540060519770001,-0.6392613115509337 l 20.940313872364655 18.001931983309483" fill="#aaff21" stroke="none" /><path d="M 84.07557802195018 86.31012108654704 l -8.771225810688591 -7.540431887348501 a32.56687145557656,32.56687145557656 0 0,0 0.3691038278210333,-0.42194948124765697 l 8.640130119289715 7.690296924799101" fill="#ff8d0d" stroke="none" /><path d="M 84.5562425177563 85.77008943001954 l -14.834327543790323 -13.668380545125373 a41.17131379962193,41.17131379962193 0 0,0 0.48470924612739297,-0.5170540283938606 l 14.596850975692474 13.921703990397283" fill="#fffc17" stroke="none" /><path d="M 85.05521093208273 85.24692304244772 l -7.267574645976784 -7.174346025199104 a31.21219281663516,31.21219281663516 0 0,0 0.3807355427569943,-0.37910054333903875 l 7.143003303052477 7.298382419188252" fill="#ff7b0b" stroke="none" /><path d="M 85.57189188830299 84.74124197986013 l -7.36406274131984 -7.788023942226398 a31.71833648393195,31.71833648393195 0 0,0 0.39994121143272204,-0.3717017688588973 l 7.228913646092262 7.913630297159943" fill="#ff820c" stroke="none" /><path d="M 85.83668400450813 84.49514656593479 l -21.38553620302294 -23.41115629576483 a52.70841209829868,52.70841209829868 0 0,0 0.6751420817002817,-0.6061492270445938 l 20.979383133726685 23.775804531578704" fill="#7dff26" stroke="none" /><path d="M 86.37877921826538 84.01681056812374 l -11.635329188556387 -13.652937097408474 a38.9383270321361,38.9383270321361 0 0,0 0.5138792314465644,-0.43035907796095324 l 11.398592420150713 13.85119733276324" fill="#ffe015" stroke="none" /><path d="M 86.65592168130627 83.78471172551755 l -9.279683953666268 -11.276368948913479 a35.60373345935728,35.60373345935728 0 0,0 0.4765756416114625,-0.38535769190213526 l 9.084204913490305 11.43443273807975" fill="#ffb610" stroke="none" /><path d="M 86.93701828274178 83.55741782278169 l -9.343489049655167 -11.760797790746654 a36.02055765595463,36.02055765595463 0 0,0 0.4887945846166657,-0.3815119264245353 l 9.139661909879075 11.91988810639441" fill="#ffbb11" stroke="none" /><path d="M 87.51073957382395 83.11751280151077 l -12.93488384875463 -17.484863277641377 a42.749291115311905,42.749291115311905 0 0,0 0.5953443052013635,-0.43254295653459507 l 12.631994227199485 17.70492546899264" fill="#efff19" stroke="none" /><path d="M 88.09926311788651 82.69761687909137 l -8.68933765730876 -12.6333562957485 a36.333175803402646,36.333175803402646 0 0,0 0.5183451860953019,-0.3499889834946058 l 8.47058777680692 12.781057191541771" fill="#ffbf11" stroke="none" /><path d="M 88.39885842347998 82.49532879139004 l -7.385036721915158 -11.14309646408205 a34.36814744801512,34.36814744801512 0 0,0 0.49593723521219923,-0.32257137317369106 l 7.192132460918672 11.268566761415276" fill="#ffa50f" stroke="none" /><path d="M 88.70189139769569 82.29822771554957 l -6.6795528645948465 -10.465461780646258 a33.41540642722117,33.41540642722117 0 0,0 0.4875162164284784,-0.3052826100026909 l 6.498417495794126 10.578888731971878" fill="#ff990e" stroke="none" /><line stroke="#e1ed5e" stroke-width="0.3" x1="56.762969772571076" x2="54.21961505331055" y1="26.818313649435495" y2="22.513508569990535" /><path d="M 56.25429882871897 25.957352633546506 a86.0,86.0 0 0,1 42.265352541879196,-11.944610805530505" fill="none" id="id12" stroke="none" /><text fill="#e1ed5e" style="font-size:6.75px; font-family:Arial;" text-anchor="middle"><textPath startOffset="22.20632615414155" xlink:href="#id12">December</textPath></text></svg>